<svg xmlns="http://www.w3.org/2000/svg" xmlns:xlink="http://www.w3.org/1999/xlink" width="740" height="740" viewBox="0 0 740 740">
  <rect width="740" height="740" fill="white"/>
  <path d="M228.00,40.00 L232.00,40.00 Q240.00,40.00 240.00,48.00 L240.00,52.00 Q240.00,60.00 232.00,60.00 L228.00,60.00 Q220.00,60.00 220.00,52.00 L220.00,48.00 Q220.00,40.00 228.00,40.00 Z" fill="#111111"/>
  <path d="M268.00,40.00 L280.00,40.00 L280.00,60.00 L260.00,60.00 L260.00,48.00 Q260.00,40.00 268.00,40.00 Z" fill="#111111"/>
  <path d="M280.00,40.00 L300.00,40.00 L300.00,60.00 L280.00,60.00 L280.00,40.00 Z" fill="#111111"/>
  <path d="M300.00,40.00 L320.00,40.00 L320.00,60.00 L300.00,60.00 L300.00,40.00 Z" fill="#111111"/>
  <path d="M320.00,40.00 L332.00,40.00 Q340.00,40.00 340.00,48.00 L340.00,52.00 Q340.00,60.00 332.00,60.00 L320.00,60.00 L320.00,40.00 Z" fill="#111111"/>
  <path d="M368.00,40.00 L380.00,40.00 L380.00,60.00 L368.00,60.00 Q360.00,60.00 360.00,52.00 L360.00,48.00 Q360.00,40.00 368.00,40.00 Z" fill="#111111"/>
  <path d="M380.00,40.00 L400.00,40.00 L400.00,60.00 L380.00,60.00 L380.00,40.00 Z" fill="#111111"/>
  <path d="M400.00,40.00 L420.00,40.00 L420.00,60.00 L400.00,60.00 L400.00,40.00 Z" fill="#111111"/>
  <path d="M420.00,40.00 L440.00,40.00 L440.00,60.00 L420.00,60.00 L420.00,40.00 Z" fill="#111111"/>
  <path d="M440.00,40.00 L460.00,40.00 L460.00,60.00 L440.00,60.00 L440.00,40.00 Z" fill="#111111"/>
  <path d="M460.00,40.00 L480.00,40.00 L480.00,60.00 L460.00,60.00 L460.00,40.00 Z" fill="#111111"/>
  <path d="M480.00,40.00 L492.00,40.00 Q500.00,40.00 500.00,48.00 L500.00,52.00 Q500.00,60.00 492.00,60.00 L480.00,60.00 L480.00,40.00 Z" fill="#111111"/>
  <path d="M528.00,40.00 L532.00,40.00 Q540.00,40.00 540.00,48.00 L540.00,52.00 Q540.00,60.00 532.00,60.00 L528.00,60.00 Q520.00,60.00 520.00,52.00 L520.00,48.00 Q520.00,40.00 528.00,40.00 Z" fill="#111111"/>
  <path d="M208.00,60.00 L212.00,60.00 Q220.00,60.00 220.00,68.00 L220.00,80.00 L200.00,80.00 L200.00,68.00 Q200.00,60.00 208.00,60.00 Z" fill="#111111"/>
  <path d="M248.00,60.00 L260.00,60.00 L260.00,80.00 L240.00,80.00 L240.00,68.00 Q240.00,60.00 248.00,60.00 Z" fill="#111111"/>
  <path d="M260.00,60.00 L280.00,60.00 L280.00,72.00 Q280.00,80.00 272.00,80.00 L260.00,80.00 L260.00,60.00 Z" fill="#111111"/>
  <path d="M300.00,60.00 L320.00,60.00 L320.00,80.00 L300.00,80.00 L300.00,60.00 Z" fill="#111111"/>
  <path d="M380.00,60.00 L400.00,60.00 L400.00,72.00 Q400.00,80.00 392.00,80.00 L388.00,80.00 Q380.00,80.00 380.00,72.00 L380.00,60.00 Z" fill="#111111"/>
  <path d="M420.00,60.00 L440.00,60.00 L440.00,80.00 L420.00,80.00 L420.00,60.00 Z" fill="#111111"/>
  <path d="M460.00,60.00 L480.00,60.00 L480.00,80.00 L460.00,80.00 L460.00,60.00 Z" fill="#111111"/>
  <path d="M200.00,80.00 L220.00,80.00 L220.00,100.00 L200.00,100.00 L200.00,80.00 Z" fill="#111111"/>
  <path d="M240.00,80.00 L260.00,80.00 L260.00,92.00 Q260.00,100.00 252.00,100.00 L248.00,100.00 Q240.00,100.00 240.00,92.00 L240.00,80.00 Z" fill="#111111"/>
  <path d="M300.00,80.00 L320.00,80.00 L320.00,100.00 L308.00,100.00 Q300.00,100.00 300.00,92.00 L300.00,80.00 Z" fill="#111111"/>
  <path d="M320.00,80.00 L340.00,80.00 L340.00,100.00 L320.00,100.00 L320.00,80.00 Z" fill="#111111"/>
  <path d="M340.00,80.00 L360.00,80.00 L360.00,100.00 L340.00,100.00 L340.00,80.00 Z" fill="#111111"/>
  <path d="M360.00,80.00 L372.00,80.00 Q380.00,80.00 380.00,88.00 L380.00,92.00 Q380.00,100.00 372.00,100.00 L360.00,100.00 L360.00,80.00 Z" fill="#111111"/>
  <path d="M420.00,80.00 L440.00,80.00 L440.00,100.00 L420.00,100.00 L420.00,80.00 Z" fill="#111111"/>
  <path d="M460.00,80.00 L480.00,80.00 L480.00,100.00 L460.00,100.00 L460.00,80.00 Z" fill="#111111"/>
  <path d="M480.00,80.00 L492.00,80.00 Q500.00,80.00 500.00,88.00 L500.00,100.00 L480.00,100.00 L480.00,80.00 Z" fill="#111111"/>
  <path d="M528.00,80.00 L532.00,80.00 Q540.00,80.00 540.00,88.00 L540.00,92.00 Q540.00,100.00 532.00,100.00 L528.00,100.00 Q520.00,100.00 520.00,92.00 L520.00,88.00 Q520.00,80.00 528.00,80.00 Z" fill="#111111"/>
  <path d="M200.00,100.00 L220.00,100.00 L220.00,120.00 L200.00,120.00 L200.00,100.00 Z" fill="#111111"/>
  <path d="M220.00,100.00 L232.00,100.00 Q240.00,100.00 240.00,108.00 L240.00,120.00 L220.00,120.00 L220.00,100.00 Z" fill="#111111"/>
  <path d="M320.00,100.00 L340.00,100.00 L340.00,120.00 L328.00,120.00 Q320.00,120.00 320.00,112.00 L320.00,100.00 Z" fill="#111111"/>
  <path d="M340.00,100.00 L360.00,100.00 L360.00,120.00 L340.00,120.00 L340.00,100.00 Z" fill="#111111"/>
  <path d="M388.00,100.00 L400.00,100.00 L400.00,120.00 L380.00,120.00 L380.00,108.00 Q380.00,100.00 388.00,100.00 Z" fill="#111111"/>
  <path d="M400.00,100.00 L420.00,100.00 L420.00,120.00 L400.00,120.00 L400.00,100.00 Z" fill="#111111"/>
  <path d="M420.00,100.00 L440.00,100.00 L440.00,112.00 Q440.00,120.00 432.00,120.00 L420.00,120.00 L420.00,100.00 Z" fill="#111111"/>
  <path d="M460.00,100.00 L480.00,100.00 L480.00,120.00 L468.00,120.00 Q460.00,120.00 460.00,112.00 L460.00,100.00 Z" fill="#111111"/>
  <path d="M480.00,100.00 L500.00,100.00 L500.00,120.00 L480.00,120.00 L480.00,100.00 Z" fill="#111111"/>
  <path d="M500.00,100.00 L512.00,100.00 Q520.00,100.00 520.00,108.00 L520.00,120.00 L500.00,120.00 L500.00,100.00 Z" fill="#111111"/>
  <path d="M200.00,120.00 L220.00,120.00 L220.00,140.00 L200.00,140.00 L200.00,120.00 Z" fill="#111111"/>
  <path d="M220.00,120.00 L240.00,120.00 L240.00,140.00 L220.00,140.00 L220.00,120.00 Z" fill="#111111"/>
  <path d="M268.00,120.00 L272.00,120.00 Q280.00,120.00 280.00,128.00 L280.00,132.00 Q280.00,140.00 272.00,140.00 L268.00,140.00 Q260.00,140.00 260.00,132.00 L260.00,128.00 Q260.00,120.00 268.00,120.00 Z" fill="#111111"/>
  <path d="M308.00,120.00 L312.00,120.00 Q320.00,120.00 320.00,128.00 L320.00,132.00 Q320.00,140.00 312.00,140.00 L308.00,140.00 Q300.00,140.00 300.00,132.00 L300.00,128.00 Q300.00,120.00 308.00,120.00 Z" fill="#111111"/>
  <path d="M340.00,120.00 L360.00,120.00 L360.00,140.00 L340.00,140.00 L340.00,120.00 Z" fill="#111111"/>
  <path d="M360.00,120.00 L380.00,120.00 L380.00,140.00 L360.00,140.00 L360.00,120.00 Z" fill="#111111"/>
  <path d="M380.00,120.00 L400.00,120.00 L400.00,140.00 L380.00,140.00 L380.00,120.00 Z" fill="#111111"/>
  <path d="M400.00,120.00 L420.00,120.00 L420.00,132.00 Q420.00,140.00 412.00,140.00 L400.00,140.00 L400.00,120.00 Z" fill="#111111"/>
  <path d="M480.00,120.00 L500.00,120.00 L500.00,140.00 L480.00,140.00 L480.00,120.00 Z" fill="#111111"/>
  <path d="M500.00,120.00 L520.00,120.00 L520.00,140.00 L500.00,140.00 L500.00,120.00 Z" fill="#111111"/>
  <path d="M200.00,140.00 L220.00,140.00 L220.00,160.00 L200.00,160.00 L200.00,140.00 Z" fill="#111111"/>
  <path d="M220.00,140.00 L240.00,140.00 L240.00,160.00 L220.00,160.00 L220.00,140.00 Z" fill="#111111"/>
  <path d="M240.00,140.00 L252.00,140.00 Q260.00,140.00 260.00,148.00 L260.00,160.00 L240.00,160.00 L240.00,140.00 Z" fill="#111111"/>
  <path d="M288.00,140.00 L292.00,140.00 Q300.00,140.00 300.00,148.00 L300.00,160.00 L280.00,160.00 L280.00,148.00 Q280.00,140.00 288.00,140.00 Z" fill="#111111"/>
  <path d="M328.00,140.00 L340.00,140.00 L340.00,160.00 L320.00,160.00 L320.00,148.00 Q320.00,140.00 328.00,140.00 Z" fill="#111111"/>
  <path d="M340.00,140.00 L360.00,140.00 L360.00,152.00 Q360.00,160.00 352.00,160.00 L340.00,160.00 L340.00,140.00 Z" fill="#111111"/>
  <path d="M380.00,140.00 L400.00,140.00 L400.00,152.00 Q400.00,160.00 392.00,160.00 L388.00,160.00 Q380.00,160.00 380.00,152.00 L380.00,140.00 Z" fill="#111111"/>
  <path d="M428.00,140.00 L440.00,140.00 L440.00,160.00 L428.00,160.00 Q420.00,160.00 420.00,152.00 L420.00,148.00 Q420.00,140.00 428.00,140.00 Z" fill="#111111"/>
  <path d="M440.00,140.00 L452.00,140.00 Q460.00,140.00 460.00,148.00 L460.00,160.00 L440.00,160.00 L440.00,140.00 Z" fill="#111111"/>
  <path d="M480.00,140.00 L500.00,140.00 L500.00,160.00 L480.00,160.00 L480.00,140.00 Z" fill="#111111"/>
  <path d="M500.00,140.00 L520.00,140.00 L520.00,152.00 Q520.00,160.00 512.00,160.00 L500.00,160.00 L500.00,140.00 Z" fill="#111111"/>
  <path d="M200.00,160.00 L220.00,160.00 L220.00,172.00 Q220.00,180.00 212.00,180.00 L208.00,180.00 Q200.00,180.00 200.00,172.00 L200.00,160.00 Z" fill="#111111"/>
  <path d="M240.00,160.00 L260.00,160.00 L260.00,172.00 Q260.00,180.00 252.00,180.00 L248.00,180.00 Q240.00,180.00 240.00,172.00 L240.00,160.00 Z" fill="#111111"/>
  <path d="M280.00,160.00 L300.00,160.00 L300.00,172.00 Q300.00,180.00 292.00,180.00 L288.00,180.00 Q280.00,180.00 280.00,172.00 L280.00,160.00 Z" fill="#111111"/>
  <path d="M320.00,160.00 L340.00,160.00 L340.00,172.00 Q340.00,180.00 332.00,180.00 L328.00,180.00 Q320.00,180.00 320.00,172.00 L320.00,160.00 Z" fill="#111111"/>
  <path d="M368.00,160.00 L372.00,160.00 Q380.00,160.00 380.00,168.00 L380.00,172.00 Q380.00,180.00 372.00,180.00 L368.00,180.00 Q360.00,180.00 360.00,172.00 L360.00,168.00 Q360.00,160.00 368.00,160.00 Z" fill="#111111"/>
  <path d="M408.00,160.00 L412.00,160.00 Q420.00,160.00 420.00,168.00 L420.00,180.00 L400.00,180.00 L400.00,168.00 Q400.00,160.00 408.00,160.00 Z" fill="#111111"/>
  <path d="M440.00,160.00 L460.00,160.00 L460.00,172.00 Q460.00,180.00 452.00,180.00 L448.00,180.00 Q440.00,180.00 440.00,172.00 L440.00,160.00 Z" fill="#111111"/>
  <path d="M480.00,160.00 L500.00,160.00 L500.00,172.00 Q500.00,180.00 492.00,180.00 L488.00,180.00 Q480.00,180.00 480.00,172.00 L480.00,160.00 Z" fill="#111111"/>
  <path d="M528.00,160.00 L532.00,160.00 Q540.00,160.00 540.00,168.00 L540.00,180.00 L520.00,180.00 L520.00,168.00 Q520.00,160.00 528.00,160.00 Z" fill="#111111"/>
  <path d="M228.00,180.00 L232.00,180.00 Q240.00,180.00 240.00,188.00 L240.00,192.00 Q240.00,200.00 232.00,200.00 L228.00,200.00 Q220.00,200.00 220.00,192.00 L220.00,188.00 Q220.00,180.00 228.00,180.00 Z" fill="#111111"/>
  <path d="M268.00,180.00 L272.00,180.00 Q280.00,180.00 280.00,188.00 L280.00,192.00 Q280.00,200.00 272.00,200.00 L268.00,200.00 Q260.00,200.00 260.00,192.00 L260.00,188.00 Q260.00,180.00 268.00,180.00 Z" fill="#111111"/>
  <path d="M308.00,180.00 L312.00,180.00 Q320.00,180.00 320.00,188.00 L320.00,192.00 Q320.00,200.00 312.00,200.00 L308.00,200.00 Q300.00,200.00 300.00,192.00 L300.00,188.00 Q300.00,180.00 308.00,180.00 Z" fill="#111111"/>
  <path d="M348.00,180.00 L352.00,180.00 Q360.00,180.00 360.00,188.00 L360.00,200.00 L340.00,200.00 L340.00,188.00 Q340.00,180.00 348.00,180.00 Z" fill="#111111"/>
  <path d="M388.00,180.00 L400.00,180.00 L400.00,200.00 L380.00,200.00 L380.00,188.00 Q380.00,180.00 388.00,180.00 Z" fill="#111111"/>
  <path d="M400.00,180.00 L420.00,180.00 L420.00,200.00 L400.00,200.00 L400.00,180.00 Z" fill="#111111"/>
  <path d="M420.00,180.00 L432.00,180.00 Q440.00,180.00 440.00,188.00 L440.00,192.00 Q440.00,200.00 432.00,200.00 L420.00,200.00 L420.00,180.00 Z" fill="#111111"/>
  <path d="M508.00,180.00 L520.00,180.00 L520.00,200.00 L508.00,200.00 Q500.00,200.00 500.00,192.00 L500.00,188.00 Q500.00,180.00 508.00,180.00 Z" fill="#111111"/>
  <path d="M520.00,180.00 L540.00,180.00 L540.00,200.00 L520.00,200.00 L520.00,180.00 Z" fill="#111111"/>
  <path d="M88.00,200.00 L92.00,200.00 Q100.00,200.00 100.00,208.00 L100.00,220.00 L80.00,220.00 L80.00,208.00 Q80.00,200.00 88.00,200.00 Z" fill="#111111"/>
  <path d="M148.00,200.00 L160.00,200.00 L160.00,220.00 L140.00,220.00 L140.00,208.00 Q140.00,200.00 148.00,200.00 Z" fill="#111111"/>
  <path d="M160.00,200.00 L180.00,200.00 L180.00,220.00 L160.00,220.00 L160.00,200.00 Z" fill="#111111"/>
  <path d="M180.00,200.00 L200.00,200.00 L200.00,220.00 L180.00,220.00 L180.00,200.00 Z" fill="#111111"/>
  <path d="M200.00,200.00 L212.00,200.00 Q220.00,200.00 220.00,208.00 L220.00,212.00 Q220.00,220.00 212.00,220.00 L200.00,220.00 L200.00,200.00 Z" fill="#111111"/>
  <path d="M248.00,200.00 L252.00,200.00 Q260.00,200.00 260.00,208.00 L260.00,212.00 Q260.00,220.00 252.00,220.00 L248.00,220.00 Q240.00,220.00 240.00,212.00 L240.00,208.00 Q240.00,200.00 248.00,200.00 Z" fill="#111111"/>
  <path d="M328.00,200.00 L340.00,200.00 L340.00,220.00 L328.00,220.00 Q320.00,220.00 320.00,212.00 L320.00,208.00 Q320.00,200.00 328.00,200.00 Z" fill="#111111"/>
  <path d="M340.00,200.00 L360.00,200.00 L360.00,220.00 L340.00,220.00 L340.00,200.00 Z" fill="#111111"/>
  <path d="M360.00,200.00 L380.00,200.00 L380.00,220.00 L360.00,220.00 L360.00,200.00 Z" fill="#111111"/>
  <path d="M380.00,200.00 L400.00,200.00 L400.00,220.00 L380.00,220.00 L380.00,200.00 Z" fill="#111111"/>
  <path d="M468.00,200.00 L472.00,200.00 Q480.00,200.00 480.00,208.00 L480.00,212.00 Q480.00,220.00 472.00,220.00 L468.00,220.00 Q460.00,220.00 460.00,212.00 L460.00,208.00 Q460.00,200.00 468.00,200.00 Z" fill="#111111"/>
  <path d="M520.00,200.00 L540.00,200.00 L540.00,220.00 L520.00,220.00 L520.00,200.00 Z" fill="#111111"/>
  <path d="M540.00,200.00 L552.00,200.00 Q560.00,200.00 560.00,208.00 L560.00,220.00 L540.00,220.00 L540.00,200.00 Z" fill="#111111"/>
  <path d="M588.00,200.00 L600.00,200.00 L600.00,220.00 L580.00,220.00 L580.00,208.00 Q580.00,200.00 588.00,200.00 Z" fill="#111111"/>
  <path d="M600.00,200.00 L620.00,200.00 L620.00,220.00 L600.00,220.00 L600.00,200.00 Z" fill="#111111"/>
  <path d="M620.00,200.00 L640.00,200.00 L640.00,220.00 L620.00,220.00 L620.00,200.00 Z" fill="#111111"/>
  <path d="M640.00,200.00 L660.00,200.00 L660.00,220.00 L640.00,220.00 L640.00,200.00 Z" fill="#111111"/>
  <path d="M660.00,200.00 L672.00,200.00 Q680.00,200.00 680.00,208.00 L680.00,212.00 Q680.00,220.00 672.00,220.00 L660.00,220.00 L660.00,200.00 Z" fill="#111111"/>
  <path d="M48.00,220.00 L52.00,220.00 Q60.00,220.00 60.00,228.00 L60.00,240.00 L40.00,240.00 L40.00,228.00 Q40.00,220.00 48.00,220.00 Z" fill="#111111"/>
  <path d="M80.00,220.00 L100.00,220.00 L100.00,240.00 L80.00,240.00 L80.00,220.00 Z" fill="#111111"/>
  <path d="M100.00,220.00 L112.00,220.00 Q120.00,220.00 120.00,228.00 L120.00,232.00 Q120.00,240.00 112.00,240.00 L100.00,240.00 L100.00,220.00 Z" fill="#111111"/>
  <path d="M140.00,220.00 L160.00,220.00 L160.00,240.00 L140.00,240.00 L140.00,220.00 Z" fill="#111111"/>
  <path d="M268.00,220.00 L272.00,220.00 Q280.00,220.00 280.00,228.00 L280.00,232.00 Q280.00,240.00 272.00,240.00 L268.00,240.00 Q260.00,240.00 260.00,232.00 L260.00,228.00 Q260.00,220.00 268.00,220.00 Z" fill="#111111"/>
  <path d="M340.00,220.00 L360.00,220.00 L360.00,232.00 Q360.00,240.00 352.00,240.00 L348.00,240.00 Q340.00,240.00 340.00,232.00 L340.00,220.00 Z" fill="#111111"/>
  <path d="M380.00,220.00 L400.00,220.00 L400.00,240.00 L388.00,240.00 Q380.00,240.00 380.00,232.00 L380.00,220.00 Z" fill="#111111"/>
  <path d="M400.00,220.00 L412.00,220.00 Q420.00,220.00 420.00,228.00 L420.00,232.00 Q420.00,240.00 412.00,240.00 L400.00,240.00 L400.00,220.00 Z" fill="#111111"/>
  <path d="M488.00,220.00 L500.00,220.00 L500.00,240.00 L488.00,240.00 Q480.00,240.00 480.00,232.00 L480.00,228.00 Q480.00,220.00 488.00,220.00 Z" fill="#111111"/>
  <path d="M500.00,220.00 L520.00,220.00 L520.00,240.00 L500.00,240.00 L500.00,220.00 Z" fill="#111111"/>
  <path d="M520.00,220.00 L540.00,220.00 L540.00,240.00 L520.00,240.00 L520.00,220.00 Z" fill="#111111"/>
  <path d="M540.00,220.00 L560.00,220.00 L560.00,240.00 L540.00,240.00 L540.00,220.00 Z" fill="#111111"/>
  <path d="M560.00,220.00 L580.00,220.00 L580.00,240.00 L560.00,240.00 L560.00,220.00 Z" fill="#111111"/>
  <path d="M580.00,220.00 L600.00,220.00 L600.00,240.00 L580.00,240.00 L580.00,220.00 Z" fill="#111111"/>
  <path d="M688.00,220.00 L692.00,220.00 Q700.00,220.00 700.00,228.00 L700.00,240.00 L680.00,240.00 L680.00,228.00 Q680.00,220.00 688.00,220.00 Z" fill="#111111"/>
  <path d="M40.00,240.00 L60.00,240.00 L60.00,260.00 L40.00,260.00 L40.00,240.00 Z" fill="#111111"/>
  <path d="M80.00,240.00 L100.00,240.00 L100.00,252.00 Q100.00,260.00 92.00,260.00 L88.00,260.00 Q80.00,260.00 80.00,252.00 L80.00,240.00 Z" fill="#111111"/>
  <path d="M140.00,240.00 L160.00,240.00 L160.00,260.00 L148.00,260.00 Q140.00,260.00 140.00,252.00 L140.00,240.00 Z" fill="#111111"/>
  <path d="M160.00,240.00 L172.00,240.00 Q180.00,240.00 180.00,248.00 L180.00,252.00 Q180.00,260.00 172.00,260.00 L160.00,260.00 L160.00,240.00 Z" fill="#111111"/>
  <path d="M208.00,240.00 L212.00,240.00 Q220.00,240.00 220.00,248.00 L220.00,252.00 Q220.00,260.00 212.00,260.00 L208.00,260.00 Q200.00,260.00 200.00,252.00 L200.00,248.00 Q200.00,240.00 208.00,240.00 Z" fill="#111111"/>
  <path d="M500.00,240.00 L520.00,240.00 L520.00,260.00 L508.00,260.00 Q500.00,260.00 500.00,252.00 L500.00,240.00 Z" fill="#111111"/>
  <path d="M520.00,240.00 L540.00,240.00 L540.00,260.00 L520.00,260.00 L520.00,240.00 Z" fill="#111111"/>
  <path d="M560.00,240.00 L580.00,240.00 L580.00,260.00 L568.00,260.00 Q560.00,260.00 560.00,252.00 L560.00,240.00 Z" fill="#111111"/>
  <path d="M580.00,240.00 L600.00,240.00 L600.00,260.00 L580.00,260.00 L580.00,240.00 Z" fill="#111111"/>
  <path d="M600.00,240.00 L612.00,240.00 Q620.00,240.00 620.00,248.00 L620.00,252.00 Q620.00,260.00 612.00,260.00 L600.00,260.00 L600.00,240.00 Z" fill="#111111"/>
  <path d="M648.00,240.00 L652.00,240.00 Q660.00,240.00 660.00,248.00 L660.00,252.00 Q660.00,260.00 652.00,260.00 L648.00,260.00 Q640.00,260.00 640.00,252.00 L640.00,248.00 Q640.00,240.00 648.00,240.00 Z" fill="#111111"/>
  <path d="M680.00,240.00 L700.00,240.00 L700.00,252.00 Q700.00,260.00 692.00,260.00 L688.00,260.00 Q680.00,260.00 680.00,252.00 L680.00,240.00 Z" fill="#111111"/>
  <path d="M40.00,260.00 L60.00,260.00 L60.00,280.00 L40.00,280.00 L40.00,260.00 Z" fill="#111111"/>
  <path d="M60.00,260.00 L72.00,260.00 Q80.00,260.00 80.00,268.00 L80.00,280.00 L60.00,280.00 L60.00,260.00 Z" fill="#111111"/>
  <path d="M108.00,260.00 L112.00,260.00 Q120.00,260.00 120.00,268.00 L120.00,280.00 L100.00,280.00 L100.00,268.00 Q100.00,260.00 108.00,260.00 Z" fill="#111111"/>
  <path d="M188.00,260.00 L192.00,260.00 Q200.00,260.00 200.00,268.00 L200.00,280.00 L180.00,280.00 L180.00,268.00 Q180.00,260.00 188.00,260.00 Z" fill="#111111"/>
  <path d="M520.00,260.00 L540.00,260.00 L540.00,280.00 L520.00,280.00 L520.00,260.00 Z" fill="#111111"/>
  <path d="M580.00,260.00 L600.00,260.00 L600.00,280.00 L580.00,280.00 L580.00,260.00 Z" fill="#111111"/>
  <path d="M668.00,260.00 L672.00,260.00 Q680.00,260.00 680.00,268.00 L680.00,280.00 L660.00,280.00 L660.00,268.00 Q660.00,260.00 668.00,260.00 Z" fill="#111111"/>
  <path d="M40.00,280.00 L60.00,280.00 L60.00,300.00 L48.00,300.00 Q40.00,300.00 40.00,292.00 L40.00,280.00 Z" fill="#111111"/>
  <path d="M60.00,280.00 L80.00,280.00 L80.00,300.00 L60.00,300.00 L60.00,280.00 Z" fill="#111111"/>
  <path d="M80.00,280.00 L100.00,280.00 L100.00,300.00 L80.00,300.00 L80.00,280.00 Z" fill="#111111"/>
  <path d="M100.00,280.00 L120.00,280.00 L120.00,292.00 Q120.00,300.00 112.00,300.00 L100.00,300.00 L100.00,280.00 Z" fill="#111111"/>
  <path d="M148.00,280.00 L160.00,280.00 L160.00,300.00 L140.00,300.00 L140.00,288.00 Q140.00,280.00 148.00,280.00 Z" fill="#111111"/>
  <path d="M160.00,280.00 L180.00,280.00 L180.00,300.00 L160.00,300.00 L160.00,280.00 Z" fill="#111111"/>
  <path d="M180.00,280.00 L200.00,280.00 L200.00,300.00 L180.00,300.00 L180.00,280.00 Z" fill="#111111"/>
  <path d="M520.00,280.00 L540.00,280.00 L540.00,300.00 L520.00,300.00 L520.00,280.00 Z" fill="#111111"/>
  <path d="M568.00,280.00 L580.00,280.00 L580.00,300.00 L560.00,300.00 L560.00,288.00 Q560.00,280.00 568.00,280.00 Z" fill="#111111"/>
  <path d="M580.00,280.00 L600.00,280.00 L600.00,300.00 L580.00,300.00 L580.00,280.00 Z" fill="#111111"/>
  <path d="M600.00,280.00 L612.00,280.00 Q620.00,280.00 620.00,288.00 L620.00,292.00 Q620.00,300.00 612.00,300.00 L600.00,300.00 L600.00,280.00 Z" fill="#111111"/>
  <path d="M660.00,280.00 L680.00,280.00 L680.00,292.00 Q680.00,300.00 672.00,300.00 L668.00,300.00 Q660.00,300.00 660.00,292.00 L660.00,280.00 Z" fill="#111111"/>
  <path d="M80.00,300.00 L100.00,300.00 L100.00,312.00 Q100.00,320.00 92.00,320.00 L88.00,320.00 Q80.00,320.00 80.00,312.00 L80.00,300.00 Z" fill="#111111"/>
  <path d="M128.00,300.00 L140.00,300.00 L140.00,320.00 L120.00,320.00 L120.00,308.00 Q120.00,300.00 128.00,300.00 Z" fill="#111111"/>
  <path d="M140.00,300.00 L160.00,300.00 L160.00,320.00 L140.00,320.00 L140.00,300.00 Z" fill="#111111"/>
  <path d="M180.00,300.00 L200.00,300.00 L200.00,320.00 L180.00,320.00 L180.00,300.00 Z" fill="#111111"/>
  <path d="M228.00,300.00 L232.00,300.00 Q240.00,300.00 240.00,308.00 L240.00,320.00 L220.00,320.00 L220.00,308.00 Q220.00,300.00 228.00,300.00 Z" fill="#111111"/>
  <path d="M508.00,300.00 L520.00,300.00 L520.00,320.00 L500.00,320.00 L500.00,308.00 Q500.00,300.00 508.00,300.00 Z" fill="#111111"/>
  <path d="M520.00,300.00 L540.00,300.00 L540.00,320.00 L520.00,320.00 L520.00,300.00 Z" fill="#111111"/>
  <path d="M540.00,300.00 L560.00,300.00 L560.00,320.00 L540.00,320.00 L540.00,300.00 Z" fill="#111111"/>
  <path d="M560.00,300.00 L580.00,300.00 L580.00,320.00 L560.00,320.00 L560.00,300.00 Z" fill="#111111"/>
  <path d="M628.00,300.00 L640.00,300.00 L640.00,320.00 L628.00,320.00 Q620.00,320.00 620.00,312.00 L620.00,308.00 Q620.00,300.00 628.00,300.00 Z" fill="#111111"/>
  <path d="M640.00,300.00 L652.00,300.00 Q660.00,300.00 660.00,308.00 L660.00,312.00 Q660.00,320.00 652.00,320.00 L640.00,320.00 L640.00,300.00 Z" fill="#111111"/>
  <path d="M688.00,300.00 L692.00,300.00 Q700.00,300.00 700.00,308.00 L700.00,320.00 L680.00,320.00 L680.00,308.00 Q680.00,300.00 688.00,300.00 Z" fill="#111111"/>
  <path d="M48.00,320.00 L52.00,320.00 Q60.00,320.00 60.00,328.00 L60.00,332.00 Q60.00,340.00 52.00,340.00 L48.00,340.00 Q40.00,340.00 40.00,332.00 L40.00,328.00 Q40.00,320.00 48.00,320.00 Z" fill="#111111"/>
  <path d="M108.00,320.00 L120.00,320.00 L120.00,340.00 L100.00,340.00 L100.00,328.00 Q100.00,320.00 108.00,320.00 Z" fill="#111111"/>
  <path d="M120.00,320.00 L140.00,320.00 L140.00,340.00 L120.00,340.00 L120.00,320.00 Z" fill="#111111"/>
  <path d="M140.00,320.00 L160.00,320.00 L160.00,340.00 L140.00,340.00 L140.00,320.00 Z" fill="#111111"/>
  <path d="M160.00,320.00 L180.00,320.00 L180.00,340.00 L160.00,340.00 L160.00,320.00 Z" fill="#111111"/>
  <path d="M180.00,320.00 L200.00,320.00 L200.00,332.00 Q200.00,340.00 192.00,340.00 L180.00,340.00 L180.00,320.00 Z" fill="#111111"/>
  <path d="M220.00,320.00 L240.00,320.00 L240.00,340.00 L220.00,340.00 L220.00,320.00 Z" fill="#111111"/>
  <path d="M500.00,320.00 L520.00,320.00 L520.00,340.00 L500.00,340.00 L500.00,320.00 Z" fill="#111111"/>
  <path d="M520.00,320.00 L540.00,320.00 L540.00,340.00 L520.00,340.00 L520.00,320.00 Z" fill="#111111"/>
  <path d="M560.00,320.00 L580.00,320.00 L580.00,340.00 L568.00,340.00 Q560.00,340.00 560.00,332.00 L560.00,320.00 Z" fill="#111111"/>
  <path d="M580.00,320.00 L600.00,320.00 L600.00,340.00 L580.00,340.00 L580.00,320.00 Z" fill="#111111"/>
  <path d="M600.00,320.00 L612.00,320.00 Q620.00,320.00 620.00,328.00 L620.00,332.00 Q620.00,340.00 612.00,340.00 L600.00,340.00 L600.00,320.00 Z" fill="#111111"/>
  <path d="M680.00,320.00 L700.00,320.00 L700.00,332.00 Q700.00,340.00 692.00,340.00 L688.00,340.00 Q680.00,340.00 680.00,332.00 L680.00,320.00 Z" fill="#111111"/>
  <path d="M88.00,340.00 L100.00,340.00 L100.00,360.00 L88.00,360.00 Q80.00,360.00 80.00,352.00 L80.00,348.00 Q80.00,340.00 88.00,340.00 Z" fill="#111111"/>
  <path d="M100.00,340.00 L120.00,340.00 L120.00,360.00 L100.00,360.00 L100.00,340.00 Z" fill="#111111"/>
  <path d="M120.00,340.00 L140.00,340.00 L140.00,360.00 L120.00,360.00 L120.00,340.00 Z" fill="#111111"/>
  <path d="M140.00,340.00 L160.00,340.00 L160.00,352.00 Q160.00,360.00 152.00,360.00 L140.00,360.00 L140.00,340.00 Z" fill="#111111"/>
  <path d="M220.00,340.00 L240.00,340.00 L240.00,360.00 L220.00,360.00 L220.00,340.00 Z" fill="#111111"/>
  <path d="M500.00,340.00 L520.00,340.00 L520.00,360.00 L508.00,360.00 Q500.00,360.00 500.00,352.00 L500.00,340.00 Z" fill="#111111"/>
  <path d="M520.00,340.00 L540.00,340.00 L540.00,352.00 Q540.00,360.00 532.00,360.00 L520.00,360.00 L520.00,340.00 Z" fill="#111111"/>
  <path d="M628.00,340.00 L632.00,340.00 Q640.00,340.00 640.00,348.00 L640.00,360.00 L620.00,360.00 L620.00,348.00 Q620.00,340.00 628.00,340.00 Z" fill="#111111"/>
  <path d="M48.00,360.00 L52.00,360.00 Q60.00,360.00 60.00,368.00 L60.00,380.00 L40.00,380.00 L40.00,368.00 Q40.00,360.00 48.00,360.00 Z" fill="#111111"/>
  <path d="M100.00,360.00 L120.00,360.00 L120.00,380.00 L108.00,380.00 Q100.00,380.00 100.00,372.00 L100.00,360.00 Z" fill="#111111"/>
  <path d="M120.00,360.00 L140.00,360.00 L140.00,372.00 Q140.00,380.00 132.00,380.00 L120.00,380.00 L120.00,360.00 Z" fill="#111111"/>
  <path d="M168.00,360.00 L180.00,360.00 L180.00,380.00 L168.00,380.00 Q160.00,380.00 160.00,372.00 L160.00,368.00 Q160.00,360.00 168.00,360.00 Z" fill="#111111"/>
  <path d="M180.00,360.00 L192.00,360.00 Q200.00,360.00 200.00,368.00 L200.00,372.00 Q200.00,380.00 192.00,380.00 L180.00,380.00 L180.00,360.00 Z" fill="#111111"/>
  <path d="M220.00,360.00 L240.00,360.00 L240.00,380.00 L220.00,380.00 L220.00,360.00 Z" fill="#111111"/>
  <path d="M548.00,360.00 L560.00,360.00 L560.00,380.00 L540.00,380.00 L540.00,368.00 Q540.00,360.00 548.00,360.00 Z" fill="#111111"/>
  <path d="M560.00,360.00 L572.00,360.00 Q580.00,360.00 580.00,368.00 L580.00,380.00 L560.00,380.00 L560.00,360.00 Z" fill="#111111"/>
  <path d="M608.00,360.00 L620.00,360.00 L620.00,380.00 L608.00,380.00 Q600.00,380.00 600.00,372.00 L600.00,368.00 Q600.00,360.00 608.00,360.00 Z" fill="#111111"/>
  <path d="M620.00,360.00 L640.00,360.00 L640.00,372.00 Q640.00,380.00 632.00,380.00 L620.00,380.00 L620.00,360.00 Z" fill="#111111"/>
  <path d="M40.00,380.00 L60.00,380.00 L60.00,400.00 L48.00,400.00 Q40.00,400.00 40.00,392.00 L40.00,380.00 Z" fill="#111111"/>
  <path d="M60.00,380.00 L72.00,380.00 Q80.00,380.00 80.00,388.00 L80.00,400.00 L60.00,400.00 L60.00,380.00 Z" fill="#111111"/>
  <path d="M208.00,380.00 L220.00,380.00 L220.00,400.00 L200.00,400.00 L200.00,388.00 Q200.00,380.00 208.00,380.00 Z" fill="#111111"/>
  <path d="M220.00,380.00 L240.00,380.00 L240.00,400.00 L220.00,400.00 L220.00,380.00 Z" fill="#111111"/>
  <path d="M508.00,380.00 L512.00,380.00 Q520.00,380.00 520.00,388.00 L520.00,400.00 L500.00,400.00 L500.00,388.00 Q500.00,380.00 508.00,380.00 Z" fill="#111111"/>
  <path d="M540.00,380.00 L560.00,380.00 L560.00,400.00 L548.00,400.00 Q540.00,400.00 540.00,392.00 L540.00,380.00 Z" fill="#111111"/>
  <path d="M560.00,380.00 L580.00,380.00 L580.00,400.00 L560.00,400.00 L560.00,380.00 Z" fill="#111111"/>
  <path d="M580.00,380.00 L592.00,380.00 Q600.00,380.00 600.00,388.00 L600.00,400.00 L580.00,400.00 L580.00,380.00 Z" fill="#111111"/>
  <path d="M648.00,380.00 L660.00,380.00 L660.00,400.00 L640.00,400.00 L640.00,388.00 Q640.00,380.00 648.00,380.00 Z" fill="#111111"/>
  <path d="M660.00,380.00 L672.00,380.00 Q680.00,380.00 680.00,388.00 L680.00,392.00 Q680.00,400.00 672.00,400.00 L660.00,400.00 L660.00,380.00 Z" fill="#111111"/>
  <path d="M60.00,400.00 L80.00,400.00 L80.00,420.00 L60.00,420.00 L60.00,400.00 Z" fill="#111111"/>
  <path d="M168.00,400.00 L180.00,400.00 L180.00,420.00 L168.00,420.00 Q160.00,420.00 160.00,412.00 L160.00,408.00 Q160.00,400.00 168.00,400.00 Z" fill="#111111"/>
  <path d="M180.00,400.00 L200.00,400.00 L200.00,420.00 L180.00,420.00 L180.00,400.00 Z" fill="#111111"/>
  <path d="M200.00,400.00 L220.00,400.00 L220.00,420.00 L200.00,420.00 L200.00,400.00 Z" fill="#111111"/>
  <path d="M220.00,400.00 L240.00,400.00 L240.00,420.00 L220.00,420.00 L220.00,400.00 Z" fill="#111111"/>
  <path d="M500.00,400.00 L520.00,400.00 L520.00,420.00 L500.00,420.00 L500.00,400.00 Z" fill="#111111"/>
  <path d="M580.00,400.00 L600.00,400.00 L600.00,420.00 L580.00,420.00 L580.00,400.00 Z" fill="#111111"/>
  <path d="M628.00,400.00 L640.00,400.00 L640.00,420.00 L620.00,420.00 L620.00,408.00 Q620.00,400.00 628.00,400.00 Z" fill="#111111"/>
  <path d="M640.00,400.00 L660.00,400.00 L660.00,412.00 Q660.00,420.00 652.00,420.00 L640.00,420.00 L640.00,400.00 Z" fill="#111111"/>
  <path d="M688.00,400.00 L692.00,400.00 Q700.00,400.00 700.00,408.00 L700.00,420.00 L680.00,420.00 L680.00,408.00 Q680.00,400.00 688.00,400.00 Z" fill="#111111"/>
  <path d="M60.00,420.00 L80.00,420.00 L80.00,440.00 L60.00,440.00 L60.00,420.00 Z" fill="#111111"/>
  <path d="M108.00,420.00 L112.00,420.00 Q120.00,420.00 120.00,428.00 L120.00,432.00 Q120.00,440.00 112.00,440.00 L108.00,440.00 Q100.00,440.00 100.00,432.00 L100.00,428.00 Q100.00,420.00 108.00,420.00 Z" fill="#111111"/>
  <path d="M148.00,420.00 L152.00,420.00 Q160.00,420.00 160.00,428.00 L160.00,432.00 Q160.00,440.00 152.00,440.00 L148.00,440.00 Q140.00,440.00 140.00,432.00 L140.00,428.00 Q140.00,420.00 148.00,420.00 Z" fill="#111111"/>
  <path d="M180.00,420.00 L200.00,420.00 L200.00,440.00 L180.00,440.00 L180.00,420.00 Z" fill="#111111"/>
  <path d="M220.00,420.00 L240.00,420.00 L240.00,432.00 Q240.00,440.00 232.00,440.00 L228.00,440.00 Q220.00,440.00 220.00,432.00 L220.00,420.00 Z" fill="#111111"/>
  <path d="M500.00,420.00 L520.00,420.00 L520.00,440.00 L500.00,440.00 L500.00,420.00 Z" fill="#111111"/>
  <path d="M568.00,420.00 L580.00,420.00 L580.00,440.00 L568.00,440.00 Q560.00,440.00 560.00,432.00 L560.00,428.00 Q560.00,420.00 568.00,420.00 Z" fill="#111111"/>
  <path d="M580.00,420.00 L600.00,420.00 L600.00,432.00 Q600.00,440.00 592.00,440.00 L580.00,440.00 L580.00,420.00 Z" fill="#111111"/>
  <path d="M620.00,420.00 L640.00,420.00 L640.00,432.00 Q640.00,440.00 632.00,440.00 L628.00,440.00 Q620.00,440.00 620.00,432.00 L620.00,420.00 Z" fill="#111111"/>
  <path d="M680.00,420.00 L700.00,420.00 L700.00,440.00 L680.00,440.00 L680.00,420.00 Z" fill="#111111"/>
  <path d="M60.00,440.00 L80.00,440.00 L80.00,452.00 Q80.00,460.00 72.00,460.00 L68.00,460.00 Q60.00,460.00 60.00,452.00 L60.00,440.00 Z" fill="#111111"/>
  <path d="M168.00,440.00 L180.00,440.00 L180.00,460.00 L168.00,460.00 Q160.00,460.00 160.00,452.00 L160.00,448.00 Q160.00,440.00 168.00,440.00 Z" fill="#111111"/>
  <path d="M180.00,440.00 L200.00,440.00 L200.00,460.00 L180.00,460.00 L180.00,440.00 Z" fill="#111111"/>
  <path d="M200.00,440.00 L212.00,440.00 Q220.00,440.00 220.00,448.00 L220.00,460.00 L200.00,460.00 L200.00,440.00 Z" fill="#111111"/>
  <path d="M500.00,440.00 L520.00,440.00 L520.00,452.00 Q520.00,460.00 512.00,460.00 L508.00,460.00 Q500.00,460.00 500.00,452.00 L500.00,440.00 Z" fill="#111111"/>
  <path d="M680.00,440.00 L700.00,440.00 L700.00,460.00 L680.00,460.00 L680.00,440.00 Z" fill="#111111"/>
  <path d="M88.00,460.00 L92.00,460.00 Q100.00,460.00 100.00,468.00 L100.00,480.00 L80.00,480.00 L80.00,468.00 Q80.00,460.00 88.00,460.00 Z" fill="#111111"/>
  <path d="M128.00,460.00 L140.00,460.00 L140.00,480.00 L120.00,480.00 L120.00,468.00 Q120.00,460.00 128.00,460.00 Z" fill="#111111"/>
  <path d="M140.00,460.00 L152.00,460.00 Q160.00,460.00 160.00,468.00 L160.00,480.00 L140.00,480.00 L140.00,460.00 Z" fill="#111111"/>
  <path d="M200.00,460.00 L220.00,460.00 L220.00,472.00 Q220.00,480.00 212.00,480.00 L208.00,480.00 Q200.00,480.00 200.00,472.00 L200.00,460.00 Z" fill="#111111"/>
  <path d="M588.00,460.00 L592.00,460.00 Q600.00,460.00 600.00,468.00 L600.00,472.00 Q600.00,480.00 592.00,480.00 L588.00,480.00 Q580.00,480.00 580.00,472.00 L580.00,468.00 Q580.00,460.00 588.00,460.00 Z" fill="#111111"/>
  <path d="M628.00,460.00 L640.00,460.00 L640.00,480.00 L628.00,480.00 Q620.00,480.00 620.00,472.00 L620.00,468.00 Q620.00,460.00 628.00,460.00 Z" fill="#111111"/>
  <path d="M640.00,460.00 L652.00,460.00 Q660.00,460.00 660.00,468.00 L660.00,472.00 Q660.00,480.00 652.00,480.00 L640.00,480.00 L640.00,460.00 Z" fill="#111111"/>
  <path d="M680.00,460.00 L700.00,460.00 L700.00,480.00 L680.00,480.00 L680.00,460.00 Z" fill="#111111"/>
  <path d="M48.00,480.00 L60.00,480.00 L60.00,500.00 L48.00,500.00 Q40.00,500.00 40.00,492.00 L40.00,488.00 Q40.00,480.00 48.00,480.00 Z" fill="#111111"/>
  <path d="M60.00,480.00 L80.00,480.00 L80.00,500.00 L60.00,500.00 L60.00,480.00 Z" fill="#111111"/>
  <path d="M80.00,480.00 L100.00,480.00 L100.00,500.00 L80.00,500.00 L80.00,480.00 Z" fill="#111111"/>
  <path d="M100.00,480.00 L120.00,480.00 L120.00,500.00 L100.00,500.00 L100.00,480.00 Z" fill="#111111"/>
  <path d="M120.00,480.00 L140.00,480.00 L140.00,500.00 L120.00,500.00 L120.00,480.00 Z" fill="#111111"/>
  <path d="M140.00,480.00 L160.00,480.00 L160.00,500.00 L140.00,500.00 L140.00,480.00 Z" fill="#111111"/>
  <path d="M160.00,480.00 L172.00,480.00 Q180.00,480.00 180.00,488.00 L180.00,492.00 Q180.00,500.00 172.00,500.00 L160.00,500.00 L160.00,480.00 Z" fill="#111111"/>
  <path d="M228.00,480.00 L232.00,480.00 Q240.00,480.00 240.00,488.00 L240.00,492.00 Q240.00,500.00 232.00,500.00 L228.00,500.00 Q220.00,500.00 220.00,492.00 L220.00,488.00 Q220.00,480.00 228.00,480.00 Z" fill="#111111"/>
  <path d="M508.00,480.00 L512.00,480.00 Q520.00,480.00 520.00,488.00 L520.00,492.00 Q520.00,500.00 512.00,500.00 L508.00,500.00 Q500.00,500.00 500.00,492.00 L500.00,488.00 Q500.00,480.00 508.00,480.00 Z" fill="#111111"/>
  <path d="M548.00,480.00 L560.00,480.00 L560.00,500.00 L548.00,500.00 Q540.00,500.00 540.00,492.00 L540.00,488.00 Q540.00,480.00 548.00,480.00 Z" fill="#111111"/>
  <path d="M560.00,480.00 L572.00,480.00 Q580.00,480.00 580.00,488.00 L580.00,492.00 Q580.00,500.00 572.00,500.00 L560.00,500.00 L560.00,480.00 Z" fill="#111111"/>
  <path d="M608.00,480.00 L612.00,480.00 Q620.00,480.00 620.00,488.00 L620.00,492.00 Q620.00,500.00 612.00,500.00 L608.00,500.00 Q600.00,500.00 600.00,492.00 L600.00,488.00 Q600.00,480.00 608.00,480.00 Z" fill="#111111"/>
  <path d="M680.00,480.00 L700.00,480.00 L700.00,500.00 L680.00,500.00 L680.00,480.00 Z" fill="#111111"/>
  <path d="M80.00,500.00 L100.00,500.00 L100.00,520.00 L80.00,520.00 L80.00,500.00 Z" fill="#111111"/>
  <path d="M188.00,500.00 L200.00,500.00 L200.00,520.00 L180.00,520.00 L180.00,508.00 Q180.00,500.00 188.00,500.00 Z" fill="#111111"/>
  <path d="M200.00,500.00 L212.00,500.00 Q220.00,500.00 220.00,508.00 L220.00,520.00 L200.00,520.00 L200.00,500.00 Z" fill="#111111"/>
  <path d="M248.00,500.00 L260.00,500.00 L260.00,520.00 L248.00,520.00 Q240.00,520.00 240.00,512.00 L240.00,508.00 Q240.00,500.00 248.00,500.00 Z" fill="#111111"/>
  <path d="M260.00,500.00 L272.00,500.00 Q280.00,500.00 280.00,508.00 L280.00,512.00 Q280.00,520.00 272.00,520.00 L260.00,520.00 L260.00,500.00 Z" fill="#111111"/>
  <path d="M588.00,500.00 L592.00,500.00 Q600.00,500.00 600.00,508.00 L600.00,520.00 L580.00,520.00 L580.00,508.00 Q580.00,500.00 588.00,500.00 Z" fill="#111111"/>
  <path d="M628.00,500.00 L632.00,500.00 Q640.00,500.00 640.00,508.00 L640.00,512.00 Q640.00,520.00 632.00,520.00 L628.00,520.00 Q620.00,520.00 620.00,512.00 L620.00,508.00 Q620.00,500.00 628.00,500.00 Z" fill="#111111"/>
  <path d="M668.00,500.00 L680.00,500.00 L680.00,520.00 L668.00,520.00 Q660.00,520.00 660.00,512.00 L660.00,508.00 Q660.00,500.00 668.00,500.00 Z" fill="#111111"/>
  <path d="M680.00,500.00 L700.00,500.00 L700.00,512.00 Q700.00,520.00 692.00,520.00 L680.00,520.00 L680.00,500.00 Z" fill="#111111"/>
  <path d="M48.00,520.00 L60.00,520.00 L60.00,540.00 L48.00,540.00 Q40.00,540.00 40.00,532.00 L40.00,528.00 Q40.00,520.00 48.00,520.00 Z" fill="#111111"/>
  <path d="M60.00,520.00 L80.00,520.00 L80.00,540.00 L60.00,540.00 L60.00,520.00 Z" fill="#111111"/>
  <path d="M80.00,520.00 L100.00,520.00 L100.00,540.00 L80.00,540.00 L80.00,520.00 Z" fill="#111111"/>
  <path d="M100.00,520.00 L120.00,520.00 L120.00,540.00 L100.00,540.00 L100.00,520.00 Z" fill="#111111"/>
  <path d="M120.00,520.00 L140.00,520.00 L140.00,540.00 L120.00,540.00 L120.00,520.00 Z" fill="#111111"/>
  <path d="M140.00,520.00 L160.00,520.00 L160.00,540.00 L140.00,540.00 L140.00,520.00 Z" fill="#111111"/>
  <path d="M160.00,520.00 L180.00,520.00 L180.00,540.00 L160.00,540.00 L160.00,520.00 Z" fill="#111111"/>
  <path d="M180.00,520.00 L200.00,520.00 L200.00,540.00 L180.00,540.00 L180.00,520.00 Z" fill="#111111"/>
  <path d="M200.00,520.00 L220.00,520.00 L220.00,540.00 L200.00,540.00 L200.00,520.00 Z" fill="#111111"/>
  <path d="M288.00,520.00 L292.00,520.00 Q300.00,520.00 300.00,528.00 L300.00,532.00 Q300.00,540.00 292.00,540.00 L288.00,540.00 Q280.00,540.00 280.00,532.00 L280.00,528.00 Q280.00,520.00 288.00,520.00 Z" fill="#111111"/>
  <path d="M348.00,520.00 L352.00,520.00 Q360.00,520.00 360.00,528.00 L360.00,532.00 Q360.00,540.00 352.00,540.00 L348.00,540.00 Q340.00,540.00 340.00,532.00 L340.00,528.00 Q340.00,520.00 348.00,520.00 Z" fill="#111111"/>
  <path d="M408.00,520.00 L420.00,520.00 L420.00,540.00 L408.00,540.00 Q400.00,540.00 400.00,532.00 L400.00,528.00 Q400.00,520.00 408.00,520.00 Z" fill="#111111"/>
  <path d="M420.00,520.00 L440.00,520.00 L440.00,540.00 L420.00,540.00 L420.00,520.00 Z" fill="#111111"/>
  <path d="M440.00,520.00 L452.00,520.00 Q460.00,520.00 460.00,528.00 L460.00,540.00 L440.00,540.00 L440.00,520.00 Z" fill="#111111"/>
  <path d="M508.00,520.00 L520.00,520.00 L520.00,540.00 L508.00,540.00 Q500.00,540.00 500.00,532.00 L500.00,528.00 Q500.00,520.00 508.00,520.00 Z" fill="#111111"/>
  <path d="M520.00,520.00 L540.00,520.00 L540.00,540.00 L520.00,540.00 L520.00,520.00 Z" fill="#111111"/>
  <path d="M540.00,520.00 L560.00,520.00 L560.00,540.00 L540.00,540.00 L540.00,520.00 Z" fill="#111111"/>
  <path d="M560.00,520.00 L580.00,520.00 L580.00,540.00 L560.00,540.00 L560.00,520.00 Z" fill="#111111"/>
  <path d="M580.00,520.00 L600.00,520.00 L600.00,540.00 L580.00,540.00 L580.00,520.00 Z" fill="#111111"/>
  <path d="M600.00,520.00 L612.00,520.00 Q620.00,520.00 620.00,528.00 L620.00,540.00 L600.00,540.00 L600.00,520.00 Z" fill="#111111"/>
  <path d="M200.00,540.00 L220.00,540.00 L220.00,560.00 L200.00,560.00 L200.00,540.00 Z" fill="#111111"/>
  <path d="M220.00,540.00 L240.00,540.00 L240.00,560.00 L220.00,560.00 L220.00,540.00 Z" fill="#111111"/>
  <path d="M240.00,540.00 L260.00,540.00 L260.00,560.00 L240.00,560.00 L240.00,540.00 Z" fill="#111111"/>
  <path d="M260.00,540.00 L272.00,540.00 Q280.00,540.00 280.00,548.00 L280.00,560.00 L260.00,560.00 L260.00,540.00 Z" fill="#111111"/>
  <path d="M308.00,540.00 L312.00,540.00 Q320.00,540.00 320.00,548.00 L320.00,560.00 L300.00,560.00 L300.00,548.00 Q300.00,540.00 308.00,540.00 Z" fill="#111111"/>
  <path d="M368.00,540.00 L380.00,540.00 L380.00,560.00 L368.00,560.00 Q360.00,560.00 360.00,552.00 L360.00,548.00 Q360.00,540.00 368.00,540.00 Z" fill="#111111"/>
  <path d="M380.00,540.00 L392.00,540.00 Q400.00,540.00 400.00,548.00 L400.00,552.00 Q400.00,560.00 392.00,560.00 L380.00,560.00 L380.00,540.00 Z" fill="#111111"/>
  <path d="M420.00,540.00 L440.00,540.00 L440.00,560.00 L428.00,560.00 Q420.00,560.00 420.00,552.00 L420.00,540.00 Z" fill="#111111"/>
  <path d="M440.00,540.00 L460.00,540.00 L460.00,560.00 L440.00,560.00 L440.00,540.00 Z" fill="#111111"/>
  <path d="M460.00,540.00 L472.00,540.00 Q480.00,540.00 480.00,548.00 L480.00,552.00 Q480.00,560.00 472.00,560.00 L460.00,560.00 L460.00,540.00 Z" fill="#111111"/>
  <path d="M520.00,540.00 L540.00,540.00 L540.00,560.00 L520.00,560.00 L520.00,540.00 Z" fill="#111111"/>
  <path d="M600.00,540.00 L620.00,540.00 L620.00,560.00 L600.00,560.00 L600.00,540.00 Z" fill="#111111"/>
  <path d="M620.00,540.00 L632.00,540.00 Q640.00,540.00 640.00,548.00 L640.00,552.00 Q640.00,560.00 632.00,560.00 L620.00,560.00 L620.00,540.00 Z" fill="#111111"/>
  <path d="M668.00,540.00 L680.00,540.00 L680.00,560.00 L668.00,560.00 Q660.00,560.00 660.00,552.00 L660.00,548.00 Q660.00,540.00 668.00,540.00 Z" fill="#111111"/>
  <path d="M680.00,540.00 L692.00,540.00 Q700.00,540.00 700.00,548.00 L700.00,560.00 L680.00,560.00 L680.00,540.00 Z" fill="#111111"/>
  <path d="M200.00,560.00 L220.00,560.00 L220.00,580.00 L200.00,580.00 L200.00,560.00 Z" fill="#111111"/>
  <path d="M220.00,560.00 L240.00,560.00 L240.00,580.00 L220.00,580.00 L220.00,560.00 Z" fill="#111111"/>
  <path d="M260.00,560.00 L280.00,560.00 L280.00,580.00 L268.00,580.00 Q260.00,580.00 260.00,572.00 L260.00,560.00 Z" fill="#111111"/>
  <path d="M280.00,560.00 L300.00,560.00 L300.00,580.00 L280.00,580.00 L280.00,560.00 Z" fill="#111111"/>
  <path d="M300.00,560.00 L320.00,560.00 L320.00,580.00 L300.00,580.00 L300.00,560.00 Z" fill="#111111"/>
  <path d="M320.00,560.00 L332.00,560.00 Q340.00,560.00 340.00,568.00 L340.00,580.00 L320.00,580.00 L320.00,560.00 Z" fill="#111111"/>
  <path d="M520.00,560.00 L540.00,560.00 L540.00,580.00 L520.00,580.00 L520.00,560.00 Z" fill="#111111"/>
  <path d="M568.00,560.00 L572.00,560.00 Q580.00,560.00 580.00,568.00 L580.00,572.00 Q580.00,580.00 572.00,580.00 L568.00,580.00 Q560.00,580.00 560.00,572.00 L560.00,568.00 Q560.00,560.00 568.00,560.00 Z" fill="#111111"/>
  <path d="M600.00,560.00 L620.00,560.00 L620.00,580.00 L600.00,580.00 L600.00,560.00 Z" fill="#111111"/>
  <path d="M648.00,560.00 L652.00,560.00 Q660.00,560.00 660.00,568.00 L660.00,572.00 Q660.00,580.00 652.00,580.00 L648.00,580.00 Q640.00,580.00 640.00,572.00 L640.00,568.00 Q640.00,560.00 648.00,560.00 Z" fill="#111111"/>
  <path d="M680.00,560.00 L700.00,560.00 L700.00,580.00 L680.00,580.00 L680.00,560.00 Z" fill="#111111"/>
  <path d="M200.00,580.00 L220.00,580.00 L220.00,600.00 L208.00,600.00 Q200.00,600.00 200.00,592.00 L200.00,580.00 Z" fill="#111111"/>
  <path d="M220.00,580.00 L240.00,580.00 L240.00,600.00 L220.00,600.00 L220.00,580.00 Z" fill="#111111"/>
  <path d="M240.00,580.00 L252.00,580.00 Q260.00,580.00 260.00,588.00 L260.00,592.00 Q260.00,600.00 252.00,600.00 L240.00,600.00 L240.00,580.00 Z" fill="#111111"/>
  <path d="M280.00,580.00 L300.00,580.00 L300.00,592.00 Q300.00,600.00 292.00,600.00 L288.00,600.00 Q280.00,600.00 280.00,592.00 L280.00,580.00 Z" fill="#111111"/>
  <path d="M320.00,580.00 L340.00,580.00 L340.00,592.00 Q340.00,600.00 332.00,600.00 L328.00,600.00 Q320.00,600.00 320.00,592.00 L320.00,580.00 Z" fill="#111111"/>
  <path d="M368.00,580.00 L380.00,580.00 L380.00,600.00 L360.00,600.00 L360.00,588.00 Q360.00,580.00 368.00,580.00 Z" fill="#111111"/>
  <path d="M380.00,580.00 L392.00,580.00 Q400.00,580.00 400.00,588.00 L400.00,592.00 Q400.00,600.00 392.00,600.00 L380.00,600.00 L380.00,580.00 Z" fill="#111111"/>
  <path d="M428.00,580.00 L432.00,580.00 Q440.00,580.00 440.00,588.00 L440.00,600.00 L420.00,600.00 L420.00,588.00 Q420.00,580.00 428.00,580.00 Z" fill="#111111"/>
  <path d="M468.00,580.00 L472.00,580.00 Q480.00,580.00 480.00,588.00 L480.00,600.00 L460.00,600.00 L460.00,588.00 Q460.00,580.00 468.00,580.00 Z" fill="#111111"/>
  <path d="M508.00,580.00 L520.00,580.00 L520.00,600.00 L500.00,600.00 L500.00,588.00 Q500.00,580.00 508.00,580.00 Z" fill="#111111"/>
  <path d="M520.00,580.00 L540.00,580.00 L540.00,600.00 L520.00,600.00 L520.00,580.00 Z" fill="#111111"/>
  <path d="M600.00,580.00 L620.00,580.00 L620.00,600.00 L600.00,600.00 L600.00,580.00 Z" fill="#111111"/>
  <path d="M668.00,580.00 L680.00,580.00 L680.00,600.00 L668.00,600.00 Q660.00,600.00 660.00,592.00 L660.00,588.00 Q660.00,580.00 668.00,580.00 Z" fill="#111111"/>
  <path d="M680.00,580.00 L700.00,580.00 L700.00,592.00 Q700.00,600.00 692.00,600.00 L680.00,600.00 L680.00,580.00 Z" fill="#111111"/>
  <path d="M220.00,600.00 L240.00,600.00 L240.00,612.00 Q240.00,620.00 232.00,620.00 L228.00,620.00 Q220.00,620.00 220.00,612.00 L220.00,600.00 Z" fill="#111111"/>
  <path d="M308.00,600.00 L312.00,600.00 Q320.00,600.00 320.00,608.00 L320.00,620.00 L300.00,620.00 L300.00,608.00 Q300.00,600.00 308.00,600.00 Z" fill="#111111"/>
  <path d="M360.00,600.00 L380.00,600.00 L380.00,620.00 L360.00,620.00 L360.00,600.00 Z" fill="#111111"/>
  <path d="M420.00,600.00 L440.00,600.00 L440.00,620.00 L428.00,620.00 Q420.00,620.00 420.00,612.00 L420.00,600.00 Z" fill="#111111"/>
  <path d="M440.00,600.00 L460.00,600.00 L460.00,620.00 L440.00,620.00 L440.00,600.00 Z" fill="#111111"/>
  <path d="M460.00,600.00 L480.00,600.00 L480.00,620.00 L460.00,620.00 L460.00,600.00 Z" fill="#111111"/>
  <path d="M500.00,600.00 L520.00,600.00 L520.00,620.00 L508.00,620.00 Q500.00,620.00 500.00,612.00 L500.00,600.00 Z" fill="#111111"/>
  <path d="M520.00,600.00 L540.00,600.00 L540.00,620.00 L520.00,620.00 L520.00,600.00 Z" fill="#111111"/>
  <path d="M540.00,600.00 L560.00,600.00 L560.00,620.00 L540.00,620.00 L540.00,600.00 Z" fill="#111111"/>
  <path d="M560.00,600.00 L580.00,600.00 L580.00,620.00 L560.00,620.00 L560.00,600.00 Z" fill="#111111"/>
  <path d="M580.00,600.00 L600.00,600.00 L600.00,620.00 L580.00,620.00 L580.00,600.00 Z" fill="#111111"/>
  <path d="M600.00,600.00 L620.00,600.00 L620.00,620.00 L600.00,620.00 L600.00,600.00 Z" fill="#111111"/>
  <path d="M248.00,620.00 L252.00,620.00 Q260.00,620.00 260.00,628.00 L260.00,632.00 Q260.00,640.00 252.00,640.00 L248.00,640.00 Q240.00,640.00 240.00,632.00 L240.00,628.00 Q240.00,620.00 248.00,620.00 Z" fill="#111111"/>
  <path d="M300.00,620.00 L320.00,620.00 L320.00,640.00 L300.00,640.00 L300.00,620.00 Z" fill="#111111"/>
  <path d="M320.00,620.00 L332.00,620.00 Q340.00,620.00 340.00,628.00 L340.00,640.00 L320.00,640.00 L320.00,620.00 Z" fill="#111111"/>
  <path d="M360.00,620.00 L380.00,620.00 L380.00,640.00 L360.00,640.00 L360.00,620.00 Z" fill="#111111"/>
  <path d="M408.00,620.00 L412.00,620.00 Q420.00,620.00 420.00,628.00 L420.00,632.00 Q420.00,640.00 412.00,640.00 L408.00,640.00 Q400.00,640.00 400.00,632.00 L400.00,628.00 Q400.00,620.00 408.00,620.00 Z" fill="#111111"/>
  <path d="M460.00,620.00 L480.00,620.00 L480.00,632.00 Q480.00,640.00 472.00,640.00 L468.00,640.00 Q460.00,640.00 460.00,632.00 L460.00,620.00 Z" fill="#111111"/>
  <path d="M520.00,620.00 L540.00,620.00 L540.00,640.00 L520.00,640.00 L520.00,620.00 Z" fill="#111111"/>
  <path d="M540.00,620.00 L560.00,620.00 L560.00,632.00 Q560.00,640.00 552.00,640.00 L540.00,640.00 L540.00,620.00 Z" fill="#111111"/>
  <path d="M580.00,620.00 L600.00,620.00 L600.00,640.00 L588.00,640.00 Q580.00,640.00 580.00,632.00 L580.00,620.00 Z" fill="#111111"/>
  <path d="M600.00,620.00 L620.00,620.00 L620.00,640.00 L600.00,640.00 L600.00,620.00 Z" fill="#111111"/>
  <path d="M648.00,620.00 L660.00,620.00 L660.00,640.00 L648.00,640.00 Q640.00,640.00 640.00,632.00 L640.00,628.00 Q640.00,620.00 648.00,620.00 Z" fill="#111111"/>
  <path d="M660.00,620.00 L672.00,620.00 Q680.00,620.00 680.00,628.00 L680.00,640.00 L660.00,640.00 L660.00,620.00 Z" fill="#111111"/>
  <path d="M208.00,640.00 L220.00,640.00 L220.00,660.00 L208.00,660.00 Q200.00,660.00 200.00,652.00 L200.00,648.00 Q200.00,640.00 208.00,640.00 Z" fill="#111111"/>
  <path d="M220.00,640.00 L232.00,640.00 Q240.00,640.00 240.00,648.00 L240.00,660.00 L220.00,660.00 L220.00,640.00 Z" fill="#111111"/>
  <path d="M300.00,640.00 L320.00,640.00 L320.00,660.00 L300.00,660.00 L300.00,640.00 Z" fill="#111111"/>
  <path d="M320.00,640.00 L340.00,640.00 L340.00,660.00 L320.00,660.00 L320.00,640.00 Z" fill="#111111"/>
  <path d="M360.00,640.00 L380.00,640.00 L380.00,660.00 L368.00,660.00 Q360.00,660.00 360.00,652.00 L360.00,640.00 Z" fill="#111111"/>
  <path d="M380.00,640.00 L392.00,640.00 Q400.00,640.00 400.00,648.00 L400.00,652.00 Q400.00,660.00 392.00,660.00 L380.00,660.00 L380.00,640.00 Z" fill="#111111"/>
  <path d="M448.00,640.00 L452.00,640.00 Q460.00,640.00 460.00,648.00 L460.00,660.00 L440.00,660.00 L440.00,648.00 Q440.00,640.00 448.00,640.00 Z" fill="#111111"/>
  <path d="M488.00,640.00 L500.00,640.00 L500.00,660.00 L480.00,660.00 L480.00,648.00 Q480.00,640.00 488.00,640.00 Z" fill="#111111"/>
  <path d="M500.00,640.00 L520.00,640.00 L520.00,660.00 L500.00,660.00 L500.00,640.00 Z" fill="#111111"/>
  <path d="M520.00,640.00 L540.00,640.00 L540.00,660.00 L520.00,660.00 L520.00,640.00 Z" fill="#111111"/>
  <path d="M600.00,640.00 L620.00,640.00 L620.00,652.00 Q620.00,660.00 612.00,660.00 L608.00,660.00 Q600.00,660.00 600.00,652.00 L600.00,640.00 Z" fill="#111111"/>
  <path d="M660.00,640.00 L680.00,640.00 L680.00,660.00 L668.00,660.00 Q660.00,660.00 660.00,652.00 L660.00,640.00 Z" fill="#111111"/>
  <path d="M680.00,640.00 L692.00,640.00 Q700.00,640.00 700.00,648.00 L700.00,652.00 Q700.00,660.00 692.00,660.00 L680.00,660.00 L680.00,640.00 Z" fill="#111111"/>
  <path d="M220.00,660.00 L240.00,660.00 L240.00,680.00 L220.00,680.00 L220.00,660.00 Z" fill="#111111"/>
  <path d="M240.00,660.00 L252.00,660.00 Q260.00,660.00 260.00,668.00 L260.00,672.00 Q260.00,680.00 252.00,680.00 L240.00,680.00 L240.00,660.00 Z" fill="#111111"/>
  <path d="M288.00,660.00 L300.00,660.00 L300.00,680.00 L280.00,680.00 L280.00,668.00 Q280.00,660.00 288.00,660.00 Z" fill="#111111"/>
  <path d="M300.00,660.00 L320.00,660.00 L320.00,680.00 L300.00,680.00 L300.00,660.00 Z" fill="#111111"/>
  <path d="M320.00,660.00 L340.00,660.00 L340.00,680.00 L320.00,680.00 L320.00,660.00 Z" fill="#111111"/>
  <path d="M340.00,660.00 L352.00,660.00 Q360.00,660.00 360.00,668.00 L360.00,680.00 L340.00,680.00 L340.00,660.00 Z" fill="#111111"/>
  <path d="M440.00,660.00 L460.00,660.00 L460.00,680.00 L440.00,680.00 L440.00,660.00 Z" fill="#111111"/>
  <path d="M480.00,660.00 L500.00,660.00 L500.00,672.00 Q500.00,680.00 492.00,680.00 L488.00,680.00 Q480.00,680.00 480.00,672.00 L480.00,660.00 Z" fill="#111111"/>
  <path d="M520.00,660.00 L540.00,660.00 L540.00,680.00 L520.00,680.00 L520.00,660.00 Z" fill="#111111"/>
  <path d="M540.00,660.00 L552.00,660.00 Q560.00,660.00 560.00,668.00 L560.00,672.00 Q560.00,680.00 552.00,680.00 L540.00,680.00 L540.00,660.00 Z" fill="#111111"/>
  <path d="M220.00,680.00 L240.00,680.00 L240.00,692.00 Q240.00,700.00 232.00,700.00 L228.00,700.00 Q220.00,700.00 220.00,692.00 L220.00,680.00 Z" fill="#111111"/>
  <path d="M268.00,680.00 L280.00,680.00 L280.00,700.00 L268.00,700.00 Q260.00,700.00 260.00,692.00 L260.00,688.00 Q260.00,680.00 268.00,680.00 Z" fill="#111111"/>
  <path d="M280.00,680.00 L300.00,680.00 L300.00,692.00 Q300.00,700.00 292.00,700.00 L280.00,700.00 L280.00,680.00 Z" fill="#111111"/>
  <path d="M340.00,680.00 L360.00,680.00 L360.00,700.00 L348.00,700.00 Q340.00,700.00 340.00,692.00 L340.00,680.00 Z" fill="#111111"/>
  <path d="M360.00,680.00 L380.00,680.00 L380.00,700.00 L360.00,700.00 L360.00,680.00 Z" fill="#111111"/>
  <path d="M380.00,680.00 L400.00,680.00 L400.00,700.00 L380.00,700.00 L380.00,680.00 Z" fill="#111111"/>
  <path d="M400.00,680.00 L420.00,680.00 L420.00,700.00 L400.00,700.00 L400.00,680.00 Z" fill="#111111"/>
  <path d="M420.00,680.00 L440.00,680.00 L440.00,700.00 L420.00,700.00 L420.00,680.00 Z" fill="#111111"/>
  <path d="M440.00,680.00 L460.00,680.00 L460.00,692.00 Q460.00,700.00 452.00,700.00 L440.00,700.00 L440.00,680.00 Z" fill="#111111"/>
  <path d="M508.00,680.00 L520.00,680.00 L520.00,700.00 L508.00,700.00 Q500.00,700.00 500.00,692.00 L500.00,688.00 Q500.00,680.00 508.00,680.00 Z" fill="#111111"/>
  <path d="M520.00,680.00 L540.00,680.00 L540.00,692.00 Q540.00,700.00 532.00,700.00 L520.00,700.00 L520.00,680.00 Z" fill="#111111"/>
  <path d="M568.00,680.00 L572.00,680.00 Q580.00,680.00 580.00,688.00 L580.00,692.00 Q580.00,700.00 572.00,700.00 L568.00,700.00 Q560.00,700.00 560.00,692.00 L560.00,688.00 Q560.00,680.00 568.00,680.00 Z" fill="#111111"/>
  <path d="M608.00,680.00 L620.00,680.00 L620.00,700.00 L608.00,700.00 Q600.00,700.00 600.00,692.00 L600.00,688.00 Q600.00,680.00 608.00,680.00 Z" fill="#111111"/>
  <path d="M620.00,680.00 L640.00,680.00 L640.00,700.00 L620.00,700.00 L620.00,680.00 Z" fill="#111111"/>
  <path d="M640.00,680.00 L652.00,680.00 Q660.00,680.00 660.00,688.00 L660.00,692.00 Q660.00,700.00 652.00,700.00 L640.00,700.00 L640.00,680.00 Z" fill="#111111"/>
  <path d="M688.00,680.00 L692.00,680.00 Q700.00,680.00 700.00,688.00 L700.00,692.00 Q700.00,700.00 692.00,700.00 L688.00,700.00 Q680.00,700.00 680.00,692.00 L680.00,688.00 Q680.00,680.00 688.00,680.00 Z" fill="#111111"/>
  <path d="M100.00,40.00 L180.00,40.00 L180.00,180.00 L40.00,180.00 L40.00,100.00 Q40.00,40.00 100.00,40.00 Z" fill="#111111"/>
  <path d="M100.00,60.00 L160.00,60.00 L160.00,160.00 L60.00,160.00 L60.00,100.00 Q60.00,60.00 100.00,60.00 Z" fill="white"/>
  <path d="M100.00,80.00 L140.00,80.00 L140.00,140.00 L80.00,140.00 L80.00,100.00 Q80.00,80.00 100.00,80.00 Z" fill="#111111"/>
  <path d="M560.00,40.00 L640.00,40.00 Q700.00,40.00 700.00,100.00 L700.00,180.00 L560.00,180.00 L560.00,40.00 Z" fill="#111111"/>
  <path d="M580.00,60.00 L640.00,60.00 Q680.00,60.00 680.00,100.00 L680.00,160.00 L580.00,160.00 L580.00,60.00 Z" fill="white"/>
  <path d="M600.00,80.00 L640.00,80.00 Q660.00,80.00 660.00,100.00 L660.00,140.00 L600.00,140.00 L600.00,80.00 Z" fill="#111111"/>
  <path d="M40.00,560.00 L180.00,560.00 L180.00,700.00 L100.00,700.00 Q40.00,700.00 40.00,640.00 L40.00,560.00 Z" fill="#111111"/>
  <path d="M60.00,580.00 L160.00,580.00 L160.00,680.00 L100.00,680.00 Q60.00,680.00 60.00,640.00 L60.00,580.00 Z" fill="white"/>
  <path d="M80.00,600.00 L140.00,600.00 L140.00,660.00 L100.00,660.00 Q80.00,660.00 80.00,640.00 L80.00,600.00 Z" fill="#111111"/>
  <g transform="translate(240.00,240.00) scale(0.260000,0.260000)">
<defs>
    <style>
      .cls-1 {
        fill: #1971f2;
      }

      .cls-2 {
        fill: #fff;
      }
    </style>
  </defs>
  <rect class="cls-2" width="1000" height="1000"/>
  <g id="Layer_1" data-name="Layer 1">
    <g id="Layer_3" data-name="Layer 3">
      <rect class="cls-1" x="85.9" y="85.19" width="828.8" height="828.8" rx="115" ry="115"/>
      <g>
        <circle class="cls-2" cx="315.49" cy="326.3" r="111.57"/>
        <path class="cls-2" d="M778.68,264.39v526.03h-168.44v-146.03c-6.45,6.01-13.06,11.86-19.87,17.56-50.59,42.38-109.77,75.05-175.92,97.13-62.26,20.79-127.98,31.33-195.3,31.33v-168.44c188.62,0,378.93-110.57,378.93-357.59h180.59Z"/>
      </g>
    </g>
  </g>
  </g>
</svg>