<?xml version="1.0" encoding="UTF-8"?>
<svg id="Layer_1" data-name="Layer 1" xmlns="http://www.w3.org/2000/svg" viewBox="0 0 72 108">
  <defs>
    <style>
      .cls-1 {
        fill: #1971f2;
      }

      .cls-2 {
        fill: #111;
      }

      .cls-3 {
        fill: #fff;
      }
    </style>
  </defs>
  <rect class="cls-3" y="0" width="72" height="108"/>
  <rect class="cls-3" y="0" width="72" height="108"/>
  <path class="cls-1" d="M72,108H0v-43.03l3.98,4.62c1.18,1.36,2.89,2.15,4.69,2.15h54.66c1.8,0,3.51-.78,4.69-2.15l3.98-4.62v43.03h0Z"/>
  <rect class="cls-3" x="5.46" y="89.03" width="61.08" height=".11"/>
  <path class="cls-3" d="M11.99,80.77c0,.49-.4.9-.9.9s-.9-.4-.9-.9.4-.9.9-.9.9.4.9.9"/>
  <path class="cls-3" d="M12.59,82.6s-.1-.02-.13-.06c-.07-.07-.06-.19.01-.25.43-.39.68-.94.68-1.52s-.25-1.14-.68-1.52c-.07-.07-.08-.18-.01-.25.07-.07.18-.08.25-.01.51.46.8,1.11.8,1.79s-.29,1.33-.8,1.79c-.03.03-.08.05-.12.05Z"/>
  <path class="cls-3" d="M9.6,82.6s-.08-.02-.12-.05c-.51-.46-.8-1.11-.8-1.79s.29-1.33.8-1.79c.07-.07.19-.06.25.01s.06.19-.01.25c-.43.39-.68.94-.68,1.52s.25,1.14.68,1.52c.07.07.08.18.01.25-.04.04-.08.06-.13.06Z"/>
  <path class="cls-3" d="M8.72,83.58s-.08-.02-.12-.05c-.78-.7-1.23-1.71-1.23-2.77s.45-2.06,1.23-2.77c.07-.07.19-.06.25.01s.06.19-.01.25c-.71.64-1.11,1.55-1.11,2.5s.41,1.87,1.11,2.5c.07.07.08.18.01.25-.04.04-.08.06-.13.06Z"/>
  <path class="cls-3" d="M13.47,83.58s-.1-.02-.13-.06c-.07-.07-.06-.19.01-.25.71-.64,1.11-1.55,1.11-2.5s-.41-1.86-1.11-2.5c-.07-.07-.08-.18-.01-.25.07-.07.18-.08.25-.01.78.7,1.23,1.71,1.23,2.77s-.45,2.06-1.23,2.77c-.03.03-.08.05-.12.05h0Z"/>
  <path class="cls-3" d="M20.07,79.98c-.22,0-.41-.04-.57-.11-.16-.07-.29-.17-.38-.3-.09-.13-.14-.28-.15-.46h.38c0,.12.04.22.11.3.06.08.15.14.25.18.11.04.22.06.35.06.14,0,.26-.02.37-.07.11-.04.19-.11.25-.19.06-.08.09-.17.09-.28,0-.09-.03-.17-.08-.23-.05-.06-.12-.11-.21-.15-.09-.04-.19-.08-.31-.11l-.35-.1c-.25-.07-.45-.17-.58-.29-.13-.13-.2-.29-.2-.49,0-.17.04-.32.13-.44.09-.13.21-.22.37-.29.15-.07.33-.11.52-.11s.37.04.53.11c.15.07.27.17.36.29.09.12.13.27.14.42h-.37c-.02-.15-.08-.28-.21-.36-.12-.09-.27-.13-.46-.13-.13,0-.24.02-.34.06-.1.04-.17.1-.23.17s-.08.16-.08.25.03.18.09.24c.06.06.13.11.22.15.09.04.18.07.27.09l.31.08c.1.02.19.06.29.1.1.04.19.09.27.16.08.06.15.14.2.23.05.09.08.21.08.34,0,.17-.04.31-.13.44-.09.13-.21.23-.37.31-.16.08-.36.11-.58.11h0Z"/>
  <path class="cls-3" d="M22.58,79.98c-.2,0-.38-.05-.53-.14-.15-.1-.27-.23-.35-.4-.08-.17-.13-.37-.13-.6s.04-.43.13-.6c.08-.17.2-.31.35-.4.15-.1.33-.14.53-.14.11,0,.22.01.31.04.1.03.19.07.26.13.08.06.15.12.2.2.06.08.1.17.12.27l-.35.08c-.01-.06-.04-.11-.07-.16-.03-.05-.07-.09-.12-.13-.05-.04-.1-.06-.16-.08-.06-.02-.13-.03-.2-.03-.15,0-.27.04-.36.11-.1.08-.17.18-.22.3-.05.13-.07.26-.07.42s.02.29.07.41c.05.13.12.22.22.3.1.07.22.11.36.11.07,0,.14-.01.21-.03.06-.02.12-.05.17-.09.05-.04.09-.08.12-.13.03-.05.06-.11.07-.17l.35.08c-.03.1-.07.19-.12.27-.06.08-.12.15-.2.21-.08.06-.17.1-.27.13-.1.03-.2.05-.31.05h0Z"/>
  <path class="cls-3" d="M24.7,79.66c.13,0,.25-.03.34-.08.09-.05.16-.12.21-.2.05-.08.07-.17.07-.26v-.3s-.05.03-.09.04c-.05.01-.1.03-.16.04-.06.01-.12.02-.18.03-.06,0-.11.01-.15.02-.09.01-.17.03-.24.06-.07.03-.13.06-.18.11-.05.05-.07.12-.07.2,0,.07.02.14.06.19.04.05.09.09.16.12.07.03.15.04.24.04h0ZM24.65,79.98c-.14,0-.27-.03-.38-.08-.11-.05-.21-.13-.27-.23-.07-.1-.1-.23-.1-.37,0-.13.03-.23.07-.31.05-.08.12-.14.2-.19.08-.05.18-.08.28-.1.1-.02.21-.04.31-.05.13-.02.24-.03.33-.04.08,0,.14-.03.18-.05.04-.02.06-.06.06-.12h0c0-.1-.02-.18-.05-.24-.04-.06-.09-.11-.16-.15-.07-.03-.16-.05-.26-.05s-.2.02-.27.05c-.08.03-.14.07-.18.13-.05.05-.08.11-.1.16l-.35-.09c.05-.13.11-.24.21-.33.09-.08.2-.14.32-.18.12-.04.24-.06.37-.06.09,0,.18.01.27.03.1.02.19.06.27.12.08.05.15.13.21.23.05.1.08.23.08.39v1.47h-.35v-.3h-.02c-.03.05-.07.11-.12.16s-.13.1-.21.14c-.09.04-.2.06-.32.06h0Z"/>
  <path class="cls-3" d="M26.63,78.61v1.32h-.36v-2.21h.34v.53s-.06,0-.06,0c.07-.2.16-.35.29-.44.13-.09.27-.13.44-.13.15,0,.28.03.4.09.11.06.2.16.27.28s.1.28.1.47v1.4h-.36v-1.37c0-.17-.04-.31-.13-.41-.09-.1-.21-.15-.37-.15-.11,0-.2.02-.29.07-.08.05-.15.11-.2.2-.05.09-.07.2-.07.33h0Z"/>
  <path class="cls-3" d="M29.02,78.61v1.32h-.36v-2.21h.34v.53s-.06,0-.06,0c.07-.2.16-.35.29-.44.13-.09.27-.13.44-.13.15,0,.28.03.4.09.11.06.2.16.27.28s.1.28.1.47v1.4h-.36v-1.37c0-.17-.04-.31-.13-.41-.09-.1-.21-.15-.37-.15-.11,0-.2.02-.29.07-.08.05-.15.11-.2.2-.05.09-.07.2-.07.33h0Z"/>
  <path class="cls-3" d="M31.97,79.98c-.21,0-.4-.05-.55-.14-.15-.1-.27-.23-.36-.4-.08-.17-.12-.37-.12-.6s.04-.43.12-.6c.08-.17.2-.31.35-.41.15-.1.32-.15.52-.15.13,0,.25.02.36.06.12.04.22.11.31.2s.16.21.22.35c.05.14.08.31.08.51v.14h-1.74v-.3h1.55l-.16.11c0-.15-.02-.27-.07-.39-.05-.11-.12-.2-.21-.26-.09-.06-.2-.1-.34-.1s-.25.03-.34.1c-.1.06-.17.15-.22.26-.05.11-.08.22-.08.35v.19c0,.16.03.3.08.41.06.12.13.2.24.26.1.06.22.09.36.09.09,0,.17-.01.25-.04.07-.03.14-.07.19-.12.05-.05.09-.12.12-.19l.35.08c-.03.12-.09.22-.17.31-.08.09-.19.16-.31.21-.12.05-.26.07-.42.07h0Z"/>
  <path class="cls-3" d="M33.4,79.93v-2.21h.34v.34h.02c.04-.11.11-.2.21-.27.1-.07.22-.1.35-.1.03,0,.06,0,.09,0,.03,0,.06,0,.08,0v.36s-.04,0-.08-.01c-.04,0-.09,0-.14,0-.1,0-.19.02-.27.06-.08.04-.14.1-.19.18-.05.08-.07.17-.07.27v1.38h-.36Z"/>
  <path class="cls-3" d="M37,79.66c.14,0,.25-.04.35-.11.09-.07.17-.17.21-.3.05-.13.07-.27.07-.43s-.02-.3-.07-.42c-.05-.12-.12-.22-.21-.29-.09-.07-.21-.11-.35-.11s-.25.03-.34.1c-.09.07-.16.16-.21.29-.05.12-.07.27-.07.43s.02.31.07.43c.05.13.12.22.22.29.1.07.21.11.34.11h0ZM36.02,80.77v-3.05h.34v.35h.03s.07-.1.12-.16c.05-.06.12-.11.2-.15.09-.04.2-.06.33-.06.19,0,.35.05.49.14.14.09.25.23.33.4.08.17.12.37.12.61s-.04.44-.12.61c-.08.17-.19.3-.33.4-.14.09-.31.14-.49.14-.13,0-.24-.02-.32-.07-.09-.04-.15-.1-.21-.16-.05-.06-.09-.12-.12-.17h-.02v1.18h-.36Z"/>
  <path class="cls-3" d="M39.39,79.66c.15,0,.27-.04.37-.11.1-.07.17-.17.22-.3.05-.13.07-.26.07-.41s-.02-.29-.07-.42c-.05-.13-.12-.23-.22-.3-.1-.08-.22-.11-.37-.11s-.27.04-.36.11c-.1.08-.17.18-.22.3-.05.13-.07.26-.07.42s.02.29.07.41c.05.13.12.22.22.3.1.07.22.11.36.11h0ZM39.39,79.98c-.2,0-.38-.05-.53-.14-.15-.1-.27-.23-.35-.4-.08-.17-.13-.37-.13-.6s.04-.43.13-.6c.08-.17.2-.31.35-.4.15-.1.33-.14.53-.14s.38.05.53.14c.15.1.27.23.36.4.08.17.13.37.13.6s-.04.42-.13.6c-.08.17-.2.31-.36.4-.15.1-.33.14-.53.14Z"/>
  <path class="cls-3" d="M41.67,79.96c-.15,0-.28-.03-.4-.09-.12-.06-.2-.16-.27-.28-.06-.12-.1-.28-.1-.47v-1.4h.36v1.37c0,.17.05.31.14.41.09.1.21.15.37.15.11,0,.2-.02.29-.07.08-.05.15-.11.2-.2.05-.09.07-.2.07-.33v-1.32h.36v2.21h-.34v-.54h.06c-.07.21-.17.35-.29.44s-.27.13-.44.13h0Z"/>
  <path class="cls-3" d="M43.29,79.93v-2.21h.34v.34h.02c.04-.11.11-.2.21-.27.1-.07.22-.1.35-.1.03,0,.06,0,.09,0,.03,0,.06,0,.08,0v.36s-.04,0-.08-.01c-.04,0-.09,0-.14,0-.1,0-.19.02-.27.06-.08.04-.14.1-.19.18-.05.08-.07.17-.07.27v1.38h-.36Z"/>
  <path class="cls-3" d="M20.05,84.58c.14,0,.25-.04.35-.11s.17-.17.21-.3c.05-.13.07-.27.07-.43s-.02-.3-.07-.42c-.05-.12-.12-.22-.21-.29-.09-.07-.21-.11-.35-.11s-.25.03-.34.1c-.09.07-.16.16-.21.29-.05.12-.07.27-.07.43s.02.31.07.43.12.22.22.29c.1.07.21.11.34.11h0ZM19.07,85.69v-3.05h.34v.35h.03s.07-.1.12-.16c.05-.06.12-.11.2-.15.09-.04.2-.06.33-.06.19,0,.35.05.49.14.14.09.25.23.33.4.08.17.12.37.12.61s-.04.44-.12.61c-.08.17-.19.3-.33.4-.14.09-.31.14-.49.14-.13,0-.24-.02-.32-.07-.09-.04-.15-.1-.21-.16-.05-.06-.09-.12-.12-.17h-.02v1.18h-.36Z"/>
  <rect class="cls-3" x="21.54" y="81.87" width=".36" height="2.99"/>
  <path class="cls-3" d="M23.26,84.88c-.15,0-.28-.03-.4-.09-.12-.06-.2-.16-.27-.28-.06-.12-.1-.28-.1-.47v-1.4h.36v1.37c0,.17.05.31.14.41.09.1.21.15.37.15.11,0,.2-.02.29-.07.08-.05.15-.11.2-.2s.07-.2.07-.33v-1.32h.36v2.21h-.34v-.54h.06c-.07.21-.17.35-.29.44-.13.09-.27.13-.44.13h0Z"/>
  <path class="cls-3" d="M25.64,84.9c-.15,0-.29-.02-.41-.07-.12-.05-.22-.11-.3-.21s-.13-.2-.15-.34l.34-.06c.03.12.09.22.17.28.09.06.2.09.34.09.15,0,.28-.03.37-.1.09-.07.14-.15.14-.24,0-.08-.03-.14-.08-.19-.06-.05-.14-.09-.24-.11l-.37-.09c-.2-.05-.35-.12-.45-.22-.1-.1-.15-.23-.15-.39,0-.13.04-.24.11-.34.07-.1.17-.17.29-.23s.26-.08.42-.08.28.02.39.07c.11.05.2.12.27.2.07.08.11.18.14.3l-.33.07c-.02-.09-.07-.16-.15-.23-.07-.07-.18-.1-.32-.1s-.24.03-.33.09c-.09.06-.13.14-.13.23,0,.08.03.15.09.2.06.05.15.09.28.12l.34.08c.2.05.35.12.45.22.1.1.15.23.15.38,0,.13-.04.25-.11.35-.07.1-.18.18-.31.24-.13.06-.28.08-.45.08h0Z"/>
  <path class="cls-3" d="M29.02,84.58c.13,0,.25-.04.34-.11.09-.07.17-.17.22-.29.05-.13.07-.27.07-.43s-.02-.31-.07-.43c-.05-.12-.12-.22-.21-.29-.09-.07-.21-.1-.35-.1s-.25.04-.35.11c-.09.07-.17.17-.21.29-.05.12-.07.26-.07.42s.02.3.07.43c.05.13.12.22.22.3.1.07.21.11.34.11h0ZM28.97,84.9c-.19,0-.35-.05-.49-.14-.14-.09-.25-.23-.33-.4-.08-.17-.12-.37-.12-.61s.04-.43.12-.61c.08-.17.19-.3.33-.4.14-.09.31-.14.49-.14.13,0,.24.02.33.06.09.04.15.09.2.15.05.06.09.11.12.16h.02v-1.12h.36v2.99h-.34v-.34h-.03c-.03.05-.07.11-.12.17-.05.06-.12.11-.21.16-.09.04-.19.07-.32.07h0Z"/>
  <path class="cls-3" d="M31.53,84.9c-.21,0-.4-.05-.55-.14-.15-.1-.27-.23-.36-.4-.08-.17-.12-.37-.12-.6s.04-.43.12-.6c.08-.17.2-.31.35-.41.15-.1.32-.15.52-.15.13,0,.25.02.36.06.12.04.22.11.31.2.09.09.16.21.22.35.05.14.08.31.08.51v.14h-1.74v-.3h1.55l-.16.11c0-.15-.02-.27-.07-.39-.05-.11-.12-.2-.21-.26-.09-.06-.2-.1-.34-.1s-.25.03-.34.1c-.1.06-.17.15-.22.26-.05.11-.08.22-.08.35v.19c0,.16.03.3.08.41.06.12.13.2.24.26.1.06.22.09.36.09.09,0,.17-.01.25-.04.07-.03.14-.07.19-.12.05-.05.09-.12.12-.19l.35.08c-.03.12-.09.22-.17.31-.08.09-.19.16-.31.21-.12.05-.26.07-.42.07h0Z"/>
  <path class="cls-3" d="M34.97,84.58c.13,0,.25-.04.34-.11.09-.07.17-.17.22-.29.05-.13.07-.27.07-.43s-.02-.31-.07-.43c-.05-.12-.12-.22-.21-.29-.09-.07-.21-.1-.35-.1s-.25.04-.35.11c-.09.07-.17.17-.21.29-.05.12-.07.26-.07.42s.02.3.07.43c.05.13.12.22.22.3.1.07.21.11.34.11h0ZM34.91,84.9c-.19,0-.35-.05-.49-.14-.14-.09-.25-.23-.33-.4-.08-.17-.12-.37-.12-.61s.04-.43.12-.61c.08-.17.19-.3.33-.4.14-.09.31-.14.49-.14.13,0,.24.02.33.06.09.04.15.09.2.15.05.06.09.11.12.16h.02v-1.12h.36v2.99h-.34v-.34h-.03c-.03.05-.07.11-.12.17-.05.06-.12.11-.21.16-.09.04-.19.07-.32.07h0Z"/>
  <path class="cls-3" d="M37.28,82.35l.28-.59h.4l-.39.59h-.29ZM37.48,84.9c-.21,0-.4-.05-.55-.14-.15-.1-.27-.23-.36-.4-.08-.17-.12-.37-.12-.6s.04-.43.12-.6c.08-.17.2-.31.35-.41.15-.1.32-.15.52-.15.13,0,.25.02.36.06.12.04.22.11.31.2.09.09.16.21.22.35.05.14.08.31.08.51v.14h-1.74v-.3h1.55l-.16.11c0-.15-.02-.27-.07-.39-.05-.11-.12-.2-.21-.26-.09-.06-.2-.1-.34-.1s-.25.03-.34.1c-.1.06-.17.15-.22.26-.05.11-.08.22-.08.35v.19c0,.16.03.3.08.41.06.12.13.2.24.26.1.06.22.09.36.09.09,0,.17-.01.25-.04.07-.03.14-.07.19-.12s.09-.12.12-.19l.35.08c-.03.12-.09.22-.17.31-.08.09-.19.16-.31.21-.12.05-.26.07-.42.07h0Z"/>
  <path class="cls-3" d="M38.98,82.1h.36v2.19c0,.1.02.16.06.21.04.04.11.06.2.06.02,0,.05,0,.09,0,.04,0,.07,0,.1-.01l.06.3s-.08.02-.13.02c-.05,0-.09,0-.14,0-.19,0-.34-.05-.44-.15-.1-.1-.16-.24-.16-.41v-2.22ZM39.79,82.64v.3h-1.16v-.3h1.16Z"/>
  <path class="cls-3" d="M40.95,84.59c.13,0,.25-.03.34-.08.09-.05.16-.12.21-.2.05-.08.07-.17.07-.26v-.3s-.05.03-.09.04c-.05.01-.1.03-.16.04-.06.01-.12.02-.18.03-.06,0-.11.01-.15.02-.09.01-.17.03-.24.06-.07.03-.14.06-.18.11-.05.05-.07.12-.07.2,0,.07.02.14.06.19.04.05.09.09.16.12.07.03.15.04.24.04h0ZM40.89,84.9c-.14,0-.27-.03-.38-.08-.11-.05-.21-.13-.27-.23-.07-.1-.1-.23-.1-.37,0-.13.03-.23.07-.31.05-.08.12-.14.2-.19.08-.05.18-.08.28-.1.1-.02.21-.04.31-.05.13-.02.24-.03.33-.04.08,0,.14-.03.18-.05.04-.02.06-.06.06-.12h0c0-.1-.02-.18-.05-.24-.04-.06-.09-.11-.16-.15-.07-.03-.16-.05-.26-.05s-.2.02-.27.05c-.08.03-.14.07-.18.13-.05.05-.08.11-.1.16l-.35-.09c.05-.13.11-.24.21-.33.09-.08.2-.14.32-.18.12-.04.24-.06.37-.06.09,0,.18.01.27.03.1.02.19.06.27.12.08.05.15.13.21.23.05.1.08.23.08.39v1.47h-.35v-.3h-.02c-.03.05-.07.11-.12.16s-.13.1-.21.14c-.09.04-.2.06-.32.06h0Z"/>
  <path class="cls-3" d="M42.52,84.85v-2.21h.36v2.21h-.36ZM42.7,82.27c-.07,0-.12-.02-.17-.07-.05-.05-.07-.1-.07-.17s.02-.12.07-.17c.05-.05.11-.07.17-.07s.13.02.18.07c.05.05.07.1.07.17s-.02.12-.07.17c-.05.05-.11.07-.18.07Z"/>
  <rect class="cls-3" x="43.48" y="81.87" width=".36" height="2.99"/>
  <path class="cls-3" d="M45.2,84.9c-.15,0-.29-.02-.41-.07-.12-.05-.22-.11-.3-.21-.08-.09-.13-.2-.15-.34l.34-.06c.03.12.09.22.17.28.09.06.2.09.34.09.15,0,.28-.03.37-.1.09-.07.14-.15.14-.24,0-.08-.03-.14-.08-.19-.06-.05-.14-.09-.24-.11l-.37-.09c-.2-.05-.35-.12-.45-.22-.1-.1-.15-.23-.15-.39,0-.13.04-.24.11-.34.07-.1.17-.17.29-.23.12-.05.26-.08.42-.08s.28.02.39.07c.11.05.2.12.27.2.07.08.11.18.14.3l-.33.07c-.02-.09-.07-.16-.15-.23-.07-.07-.18-.1-.32-.1-.13,0-.24.03-.33.09-.09.06-.13.14-.13.23,0,.08.03.15.09.2.06.05.15.09.28.12l.34.08c.2.05.35.12.45.22.1.1.15.23.15.38,0,.13-.04.25-.11.35-.07.1-.18.18-.31.24-.13.06-.28.08-.45.08h0Z"/>
  <path class="cls-3" d="M64.54,79.04v3.49c0,.12-.1.22-.22.22s-.22-.1-.22-.22v-2.98l-3.2,3.13s-.1.06-.15.06-.11-.02-.15-.07c-.08-.08-.08-.22,0-.31l3.19-3.12h-2.7c-.12,0-.22-.1-.22-.22s.1-.22.22-.22h3.23s.02,0,.02,0c0,0,.01,0,.02,0,0,0,.01,0,.02,0,0,0,0,0,.01,0,.01,0,.02,0,.03.01,0,0,.02,0,.02.01,0,0,.01,0,.02.01,0,0,0,0,.01,0,0,0,.01.01.02.02,0,0,.01.02.02.02,0,0,0,.01.01.02,0,0,0,0,0,0,0,0,0,.01,0,.02,0,0,0,.01,0,.02,0,.01,0,.03,0,.04Z"/>
  <path class="cls-3" d="M64.53,78.96s0,.01,0,.02c0,0,0-.01,0-.02,0,0,0,0,0,0Z"/>
  <path class="cls-3" d="M9.69,93.45c0,.54-.44.97-.97.97s-.97-.44-.97-.97.44-.97.97-.97.97.44.97.97"/>
  <path class="cls-3" d="M12.76,92.91v4.59h-1.47v-1.28c-.06.05-.11.1-.17.15-.86.72-2.02,1.12-3.24,1.12v-1.47c1.65,0,3.31-.97,3.31-3.12h1.58Z"/>
  <path class="cls-3" d="M16.23,96.87c.15,0,.28-.03.39-.09.11-.06.2-.14.26-.23.06-.1.09-.21.09-.33v-.36s-.07.03-.12.05c-.05.02-.11.03-.18.04-.07.01-.13.02-.2.03-.07.01-.13.02-.19.03-.11.02-.21.04-.3.08-.09.04-.15.08-.2.15-.05.06-.07.14-.07.23s.02.16.07.22c.04.06.11.11.18.14.08.03.17.05.27.05h0ZM15.97,97.52c-.22,0-.42-.04-.59-.12-.17-.08-.31-.19-.41-.34-.1-.15-.15-.34-.15-.57,0-.19.04-.35.11-.48.07-.13.17-.23.29-.31.12-.08.26-.14.42-.18.16-.04.32-.07.49-.09.2-.02.36-.04.48-.06.12-.02.21-.05.27-.08.06-.04.08-.09.08-.17v-.02c0-.1-.02-.18-.06-.24-.04-.07-.1-.12-.19-.16-.08-.04-.18-.05-.3-.05s-.22.02-.31.05c-.09.04-.16.08-.21.15-.06.06-.09.13-.12.21l-.85-.11c.05-.21.14-.38.27-.53.13-.15.31-.26.52-.34.21-.08.45-.12.71-.12.19,0,.38.02.55.07.17.05.33.12.47.21.14.1.24.22.32.36.08.15.12.32.12.52v2.31h-.89v-.48h-.03c-.06.11-.13.2-.22.28-.09.08-.2.15-.33.19-.13.05-.28.07-.45.07h0Z"/>
  <rect class="cls-3" x="18.65" y="92.83" width=".93" height="4.63"/>
  <rect class="cls-3" x="20.34" y="92.83" width=".93" height="4.63"/>
  <path class="cls-3" d="M23.58,96.79c.16,0,.3-.04.41-.13.11-.09.2-.21.25-.37.06-.16.09-.34.09-.54s-.03-.39-.09-.54c-.06-.16-.14-.28-.25-.37-.11-.09-.25-.13-.41-.13s-.3.04-.41.13c-.11.09-.2.21-.25.37-.06.15-.09.34-.09.54s.03.38.09.54c.06.16.14.28.25.37.11.09.25.13.41.13ZM23.58,97.53c-.35,0-.65-.07-.9-.22-.25-.15-.45-.35-.59-.62-.14-.27-.21-.58-.21-.93s.07-.67.21-.93c.14-.27.33-.47.59-.62.25-.15.55-.22.9-.22s.64.07.9.22c.25.15.45.35.59.62.14.27.21.58.21.93s-.07.66-.21.93c-.14.27-.33.47-.59.62-.25.15-.55.22-.9.22Z"/>
  <path class="cls-3" d="M28.05,97.46l-1.04-1.5.62-.66,1.51,2.16h-1.09ZM26.72,96.46v-1.11h.13l1.14-1.32h1.08l-1.5,1.72h-.22l-.63.71ZM25.89,97.46v-4.63h.93v4.63h-.93Z"/>
  <path class="cls-3" d="M29.53,97.46v-3.43h.93v3.43h-.93ZM30,93.58c-.14,0-.26-.05-.37-.14-.1-.09-.15-.21-.15-.34s.05-.25.15-.34c.1-.09.22-.14.37-.14s.26.05.36.14c.1.09.15.21.15.34s-.05.25-.15.34c-.1.09-.22.14-.36.14Z"/>
  <path class="cls-3" d="M31.41,93.18h.93v3.26c0,.11.02.19.07.24.05.05.13.08.24.08.04,0,.1,0,.16-.01.07,0,.12-.01.15-.02l.1.71c-.09.02-.19.04-.29.05-.1,0-.2.01-.3.01-.35,0-.62-.08-.8-.24s-.27-.4-.27-.71v-3.35h0ZM32.99,94.03v.71h-2.08v-.71h2.08Z"/>
  <path class="cls-3" d="M9.04,103.04v-.74s0-1.72,0-1.72h.42v2.46h-.42ZM7.86,102.56v-.35l1.06-1.63h.29v.49h-.17l-.73,1.12v.02h1.48v.36h-1.93,0Z"/>
  <path class="cls-3" d="M10.95,103.07c-.16,0-.31-.03-.43-.09-.13-.06-.23-.15-.3-.25-.07-.11-.12-.23-.12-.37h.43c0,.07.03.13.07.19.04.05.09.1.15.13.06.03.13.05.21.05.09,0,.17-.02.24-.06.07-.04.12-.1.16-.17.04-.07.06-.15.06-.25s-.02-.18-.06-.25c-.04-.07-.09-.13-.16-.17-.07-.04-.15-.06-.24-.06-.08,0-.16.02-.24.05-.07.03-.13.08-.17.13l-.4-.05.12-1.3h1.45v.37h-1.08l-.07.65h.01c.05-.06.12-.1.2-.14.08-.04.18-.05.28-.05.11,0,.21.02.31.06.1.04.18.1.25.17.07.07.13.16.16.26.04.1.06.21.06.33,0,.16-.04.31-.11.44-.07.13-.18.23-.31.3-.13.07-.29.11-.46.11h0Z"/>
  <path class="cls-3" d="M13.1,102.71c.11,0,.2-.04.28-.11s.13-.17.17-.31c.04-.13.06-.29.06-.48s-.02-.35-.06-.49c-.04-.13-.1-.24-.17-.31-.08-.07-.17-.11-.28-.11s-.2.04-.28.11c-.08.07-.13.17-.17.31s-.06.3-.06.49.02.35.06.48c.04.13.1.24.17.31.08.07.17.11.28.11ZM13.1,103.07c-.2,0-.37-.05-.51-.15-.14-.1-.25-.24-.33-.43-.08-.19-.11-.42-.11-.68s.04-.49.11-.68c.08-.19.18-.33.33-.43s.31-.15.51-.15.37.05.51.15c.14.1.25.25.33.43.08.19.11.42.11.68s-.04.49-.11.68c-.07.19-.18.33-.32.43-.14.1-.31.15-.51.15h0Z"/>
  <rect class="cls-3" x="14.43" y="101.63" width="1.11" height=".35"/>
  <polygon class="cls-3" points="15.96 103.04 17.01 100.96 17.01 100.95 15.8 100.95 15.8 100.58 17.47 100.58 17.47 100.96 16.42 103.04 15.97 103.04 15.96 103.04"/>
  <path class="cls-3" d="M18.74,103.04v-.74s0-1.72,0-1.72h.42v2.46h-.42ZM17.56,102.56v-.35l1.06-1.63h.29v.49h-.17l-.73,1.12v.02h1.48v.36h-1.93,0Z"/>
  <path class="cls-3" d="M19.84,103.04v-.32l.86-.83c.08-.08.15-.15.21-.22.06-.06.1-.13.13-.19.03-.06.04-.13.04-.2,0-.08-.02-.15-.05-.21-.04-.06-.08-.1-.15-.13-.06-.03-.13-.05-.21-.05s-.16.02-.22.05c-.06.03-.11.08-.15.15-.03.06-.05.14-.05.23h-.42c0-.16.04-.3.11-.42.07-.12.17-.21.3-.28s.27-.1.44-.1.31.03.43.09c.13.06.22.15.29.26.07.11.11.23.11.37,0,.1-.02.19-.05.28s-.1.19-.18.29c-.09.11-.21.23-.36.37l-.46.45v.02h1.08v.37h-1.69,0Z"/>
  <rect class="cls-3" x="21.94" y="101.63" width="1.11" height=".35"/>
  <polygon class="cls-3" points="24.43 100.58 24.43 103.04 24 103.04 24 100.98 23.98 100.98 23.4 101.38 23.4 100.97 23.96 100.58 24.43 100.58"/>
  <polygon class="cls-3" points="24.96 103.04 26.01 100.96 26.01 100.95 24.79 100.95 24.79 100.58 26.47 100.58 26.47 100.96 25.42 103.04 24.96 103.04 24.96 103.04"/>
  <path class="cls-3" d="M27.65,102.71c.11,0,.2-.04.28-.11.08-.07.13-.17.17-.31.04-.13.06-.29.06-.48s-.02-.35-.06-.49c-.04-.13-.1-.24-.17-.31-.08-.07-.17-.11-.28-.11s-.2.04-.28.11c-.08.07-.13.17-.17.31-.04.13-.06.3-.06.49s.02.35.06.48c.04.13.1.24.17.31s.17.11.28.11ZM27.65,103.07c-.2,0-.37-.05-.51-.15-.14-.1-.25-.24-.33-.43-.08-.19-.11-.42-.11-.68s.04-.49.11-.68c.08-.19.18-.33.33-.43.14-.1.31-.15.51-.15s.37.05.51.15.25.25.33.43c.08.19.11.42.11.68s-.04.49-.11.68c-.07.19-.18.33-.32.43-.14.1-.31.15-.51.15h0Z"/>
  <path class="cls-3" d="M29.82,103.07c-.18,0-.33-.03-.47-.09-.13-.06-.24-.15-.32-.26-.08-.11-.12-.24-.12-.38h.44c0,.07.03.14.07.2.04.06.09.1.16.13.07.03.15.04.23.04s.17-.02.24-.05c.07-.03.12-.07.16-.13.04-.06.06-.12.06-.2s-.02-.14-.06-.2c-.04-.06-.1-.1-.17-.13-.07-.03-.16-.05-.27-.05h-.22v-.34h.22c.09,0,.16-.02.23-.04.07-.03.12-.07.15-.12.04-.05.06-.12.06-.19s-.02-.13-.05-.19c-.03-.05-.08-.09-.14-.12-.06-.03-.13-.04-.21-.04s-.15.01-.22.04c-.06.03-.12.07-.15.12-.04.05-.06.12-.06.19h-.42c0-.14.04-.26.12-.37.07-.11.18-.19.3-.25.13-.06.27-.09.44-.09s.31.03.43.09c.12.06.22.14.29.25.07.1.1.22.1.34,0,.14-.04.25-.12.35-.08.09-.19.16-.32.19v.02c.11.02.21.05.29.1.08.05.14.12.18.2.04.08.06.17.06.27,0,.14-.04.26-.12.37-.08.11-.19.19-.32.26-.14.06-.29.09-.47.09h0Z"/>
  <rect class="cls-3" x="3.6" y="3.6" width="64.8" height="64.8"/>
  <path class="cls-2" d="M18.58,6.48h.86v1.44h-1.44v-.86c0-.38.19-.58.58-.58Z"/>
  <rect class="cls-2" x="19.44" y="6.48" width="1.44" height="1.44"/>
  <rect class="cls-2" x="20.88" y="6.48" width="1.44" height="1.44"/>
  <rect class="cls-2" x="22.32" y="6.48" width="1.44" height="1.44"/>
  <rect class="cls-2" x="23.76" y="6.48" width="1.44" height="1.44"/>
  <path class="cls-2" d="M25.2,6.48h.86c.38,0,.58.19.58.58v.29c0,.38-.19.58-.58.58h-.86v-1.44Z"/>
  <rect class="cls-2" x="28.08" y="6.48" width="1.44" height="1.44" rx=".58" ry=".58"/>
  <path class="cls-2" d="M31.54,6.48h.29c.38,0,.58.19.58.58v.86h-1.44v-.86c0-.38.19-.58.58-.58Z"/>
  <path class="cls-2" d="M37.3,6.48h.86v1.44h-.86c-.38,0-.58-.19-.58-.58v-.29c0-.38.19-.58.58-.58Z"/>
  <rect class="cls-2" x="38.16" y="6.48" width="1.44" height="1.44"/>
  <path class="cls-2" d="M39.6,6.48h.86c.38,0,.58.19.58.58v.86h-1.44v-1.44Z"/>
  <path class="cls-2" d="M45.94,6.48h.86v1.44h-.86c-.38,0-.58-.19-.58-.58v-.29c0-.38.19-.58.58-.58Z"/>
  <rect class="cls-2" x="46.8" y="6.48" width="1.44" height="1.44"/>
  <path class="cls-2" d="M48.24,6.48h.86c.38,0,.58.19.58.58v.86h-1.44v-1.44Z"/>
  <rect class="cls-2" x="18" y="7.92" width="1.44" height="1.44"/>
  <rect class="cls-2" x="30.96" y="7.92" width="1.44" height="1.44"/>
  <path class="cls-2" d="M34.42,7.92h.29c.38,0,.58.19.58.58v.86h-1.44v-.86c0-.38.19-.58.58-.58Z"/>
  <path class="cls-2" d="M38.16,7.92h1.44v1.44h-.86c-.38,0-.58-.19-.58-.58v-.86Z"/>
  <rect class="cls-2" x="39.6" y="7.92" width="1.44" height="1.44"/>
  <rect class="cls-2" x="48.24" y="7.92" width="1.44" height="1.44"/>
  <rect class="cls-2" x="52.56" y="7.92" width="1.44" height="1.44" rx=".58" ry=".58"/>
  <path class="cls-2" d="M18,9.36h1.44v1.44h-.86c-.38,0-.58-.19-.58-.58v-.86Z"/>
  <path class="cls-2" d="M19.44,9.36h.86c.38,0,.58.19.58.58v.29c0,.38-.19.58-.58.58h-.86v-1.44Z"/>
  <path class="cls-2" d="M22.9,9.36h.86v1.44h-.86c-.38,0-.58-.19-.58-.58v-.29c0-.38.19-.58.58-.58Z"/>
  <rect class="cls-2" x="23.76" y="9.36" width="1.44" height="1.44"/>
  <rect class="cls-2" x="25.2" y="9.36" width="1.44" height="1.44"/>
  <rect class="cls-2" x="26.64" y="9.36" width="1.44" height="1.44"/>
  <path class="cls-2" d="M28.08,9.36h.86c.38,0,.58.19.58.58v.29c0,.38-.19.58-.58.58h-.86v-1.44Z"/>
  <path class="cls-2" d="M30.96,9.36h1.44v1.44h-.86c-.38,0-.58-.19-.58-.58v-.86Z"/>
  <rect class="cls-2" x="32.4" y="9.36" width="1.44" height="1.44"/>
  <path class="cls-2" d="M33.84,9.36h1.44v.86c0,.38-.19.58-.58.58h-.86v-1.44Z"/>
  <rect class="cls-2" x="39.6" y="9.36" width="1.44" height="1.44"/>
  <path class="cls-2" d="M41.04,9.36h.86c.38,0,.58.19.58.58v.29c0,.38-.19.58-.58.58h-.86v-1.44Z"/>
  <rect class="cls-2" x="43.92" y="9.36" width="1.44" height="1.44" rx=".58" ry=".58"/>
  <path class="cls-2" d="M47.38,9.36h.86v1.44h-.86c-.38,0-.58-.19-.58-.58v-.29c0-.38.19-.58.58-.58Z"/>
  <rect class="cls-2" x="48.24" y="9.36" width="1.44" height="1.44"/>
  <path class="cls-2" d="M49.68,9.36h.86c.38,0,.58.19.58.58v.29c0,.38-.19.58-.58.58h-.86v-1.44Z"/>
  <rect class="cls-2" x="29.52" y="10.8" width="1.44" height="1.44" rx=".58" ry=".58"/>
  <rect class="cls-2" x="32.4" y="10.8" width="1.44" height="1.44"/>
  <path class="cls-2" d="M39.6,10.8h1.44v.86c0,.38-.19.58-.58.58h-.29c-.38,0-.58-.19-.58-.58v-.86Z"/>
  <path class="cls-2" d="M20.02,12.24h.86v1.44h-.86c-.38,0-.58-.19-.58-.58v-.29c0-.38.19-.58.58-.58Z"/>
  <rect class="cls-2" x="20.88" y="12.24" width="1.44" height="1.44"/>
  <rect class="cls-2" x="22.32" y="12.24" width="1.44" height="1.44"/>
  <rect class="cls-2" x="23.76" y="12.24" width="1.44" height="1.44"/>
  <path class="cls-2" d="M25.2,12.24h.86c.38,0,.58.19.58.58v.86h-1.44v-1.44Z"/>
  <path class="cls-2" d="M31.54,12.24h.86v1.44h-1.44v-.86c0-.38.19-.58.58-.58Z"/>
  <rect class="cls-2" x="32.4" y="12.24" width="1.44" height="1.44"/>
  <rect class="cls-2" x="33.84" y="12.24" width="1.44" height="1.44"/>
  <path class="cls-2" d="M35.28,12.24h.86c.38,0,.58.19.58.58v.86h-1.44v-1.44Z"/>
  <path class="cls-2" d="M43.06,12.24h.86v1.44h-.86c-.38,0-.58-.19-.58-.58v-.29c0-.38.19-.58.58-.58Z"/>
  <rect class="cls-2" x="43.92" y="12.24" width="1.44" height="1.44"/>
  <path class="cls-2" d="M45.36,12.24h.86c.38,0,.58.19.58.58v.86h-1.44v-1.44Z"/>
  <path class="cls-2" d="M50.26,12.24h.86v1.44h-1.44v-.86c0-.38.19-.58.58-.58Z"/>
  <path class="cls-2" d="M51.12,12.24h.86c.38,0,.58.19.58.58v.29c0,.38-.19.58-.58.58h-.86v-1.44Z"/>
  <path class="cls-2" d="M18.58,13.68h.29c.38,0,.58.19.58.58v.86h-1.44v-.86c0-.38.19-.58.58-.58Z"/>
  <rect class="cls-2" x="20.88" y="13.68" width="1.44" height="1.44"/>
  <rect class="cls-2" x="22.32" y="13.68" width="1.44" height="1.44"/>
  <rect class="cls-2" x="23.76" y="13.68" width="1.44" height="1.44"/>
  <rect class="cls-2" x="25.2" y="13.68" width="1.44" height="1.44"/>
  <rect class="cls-2" x="26.64" y="13.68" width="1.44" height="1.44"/>
  <path class="cls-2" d="M28.08,13.68h.86c.38,0,.58.19.58.58v.29c0,.38-.19.58-.58.58h-.86v-1.44Z"/>
  <path class="cls-2" d="M30.96,13.68h1.44v.86c0,.38-.19.58-.58.58h-.29c-.38,0-.58-.19-.58-.58v-.86Z"/>
  <rect class="cls-2" x="35.28" y="13.68" width="1.44" height="1.44"/>
  <path class="cls-2" d="M38.74,13.68h.29c.38,0,.58.19.58.58v.86h-1.44v-.86c0-.38.19-.58.58-.58Z"/>
  <path class="cls-2" d="M45.36,13.68h1.44v.86c0,.38-.19.58-.58.58h-.29c-.38,0-.58-.19-.58-.58v-.86Z"/>
  <rect class="cls-2" x="49.68" y="13.68" width="1.44" height="1.44"/>
  <path class="cls-2" d="M53.14,13.68h.29c.38,0,.58.19.58.58v.86h-1.44v-.86c0-.38.19-.58.58-.58Z"/>
  <rect class="cls-2" x="18" y="15.12" width="1.44" height="1.44"/>
  <path class="cls-2" d="M20.88,15.12h1.44v.86c0,.38-.19.58-.58.58h-.29c-.38,0-.58-.19-.58-.58v-.86Z"/>
  <path class="cls-2" d="M23.76,15.12h1.44v.86c0,.38-.19.58-.58.58h-.29c-.38,0-.58-.19-.58-.58v-.86Z"/>
  <rect class="cls-2" x="26.64" y="15.12" width="1.44" height="1.44"/>
  <rect class="cls-2" x="29.52" y="15.12" width="1.44" height="1.44" rx=".58" ry=".58"/>
  <path class="cls-2" d="M32.98,15.12h.29c.38,0,.58.19.58.58v.86h-1.44v-.86c0-.38.19-.58.58-.58Z"/>
  <path class="cls-2" d="M35.28,15.12h1.44v.86c0,.38-.19.58-.58.58h-.29c-.38,0-.58-.19-.58-.58v-.86Z"/>
  <path class="cls-2" d="M38.16,15.12h1.44v.86c0,.38-.19.58-.58.58h-.29c-.38,0-.58-.19-.58-.58v-.86Z"/>
  <path class="cls-2" d="M41.62,15.12h.29c.38,0,.58.19.58.58v.86h-1.44v-.86c0-.38.19-.58.58-.58Z"/>
  <rect class="cls-2" x="43.92" y="15.12" width="1.44" height="1.44" rx=".58" ry=".58"/>
  <rect class="cls-2" x="46.8" y="15.12" width="1.44" height="1.44" rx=".58" ry=".58"/>
  <path class="cls-2" d="M49.68,15.12h1.44v.86c0,.38-.19.58-.58.58h-.29c-.38,0-.58-.19-.58-.58v-.86Z"/>
  <rect class="cls-2" x="52.56" y="15.12" width="1.44" height="1.44"/>
  <rect class="cls-2" x="18" y="16.56" width="1.44" height="1.44"/>
  <path class="cls-2" d="M19.44,16.56h.86c.38,0,.58.19.58.58v.29c0,.38-.19.58-.58.58h-.86v-1.44Z"/>
  <rect class="cls-2" x="22.32" y="16.56" width="1.44" height="1.44" rx=".58" ry=".58"/>
  <path class="cls-2" d="M25.78,16.56h.86v1.44h-1.44v-.86c0-.38.19-.58.58-.58Z"/>
  <rect class="cls-2" x="26.64" y="16.56" width="1.44" height="1.44"/>
  <path class="cls-2" d="M32.4,16.56h1.44v.86c0,.38-.19.58-.58.58h-.29c-.38,0-.58-.19-.58-.58v-.86Z"/>
  <rect class="cls-2" x="36.72" y="16.56" width="1.44" height="1.44" rx=".58" ry=".58"/>
  <path class="cls-2" d="M40.18,16.56h.86v1.44h-.86c-.38,0-.58-.19-.58-.58v-.29c0-.38.19-.58.58-.58Z"/>
  <rect class="cls-2" x="41.04" y="16.56" width="1.44" height="1.44"/>
  <path class="cls-2" d="M42.48,16.56h.86c.38,0,.58.19.58.58v.29c0,.38-.19.58-.58.58h-.86v-1.44Z"/>
  <path class="cls-2" d="M45.94,16.56h.29c.38,0,.58.19.58.58v.86h-1.44v-.86c0-.38.19-.58.58-.58Z"/>
  <path class="cls-2" d="M51.7,16.56h.86v1.44h-.86c-.38,0-.58-.19-.58-.58v-.29c0-.38.19-.58.58-.58Z"/>
  <path class="cls-2" d="M52.56,16.56h1.44v.86c0,.38-.19.58-.58.58h-.86v-1.44Z"/>
  <path class="cls-2" d="M9.94,18h.86v1.44h-.86c-.38,0-.58-.19-.58-.58v-.29c0-.38.19-.58.58-.58Z"/>
  <rect class="cls-2" x="10.8" y="18" width="1.44" height="1.44"/>
  <path class="cls-2" d="M12.24,18h.86c.38,0,.58.19.58.58v.29c0,.38-.19.58-.58.58h-.86v-1.44Z"/>
  <rect class="cls-2" x="15.12" y="18" width="1.44" height="1.44" rx=".58" ry=".58"/>
  <path class="cls-2" d="M18,18h1.44v.86c0,.38-.19.58-.58.58h-.29c-.38,0-.58-.19-.58-.58v-.86Z"/>
  <rect class="cls-2" x="20.88" y="18" width="1.44" height="1.44" rx=".58" ry=".58"/>
  <rect class="cls-2" x="25.2" y="18" width="1.44" height="1.44"/>
  <path class="cls-2" d="M26.64,18h1.44v.86c0,.38-.19.58-.58.58h-.86v-1.44Z"/>
  <path class="cls-2" d="M30.1,18h.29c.38,0,.58.19.58.58v.86h-1.44v-.86c0-.38.19-.58.58-.58Z"/>
  <path class="cls-2" d="M34.42,18h.86v1.44h-.86c-.38,0-.58-.19-.58-.58v-.29c0-.38.19-.58.58-.58Z"/>
  <path class="cls-2" d="M35.28,18h.86c.38,0,.58.19.58.58v.86h-1.44v-1.44Z"/>
  <rect class="cls-2" x="41.04" y="18" width="1.44" height="1.44"/>
  <path class="cls-2" d="M44.5,18h.86v1.44h-1.44v-.86c0-.38.19-.58.58-.58Z"/>
  <path class="cls-2" d="M45.36,18h1.44v.86c0,.38-.19.58-.58.58h-.86v-1.44Z"/>
  <path class="cls-2" d="M48.82,18h.29c.38,0,.58.19.58.58v.86h-1.44v-.86c0-.38.19-.58.58-.58Z"/>
  <path class="cls-2" d="M54.58,18h.86v1.44h-.86c-.38,0-.58-.19-.58-.58v-.29c0-.38.19-.58.58-.58Z"/>
  <rect class="cls-2" x="55.44" y="18" width="1.44" height="1.44"/>
  <path class="cls-2" d="M56.88,18h.86c.38,0,.58.19.58.58v.29c0,.38-.19.58-.58.58h-.86v-1.44Z"/>
  <path class="cls-2" d="M61.78,18h.86v1.44h-1.44v-.86c0-.38.19-.58.58-.58Z"/>
  <rect class="cls-2" x="62.64" y="18" width="1.44" height="1.44"/>
  <path class="cls-2" d="M64.08,18h.86c.38,0,.58.19.58.58v.29c0,.38-.19.58-.58.58h-.86v-1.44Z"/>
  <path class="cls-2" d="M8.5,19.44h.29c.38,0,.58.19.58.58v.86h-1.44v-.86c0-.38.19-.58.58-.58Z"/>
  <path class="cls-2" d="M10.8,19.44h1.44v.86c0,.38-.19.58-.58.58h-.29c-.38,0-.58-.19-.58-.58v-.86Z"/>
  <path class="cls-2" d="M17.14,19.44h.29c.38,0,.58.19.58.58v.86h-1.44v-.86c0-.38.19-.58.58-.58Z"/>
  <path class="cls-2" d="M22.9,19.44h.29c.38,0,.58.19.58.58v.86h-1.44v-.86c0-.38.19-.58.58-.58Z"/>
  <rect class="cls-2" x="25.2" y="19.44" width="1.44" height="1.44"/>
  <rect class="cls-2" x="29.52" y="19.44" width="1.44" height="1.44"/>
  <path class="cls-2" d="M35.28,19.44h1.44v.86c0,.38-.19.58-.58.58h-.29c-.38,0-.58-.19-.58-.58v-.86Z"/>
  <path class="cls-2" d="M41.04,19.44h1.44v1.44h-.86c-.38,0-.58-.19-.58-.58v-.86Z"/>
  <rect class="cls-2" x="42.48" y="19.44" width="1.44" height="1.44"/>
  <path class="cls-2" d="M43.92,19.44h1.44v.86c0,.38-.19.58-.58.58h-.86v-1.44Z"/>
  <path class="cls-2" d="M47.38,19.44h.86v1.44h-1.44v-.86c0-.38.19-.58.58-.58Z"/>
  <rect class="cls-2" x="48.24" y="19.44" width="1.44" height="1.44"/>
  <rect class="cls-2" x="49.68" y="19.44" width="1.44" height="1.44"/>
  <rect class="cls-2" x="51.12" y="19.44" width="1.44" height="1.44"/>
  <path class="cls-2" d="M52.56,19.44h.86c.38,0,.58.19.58.58v.86h-1.44v-1.44Z"/>
  <path class="cls-2" d="M58.9,19.44h.29c.38,0,.58.19.58.58v.86h-1.44v-.86c0-.38.19-.58.58-.58Z"/>
  <path class="cls-2" d="M61.2,19.44h1.44v1.44h-.86c-.38,0-.58-.19-.58-.58v-.86Z"/>
  <path class="cls-2" d="M62.64,19.44h1.44v.86c0,.38-.19.58-.58.58h-.86v-1.44Z"/>
  <rect class="cls-2" x="7.92" y="20.88" width="1.44" height="1.44"/>
  <path class="cls-2" d="M9.36,20.88h.86c.38,0,.58.19.58.58v.86h-1.44v-1.44Z"/>
  <path class="cls-2" d="M15.7,20.88h.86v1.44h-.86c-.38,0-.58-.19-.58-.58v-.29c0-.38.19-.58.58-.58Z"/>
  <rect class="cls-2" x="16.56" y="20.88" width="1.44" height="1.44"/>
  <path class="cls-2" d="M18,20.88h.86c.38,0,.58.19.58.58v.29c0,.38-.19.58-.58.58h-.86v-1.44Z"/>
  <rect class="cls-2" x="22.32" y="20.88" width="1.44" height="1.44"/>
  <rect class="cls-2" x="23.76" y="20.88" width="1.44" height="1.44"/>
  <rect class="cls-2" x="25.2" y="20.88" width="1.44" height="1.44"/>
  <path class="cls-2" d="M26.64,20.88h.86c.38,0,.58.19.58.58v.86h-1.44v-1.44Z"/>
  <path class="cls-2" d="M29.52,20.88h1.44v.86c0,.38-.19.58-.58.58h-.29c-.38,0-.58-.19-.58-.58v-.86Z"/>
  <path class="cls-2" d="M32.98,20.88h.86v1.44h-.86c-.38,0-.58-.19-.58-.58v-.29c0-.38.19-.58.58-.58Z"/>
  <path class="cls-2" d="M33.84,20.88h.86c.38,0,.58.19.58.58v.29c0,.38-.19.58-.58.58h-.86v-1.44Z"/>
  <path class="cls-2" d="M42.48,20.88h1.44v.86c0,.38-.19.58-.58.58h-.29c-.38,0-.58-.19-.58-.58v-.86Z"/>
  <path class="cls-2" d="M45.94,20.88h.86v1.44h-.86c-.38,0-.58-.19-.58-.58v-.29c0-.38.19-.58.58-.58Z"/>
  <rect class="cls-2" x="46.8" y="20.88" width="1.44" height="1.44"/>
  <path class="cls-2" d="M48.24,20.88h1.44v.86c0,.38-.19.58-.58.58h-.86v-1.44Z"/>
  <rect class="cls-2" x="52.56" y="20.88" width="1.44" height="1.44"/>
  <path class="cls-2" d="M56.02,20.88h.86v1.44h-1.44v-.86c0-.38.19-.58.58-.58Z"/>
  <rect class="cls-2" x="56.88" y="20.88" width="1.44" height="1.44"/>
  <rect class="cls-2" x="58.32" y="20.88" width="1.44" height="1.44"/>
  <path class="cls-2" d="M64.66,20.88h.29c.38,0,.58.19.58.58v.86h-1.44v-.86c0-.38.19-.58.58-.58Z"/>
  <path class="cls-2" d="M7.06,22.32h.86v1.44h-.86c-.38,0-.58-.19-.58-.58v-.29c0-.38.19-.58.58-.58Z"/>
  <rect class="cls-2" x="7.92" y="22.32" width="1.44" height="1.44"/>
  <rect class="cls-2" x="9.36" y="22.32" width="1.44" height="1.44"/>
  <rect class="cls-2" x="10.8" y="22.32" width="1.44" height="1.44"/>
  <path class="cls-2" d="M12.24,22.32h.86c.38,0,.58.19.58.58v.29c0,.38-.19.58-.58.58h-.86v-1.44Z"/>
  <path class="cls-2" d="M22.32,22.32h1.44v1.44h-.86c-.38,0-.58-.19-.58-.58v-.86Z"/>
  <rect class="cls-2" x="23.76" y="22.32" width="1.44" height="1.44"/>
  <rect class="cls-2" x="25.2" y="22.32" width="1.44" height="1.44"/>
  <rect class="cls-2" x="26.64" y="22.32" width="1.44" height="1.44"/>
  <path class="cls-2" d="M31.54,22.32h.29c.38,0,.58.19.58.58v.86h-1.44v-.86c0-.38.19-.58.58-.58Z"/>
  <path class="cls-2" d="M37.3,22.32h.86v1.44h-.86c-.38,0-.58-.19-.58-.58v-.29c0-.38.19-.58.58-.58Z"/>
  <path class="cls-2" d="M38.16,22.32h.86c.38,0,.58.19.58.58v.29c0,.38-.19.58-.58.58h-.86v-1.44Z"/>
  <path class="cls-2" d="M41.62,22.32h.29c.38,0,.58.19.58.58v.86h-1.44v-.86c0-.38.19-.58.58-.58Z"/>
  <path class="cls-2" d="M50.26,22.32h.86v1.44h-.86c-.38,0-.58-.19-.58-.58v-.29c0-.38.19-.58.58-.58Z"/>
  <rect class="cls-2" x="51.12" y="22.32" width="1.44" height="1.44"/>
  <rect class="cls-2" x="52.56" y="22.32" width="1.44" height="1.44"/>
  <rect class="cls-2" x="54" y="22.32" width="1.44" height="1.44"/>
  <rect class="cls-2" x="55.44" y="22.32" width="1.44" height="1.44"/>
  <path class="cls-2" d="M58.32,22.32h1.44v1.44h-.86c-.38,0-.58-.19-.58-.58v-.86Z"/>
  <path class="cls-2" d="M59.76,22.32h.86c.38,0,.58.19.58.58v.86h-1.44v-1.44Z"/>
  <path class="cls-2" d="M63.22,22.32h.86v1.44h-.86c-.38,0-.58-.19-.58-.58v-.29c0-.38.19-.58.58-.58Z"/>
  <rect class="cls-2" x="64.08" y="22.32" width="1.44" height="1.44"/>
  <rect class="cls-2" x="9.36" y="23.76" width="1.44" height="1.44"/>
  <path class="cls-2" d="M14.26,23.76h.86v1.44h-1.44v-.86c0-.38.19-.58.58-.58Z"/>
  <path class="cls-2" d="M15.12,23.76h.86c.38,0,.58.19.58.58v.29c0,.38-.19.58-.58.58h-.86v-1.44Z"/>
  <rect class="cls-2" x="19.44" y="23.76" width="1.44" height="1.44" rx=".58" ry=".58"/>
  <path class="cls-2" d="M25.2,23.76h1.44v1.44h-.86c-.38,0-.58-.19-.58-.58v-.86Z"/>
  <rect class="cls-2" x="26.64" y="23.76" width="1.44" height="1.44"/>
  <path class="cls-2" d="M28.08,23.76h.86c.38,0,.58.19.58.58v.29c0,.38-.19.58-.58.58h-.86v-1.44Z"/>
  <path class="cls-2" d="M30.96,23.76h1.44v.86c0,.38-.19.58-.58.58h-.29c-.38,0-.58-.19-.58-.58v-.86Z"/>
  <rect class="cls-2" x="33.84" y="23.76" width="1.44" height="1.44" rx=".58" ry=".58"/>
  <path class="cls-2" d="M40.18,23.76h.86v1.44h-1.44v-.86c0-.38.19-.58.58-.58Z"/>
  <rect class="cls-2" x="41.04" y="23.76" width="1.44" height="1.44"/>
  <path class="cls-2" d="M44.5,23.76h.29c.38,0,.58.19.58.58v.86h-1.44v-.86c0-.38.19-.58.58-.58Z"/>
  <path class="cls-2" d="M48.82,23.76h.29c.38,0,.58.19.58.58v.86h-1.44v-.86c0-.38.19-.58.58-.58Z"/>
  <path class="cls-2" d="M51.12,23.76h1.44v1.44h-.86c-.38,0-.58-.19-.58-.58v-.86Z"/>
  <path class="cls-2" d="M52.56,23.76h1.44v.86c0,.38-.19.58-.58.58h-.86v-1.44Z"/>
  <path class="cls-2" d="M55.44,23.76h1.44v.86c0,.38-.19.58-.58.58h-.29c-.38,0-.58-.19-.58-.58v-.86Z"/>
  <rect class="cls-2" x="59.76" y="23.76" width="1.44" height="1.44"/>
  <path class="cls-2" d="M61.2,23.76h.86c.38,0,.58.19.58.58v.86h-1.44v-1.44Z"/>
  <path class="cls-2" d="M64.08,23.76h1.44v.86c0,.38-.19.58-.58.58h-.29c-.38,0-.58-.19-.58-.58v-.86Z"/>
  <rect class="cls-2" x="9.36" y="25.2" width="1.44" height="1.44"/>
  <rect class="cls-2" x="13.68" y="25.2" width="1.44" height="1.44"/>
  <rect class="cls-2" x="18" y="25.2" width="1.44" height="1.44" rx=".58" ry=".58"/>
  <path class="cls-2" d="M21.46,25.2h.86v1.44h-.86c-.38,0-.58-.19-.58-.58v-.29c0-.38.19-.58.58-.58Z"/>
  <path class="cls-2" d="M22.32,25.2h.86c.38,0,.58.19.58.58v.29c0,.38-.19.58-.58.58h-.86v-1.44Z"/>
  <rect class="cls-2" x="29.52" y="25.2" width="1.44" height="1.44" rx=".58" ry=".58"/>
  <path class="cls-2" d="M35.86,25.2h.86v1.44h-.86c-.38,0-.58-.19-.58-.58v-.29c0-.38.19-.58.58-.58Z"/>
  <rect class="cls-2" x="36.72" y="25.2" width="1.44" height="1.44"/>
  <rect class="cls-2" x="38.16" y="25.2" width="1.44" height="1.44"/>
  <rect class="cls-2" x="39.6" y="25.2" width="1.44" height="1.44"/>
  <path class="cls-2" d="M41.04,25.2h1.44v.86c0,.38-.19.58-.58.58h-.86v-1.44Z"/>
  <path class="cls-2" d="M43.92,25.2h1.44v1.44h-.86c-.38,0-.58-.19-.58-.58v-.86Z"/>
  <rect class="cls-2" x="45.36" y="25.2" width="1.44" height="1.44"/>
  <rect class="cls-2" x="46.8" y="25.2" width="1.44" height="1.44"/>
  <rect class="cls-2" x="48.24" y="25.2" width="1.44" height="1.44"/>
  <path class="cls-2" d="M49.68,25.2h.86c.38,0,.58.19.58.58v.29c0,.38-.19.58-.58.58h-.86v-1.44Z"/>
  <path class="cls-2" d="M54.58,25.2h.29c.38,0,.58.19.58.58v.86h-1.44v-.86c0-.38.19-.58.58-.58Z"/>
  <path class="cls-2" d="M57.46,25.2h.86v1.44h-1.44v-.86c0-.38.19-.58.58-.58Z"/>
  <rect class="cls-2" x="58.32" y="25.2" width="1.44" height="1.44"/>
  <rect class="cls-2" x="59.76" y="25.2" width="1.44" height="1.44"/>
  <path class="cls-2" d="M61.2,25.2h1.44v.86c0,.38-.19.58-.58.58h-.86v-1.44Z"/>
  <path class="cls-2" d="M8.5,26.64h.86v1.44h-.86c-.38,0-.58-.19-.58-.58v-.29c0-.38.19-.58.58-.58Z"/>
  <path class="cls-2" d="M9.36,26.64h1.44v.86c0,.38-.19.58-.58.58h-.86v-1.44Z"/>
  <path class="cls-2" d="M12.82,26.64h.86v1.44h-1.44v-.86c0-.38.19-.58.58-.58Z"/>
  <rect class="cls-2" x="13.68" y="26.64" width="1.44" height="1.44"/>
  <path class="cls-2" d="M15.12,26.64h.86c.38,0,.58.19.58.58v.29c0,.38-.19.58-.58.58h-.86v-1.44Z"/>
  <rect class="cls-2" x="19.44" y="26.64" width="1.44" height="1.44" rx=".58" ry=".58"/>
  <path class="cls-2" d="M24.34,26.64h.29c.38,0,.58.19.58.58v.86h-1.44v-.86c0-.38.19-.58.58-.58Z"/>
  <rect class="cls-2" x="48.24" y="26.64" width="1.44" height="1.44"/>
  <path class="cls-2" d="M53.14,26.64h.86v1.44h-.86c-.38,0-.58-.19-.58-.58v-.29c0-.38.19-.58.58-.58Z"/>
  <path class="cls-2" d="M54,26.64h1.44v.86c0,.38-.19.58-.58.58h-.86v-1.44Z"/>
  <path class="cls-2" d="M56.88,26.64h1.44v1.44h-.86c-.38,0-.58-.19-.58-.58v-.86Z"/>
  <rect class="cls-2" x="58.32" y="26.64" width="1.44" height="1.44"/>
  <rect class="cls-2" x="59.76" y="26.64" width="1.44" height="1.44"/>
  <rect class="cls-2" x="62.64" y="26.64" width="1.44" height="1.44" rx=".58" ry=".58"/>
  <path class="cls-2" d="M12.24,28.08h1.44v.86c0,.38-.19.58-.58.58h-.29c-.38,0-.58-.19-.58-.58v-.86Z"/>
  <path class="cls-2" d="M17.14,28.08h.86v1.44h-1.44v-.86c0-.38.19-.58.58-.58Z"/>
  <path class="cls-2" d="M18,28.08h.86c.38,0,.58.19.58.58v.29c0,.38-.19.58-.58.58h-.86v-1.44Z"/>
  <path class="cls-2" d="M22.9,28.08h.86v1.44h-.86c-.38,0-.58-.19-.58-.58v-.29c0-.38.19-.58.58-.58Z"/>
  <rect class="cls-2" x="23.76" y="28.08" width="1.44" height="1.44"/>
  <path class="cls-2" d="M25.2,28.08h.86c.38,0,.58.19.58.58v.86h-1.44v-1.44Z"/>
  <path class="cls-2" d="M47.38,28.08h.86v1.44h-1.44v-.86c0-.38.19-.58.58-.58Z"/>
  <rect class="cls-2" x="48.24" y="28.08" width="1.44" height="1.44"/>
  <path class="cls-2" d="M49.68,28.08h.86c.38,0,.58.19.58.58v.29c0,.38-.19.58-.58.58h-.86v-1.44Z"/>
  <rect class="cls-2" x="55.44" y="28.08" width="1.44" height="1.44" rx=".58" ry=".58"/>
  <path class="cls-2" d="M58.32,28.08h1.44v1.44h-.86c-.38,0-.58-.19-.58-.58v-.86Z"/>
  <rect class="cls-2" x="59.76" y="28.08" width="1.44" height="1.44"/>
  <rect class="cls-2" x="7.92" y="29.52" width="1.44" height="1.44" rx=".58" ry=".58"/>
  <path class="cls-2" d="M15.7,29.52h.86v1.44h-.86c-.38,0-.58-.19-.58-.58v-.29c0-.38.19-.58.58-.58Z"/>
  <path class="cls-2" d="M16.56,29.52h1.44v.86c0,.38-.19.58-.58.58h-.86v-1.44Z"/>
  <path class="cls-2" d="M20.02,29.52h.86v1.44h-1.44v-.86c0-.38.19-.58.58-.58Z"/>
  <path class="cls-2" d="M20.88,29.52h.86c.38,0,.58.19.58.58v.86h-1.44v-1.44Z"/>
  <rect class="cls-2" x="23.76" y="29.52" width="1.44" height="1.44"/>
  <rect class="cls-2" x="25.2" y="29.52" width="1.44" height="1.44"/>
  <path class="cls-2" d="M46.8,29.52h1.44v.86c0,.38-.19.58-.58.58h-.29c-.38,0-.58-.19-.58-.58v-.86Z"/>
  <rect class="cls-2" x="54" y="29.52" width="1.44" height="1.44" rx=".58" ry=".58"/>
  <path class="cls-2" d="M57.46,29.52h.29c.38,0,.58.19.58.58v.86h-1.44v-.86c0-.38.19-.58.58-.58Z"/>
  <rect class="cls-2" x="59.76" y="29.52" width="1.44" height="1.44"/>
  <rect class="cls-2" x="61.2" y="29.52" width="1.44" height="1.44"/>
  <path class="cls-2" d="M62.64,29.52h.86c.38,0,.58.19.58.58v.86h-1.44v-1.44Z"/>
  <path class="cls-2" d="M7.06,30.96h.29c.38,0,.58.19.58.58v.86h-1.44v-.86c0-.38.19-.58.58-.58Z"/>
  <rect class="cls-2" x="10.8" y="30.96" width="1.44" height="1.44" rx=".58" ry=".58"/>
  <path class="cls-2" d="M14.26,30.96h.29c.38,0,.58.19.58.58v.86h-1.44v-.86c0-.38.19-.58.58-.58Z"/>
  <rect class="cls-2" x="19.44" y="30.96" width="1.44" height="1.44"/>
  <rect class="cls-2" x="20.88" y="30.96" width="1.44" height="1.44"/>
  <rect class="cls-2" x="22.32" y="30.96" width="1.44" height="1.44"/>
  <rect class="cls-2" x="23.76" y="30.96" width="1.44" height="1.44"/>
  <rect class="cls-2" x="25.2" y="30.96" width="1.44" height="1.44"/>
  <path class="cls-2" d="M45.94,30.96h.29c.38,0,.58.19.58.58v.86h-1.44v-.86c0-.38.19-.58.58-.58Z"/>
  <path class="cls-2" d="M50.26,30.96h.29c.38,0,.58.19.58.58v.86h-1.44v-.86c0-.38.19-.58.58-.58Z"/>
  <rect class="cls-2" x="52.56" y="30.96" width="1.44" height="1.44" rx=".58" ry=".58"/>
  <path class="cls-2" d="M56.02,30.96h.86v1.44h-.86c-.38,0-.58-.19-.58-.58v-.29c0-.38.19-.58.58-.58Z"/>
  <rect class="cls-2" x="56.88" y="30.96" width="1.44" height="1.44"/>
  <rect class="cls-2" x="58.32" y="30.96" width="1.44" height="1.44"/>
  <rect class="cls-2" x="59.76" y="30.96" width="1.44" height="1.44"/>
  <rect class="cls-2" x="61.2" y="30.96" width="1.44" height="1.44"/>
  <rect class="cls-2" x="62.64" y="30.96" width="1.44" height="1.44"/>
  <path class="cls-2" d="M64.08,30.96h.86c.38,0,.58.19.58.58v.29c0,.38-.19.58-.58.58h-.86v-1.44Z"/>
  <path class="cls-2" d="M6.48,32.4h1.44v.86c0,.38-.19.58-.58.58h-.29c-.38,0-.58-.19-.58-.58v-.86Z"/>
  <path class="cls-2" d="M12.82,32.4h.86v1.44h-1.44v-.86c0-.38.19-.58.58-.58Z"/>
  <rect class="cls-2" x="13.68" y="32.4" width="1.44" height="1.44"/>
  <rect class="cls-2" x="15.12" y="32.4" width="1.44" height="1.44"/>
  <path class="cls-2" d="M16.56,32.4h.86c.38,0,.58.19.58.58v.86h-1.44v-1.44Z"/>
  <path class="cls-2" d="M19.44,32.4h1.44v1.44h-.86c-.38,0-.58-.19-.58-.58v-.86Z"/>
  <path class="cls-2" d="M20.88,32.4h1.44v.86c0,.38-.19.58-.58.58h-.86v-1.44Z"/>
  <rect class="cls-2" x="25.2" y="32.4" width="1.44" height="1.44"/>
  <rect class="cls-2" x="45.36" y="32.4" width="1.44" height="1.44"/>
  <path class="cls-2" d="M46.8,32.4h.86c.38,0,.58.19.58.58v.29c0,.38-.19.58-.58.58h-.86v-1.44Z"/>
  <path class="cls-2" d="M49.68,32.4h1.44v1.44h-.86c-.38,0-.58-.19-.58-.58v-.86Z"/>
  <path class="cls-2" d="M51.12,32.4h.86c.38,0,.58.19.58.58v.86h-1.44v-1.44Z"/>
  <rect class="cls-2" x="58.32" y="32.4" width="1.44" height="1.44"/>
  <rect class="cls-2" x="61.2" y="32.4" width="1.44" height="1.44"/>
  <rect class="cls-2" x="62.64" y="32.4" width="1.44" height="1.44"/>
  <path class="cls-2" d="M8.5,33.84h.86v1.44h-.86c-.38,0-.58-.19-.58-.58v-.29c0-.38.19-.58.58-.58Z"/>
  <path class="cls-2" d="M9.36,33.84h.86c.38,0,.58.19.58.58v.29c0,.38-.19.58-.58.58h-.86v-1.44Z"/>
  <rect class="cls-2" x="12.24" y="33.84" width="1.44" height="1.44"/>
  <path class="cls-2" d="M13.68,33.84h1.44v.86c0,.38-.19.58-.58.58h-.86v-1.44Z"/>
  <rect class="cls-2" x="16.56" y="33.84" width="1.44" height="1.44"/>
  <rect class="cls-2" x="25.2" y="33.84" width="1.44" height="1.44"/>
  <rect class="cls-2" x="45.36" y="33.84" width="1.44" height="1.44"/>
  <rect class="cls-2" x="51.12" y="33.84" width="1.44" height="1.44"/>
  <path class="cls-2" d="M52.56,33.84h.86c.38,0,.58.19.58.58v.29c0,.38-.19.58-.58.58h-.86v-1.44Z"/>
  <rect class="cls-2" x="55.44" y="33.84" width="1.44" height="1.44" rx=".58" ry=".58"/>
  <rect class="cls-2" x="58.32" y="33.84" width="1.44" height="1.44"/>
  <rect class="cls-2" x="59.76" y="33.84" width="1.44" height="1.44"/>
  <rect class="cls-2" x="61.2" y="33.84" width="1.44" height="1.44"/>
  <path class="cls-2" d="M62.64,33.84h1.44v.86c0,.38-.19.58-.58.58h-.86v-1.44Z"/>
  <path class="cls-2" d="M11.38,35.28h.86v1.44h-.86c-.38,0-.58-.19-.58-.58v-.29c0-.38.19-.58.58-.58Z"/>
  <rect class="cls-2" x="12.24" y="35.28" width="1.44" height="1.44"/>
  <path class="cls-2" d="M15.7,35.28h.86v1.44h-.86c-.38,0-.58-.19-.58-.58v-.29c0-.38.19-.58.58-.58Z"/>
  <rect class="cls-2" x="16.56" y="35.28" width="1.44" height="1.44"/>
  <path class="cls-2" d="M21.46,35.28h.86v1.44h-1.44v-.86c0-.38.19-.58.58-.58Z"/>
  <rect class="cls-2" x="22.32" y="35.28" width="1.44" height="1.44"/>
  <rect class="cls-2" x="23.76" y="35.28" width="1.44" height="1.44"/>
  <rect class="cls-2" x="25.2" y="35.28" width="1.44" height="1.44"/>
  <rect class="cls-2" x="45.36" y="35.28" width="1.44" height="1.44"/>
  <path class="cls-2" d="M50.26,35.28h.86v1.44h-.86c-.38,0-.58-.19-.58-.58v-.29c0-.38.19-.58.58-.58Z"/>
  <rect class="cls-2" x="51.12" y="35.28" width="1.44" height="1.44"/>
  <path class="cls-2" d="M57.46,35.28h.86v1.44h-.86c-.38,0-.58-.19-.58-.58v-.29c0-.38.19-.58.58-.58Z"/>
  <rect class="cls-2" x="58.32" y="35.28" width="1.44" height="1.44"/>
  <rect class="cls-2" x="7.92" y="36.72" width="1.44" height="1.44" rx=".58" ry=".58"/>
  <path class="cls-2" d="M12.24,36.72h1.44v.86c0,.38-.19.58-.58.58h-.29c-.38,0-.58-.19-.58-.58v-.86Z"/>
  <path class="cls-2" d="M16.56,36.72h1.44v1.44h-.86c-.38,0-.58-.19-.58-.58v-.86Z"/>
  <rect class="cls-2" x="18" y="36.72" width="1.44" height="1.44"/>
  <rect class="cls-2" x="19.44" y="36.72" width="1.44" height="1.44"/>
  <rect class="cls-2" x="20.88" y="36.72" width="1.44" height="1.44"/>
  <path class="cls-2" d="M22.32,36.72h1.44v.86c0,.38-.19.58-.58.58h-.86v-1.44Z"/>
  <rect class="cls-2" x="25.2" y="36.72" width="1.44" height="1.44"/>
  <rect class="cls-2" x="45.36" y="36.72" width="1.44" height="1.44"/>
  <rect class="cls-2" x="48.24" y="36.72" width="1.44" height="1.44" rx=".58" ry=".58"/>
  <path class="cls-2" d="M51.12,36.72h1.44v1.44h-.86c-.38,0-.58-.19-.58-.58v-.86Z"/>
  <rect class="cls-2" x="52.56" y="36.72" width="1.44" height="1.44"/>
  <rect class="cls-2" x="54" y="36.72" width="1.44" height="1.44"/>
  <path class="cls-2" d="M55.44,36.72h.86c.38,0,.58.19.58.58v.86h-1.44v-1.44Z"/>
  <rect class="cls-2" x="58.32" y="36.72" width="1.44" height="1.44"/>
  <path class="cls-2" d="M63.22,36.72h.86v1.44h-.86c-.38,0-.58-.19-.58-.58v-.29c0-.38.19-.58.58-.58Z"/>
  <path class="cls-2" d="M64.08,36.72h.86c.38,0,.58.19.58.58v.29c0,.38-.19.58-.58.58h-.86v-1.44Z"/>
  <path class="cls-2" d="M14.26,38.16h.86v1.44h-1.44v-.86c0-.38.19-.58.58-.58Z"/>
  <path class="cls-2" d="M15.12,38.16h.86c.38,0,.58.19.58.58v.29c0,.38-.19.58-.58.58h-.86v-1.44Z"/>
  <path class="cls-2" d="M19.44,38.16h1.44v1.44h-.86c-.38,0-.58-.19-.58-.58v-.86Z"/>
  <path class="cls-2" d="M20.88,38.16h1.44v.86c0,.38-.19.58-.58.58h-.86v-1.44Z"/>
  <path class="cls-2" d="M25.2,38.16h1.44v.86c0,.38-.19.58-.58.58h-.29c-.38,0-.58-.19-.58-.58v-.86Z"/>
  <rect class="cls-2" x="45.36" y="38.16" width="1.44" height="1.44"/>
  <path class="cls-2" d="M46.8,38.16h.86c.38,0,.58.19.58.58v.86h-1.44v-1.44Z"/>
  <rect class="cls-2" x="55.44" y="38.16" width="1.44" height="1.44"/>
  <rect class="cls-2" x="56.88" y="38.16" width="1.44" height="1.44"/>
  <rect class="cls-2" x="58.32" y="38.16" width="1.44" height="1.44"/>
  <path class="cls-2" d="M59.76,38.16h.86c.38,0,.58.19.58.58v.29c0,.38-.19.58-.58.58h-.86v-1.44Z"/>
  <rect class="cls-2" x="10.8" y="39.6" width="1.44" height="1.44" rx=".58" ry=".58"/>
  <path class="cls-2" d="M13.68,39.6h1.44v.86c0,.38-.19.58-.58.58h-.29c-.38,0-.58-.19-.58-.58v-.86Z"/>
  <rect class="cls-2" x="18" y="39.6" width="1.44" height="1.44" rx=".58" ry=".58"/>
  <rect class="cls-2" x="22.32" y="39.6" width="1.44" height="1.44" rx=".58" ry=".58"/>
  <path class="cls-2" d="M45.36,39.6h1.44v1.44h-.86c-.38,0-.58-.19-.58-.58v-.86Z"/>
  <path class="cls-2" d="M46.8,39.6h1.44v.86c0,.38-.19.58-.58.58h-.86v-1.44Z"/>
  <path class="cls-2" d="M50.26,39.6h.86v1.44h-.86c-.38,0-.58-.19-.58-.58v-.29c0-.38.19-.58.58-.58Z"/>
  <rect class="cls-2" x="51.12" y="39.6" width="1.44" height="1.44"/>
  <rect class="cls-2" x="52.56" y="39.6" width="1.44" height="1.44"/>
  <rect class="cls-2" x="54" y="39.6" width="1.44" height="1.44"/>
  <rect class="cls-2" x="55.44" y="39.6" width="1.44" height="1.44"/>
  <rect class="cls-2" x="58.32" y="39.6" width="1.44" height="1.44"/>
  <path class="cls-2" d="M64.66,39.6h.29c.38,0,.58.19.58.58v.86h-1.44v-.86c0-.38.19-.58.58-.58Z"/>
  <rect class="cls-2" x="6.48" y="41.04" width="1.44" height="1.44" rx=".58" ry=".58"/>
  <path class="cls-2" d="M15.7,41.04h.86v1.44h-.86c-.38,0-.58-.19-.58-.58v-.29c0-.38.19-.58.58-.58Z"/>
  <path class="cls-2" d="M16.56,41.04h.86c.38,0,.58.19.58.58v.29c0,.38-.19.58-.58.58h-.86v-1.44Z"/>
  <path class="cls-2" d="M20.02,41.04h.86v1.44h-1.44v-.86c0-.38.19-.58.58-.58Z"/>
  <path class="cls-2" d="M20.88,41.04h.86c.38,0,.58.19.58.58v.29c0,.38-.19.58-.58.58h-.86v-1.44Z"/>
  <rect class="cls-2" x="48.24" y="41.04" width="1.44" height="1.44" rx=".58" ry=".58"/>
  <rect class="cls-2" x="51.12" y="41.04" width="1.44" height="1.44"/>
  <path class="cls-2" d="M55.44,41.04h1.44v.86c0,.38-.19.58-.58.58h-.29c-.38,0-.58-.19-.58-.58v-.86Z"/>
  <path class="cls-2" d="M58.32,41.04h1.44v1.44h-.86c-.38,0-.58-.19-.58-.58v-.86Z"/>
  <path class="cls-2" d="M59.76,41.04h.86c.38,0,.58.19.58.58v.86h-1.44v-1.44Z"/>
  <path class="cls-2" d="M63.22,41.04h.86v1.44h-.86c-.38,0-.58-.19-.58-.58v-.29c0-.38.19-.58.58-.58Z"/>
  <path class="cls-2" d="M64.08,41.04h1.44v.86c0,.38-.19.58-.58.58h-.86v-1.44Z"/>
  <path class="cls-2" d="M9.94,42.48h.29c.38,0,.58.19.58.58v.86h-1.44v-.86c0-.38.19-.58.58-.58Z"/>
  <path class="cls-2" d="M18.58,42.48h.86v1.44h-.86c-.38,0-.58-.19-.58-.58v-.29c0-.38.19-.58.58-.58Z"/>
  <path class="cls-2" d="M19.44,42.48h1.44v.86c0,.38-.19.58-.58.58h-.86v-1.44Z"/>
  <path class="cls-2" d="M47.38,42.48h.29c.38,0,.58.19.58.58v.86h-1.44v-.86c0-.38.19-.58.58-.58Z"/>
  <path class="cls-2" d="M50.26,42.48h.86v1.44h-1.44v-.86c0-.38.19-.58.58-.58Z"/>
  <path class="cls-2" d="M51.12,42.48h1.44v.86c0,.38-.19.58-.58.58h-.86v-1.44Z"/>
  <path class="cls-2" d="M54.58,42.48h.29c.38,0,.58.19.58.58v.86h-1.44v-.86c0-.38.19-.58.58-.58Z"/>
  <rect class="cls-2" x="56.88" y="42.48" width="1.44" height="1.44" rx=".58" ry=".58"/>
  <path class="cls-2" d="M59.76,42.48h1.44v.86c0,.38-.19.58-.58.58h-.29c-.38,0-.58-.19-.58-.58v-.86Z"/>
  <path class="cls-2" d="M7.06,43.92h.29c.38,0,.58.19.58.58v.86h-1.44v-.86c0-.38.19-.58.58-.58Z"/>
  <rect class="cls-2" x="9.36" y="43.92" width="1.44" height="1.44"/>
  <path class="cls-2" d="M14.26,43.92h.86v1.44h-.86c-.38,0-.58-.19-.58-.58v-.29c0-.38.19-.58.58-.58Z"/>
  <path class="cls-2" d="M15.12,43.92h.86c.38,0,.58.19.58.58v.29c0,.38-.19.58-.58.58h-.86v-1.44Z"/>
  <rect class="cls-2" x="20.88" y="43.92" width="1.44" height="1.44" rx=".58" ry=".58"/>
  <path class="cls-2" d="M45.94,43.92h.86v1.44h-.86c-.38,0-.58-.19-.58-.58v-.29c0-.38.19-.58.58-.58Z"/>
  <rect class="cls-2" x="46.8" y="43.92" width="1.44" height="1.44"/>
  <rect class="cls-2" x="48.24" y="43.92" width="1.44" height="1.44"/>
  <path class="cls-2" d="M49.68,43.92h1.44v.86c0,.38-.19.58-.58.58h-.86v-1.44Z"/>
  <path class="cls-2" d="M53.14,43.92h.86v1.44h-1.44v-.86c0-.38.19-.58.58-.58Z"/>
  <path class="cls-2" d="M54,43.92h1.44v.86c0,.38-.19.58-.58.58h-.86v-1.44Z"/>
  <rect class="cls-2" x="62.64" y="43.92" width="1.44" height="1.44" rx=".58" ry=".58"/>
  <rect class="cls-2" x="6.48" y="45.36" width="1.44" height="1.44"/>
  <path class="cls-2" d="M9.36,45.36h1.44v.86c0,.38-.19.58-.58.58h-.29c-.38,0-.58-.19-.58-.58v-.86Z"/>
  <rect class="cls-2" x="12.24" y="45.36" width="1.44" height="1.44" rx=".58" ry=".58"/>
  <rect class="cls-2" x="16.56" y="45.36" width="1.44" height="1.44" rx=".58" ry=".58"/>
  <rect class="cls-2" x="19.44" y="45.36" width="1.44" height="1.44" rx=".58" ry=".58"/>
  <path class="cls-2" d="M22.9,45.36h.29c.38,0,.58.19.58.58v.86h-1.44v-.86c0-.38.19-.58.58-.58Z"/>
  <path class="cls-2" d="M27.22,45.36h.86v1.44h-.86c-.38,0-.58-.19-.58-.58v-.29c0-.38.19-.58.58-.58Z"/>
  <rect class="cls-2" x="28.08" y="45.36" width="1.44" height="1.44"/>
  <path class="cls-2" d="M29.52,45.36h.86c.38,0,.58.19.58.58v.86h-1.44v-1.44Z"/>
  <rect class="cls-2" x="35.28" y="45.36" width="1.44" height="1.44" rx=".58" ry=".58"/>
  <path class="cls-2" d="M44.5,45.36h.29c.38,0,.58.19.58.58v.86h-1.44v-.86c0-.38.19-.58.58-.58Z"/>
  <rect class="cls-2" x="46.8" y="45.36" width="1.44" height="1.44"/>
  <path class="cls-2" d="M51.7,45.36h.86v1.44h-1.44v-.86c0-.38.19-.58.58-.58Z"/>
  <path class="cls-2" d="M52.56,45.36h1.44v.86c0,.38-.19.58-.58.58h-.86v-1.44Z"/>
  <rect class="cls-2" x="56.88" y="45.36" width="1.44" height="1.44" rx=".58" ry=".58"/>
  <path class="cls-2" d="M60.34,45.36h.29c.38,0,.58.19.58.58v.86h-1.44v-.86c0-.38.19-.58.58-.58Z"/>
  <rect class="cls-2" x="6.48" y="46.8" width="1.44" height="1.44"/>
  <path class="cls-2" d="M11.38,46.8h.29c.38,0,.58.19.58.58v.86h-1.44v-.86c0-.38.19-.58.58-.58Z"/>
  <path class="cls-2" d="M14.26,46.8h.86v1.44h-1.44v-.86c0-.38.19-.58.58-.58Z"/>
  <path class="cls-2" d="M15.12,46.8h.86c.38,0,.58.19.58.58v.29c0,.38-.19.58-.58.58h-.86v-1.44Z"/>
  <path class="cls-2" d="M22.32,46.8h1.44v.86c0,.38-.19.58-.58.58h-.29c-.38,0-.58-.19-.58-.58v-.86Z"/>
  <path class="cls-2" d="M25.78,46.8h.29c.38,0,.58.19.58.58v.86h-1.44v-.86c0-.38.19-.58.58-.58Z"/>
  <rect class="cls-2" x="29.52" y="46.8" width="1.44" height="1.44"/>
  <path class="cls-2" d="M30.96,46.8h.86c.38,0,.58.19.58.58v.29c0,.38-.19.58-.58.58h-.86v-1.44Z"/>
  <path class="cls-2" d="M37.3,46.8h.29c.38,0,.58.19.58.58v.86h-1.44v-.86c0-.38.19-.58.58-.58Z"/>
  <path class="cls-2" d="M43.06,46.8h.86v1.44h-1.44v-.86c0-.38.19-.58.58-.58Z"/>
  <path class="cls-2" d="M43.92,46.8h1.44v.86c0,.38-.19.58-.58.58h-.86v-1.44Z"/>
  <path class="cls-2" d="M46.8,46.8h1.44v1.44h-.86c-.38,0-.58-.19-.58-.58v-.86Z"/>
  <path class="cls-2" d="M48.24,46.8h.86c.38,0,.58.19.58.58v.29c0,.38-.19.58-.58.58h-.86v-1.44Z"/>
  <path class="cls-2" d="M51.12,46.8h1.44v.86c0,.38-.19.58-.58.58h-.29c-.38,0-.58-.19-.58-.58v-.86Z"/>
  <rect class="cls-2" x="54" y="46.8" width="1.44" height="1.44" rx=".58" ry=".58"/>
  <path class="cls-2" d="M59.76,46.8h1.44v1.44h-.86c-.38,0-.58-.19-.58-.58v-.86Z"/>
  <rect class="cls-2" x="61.2" y="46.8" width="1.44" height="1.44"/>
  <path class="cls-2" d="M62.64,46.8h.86c.38,0,.58.19.58.58v.86h-1.44v-1.44Z"/>
  <rect class="cls-2" x="6.48" y="48.24" width="1.44" height="1.44"/>
  <rect class="cls-2" x="7.92" y="48.24" width="1.44" height="1.44"/>
  <rect class="cls-2" x="9.36" y="48.24" width="1.44" height="1.44"/>
  <path class="cls-2" d="M10.8,48.24h1.44v.86c0,.38-.19.58-.58.58h-.86v-1.44Z"/>
  <path class="cls-2" d="M13.68,48.24h1.44v.86c0,.38-.19.58-.58.58h-.29c-.38,0-.58-.19-.58-.58v-.86Z"/>
  <rect class="cls-2" x="18" y="48.24" width="1.44" height="1.44" rx=".58" ry=".58"/>
  <path class="cls-2" d="M21.46,48.24h.29c.38,0,.58.19.58.58v.86h-1.44v-.86c0-.38.19-.58.58-.58Z"/>
  <path class="cls-2" d="M24.34,48.24h.86v1.44h-1.44v-.86c0-.38.19-.58.58-.58Z"/>
  <rect class="cls-2" x="25.2" y="48.24" width="1.44" height="1.44"/>
  <path class="cls-2" d="M26.64,48.24h.86c.38,0,.58.19.58.58v.29c0,.38-.19.58-.58.58h-.86v-1.44Z"/>
  <rect class="cls-2" x="29.52" y="48.24" width="1.44" height="1.44"/>
  <path class="cls-2" d="M34.42,48.24h.86v1.44h-.86c-.38,0-.58-.19-.58-.58v-.29c0-.38.19-.58.58-.58Z"/>
  <rect class="cls-2" x="35.28" y="48.24" width="1.44" height="1.44"/>
  <rect class="cls-2" x="36.72" y="48.24" width="1.44" height="1.44"/>
  <rect class="cls-2" x="38.16" y="48.24" width="1.44" height="1.44"/>
  <path class="cls-2" d="M39.6,48.24h.86c.38,0,.58.19.58.58v.86h-1.44v-1.44Z"/>
  <rect class="cls-2" x="42.48" y="48.24" width="1.44" height="1.44"/>
  <path class="cls-2" d="M45.94,48.24h.29c.38,0,.58.19.58.58v.86h-1.44v-.86c0-.38.19-.58.58-.58Z"/>
  <path class="cls-2" d="M50.26,48.24h.29c.38,0,.58.19.58.58v.86h-1.44v-.86c0-.38.19-.58.58-.58Z"/>
  <rect class="cls-2" x="52.56" y="48.24" width="1.44" height="1.44" rx=".58" ry=".58"/>
  <path class="cls-2" d="M57.46,48.24h.86v1.44h-.86c-.38,0-.58-.19-.58-.58v-.29c0-.38.19-.58.58-.58Z"/>
  <path class="cls-2" d="M58.32,48.24h.86c.38,0,.58.19.58.58v.86h-1.44v-1.44Z"/>
  <path class="cls-2" d="M62.64,48.24h1.44v.86c0,.38-.19.58-.58.58h-.29c-.38,0-.58-.19-.58-.58v-.86Z"/>
  <rect class="cls-2" x="6.48" y="49.68" width="1.44" height="1.44"/>
  <rect class="cls-2" x="9.36" y="49.68" width="1.44" height="1.44"/>
  <rect class="cls-2" x="12.24" y="49.68" width="1.44" height="1.44" rx=".58" ry=".58"/>
  <path class="cls-2" d="M15.7,49.68h.86v1.44h-.86c-.38,0-.58-.19-.58-.58v-.29c0-.38.19-.58.58-.58Z"/>
  <path class="cls-2" d="M16.56,49.68h.86c.38,0,.58.19.58.58v.29c0,.38-.19.58-.58.58h-.86v-1.44Z"/>
  <rect class="cls-2" x="20.88" y="49.68" width="1.44" height="1.44"/>
  <rect class="cls-2" x="23.76" y="49.68" width="1.44" height="1.44"/>
  <rect class="cls-2" x="25.2" y="49.68" width="1.44" height="1.44"/>
  <rect class="cls-2" x="29.52" y="49.68" width="1.44" height="1.44"/>
  <path class="cls-2" d="M30.96,49.68h.86c.38,0,.58.19.58.58v.86h-1.44v-1.44Z"/>
  <path class="cls-2" d="M36.72,49.68h1.44v1.44h-.86c-.38,0-.58-.19-.58-.58v-.86Z"/>
  <rect class="cls-2" x="38.16" y="49.68" width="1.44" height="1.44"/>
  <rect class="cls-2" x="39.6" y="49.68" width="1.44" height="1.44"/>
  <rect class="cls-2" x="41.04" y="49.68" width="1.44" height="1.44"/>
  <path class="cls-2" d="M42.48,49.68h1.44v.86c0,.38-.19.58-.58.58h-.86v-1.44Z"/>
  <rect class="cls-2" x="45.36" y="49.68" width="1.44" height="1.44"/>
  <path class="cls-2" d="M46.8,49.68h.86c.38,0,.58.19.58.58v.29c0,.38-.19.58-.58.58h-.86v-1.44Z"/>
  <path class="cls-2" d="M49.68,49.68h1.44v1.44h-.86c-.38,0-.58-.19-.58-.58v-.86Z"/>
  <path class="cls-2" d="M51.12,49.68h.86c.38,0,.58.19.58.58v.86h-1.44v-1.44Z"/>
  <path class="cls-2" d="M54.58,49.68h.86v1.44h-1.44v-.86c0-.38.19-.58.58-.58Z"/>
  <path class="cls-2" d="M55.44,49.68h.86c.38,0,.58.19.58.58v.86h-1.44v-1.44Z"/>
  <rect class="cls-2" x="58.32" y="49.68" width="1.44" height="1.44"/>
  <rect class="cls-2" x="59.76" y="49.68" width="1.44" height="1.44"/>
  <path class="cls-2" d="M61.2,49.68h.86c.38,0,.58.19.58.58v.29c0,.38-.19.58-.58.58h-.86v-1.44Z"/>
  <path class="cls-2" d="M64.66,49.68h.29c.38,0,.58.19.58.58v.86h-1.44v-.86c0-.38.19-.58.58-.58Z"/>
  <rect class="cls-2" x="6.48" y="51.12" width="1.44" height="1.44"/>
  <rect class="cls-2" x="9.36" y="51.12" width="1.44" height="1.44"/>
  <path class="cls-2" d="M10.8,51.12h.86c.38,0,.58.19.58.58v.86h-1.44v-1.44Z"/>
  <rect class="cls-2" x="13.68" y="51.12" width="1.44" height="1.44" rx=".58" ry=".58"/>
  <path class="cls-2" d="M20.02,51.12h.86v1.44h-1.44v-.86c0-.38.19-.58.58-.58Z"/>
  <rect class="cls-2" x="20.88" y="51.12" width="1.44" height="1.44"/>
  <path class="cls-2" d="M23.76,51.12h1.44v1.44h-.86c-.38,0-.58-.19-.58-.58v-.86Z"/>
  <path class="cls-2" d="M25.2,51.12h1.44v.86c0,.38-.19.58-.58.58h-.86v-1.44Z"/>
  <path class="cls-2" d="M28.66,51.12h.86v1.44h-.86c-.38,0-.58-.19-.58-.58v-.29c0-.38.19-.58.58-.58Z"/>
  <rect class="cls-2" x="29.52" y="51.12" width="1.44" height="1.44"/>
  <rect class="cls-2" x="30.96" y="51.12" width="1.44" height="1.44"/>
  <path class="cls-2" d="M32.4,51.12h.86c.38,0,.58.19.58.58v.29c0,.38-.19.58-.58.58h-.86v-1.44Z"/>
  <path class="cls-2" d="M41.04,51.12h1.44v.86c0,.38-.19.58-.58.58h-.29c-.38,0-.58-.19-.58-.58v-.86Z"/>
  <path class="cls-2" d="M44.5,51.12h.86v1.44h-1.44v-.86c0-.38.19-.58.58-.58Z"/>
  <rect class="cls-2" x="45.36" y="51.12" width="1.44" height="1.44"/>
  <rect class="cls-2" x="51.12" y="51.12" width="1.44" height="1.44"/>
  <rect class="cls-2" x="52.56" y="51.12" width="1.44" height="1.44"/>
  <rect class="cls-2" x="54" y="51.12" width="1.44" height="1.44"/>
  <rect class="cls-2" x="55.44" y="51.12" width="1.44" height="1.44"/>
  <rect class="cls-2" x="56.88" y="51.12" width="1.44" height="1.44"/>
  <rect class="cls-2" x="58.32" y="51.12" width="1.44" height="1.44"/>
  <rect class="cls-2" x="59.76" y="51.12" width="1.44" height="1.44"/>
  <path class="cls-2" d="M63.22,51.12h.86v1.44h-.86c-.38,0-.58-.19-.58-.58v-.29c0-.38.19-.58.58-.58Z"/>
  <rect class="cls-2" x="64.08" y="51.12" width="1.44" height="1.44"/>
  <path class="cls-2" d="M6.48,52.56h1.44v.86c0,.38-.19.58-.58.58h-.29c-.38,0-.58-.19-.58-.58v-.86Z"/>
  <path class="cls-2" d="M9.36,52.56h1.44v1.44h-.86c-.38,0-.58-.19-.58-.58v-.86Z"/>
  <path class="cls-2" d="M10.8,52.56h1.44v.86c0,.38-.19.58-.58.58h-.86v-1.44Z"/>
  <rect class="cls-2" x="15.12" y="52.56" width="1.44" height="1.44" rx=".58" ry=".58"/>
  <rect class="cls-2" x="19.44" y="52.56" width="1.44" height="1.44"/>
  <path class="cls-2" d="M20.88,52.56h1.44v.86c0,.38-.19.58-.58.58h-.86v-1.44Z"/>
  <path class="cls-2" d="M27.22,52.56h.29c.38,0,.58.19.58.58v.86h-1.44v-.86c0-.38.19-.58.58-.58Z"/>
  <rect class="cls-2" x="30.96" y="52.56" width="1.44" height="1.44"/>
  <path class="cls-2" d="M34.42,52.56h.86v1.44h-1.44v-.86c0-.38.19-.58.58-.58Z"/>
  <path class="cls-2" d="M35.28,52.56h.86c.38,0,.58.19.58.58v.86h-1.44v-1.44Z"/>
  <path class="cls-2" d="M38.74,52.56h.86v1.44h-.86c-.38,0-.58-.19-.58-.58v-.29c0-.38.19-.58.58-.58Z"/>
  <path class="cls-2" d="M39.6,52.56h.86c.38,0,.58.19.58.58v.29c0,.38-.19.58-.58.58h-.86v-1.44Z"/>
  <path class="cls-2" d="M43.92,52.56h1.44v1.44h-.86c-.38,0-.58-.19-.58-.58v-.86Z"/>
  <rect class="cls-2" x="45.36" y="52.56" width="1.44" height="1.44"/>
  <path class="cls-2" d="M50.26,52.56h.86v1.44h-.86c-.38,0-.58-.19-.58-.58v-.29c0-.38.19-.58.58-.58Z"/>
  <rect class="cls-2" x="51.12" y="52.56" width="1.44" height="1.44"/>
  <rect class="cls-2" x="52.56" y="52.56" width="1.44" height="1.44"/>
  <rect class="cls-2" x="54" y="52.56" width="1.44" height="1.44"/>
  <rect class="cls-2" x="55.44" y="52.56" width="1.44" height="1.44"/>
  <rect class="cls-2" x="56.88" y="52.56" width="1.44" height="1.44"/>
  <rect class="cls-2" x="58.32" y="52.56" width="1.44" height="1.44"/>
  <rect class="cls-2" x="59.76" y="52.56" width="1.44" height="1.44"/>
  <path class="cls-2" d="M61.2,52.56h.86c.38,0,.58.19.58.58v.29c0,.38-.19.58-.58.58h-.86v-1.44Z"/>
  <rect class="cls-2" x="64.08" y="52.56" width="1.44" height="1.44"/>
  <path class="cls-2" d="M18.58,54h.86v1.44h-.86c-.38,0-.58-.19-.58-.58v-.29c0-.38.19-.58.58-.58Z"/>
  <path class="cls-2" d="M19.44,54h1.44v.86c0,.38-.19.58-.58.58h-.86v-1.44Z"/>
  <path class="cls-2" d="M26.64,54h1.44v.86c0,.38-.19.58-.58.58h-.29c-.38,0-.58-.19-.58-.58v-.86Z"/>
  <path class="cls-2" d="M30.1,54h.86v1.44h-.86c-.38,0-.58-.19-.58-.58v-.29c0-.38.19-.58.58-.58Z"/>
  <rect class="cls-2" x="30.96" y="54" width="1.44" height="1.44"/>
  <rect class="cls-2" x="32.4" y="54" width="1.44" height="1.44"/>
  <rect class="cls-2" x="33.84" y="54" width="1.44" height="1.44"/>
  <rect class="cls-2" x="35.28" y="54" width="1.44" height="1.44"/>
  <path class="cls-2" d="M36.72,54h.86c.38,0,.58.19.58.58v.86h-1.44v-1.44Z"/>
  <path class="cls-2" d="M41.62,54h.86v1.44h-1.44v-.86c0-.38.19-.58.58-.58Z"/>
  <path class="cls-2" d="M42.48,54h.86c.38,0,.58.19.58.58v.86h-1.44v-1.44Z"/>
  <path class="cls-2" d="M45.36,54h1.44v1.44h-.86c-.38,0-.58-.19-.58-.58v-.86Z"/>
  <rect class="cls-2" x="46.8" y="54" width="1.44" height="1.44"/>
  <path class="cls-2" d="M48.24,54h.86c.38,0,.58.19.58.58v.86h-1.44v-1.44Z"/>
  <path class="cls-2" d="M51.12,54h1.44v1.44h-.86c-.38,0-.58-.19-.58-.58v-.86Z"/>
  <rect class="cls-2" x="52.56" y="54" width="1.44" height="1.44"/>
  <rect class="cls-2" x="58.32" y="54" width="1.44" height="1.44"/>
  <path class="cls-2" d="M64.08,54h1.44v.86c0,.38-.19.58-.58.58h-.29c-.38,0-.58-.19-.58-.58v-.86Z"/>
  <path class="cls-2" d="M21.46,55.44h.29c.38,0,.58.19.58.58v.86h-1.44v-.86c0-.38.19-.58.58-.58Z"/>
  <path class="cls-2" d="M25.78,55.44h.29c.38,0,.58.19.58.58v.86h-1.44v-.86c0-.38.19-.58.58-.58Z"/>
  <rect class="cls-2" x="30.96" y="55.44" width="1.44" height="1.44"/>
  <path class="cls-2" d="M32.4,55.44h1.44v.86c0,.38-.19.58-.58.58h-.86v-1.44Z"/>
  <path class="cls-2" d="M36.72,55.44h1.44v.86c0,.38-.19.58-.58.58h-.29c-.38,0-.58-.19-.58-.58v-.86Z"/>
  <rect class="cls-2" x="41.04" y="55.44" width="1.44" height="1.44"/>
  <rect class="cls-2" x="42.48" y="55.44" width="1.44" height="1.44"/>
  <rect class="cls-2" x="48.24" y="55.44" width="1.44" height="1.44"/>
  <rect class="cls-2" x="52.56" y="55.44" width="1.44" height="1.44"/>
  <rect class="cls-2" x="55.44" y="55.44" width="1.44" height="1.44" rx=".58" ry=".58"/>
  <rect class="cls-2" x="58.32" y="55.44" width="1.44" height="1.44"/>
  <path class="cls-2" d="M59.76,55.44h.86c.38,0,.58.19.58.58v.29c0,.38-.19.58-.58.58h-.86v-1.44Z"/>
  <path class="cls-2" d="M20.88,56.88h1.44v1.44h-.86c-.38,0-.58-.19-.58-.58v-.86Z"/>
  <rect class="cls-2" x="22.32" y="56.88" width="1.44" height="1.44"/>
  <rect class="cls-2" x="23.76" y="56.88" width="1.44" height="1.44"/>
  <rect class="cls-2" x="25.2" y="56.88" width="1.44" height="1.44"/>
  <rect class="cls-2" x="28.08" y="56.88" width="1.44" height="1.44" rx=".58" ry=".58"/>
  <rect class="cls-2" x="30.96" y="56.88" width="1.44" height="1.44"/>
  <rect class="cls-2" x="33.84" y="56.88" width="1.44" height="1.44" rx=".58" ry=".58"/>
  <path class="cls-2" d="M41.04,56.88h1.44v1.44h-.86c-.38,0-.58-.19-.58-.58v-.86Z"/>
  <rect class="cls-2" x="42.48" y="56.88" width="1.44" height="1.44"/>
  <path class="cls-2" d="M43.92,56.88h.86c.38,0,.58.19.58.58v.29c0,.38-.19.58-.58.58h-.86v-1.44Z"/>
  <path class="cls-2" d="M47.38,56.88h.86v1.44h-.86c-.38,0-.58-.19-.58-.58v-.29c0-.38.19-.58.58-.58Z"/>
  <rect class="cls-2" x="48.24" y="56.88" width="1.44" height="1.44"/>
  <path class="cls-2" d="M49.68,56.88h.86c.38,0,.58.19.58.58v.29c0,.38-.19.58-.58.58h-.86v-1.44Z"/>
  <rect class="cls-2" x="52.56" y="56.88" width="1.44" height="1.44"/>
  <rect class="cls-2" x="58.32" y="56.88" width="1.44" height="1.44"/>
  <path class="cls-2" d="M18.58,58.32h.86v1.44h-1.44v-.86c0-.38.19-.58.58-.58Z"/>
  <path class="cls-2" d="M19.44,58.32h.86c.38,0,.58.19.58.58v.86h-1.44v-1.44Z"/>
  <path class="cls-2" d="M22.32,58.32h1.44v.86c0,.38-.19.58-.58.58h-.29c-.38,0-.58-.19-.58-.58v-.86Z"/>
  <rect class="cls-2" x="25.2" y="58.32" width="1.44" height="1.44"/>
  <path class="cls-2" d="M26.64,58.32h.86c.38,0,.58.19.58.58v.29c0,.38-.19.58-.58.58h-.86v-1.44Z"/>
  <path class="cls-2" d="M30.96,58.32h1.44v.86c0,.38-.19.58-.58.58h-.29c-.38,0-.58-.19-.58-.58v-.86Z"/>
  <path class="cls-2" d="M35.86,58.32h.86v1.44h-.86c-.38,0-.58-.19-.58-.58v-.29c0-.38.19-.58.58-.58Z"/>
  <path class="cls-2" d="M36.72,58.32h.86c.38,0,.58.19.58.58v.86h-1.44v-1.44Z"/>
  <rect class="cls-2" x="42.48" y="58.32" width="1.44" height="1.44"/>
  <path class="cls-2" d="M52.56,58.32h1.44v1.44h-.86c-.38,0-.58-.19-.58-.58v-.86Z"/>
  <rect class="cls-2" x="54" y="58.32" width="1.44" height="1.44"/>
  <rect class="cls-2" x="55.44" y="58.32" width="1.44" height="1.44"/>
  <rect class="cls-2" x="56.88" y="58.32" width="1.44" height="1.44"/>
  <rect class="cls-2" x="58.32" y="58.32" width="1.44" height="1.44"/>
  <path class="cls-2" d="M59.76,58.32h.86c.38,0,.58.19.58.58v.86h-1.44v-1.44Z"/>
  <path class="cls-2" d="M63.22,58.32h.86v1.44h-.86c-.38,0-.58-.19-.58-.58v-.29c0-.38.19-.58.58-.58Z"/>
  <path class="cls-2" d="M64.08,58.32h.86c.38,0,.58.19.58.58v.29c0,.38-.19.58-.58.58h-.86v-1.44Z"/>
  <rect class="cls-2" x="18" y="59.76" width="1.44" height="1.44"/>
  <rect class="cls-2" x="19.44" y="59.76" width="1.44" height="1.44"/>
  <path class="cls-2" d="M20.88,59.76h.86c.38,0,.58.19.58.58v.86h-1.44v-1.44Z"/>
  <path class="cls-2" d="M24.34,59.76h.86v1.44h-1.44v-.86c0-.38.19-.58.58-.58Z"/>
  <rect class="cls-2" x="25.2" y="59.76" width="1.44" height="1.44"/>
  <path class="cls-2" d="M28.66,59.76h.86v1.44h-.86c-.38,0-.58-.19-.58-.58v-.29c0-.38.19-.58.58-.58Z"/>
  <path class="cls-2" d="M29.52,59.76h.86c.38,0,.58.19.58.58v.86h-1.44v-1.44Z"/>
  <path class="cls-2" d="M34.42,59.76h.29c.38,0,.58.19.58.58v.86h-1.44v-.86c0-.38.19-.58.58-.58Z"/>
  <rect class="cls-2" x="36.72" y="59.76" width="1.44" height="1.44"/>
  <rect class="cls-2" x="38.16" y="59.76" width="1.44" height="1.44"/>
  <rect class="cls-2" x="39.6" y="59.76" width="1.44" height="1.44"/>
  <rect class="cls-2" x="41.04" y="59.76" width="1.44" height="1.44"/>
  <path class="cls-2" d="M42.48,59.76h1.44v.86c0,.38-.19.58-.58.58h-.86v-1.44Z"/>
  <path class="cls-2" d="M47.38,59.76h.86v1.44h-1.44v-.86c0-.38.19-.58.58-.58Z"/>
  <rect class="cls-2" x="48.24" y="59.76" width="1.44" height="1.44"/>
  <rect class="cls-2" x="49.68" y="59.76" width="1.44" height="1.44"/>
  <path class="cls-2" d="M51.12,59.76h.86c.38,0,.58.19.58.58v.29c0,.38-.19.58-.58.58h-.86v-1.44Z"/>
  <rect class="cls-2" x="54" y="59.76" width="1.44" height="1.44"/>
  <rect class="cls-2" x="56.88" y="59.76" width="1.44" height="1.44"/>
  <path class="cls-2" d="M59.76,59.76h1.44v1.44h-.86c-.38,0-.58-.19-.58-.58v-.86Z"/>
  <path class="cls-2" d="M61.2,59.76h.86c.38,0,.58.19.58.58v.86h-1.44v-1.44Z"/>
  <path class="cls-2" d="M18,61.2h1.44v1.44h-.86c-.38,0-.58-.19-.58-.58v-.86Z"/>
  <rect class="cls-2" x="19.44" y="61.2" width="1.44" height="1.44"/>
  <rect class="cls-2" x="20.88" y="61.2" width="1.44" height="1.44"/>
  <path class="cls-2" d="M23.76,61.2h1.44v1.44h-.86c-.38,0-.58-.19-.58-.58v-.86Z"/>
  <rect class="cls-2" x="25.2" y="61.2" width="1.44" height="1.44"/>
  <rect class="cls-2" x="29.52" y="61.2" width="1.44" height="1.44"/>
  <rect class="cls-2" x="30.96" y="61.2" width="1.44" height="1.44"/>
  <rect class="cls-2" x="32.4" y="61.2" width="1.44" height="1.44"/>
  <rect class="cls-2" x="33.84" y="61.2" width="1.44" height="1.44"/>
  <path class="cls-2" d="M36.72,61.2h1.44v1.44h-.86c-.38,0-.58-.19-.58-.58v-.86Z"/>
  <rect class="cls-2" x="38.16" y="61.2" width="1.44" height="1.44"/>
  <rect class="cls-2" x="39.6" y="61.2" width="1.44" height="1.44"/>
  <rect class="cls-2" x="41.04" y="61.2" width="1.44" height="1.44"/>
  <path class="cls-2" d="M45.94,61.2h.86v1.44h-.86c-.38,0-.58-.19-.58-.58v-.29c0-.38.19-.58.58-.58Z"/>
  <rect class="cls-2" x="46.8" y="61.2" width="1.44" height="1.44"/>
  <rect class="cls-2" x="54" y="61.2" width="1.44" height="1.44"/>
  <rect class="cls-2" x="55.44" y="61.2" width="1.44" height="1.44"/>
  <rect class="cls-2" x="56.88" y="61.2" width="1.44" height="1.44"/>
  <path class="cls-2" d="M58.32,61.2h.86c.38,0,.58.19.58.58v.86h-1.44v-1.44Z"/>
  <rect class="cls-2" x="61.2" y="61.2" width="1.44" height="1.44"/>
  <path class="cls-2" d="M62.64,61.2h.86c.38,0,.58.19.58.58v.86h-1.44v-1.44Z"/>
  <path class="cls-2" d="M20.88,62.64h1.44v1.44h-.86c-.38,0-.58-.19-.58-.58v-.86Z"/>
  <path class="cls-2" d="M22.32,62.64h.86c.38,0,.58.19.58.58v.29c0,.38-.19.58-.58.58h-.86v-1.44Z"/>
  <path class="cls-2" d="M25.2,62.64h1.44v.86c0,.38-.19.58-.58.58h-.29c-.38,0-.58-.19-.58-.58v-.86Z"/>
  <rect class="cls-2" x="29.52" y="62.64" width="1.44" height="1.44"/>
  <rect class="cls-2" x="30.96" y="62.64" width="1.44" height="1.44"/>
  <rect class="cls-2" x="32.4" y="62.64" width="1.44" height="1.44"/>
  <rect class="cls-2" x="33.84" y="62.64" width="1.44" height="1.44"/>
  <path class="cls-2" d="M35.28,62.64h.86c.38,0,.58.19.58.58v.29c0,.38-.19.58-.58.58h-.86v-1.44Z"/>
  <path class="cls-2" d="M41.04,62.64h1.44v.86c0,.38-.19.58-.58.58h-.29c-.38,0-.58-.19-.58-.58v-.86Z"/>
  <path class="cls-2" d="M46.8,62.64h1.44v.86c0,.38-.19.58-.58.58h-.29c-.38,0-.58-.19-.58-.58v-.86Z"/>
  <rect class="cls-2" x="49.68" y="62.64" width="1.44" height="1.44" rx=".58" ry=".58"/>
  <path class="cls-2" d="M53.14,62.64h.86v1.44h-.86c-.38,0-.58-.19-.58-.58v-.29c0-.38.19-.58.58-.58Z"/>
  <rect class="cls-2" x="54" y="62.64" width="1.44" height="1.44"/>
  <path class="cls-2" d="M55.44,62.64h1.44v.86c0,.38-.19.58-.58.58h-.86v-1.44Z"/>
  <rect class="cls-2" x="58.32" y="62.64" width="1.44" height="1.44"/>
  <rect class="cls-2" x="59.76" y="62.64" width="1.44" height="1.44"/>
  <rect class="cls-2" x="61.2" y="62.64" width="1.44" height="1.44"/>
  <path class="cls-2" d="M62.64,62.64h1.44v.86c0,.38-.19.58-.58.58h-.86v-1.44Z"/>
  <path class="cls-2" d="M29.52,64.08h1.44v1.44h-.86c-.38,0-.58-.19-.58-.58v-.86Z"/>
  <rect class="cls-2" x="30.96" y="64.08" width="1.44" height="1.44"/>
  <rect class="cls-2" x="32.4" y="64.08" width="1.44" height="1.44"/>
  <path class="cls-2" d="M33.84,64.08h1.44v.86c0,.38-.19.58-.58.58h-.86v-1.44Z"/>
  <rect class="cls-2" x="39.6" y="64.08" width="1.44" height="1.44" rx=".58" ry=".58"/>
  <path class="cls-2" d="M43.06,64.08h.86v1.44h-.86c-.38,0-.58-.19-.58-.58v-.29c0-.38.19-.58.58-.58Z"/>
  <path class="cls-2" d="M43.92,64.08h.86c.38,0,.58.19.58.58v.29c0,.38-.19.58-.58.58h-.86v-1.44Z"/>
  <rect class="cls-2" x="48.24" y="64.08" width="1.44" height="1.44" rx=".58" ry=".58"/>
  <rect class="cls-2" x="51.12" y="64.08" width="1.44" height="1.44" rx=".58" ry=".58"/>
  <path class="cls-2" d="M57.46,64.08h.86v1.44h-.86c-.38,0-.58-.19-.58-.58v-.29c0-.38.19-.58.58-.58Z"/>
  <path class="cls-2" d="M58.32,64.08h1.44v.86c0,.38-.19.58-.58.58h-.86v-1.44Z"/>
  <path class="cls-2" d="M10.8,6.48h5.76v10.08H6.48v-5.76c0-2.88,1.44-4.32,4.32-4.32Z"/>
  <path class="cls-3" d="M10.8,7.92h4.32v7.2h-7.2v-4.32c0-1.92.96-2.88,2.88-2.88Z"/>
  <path class="cls-2" d="M10.8,9.36h2.88v4.32h-4.32v-2.88c0-.96.48-1.44,1.44-1.44Z"/>
  <path class="cls-2" d="M55.44,6.48h5.76c2.88,0,4.32,1.44,4.32,4.32v5.76h-10.08V6.48Z"/>
  <path class="cls-3" d="M56.88,7.92h4.32c1.92,0,2.88.96,2.88,2.88v4.32h-7.2v-7.2Z"/>
  <path class="cls-2" d="M58.32,9.36h2.88c.96,0,1.44.48,1.44,1.44v2.88h-4.32v-4.32Z"/>
  <path class="cls-2" d="M6.48,55.44h10.08v10.08h-5.76c-2.88,0-4.32-1.44-4.32-4.32v-5.76Z"/>
  <path class="cls-3" d="M7.92,56.88h7.2v7.2h-4.32c-1.92,0-2.88-.96-2.88-2.88v-4.32Z"/>
  <path class="cls-2" d="M9.36,58.32h4.32v4.32h-2.88c-.96,0-1.44-.48-1.44-1.44v-2.88Z"/>
  <rect class="cls-3" x="26.64" y="26.64" width="18.72" height="18.72"/>
  <rect class="cls-1" x="28.25" y="28.24" width="15.51" height="15.51" rx="2.15" ry="2.15"/>
  <path class="cls-3" d="M34.63,32.75c0,1.15-.94,2.09-2.09,2.09s-2.09-.94-2.09-2.09.94-2.09,2.09-2.09,2.09.94,2.09,2.09"/>
  <path class="cls-3" d="M41.22,31.59v9.85h-3.15v-2.73c-.12.11-.24.22-.37.33-.95.79-2.05,1.4-3.29,1.82-1.17.39-2.4.59-3.66.59v-3.15c3.53,0,7.09-2.07,7.09-6.69h3.38Z"/>
</svg>