<svg xmlns="http://www.w3.org/2000/svg" xmlns:xlink="http://www.w3.org/1999/xlink" width="900" height="900" viewBox="0 0 900 900">
  <rect width="900" height="900" fill="white"/>
  <path d="M208.00,40.00 L212.00,40.00 Q220.00,40.00 220.00,48.00 L220.00,52.00 Q220.00,60.00 212.00,60.00 L208.00,60.00 Q200.00,60.00 200.00,52.00 L200.00,48.00 Q200.00,40.00 208.00,40.00 Z" fill="#111111"/>
  <path d="M268.00,40.00 L280.00,40.00 L280.00,60.00 L260.00,60.00 L260.00,48.00 Q260.00,40.00 268.00,40.00 Z" fill="#111111"/>
  <path d="M280.00,40.00 L300.00,40.00 L300.00,60.00 L280.00,60.00 L280.00,40.00 Z" fill="#111111"/>
  <path d="M300.00,40.00 L320.00,40.00 L320.00,60.00 L300.00,60.00 L300.00,40.00 Z" fill="#111111"/>
  <path d="M320.00,40.00 L332.00,40.00 Q340.00,40.00 340.00,48.00 L340.00,52.00 Q340.00,60.00 332.00,60.00 L320.00,60.00 L320.00,40.00 Z" fill="#111111"/>
  <path d="M368.00,40.00 L372.00,40.00 Q380.00,40.00 380.00,48.00 L380.00,60.00 L360.00,60.00 L360.00,48.00 Q360.00,40.00 368.00,40.00 Z" fill="#111111"/>
  <path d="M408.00,40.00 L412.00,40.00 Q420.00,40.00 420.00,48.00 L420.00,52.00 Q420.00,60.00 412.00,60.00 L408.00,60.00 Q400.00,60.00 400.00,52.00 L400.00,48.00 Q400.00,40.00 408.00,40.00 Z" fill="#111111"/>
  <path d="M448.00,40.00 L460.00,40.00 L460.00,60.00 L448.00,60.00 Q440.00,60.00 440.00,52.00 L440.00,48.00 Q440.00,40.00 448.00,40.00 Z" fill="#111111"/>
  <path d="M460.00,40.00 L480.00,40.00 L480.00,60.00 L460.00,60.00 L460.00,40.00 Z" fill="#111111"/>
  <path d="M480.00,40.00 L500.00,40.00 L500.00,60.00 L480.00,60.00 L480.00,40.00 Z" fill="#111111"/>
  <path d="M500.00,40.00 L520.00,40.00 L520.00,60.00 L500.00,60.00 L500.00,40.00 Z" fill="#111111"/>
  <path d="M520.00,40.00 L540.00,40.00 L540.00,60.00 L520.00,60.00 L520.00,40.00 Z" fill="#111111"/>
  <path d="M540.00,40.00 L552.00,40.00 Q560.00,40.00 560.00,48.00 L560.00,52.00 Q560.00,60.00 552.00,60.00 L540.00,60.00 L540.00,40.00 Z" fill="#111111"/>
  <path d="M608.00,40.00 L612.00,40.00 Q620.00,40.00 620.00,48.00 L620.00,60.00 L600.00,60.00 L600.00,48.00 Q600.00,40.00 608.00,40.00 Z" fill="#111111"/>
  <path d="M648.00,40.00 L652.00,40.00 Q660.00,40.00 660.00,48.00 L660.00,52.00 Q660.00,60.00 652.00,60.00 L648.00,60.00 Q640.00,60.00 640.00,52.00 L640.00,48.00 Q640.00,40.00 648.00,40.00 Z" fill="#111111"/>
  <path d="M260.00,60.00 L280.00,60.00 L280.00,80.00 L260.00,80.00 L260.00,60.00 Z" fill="#111111"/>
  <path d="M300.00,60.00 L320.00,60.00 L320.00,80.00 L300.00,80.00 L300.00,60.00 Z" fill="#111111"/>
  <path d="M360.00,60.00 L380.00,60.00 L380.00,80.00 L360.00,80.00 L360.00,60.00 Z" fill="#111111"/>
  <path d="M568.00,60.00 L580.00,60.00 L580.00,80.00 L560.00,80.00 L560.00,68.00 Q560.00,60.00 568.00,60.00 Z" fill="#111111"/>
  <path d="M580.00,60.00 L600.00,60.00 L600.00,80.00 L580.00,80.00 L580.00,60.00 Z" fill="#111111"/>
  <path d="M600.00,60.00 L620.00,60.00 L620.00,80.00 L600.00,80.00 L600.00,60.00 Z" fill="#111111"/>
  <path d="M620.00,60.00 L632.00,60.00 Q640.00,60.00 640.00,68.00 L640.00,72.00 Q640.00,80.00 632.00,80.00 L620.00,80.00 L620.00,60.00 Z" fill="#111111"/>
  <path d="M260.00,80.00 L280.00,80.00 L280.00,100.00 L260.00,100.00 L260.00,80.00 Z" fill="#111111"/>
  <path d="M280.00,80.00 L300.00,80.00 L300.00,100.00 L280.00,100.00 L280.00,80.00 Z" fill="#111111"/>
  <path d="M300.00,80.00 L320.00,80.00 L320.00,100.00 L300.00,100.00 L300.00,80.00 Z" fill="#111111"/>
  <path d="M320.00,80.00 L332.00,80.00 Q340.00,80.00 340.00,88.00 L340.00,92.00 Q340.00,100.00 332.00,100.00 L320.00,100.00 L320.00,80.00 Z" fill="#111111"/>
  <path d="M360.00,80.00 L380.00,80.00 L380.00,100.00 L360.00,100.00 L360.00,80.00 Z" fill="#111111"/>
  <path d="M380.00,80.00 L400.00,80.00 L400.00,100.00 L380.00,100.00 L380.00,80.00 Z" fill="#111111"/>
  <path d="M400.00,80.00 L420.00,80.00 L420.00,100.00 L400.00,100.00 L400.00,80.00 Z" fill="#111111"/>
  <path d="M420.00,80.00 L432.00,80.00 Q440.00,80.00 440.00,88.00 L440.00,92.00 Q440.00,100.00 432.00,100.00 L420.00,100.00 L420.00,80.00 Z" fill="#111111"/>
  <path d="M468.00,80.00 L472.00,80.00 Q480.00,80.00 480.00,88.00 L480.00,92.00 Q480.00,100.00 472.00,100.00 L468.00,100.00 Q460.00,100.00 460.00,92.00 L460.00,88.00 Q460.00,80.00 468.00,80.00 Z" fill="#111111"/>
  <path d="M508.00,80.00 L512.00,80.00 Q520.00,80.00 520.00,88.00 L520.00,100.00 L500.00,100.00 L500.00,88.00 Q500.00,80.00 508.00,80.00 Z" fill="#111111"/>
  <path d="M548.00,80.00 L560.00,80.00 L560.00,100.00 L540.00,100.00 L540.00,88.00 Q540.00,80.00 548.00,80.00 Z" fill="#111111"/>
  <path d="M560.00,80.00 L580.00,80.00 L580.00,100.00 L560.00,100.00 L560.00,80.00 Z" fill="#111111"/>
  <path d="M600.00,80.00 L620.00,80.00 L620.00,92.00 Q620.00,100.00 612.00,100.00 L608.00,100.00 Q600.00,100.00 600.00,92.00 L600.00,80.00 Z" fill="#111111"/>
  <path d="M668.00,80.00 L672.00,80.00 Q680.00,80.00 680.00,88.00 L680.00,92.00 Q680.00,100.00 672.00,100.00 L668.00,100.00 Q660.00,100.00 660.00,92.00 L660.00,88.00 Q660.00,80.00 668.00,80.00 Z" fill="#111111"/>
  <path d="M208.00,100.00 L212.00,100.00 Q220.00,100.00 220.00,108.00 L220.00,112.00 Q220.00,120.00 212.00,120.00 L208.00,120.00 Q200.00,120.00 200.00,112.00 L200.00,108.00 Q200.00,100.00 208.00,100.00 Z" fill="#111111"/>
  <path d="M260.00,100.00 L280.00,100.00 L280.00,120.00 L260.00,120.00 L260.00,100.00 Z" fill="#111111"/>
  <path d="M280.00,100.00 L300.00,100.00 L300.00,120.00 L280.00,120.00 L280.00,100.00 Z" fill="#111111"/>
  <path d="M300.00,100.00 L320.00,100.00 L320.00,120.00 L300.00,120.00 L300.00,100.00 Z" fill="#111111"/>
  <path d="M360.00,100.00 L380.00,100.00 L380.00,120.00 L368.00,120.00 Q360.00,120.00 360.00,112.00 L360.00,100.00 Z" fill="#111111"/>
  <path d="M380.00,100.00 L400.00,100.00 L400.00,112.00 Q400.00,120.00 392.00,120.00 L380.00,120.00 L380.00,100.00 Z" fill="#111111"/>
  <path d="M448.00,100.00 L452.00,100.00 Q460.00,100.00 460.00,108.00 L460.00,120.00 L440.00,120.00 L440.00,108.00 Q440.00,100.00 448.00,100.00 Z" fill="#111111"/>
  <path d="M488.00,100.00 L500.00,100.00 L500.00,120.00 L488.00,120.00 Q480.00,120.00 480.00,112.00 L480.00,108.00 Q480.00,100.00 488.00,100.00 Z" fill="#111111"/>
  <path d="M500.00,100.00 L520.00,100.00 L520.00,120.00 L500.00,120.00 L500.00,100.00 Z" fill="#111111"/>
  <path d="M520.00,100.00 L540.00,100.00 L540.00,120.00 L520.00,120.00 L520.00,100.00 Z" fill="#111111"/>
  <path d="M540.00,100.00 L560.00,100.00 L560.00,120.00 L540.00,120.00 L540.00,100.00 Z" fill="#111111"/>
  <path d="M560.00,100.00 L580.00,100.00 L580.00,120.00 L560.00,120.00 L560.00,100.00 Z" fill="#111111"/>
  <path d="M580.00,100.00 L592.00,100.00 Q600.00,100.00 600.00,108.00 L600.00,112.00 Q600.00,120.00 592.00,120.00 L580.00,120.00 L580.00,100.00 Z" fill="#111111"/>
  <path d="M628.00,100.00 L632.00,100.00 Q640.00,100.00 640.00,108.00 L640.00,112.00 Q640.00,120.00 632.00,120.00 L628.00,120.00 Q620.00,120.00 620.00,112.00 L620.00,108.00 Q620.00,100.00 628.00,100.00 Z" fill="#111111"/>
  <path d="M688.00,100.00 L692.00,100.00 Q700.00,100.00 700.00,108.00 L700.00,120.00 L680.00,120.00 L680.00,108.00 Q680.00,100.00 688.00,100.00 Z" fill="#111111"/>
  <path d="M260.00,120.00 L280.00,120.00 L280.00,140.00 L260.00,140.00 L260.00,120.00 Z" fill="#111111"/>
  <path d="M300.00,120.00 L320.00,120.00 L320.00,140.00 L308.00,140.00 Q300.00,140.00 300.00,132.00 L300.00,120.00 Z" fill="#111111"/>
  <path d="M320.00,120.00 L332.00,120.00 Q340.00,120.00 340.00,128.00 L340.00,140.00 L320.00,140.00 L320.00,120.00 Z" fill="#111111"/>
  <path d="M428.00,120.00 L440.00,120.00 L440.00,140.00 L428.00,140.00 Q420.00,140.00 420.00,132.00 L420.00,128.00 Q420.00,120.00 428.00,120.00 Z" fill="#111111"/>
  <path d="M440.00,120.00 L460.00,120.00 L460.00,140.00 L440.00,140.00 L440.00,120.00 Z" fill="#111111"/>
  <path d="M560.00,120.00 L580.00,120.00 L580.00,140.00 L560.00,140.00 L560.00,120.00 Z" fill="#111111"/>
  <path d="M680.00,120.00 L700.00,120.00 L700.00,140.00 L680.00,140.00 L680.00,120.00 Z" fill="#111111"/>
  <path d="M248.00,140.00 L260.00,140.00 L260.00,160.00 L240.00,160.00 L240.00,148.00 Q240.00,140.00 248.00,140.00 Z" fill="#111111"/>
  <path d="M260.00,140.00 L280.00,140.00 L280.00,160.00 L260.00,160.00 L260.00,140.00 Z" fill="#111111"/>
  <path d="M280.00,140.00 L292.00,140.00 Q300.00,140.00 300.00,148.00 L300.00,160.00 L280.00,160.00 L280.00,140.00 Z" fill="#111111"/>
  <path d="M320.00,140.00 L340.00,140.00 L340.00,160.00 L320.00,160.00 L320.00,140.00 Z" fill="#111111"/>
  <path d="M340.00,140.00 L352.00,140.00 Q360.00,140.00 360.00,148.00 L360.00,152.00 Q360.00,160.00 352.00,160.00 L340.00,160.00 L340.00,140.00 Z" fill="#111111"/>
  <path d="M388.00,140.00 L392.00,140.00 Q400.00,140.00 400.00,148.00 L400.00,152.00 Q400.00,160.00 392.00,160.00 L388.00,160.00 Q380.00,160.00 380.00,152.00 L380.00,148.00 Q380.00,140.00 388.00,140.00 Z" fill="#111111"/>
  <path d="M440.00,140.00 L460.00,140.00 L460.00,160.00 L440.00,160.00 L440.00,140.00 Z" fill="#111111"/>
  <path d="M508.00,140.00 L512.00,140.00 Q520.00,140.00 520.00,148.00 L520.00,152.00 Q520.00,160.00 512.00,160.00 L508.00,160.00 Q500.00,160.00 500.00,152.00 L500.00,148.00 Q500.00,140.00 508.00,140.00 Z" fill="#111111"/>
  <path d="M548.00,140.00 L560.00,140.00 L560.00,160.00 L548.00,160.00 Q540.00,160.00 540.00,152.00 L540.00,148.00 Q540.00,140.00 548.00,140.00 Z" fill="#111111"/>
  <path d="M560.00,140.00 L580.00,140.00 L580.00,160.00 L560.00,160.00 L560.00,140.00 Z" fill="#111111"/>
  <path d="M668.00,140.00 L680.00,140.00 L680.00,160.00 L668.00,160.00 Q660.00,160.00 660.00,152.00 L660.00,148.00 Q660.00,140.00 668.00,140.00 Z" fill="#111111"/>
  <path d="M680.00,140.00 L700.00,140.00 L700.00,160.00 L680.00,160.00 L680.00,140.00 Z" fill="#111111"/>
  <path d="M208.00,160.00 L212.00,160.00 Q220.00,160.00 220.00,168.00 L220.00,172.00 Q220.00,180.00 212.00,180.00 L208.00,180.00 Q200.00,180.00 200.00,172.00 L200.00,168.00 Q200.00,160.00 208.00,160.00 Z" fill="#111111"/>
  <path d="M240.00,160.00 L260.00,160.00 L260.00,180.00 L240.00,180.00 L240.00,160.00 Z" fill="#111111"/>
  <path d="M280.00,160.00 L300.00,160.00 L300.00,180.00 L280.00,180.00 L280.00,160.00 Z" fill="#111111"/>
  <path d="M320.00,160.00 L340.00,160.00 L340.00,172.00 Q340.00,180.00 332.00,180.00 L328.00,180.00 Q320.00,180.00 320.00,172.00 L320.00,160.00 Z" fill="#111111"/>
  <path d="M368.00,160.00 L372.00,160.00 Q380.00,160.00 380.00,168.00 L380.00,180.00 L360.00,180.00 L360.00,168.00 Q360.00,160.00 368.00,160.00 Z" fill="#111111"/>
  <path d="M408.00,160.00 L412.00,160.00 Q420.00,160.00 420.00,168.00 L420.00,180.00 L400.00,180.00 L400.00,168.00 Q400.00,160.00 408.00,160.00 Z" fill="#111111"/>
  <path d="M440.00,160.00 L460.00,160.00 L460.00,172.00 Q460.00,180.00 452.00,180.00 L448.00,180.00 Q440.00,180.00 440.00,172.00 L440.00,160.00 Z" fill="#111111"/>
  <path d="M488.00,160.00 L492.00,160.00 Q500.00,160.00 500.00,168.00 L500.00,172.00 Q500.00,180.00 492.00,180.00 L488.00,180.00 Q480.00,180.00 480.00,172.00 L480.00,168.00 Q480.00,160.00 488.00,160.00 Z" fill="#111111"/>
  <path d="M528.00,160.00 L532.00,160.00 Q540.00,160.00 540.00,168.00 L540.00,172.00 Q540.00,180.00 532.00,180.00 L528.00,180.00 Q520.00,180.00 520.00,172.00 L520.00,168.00 Q520.00,160.00 528.00,160.00 Z" fill="#111111"/>
  <path d="M560.00,160.00 L580.00,160.00 L580.00,180.00 L560.00,180.00 L560.00,160.00 Z" fill="#111111"/>
  <path d="M608.00,160.00 L612.00,160.00 Q620.00,160.00 620.00,168.00 L620.00,180.00 L600.00,180.00 L600.00,168.00 Q600.00,160.00 608.00,160.00 Z" fill="#111111"/>
  <path d="M648.00,160.00 L652.00,160.00 Q660.00,160.00 660.00,168.00 L660.00,180.00 L640.00,180.00 L640.00,168.00 Q640.00,160.00 648.00,160.00 Z" fill="#111111"/>
  <path d="M680.00,160.00 L700.00,160.00 L700.00,172.00 Q700.00,180.00 692.00,180.00 L688.00,180.00 Q680.00,180.00 680.00,172.00 L680.00,160.00 Z" fill="#111111"/>
  <path d="M228.00,180.00 L240.00,180.00 L240.00,200.00 L228.00,200.00 Q220.00,200.00 220.00,192.00 L220.00,188.00 Q220.00,180.00 228.00,180.00 Z" fill="#111111"/>
  <path d="M240.00,180.00 L260.00,180.00 L260.00,200.00 L240.00,200.00 L240.00,180.00 Z" fill="#111111"/>
  <path d="M280.00,180.00 L300.00,180.00 L300.00,200.00 L280.00,200.00 L280.00,180.00 Z" fill="#111111"/>
  <path d="M300.00,180.00 L312.00,180.00 Q320.00,180.00 320.00,188.00 L320.00,200.00 L300.00,200.00 L300.00,180.00 Z" fill="#111111"/>
  <path d="M360.00,180.00 L380.00,180.00 L380.00,192.00 Q380.00,200.00 372.00,200.00 L368.00,200.00 Q360.00,200.00 360.00,192.00 L360.00,180.00 Z" fill="#111111"/>
  <path d="M400.00,180.00 L420.00,180.00 L420.00,200.00 L400.00,200.00 L400.00,180.00 Z" fill="#111111"/>
  <path d="M508.00,180.00 L512.00,180.00 Q520.00,180.00 520.00,188.00 L520.00,192.00 Q520.00,200.00 512.00,200.00 L508.00,200.00 Q500.00,200.00 500.00,192.00 L500.00,188.00 Q500.00,180.00 508.00,180.00 Z" fill="#111111"/>
  <path d="M548.00,180.00 L560.00,180.00 L560.00,200.00 L548.00,200.00 Q540.00,200.00 540.00,192.00 L540.00,188.00 Q540.00,180.00 548.00,180.00 Z" fill="#111111"/>
  <path d="M560.00,180.00 L580.00,180.00 L580.00,200.00 L560.00,200.00 L560.00,180.00 Z" fill="#111111"/>
  <path d="M600.00,180.00 L620.00,180.00 L620.00,200.00 L600.00,200.00 L600.00,180.00 Z" fill="#111111"/>
  <path d="M620.00,180.00 L640.00,180.00 L640.00,200.00 L620.00,200.00 L620.00,180.00 Z" fill="#111111"/>
  <path d="M640.00,180.00 L660.00,180.00 L660.00,200.00 L640.00,200.00 L640.00,180.00 Z" fill="#111111"/>
  <path d="M660.00,180.00 L672.00,180.00 Q680.00,180.00 680.00,188.00 L680.00,192.00 Q680.00,200.00 672.00,200.00 L660.00,200.00 L660.00,180.00 Z" fill="#111111"/>
  <path d="M88.00,200.00 L92.00,200.00 Q100.00,200.00 100.00,208.00 L100.00,220.00 L80.00,220.00 L80.00,208.00 Q80.00,200.00 88.00,200.00 Z" fill="#111111"/>
  <path d="M128.00,200.00 L140.00,200.00 L140.00,220.00 L128.00,220.00 Q120.00,220.00 120.00,212.00 L120.00,208.00 Q120.00,200.00 128.00,200.00 Z" fill="#111111"/>
  <path d="M140.00,200.00 L160.00,200.00 L160.00,220.00 L140.00,220.00 L140.00,200.00 Z" fill="#111111"/>
  <path d="M160.00,200.00 L172.00,200.00 Q180.00,200.00 180.00,208.00 L180.00,212.00 Q180.00,220.00 172.00,220.00 L160.00,220.00 L160.00,200.00 Z" fill="#111111"/>
  <path d="M208.00,200.00 L212.00,200.00 Q220.00,200.00 220.00,208.00 L220.00,220.00 L200.00,220.00 L200.00,208.00 Q200.00,200.00 208.00,200.00 Z" fill="#111111"/>
  <path d="M240.00,200.00 L260.00,200.00 L260.00,220.00 L240.00,220.00 L240.00,200.00 Z" fill="#111111"/>
  <path d="M280.00,200.00 L300.00,200.00 L300.00,220.00 L280.00,220.00 L280.00,200.00 Z" fill="#111111"/>
  <path d="M300.00,200.00 L320.00,200.00 L320.00,220.00 L300.00,220.00 L300.00,200.00 Z" fill="#111111"/>
  <path d="M320.00,200.00 L332.00,200.00 Q340.00,200.00 340.00,208.00 L340.00,212.00 Q340.00,220.00 332.00,220.00 L320.00,220.00 L320.00,200.00 Z" fill="#111111"/>
  <path d="M400.00,200.00 L420.00,200.00 L420.00,212.00 Q420.00,220.00 412.00,220.00 L408.00,220.00 Q400.00,220.00 400.00,212.00 L400.00,200.00 Z" fill="#111111"/>
  <path d="M448.00,200.00 L460.00,200.00 L460.00,220.00 L448.00,220.00 Q440.00,220.00 440.00,212.00 L440.00,208.00 Q440.00,200.00 448.00,200.00 Z" fill="#111111"/>
  <path d="M460.00,200.00 L472.00,200.00 Q480.00,200.00 480.00,208.00 L480.00,220.00 L460.00,220.00 L460.00,200.00 Z" fill="#111111"/>
  <path d="M528.00,200.00 L532.00,200.00 Q540.00,200.00 540.00,208.00 L540.00,220.00 L520.00,220.00 L520.00,208.00 Q520.00,200.00 528.00,200.00 Z" fill="#111111"/>
  <path d="M560.00,200.00 L580.00,200.00 L580.00,220.00 L568.00,220.00 Q560.00,220.00 560.00,212.00 L560.00,200.00 Z" fill="#111111"/>
  <path d="M580.00,200.00 L600.00,200.00 L600.00,220.00 L580.00,220.00 L580.00,200.00 Z" fill="#111111"/>
  <path d="M600.00,200.00 L620.00,200.00 L620.00,220.00 L600.00,220.00 L600.00,200.00 Z" fill="#111111"/>
  <path d="M620.00,200.00 L640.00,200.00 L640.00,212.00 Q640.00,220.00 632.00,220.00 L620.00,220.00 L620.00,200.00 Z" fill="#111111"/>
  <path d="M708.00,200.00 L712.00,200.00 Q720.00,200.00 720.00,208.00 L720.00,220.00 L700.00,220.00 L700.00,208.00 Q700.00,200.00 708.00,200.00 Z" fill="#111111"/>
  <path d="M788.00,200.00 L792.00,200.00 Q800.00,200.00 800.00,208.00 L800.00,212.00 Q800.00,220.00 792.00,220.00 L788.00,220.00 Q780.00,220.00 780.00,212.00 L780.00,208.00 Q780.00,200.00 788.00,200.00 Z" fill="#111111"/>
  <path d="M848.00,200.00 L852.00,200.00 Q860.00,200.00 860.00,208.00 L860.00,212.00 Q860.00,220.00 852.00,220.00 L848.00,220.00 Q840.00,220.00 840.00,212.00 L840.00,208.00 Q840.00,200.00 848.00,200.00 Z" fill="#111111"/>
  <path d="M48.00,220.00 L60.00,220.00 L60.00,240.00 L48.00,240.00 Q40.00,240.00 40.00,232.00 L40.00,228.00 Q40.00,220.00 48.00,220.00 Z" fill="#111111"/>
  <path d="M60.00,220.00 L80.00,220.00 L80.00,240.00 L60.00,240.00 L60.00,220.00 Z" fill="#111111"/>
  <path d="M80.00,220.00 L100.00,220.00 L100.00,240.00 L80.00,240.00 L80.00,220.00 Z" fill="#111111"/>
  <path d="M100.00,220.00 L112.00,220.00 Q120.00,220.00 120.00,228.00 L120.00,240.00 L100.00,240.00 L100.00,220.00 Z" fill="#111111"/>
  <path d="M188.00,220.00 L200.00,220.00 L200.00,240.00 L180.00,240.00 L180.00,228.00 Q180.00,220.00 188.00,220.00 Z" fill="#111111"/>
  <path d="M200.00,220.00 L220.00,220.00 L220.00,240.00 L200.00,240.00 L200.00,220.00 Z" fill="#111111"/>
  <path d="M220.00,220.00 L240.00,220.00 L240.00,240.00 L220.00,240.00 L220.00,220.00 Z" fill="#111111"/>
  <path d="M240.00,220.00 L260.00,220.00 L260.00,232.00 Q260.00,240.00 252.00,240.00 L240.00,240.00 L240.00,220.00 Z" fill="#111111"/>
  <path d="M280.00,220.00 L300.00,220.00 L300.00,240.00 L280.00,240.00 L280.00,220.00 Z" fill="#111111"/>
  <path d="M300.00,220.00 L320.00,220.00 L320.00,240.00 L300.00,240.00 L300.00,220.00 Z" fill="#111111"/>
  <path d="M428.00,220.00 L432.00,220.00 Q440.00,220.00 440.00,228.00 L440.00,232.00 Q440.00,240.00 432.00,240.00 L428.00,240.00 Q420.00,240.00 420.00,232.00 L420.00,228.00 Q420.00,220.00 428.00,220.00 Z" fill="#111111"/>
  <path d="M460.00,220.00 L480.00,220.00 L480.00,240.00 L460.00,240.00 L460.00,220.00 Z" fill="#111111"/>
  <path d="M480.00,220.00 L500.00,220.00 L500.00,240.00 L480.00,240.00 L480.00,220.00 Z" fill="#111111"/>
  <path d="M500.00,220.00 L520.00,220.00 L520.00,240.00 L500.00,240.00 L500.00,220.00 Z" fill="#111111"/>
  <path d="M520.00,220.00 L540.00,220.00 L540.00,240.00 L520.00,240.00 L520.00,220.00 Z" fill="#111111"/>
  <path d="M540.00,220.00 L552.00,220.00 Q560.00,220.00 560.00,228.00 L560.00,240.00 L540.00,240.00 L540.00,220.00 Z" fill="#111111"/>
  <path d="M600.00,220.00 L620.00,220.00 L620.00,232.00 Q620.00,240.00 612.00,240.00 L608.00,240.00 Q600.00,240.00 600.00,232.00 L600.00,220.00 Z" fill="#111111"/>
  <path d="M648.00,220.00 L652.00,220.00 Q660.00,220.00 660.00,228.00 L660.00,232.00 Q660.00,240.00 652.00,240.00 L648.00,240.00 Q640.00,240.00 640.00,232.00 L640.00,228.00 Q640.00,220.00 648.00,220.00 Z" fill="#111111"/>
  <path d="M688.00,220.00 L700.00,220.00 L700.00,240.00 L680.00,240.00 L680.00,228.00 Q680.00,220.00 688.00,220.00 Z" fill="#111111"/>
  <path d="M700.00,220.00 L720.00,220.00 L720.00,232.00 Q720.00,240.00 712.00,240.00 L700.00,240.00 L700.00,220.00 Z" fill="#111111"/>
  <path d="M768.00,220.00 L772.00,220.00 Q780.00,220.00 780.00,228.00 L780.00,232.00 Q780.00,240.00 772.00,240.00 L768.00,240.00 Q760.00,240.00 760.00,232.00 L760.00,228.00 Q760.00,220.00 768.00,220.00 Z" fill="#111111"/>
  <path d="M80.00,240.00 L100.00,240.00 L100.00,260.00 L80.00,260.00 L80.00,240.00 Z" fill="#111111"/>
  <path d="M100.00,240.00 L120.00,240.00 L120.00,260.00 L100.00,260.00 L100.00,240.00 Z" fill="#111111"/>
  <path d="M120.00,240.00 L132.00,240.00 Q140.00,240.00 140.00,248.00 L140.00,260.00 L120.00,260.00 L120.00,240.00 Z" fill="#111111"/>
  <path d="M168.00,240.00 L180.00,240.00 L180.00,260.00 L168.00,260.00 Q160.00,260.00 160.00,252.00 L160.00,248.00 Q160.00,240.00 168.00,240.00 Z" fill="#111111"/>
  <path d="M180.00,240.00 L200.00,240.00 L200.00,260.00 L180.00,260.00 L180.00,240.00 Z" fill="#111111"/>
  <path d="M200.00,240.00 L220.00,240.00 L220.00,252.00 Q220.00,260.00 212.00,260.00 L200.00,260.00 L200.00,240.00 Z" fill="#111111"/>
  <path d="M268.00,240.00 L280.00,240.00 L280.00,260.00 L260.00,260.00 L260.00,248.00 Q260.00,240.00 268.00,240.00 Z" fill="#111111"/>
  <path d="M280.00,240.00 L300.00,240.00 L300.00,260.00 L280.00,260.00 L280.00,240.00 Z" fill="#111111"/>
  <path d="M300.00,240.00 L320.00,240.00 L320.00,260.00 L300.00,260.00 L300.00,240.00 Z" fill="#111111"/>
  <path d="M320.00,240.00 L340.00,240.00 L340.00,260.00 L320.00,260.00 L320.00,240.00 Z" fill="#111111"/>
  <path d="M340.00,240.00 L352.00,240.00 Q360.00,240.00 360.00,248.00 L360.00,260.00 L340.00,260.00 L340.00,240.00 Z" fill="#111111"/>
  <path d="M388.00,240.00 L400.00,240.00 L400.00,260.00 L388.00,260.00 Q380.00,260.00 380.00,252.00 L380.00,248.00 Q380.00,240.00 388.00,240.00 Z" fill="#111111"/>
  <path d="M400.00,240.00 L412.00,240.00 Q420.00,240.00 420.00,248.00 L420.00,260.00 L400.00,260.00 L400.00,240.00 Z" fill="#111111"/>
  <path d="M460.00,240.00 L480.00,240.00 L480.00,260.00 L460.00,260.00 L460.00,240.00 Z" fill="#111111"/>
  <path d="M480.00,240.00 L500.00,240.00 L500.00,260.00 L480.00,260.00 L480.00,240.00 Z" fill="#111111"/>
  <path d="M500.00,240.00 L520.00,240.00 L520.00,260.00 L500.00,260.00 L500.00,240.00 Z" fill="#111111"/>
  <path d="M540.00,240.00 L560.00,240.00 L560.00,260.00 L540.00,260.00 L540.00,240.00 Z" fill="#111111"/>
  <path d="M628.00,240.00 L632.00,240.00 Q640.00,240.00 640.00,248.00 L640.00,252.00 Q640.00,260.00 632.00,260.00 L628.00,260.00 Q620.00,260.00 620.00,252.00 L620.00,248.00 Q620.00,240.00 628.00,240.00 Z" fill="#111111"/>
  <path d="M680.00,240.00 L700.00,240.00 L700.00,252.00 Q700.00,260.00 692.00,260.00 L688.00,260.00 Q680.00,260.00 680.00,252.00 L680.00,240.00 Z" fill="#111111"/>
  <path d="M728.00,240.00 L732.00,240.00 Q740.00,240.00 740.00,248.00 L740.00,252.00 Q740.00,260.00 732.00,260.00 L728.00,260.00 Q720.00,260.00 720.00,252.00 L720.00,248.00 Q720.00,240.00 728.00,240.00 Z" fill="#111111"/>
  <path d="M808.00,240.00 L812.00,240.00 Q820.00,240.00 820.00,248.00 L820.00,252.00 Q820.00,260.00 812.00,260.00 L808.00,260.00 Q800.00,260.00 800.00,252.00 L800.00,248.00 Q800.00,240.00 808.00,240.00 Z" fill="#111111"/>
  <path d="M848.00,240.00 L852.00,240.00 Q860.00,240.00 860.00,248.00 L860.00,252.00 Q860.00,260.00 852.00,260.00 L848.00,260.00 Q840.00,260.00 840.00,252.00 L840.00,248.00 Q840.00,240.00 848.00,240.00 Z" fill="#111111"/>
  <path d="M48.00,260.00 L52.00,260.00 Q60.00,260.00 60.00,268.00 L60.00,280.00 L40.00,280.00 L40.00,268.00 Q40.00,260.00 48.00,260.00 Z" fill="#111111"/>
  <path d="M80.00,260.00 L100.00,260.00 L100.00,272.00 Q100.00,280.00 92.00,280.00 L88.00,280.00 Q80.00,280.00 80.00,272.00 L80.00,260.00 Z" fill="#111111"/>
  <path d="M120.00,260.00 L140.00,260.00 L140.00,272.00 Q140.00,280.00 132.00,280.00 L128.00,280.00 Q120.00,280.00 120.00,272.00 L120.00,260.00 Z" fill="#111111"/>
  <path d="M180.00,260.00 L200.00,260.00 L200.00,272.00 Q200.00,280.00 192.00,280.00 L188.00,280.00 Q180.00,280.00 180.00,272.00 L180.00,260.00 Z" fill="#111111"/>
  <path d="M260.00,260.00 L280.00,260.00 L280.00,272.00 Q280.00,280.00 272.00,280.00 L268.00,280.00 Q260.00,280.00 260.00,272.00 L260.00,260.00 Z" fill="#111111"/>
  <path d="M300.00,260.00 L320.00,260.00 L320.00,280.00 L300.00,280.00 L300.00,260.00 Z" fill="#111111"/>
  <path d="M340.00,260.00 L360.00,260.00 L360.00,272.00 Q360.00,280.00 352.00,280.00 L348.00,280.00 Q340.00,280.00 340.00,272.00 L340.00,260.00 Z" fill="#111111"/>
  <path d="M400.00,260.00 L420.00,260.00 L420.00,272.00 Q420.00,280.00 412.00,280.00 L408.00,280.00 Q400.00,280.00 400.00,272.00 L400.00,260.00 Z" fill="#111111"/>
  <path d="M448.00,260.00 L460.00,260.00 L460.00,280.00 L448.00,280.00 Q440.00,280.00 440.00,272.00 L440.00,268.00 Q440.00,260.00 448.00,260.00 Z" fill="#111111"/>
  <path d="M460.00,260.00 L480.00,260.00 L480.00,280.00 L460.00,280.00 L460.00,260.00 Z" fill="#111111"/>
  <path d="M480.00,260.00 L500.00,260.00 L500.00,280.00 L480.00,280.00 L480.00,260.00 Z" fill="#111111"/>
  <path d="M500.00,260.00 L520.00,260.00 L520.00,280.00 L500.00,280.00 L500.00,260.00 Z" fill="#111111"/>
  <path d="M540.00,260.00 L560.00,260.00 L560.00,280.00 L540.00,280.00 L540.00,260.00 Z" fill="#111111"/>
  <path d="M560.00,260.00 L572.00,260.00 Q580.00,260.00 580.00,268.00 L580.00,272.00 Q580.00,280.00 572.00,280.00 L560.00,280.00 L560.00,260.00 Z" fill="#111111"/>
  <path d="M668.00,260.00 L672.00,260.00 Q680.00,260.00 680.00,268.00 L680.00,272.00 Q680.00,280.00 672.00,280.00 L668.00,280.00 Q660.00,280.00 660.00,272.00 L660.00,268.00 Q660.00,260.00 668.00,260.00 Z" fill="#111111"/>
  <path d="M768.00,260.00 L772.00,260.00 Q780.00,260.00 780.00,268.00 L780.00,280.00 L760.00,280.00 L760.00,268.00 Q760.00,260.00 768.00,260.00 Z" fill="#111111"/>
  <path d="M40.00,280.00 L60.00,280.00 L60.00,300.00 L40.00,300.00 L40.00,280.00 Z" fill="#111111"/>
  <path d="M168.00,280.00 L172.00,280.00 Q180.00,280.00 180.00,288.00 L180.00,292.00 Q180.00,300.00 172.00,300.00 L168.00,300.00 Q160.00,300.00 160.00,292.00 L160.00,288.00 Q160.00,280.00 168.00,280.00 Z" fill="#111111"/>
  <path d="M208.00,280.00 L212.00,280.00 Q220.00,280.00 220.00,288.00 L220.00,300.00 L200.00,300.00 L200.00,288.00 Q200.00,280.00 208.00,280.00 Z" fill="#111111"/>
  <path d="M248.00,280.00 L252.00,280.00 Q260.00,280.00 260.00,288.00 L260.00,292.00 Q260.00,300.00 252.00,300.00 L248.00,300.00 Q240.00,300.00 240.00,292.00 L240.00,288.00 Q240.00,280.00 248.00,280.00 Z" fill="#111111"/>
  <path d="M288.00,280.00 L300.00,280.00 L300.00,300.00 L288.00,300.00 Q280.00,300.00 280.00,292.00 L280.00,288.00 Q280.00,280.00 288.00,280.00 Z" fill="#111111"/>
  <path d="M300.00,280.00 L320.00,280.00 L320.00,300.00 L300.00,300.00 L300.00,280.00 Z" fill="#111111"/>
  <path d="M320.00,280.00 L332.00,280.00 Q340.00,280.00 340.00,288.00 L340.00,292.00 Q340.00,300.00 332.00,300.00 L320.00,300.00 L320.00,280.00 Z" fill="#111111"/>
  <path d="M368.00,280.00 L372.00,280.00 Q380.00,280.00 380.00,288.00 L380.00,300.00 L360.00,300.00 L360.00,288.00 Q360.00,280.00 368.00,280.00 Z" fill="#111111"/>
  <path d="M428.00,280.00 L432.00,280.00 Q440.00,280.00 440.00,288.00 L440.00,300.00 L420.00,300.00 L420.00,288.00 Q420.00,280.00 428.00,280.00 Z" fill="#111111"/>
  <path d="M460.00,280.00 L480.00,280.00 L480.00,300.00 L468.00,300.00 Q460.00,300.00 460.00,292.00 L460.00,280.00 Z" fill="#111111"/>
  <path d="M480.00,280.00 L500.00,280.00 L500.00,300.00 L480.00,300.00 L480.00,280.00 Z" fill="#111111"/>
  <path d="M500.00,280.00 L520.00,280.00 L520.00,300.00 L500.00,300.00 L500.00,280.00 Z" fill="#111111"/>
  <path d="M520.00,280.00 L540.00,280.00 L540.00,300.00 L520.00,300.00 L520.00,280.00 Z" fill="#111111"/>
  <path d="M540.00,280.00 L560.00,280.00 L560.00,292.00 Q560.00,300.00 552.00,300.00 L540.00,300.00 L540.00,280.00 Z" fill="#111111"/>
  <path d="M588.00,280.00 L592.00,280.00 Q600.00,280.00 600.00,288.00 L600.00,300.00 L580.00,300.00 L580.00,288.00 Q580.00,280.00 588.00,280.00 Z" fill="#111111"/>
  <path d="M688.00,280.00 L692.00,280.00 Q700.00,280.00 700.00,288.00 L700.00,300.00 L680.00,300.00 L680.00,288.00 Q680.00,280.00 688.00,280.00 Z" fill="#111111"/>
  <path d="M728.00,280.00 L732.00,280.00 Q740.00,280.00 740.00,288.00 L740.00,292.00 Q740.00,300.00 732.00,300.00 L728.00,300.00 Q720.00,300.00 720.00,292.00 L720.00,288.00 Q720.00,280.00 728.00,280.00 Z" fill="#111111"/>
  <path d="M760.00,280.00 L780.00,280.00 L780.00,292.00 Q780.00,300.00 772.00,300.00 L768.00,300.00 Q760.00,300.00 760.00,292.00 L760.00,280.00 Z" fill="#111111"/>
  <path d="M848.00,280.00 L852.00,280.00 Q860.00,280.00 860.00,288.00 L860.00,292.00 Q860.00,300.00 852.00,300.00 L848.00,300.00 Q840.00,300.00 840.00,292.00 L840.00,288.00 Q840.00,280.00 848.00,280.00 Z" fill="#111111"/>
  <path d="M40.00,300.00 L60.00,300.00 L60.00,320.00 L40.00,320.00 L40.00,300.00 Z" fill="#111111"/>
  <path d="M88.00,300.00 L92.00,300.00 Q100.00,300.00 100.00,308.00 L100.00,320.00 L80.00,320.00 L80.00,308.00 Q80.00,300.00 88.00,300.00 Z" fill="#111111"/>
  <path d="M128.00,300.00 L140.00,300.00 L140.00,320.00 L128.00,320.00 Q120.00,320.00 120.00,312.00 L120.00,308.00 Q120.00,300.00 128.00,300.00 Z" fill="#111111"/>
  <path d="M140.00,300.00 L152.00,300.00 Q160.00,300.00 160.00,308.00 L160.00,320.00 L140.00,320.00 L140.00,300.00 Z" fill="#111111"/>
  <path d="M188.00,300.00 L200.00,300.00 L200.00,320.00 L180.00,320.00 L180.00,308.00 Q180.00,300.00 188.00,300.00 Z" fill="#111111"/>
  <path d="M200.00,300.00 L220.00,300.00 L220.00,320.00 L200.00,320.00 L200.00,300.00 Z" fill="#111111"/>
  <path d="M220.00,300.00 L232.00,300.00 Q240.00,300.00 240.00,308.00 L240.00,312.00 Q240.00,320.00 232.00,320.00 L220.00,320.00 L220.00,300.00 Z" fill="#111111"/>
  <path d="M360.00,300.00 L380.00,300.00 L380.00,312.00 Q380.00,320.00 372.00,320.00 L368.00,320.00 Q360.00,320.00 360.00,312.00 L360.00,300.00 Z" fill="#111111"/>
  <path d="M408.00,300.00 L420.00,300.00 L420.00,320.00 L408.00,320.00 Q400.00,320.00 400.00,312.00 L400.00,308.00 Q400.00,300.00 408.00,300.00 Z" fill="#111111"/>
  <path d="M420.00,300.00 L440.00,300.00 L440.00,312.00 Q440.00,320.00 432.00,320.00 L420.00,320.00 L420.00,300.00 Z" fill="#111111"/>
  <path d="M520.00,300.00 L540.00,300.00 L540.00,312.00 Q540.00,320.00 532.00,320.00 L528.00,320.00 Q520.00,320.00 520.00,312.00 L520.00,300.00 Z" fill="#111111"/>
  <path d="M568.00,300.00 L580.00,300.00 L580.00,320.00 L568.00,320.00 Q560.00,320.00 560.00,312.00 L560.00,308.00 Q560.00,300.00 568.00,300.00 Z" fill="#111111"/>
  <path d="M580.00,300.00 L600.00,300.00 L600.00,312.00 Q600.00,320.00 592.00,320.00 L580.00,320.00 L580.00,300.00 Z" fill="#111111"/>
  <path d="M628.00,300.00 L632.00,300.00 Q640.00,300.00 640.00,308.00 L640.00,312.00 Q640.00,320.00 632.00,320.00 L628.00,320.00 Q620.00,320.00 620.00,312.00 L620.00,308.00 Q620.00,300.00 628.00,300.00 Z" fill="#111111"/>
  <path d="M668.00,300.00 L680.00,300.00 L680.00,320.00 L660.00,320.00 L660.00,308.00 Q660.00,300.00 668.00,300.00 Z" fill="#111111"/>
  <path d="M680.00,300.00 L700.00,300.00 L700.00,320.00 L680.00,320.00 L680.00,300.00 Z" fill="#111111"/>
  <path d="M748.00,300.00 L752.00,300.00 Q760.00,300.00 760.00,308.00 L760.00,312.00 Q760.00,320.00 752.00,320.00 L748.00,320.00 Q740.00,320.00 740.00,312.00 L740.00,308.00 Q740.00,300.00 748.00,300.00 Z" fill="#111111"/>
  <path d="M788.00,300.00 L792.00,300.00 Q800.00,300.00 800.00,308.00 L800.00,312.00 Q800.00,320.00 792.00,320.00 L788.00,320.00 Q780.00,320.00 780.00,312.00 L780.00,308.00 Q780.00,300.00 788.00,300.00 Z" fill="#111111"/>
  <path d="M828.00,300.00 L832.00,300.00 Q840.00,300.00 840.00,308.00 L840.00,320.00 L820.00,320.00 L820.00,308.00 Q820.00,300.00 828.00,300.00 Z" fill="#111111"/>
  <path d="M40.00,320.00 L60.00,320.00 L60.00,340.00 L40.00,340.00 L40.00,320.00 Z" fill="#111111"/>
  <path d="M60.00,320.00 L80.00,320.00 L80.00,340.00 L60.00,340.00 L60.00,320.00 Z" fill="#111111"/>
  <path d="M80.00,320.00 L100.00,320.00 L100.00,340.00 L80.00,340.00 L80.00,320.00 Z" fill="#111111"/>
  <path d="M140.00,320.00 L160.00,320.00 L160.00,340.00 L148.00,340.00 Q140.00,340.00 140.00,332.00 L140.00,320.00 Z" fill="#111111"/>
  <path d="M160.00,320.00 L180.00,320.00 L180.00,340.00 L160.00,340.00 L160.00,320.00 Z" fill="#111111"/>
  <path d="M180.00,320.00 L200.00,320.00 L200.00,340.00 L180.00,340.00 L180.00,320.00 Z" fill="#111111"/>
  <path d="M200.00,320.00 L220.00,320.00 L220.00,340.00 L200.00,340.00 L200.00,320.00 Z" fill="#111111"/>
  <path d="M308.00,320.00 L312.00,320.00 Q320.00,320.00 320.00,328.00 L320.00,332.00 Q320.00,340.00 312.00,340.00 L308.00,340.00 Q300.00,340.00 300.00,332.00 L300.00,328.00 Q300.00,320.00 308.00,320.00 Z" fill="#111111"/>
  <path d="M648.00,320.00 L660.00,320.00 L660.00,340.00 L640.00,340.00 L640.00,328.00 Q640.00,320.00 648.00,320.00 Z" fill="#111111"/>
  <path d="M660.00,320.00 L680.00,320.00 L680.00,340.00 L660.00,340.00 L660.00,320.00 Z" fill="#111111"/>
  <path d="M680.00,320.00 L700.00,320.00 L700.00,340.00 L680.00,340.00 L680.00,320.00 Z" fill="#111111"/>
  <path d="M728.00,320.00 L732.00,320.00 Q740.00,320.00 740.00,328.00 L740.00,332.00 Q740.00,340.00 732.00,340.00 L728.00,340.00 Q720.00,340.00 720.00,332.00 L720.00,328.00 Q720.00,320.00 728.00,320.00 Z" fill="#111111"/>
  <path d="M768.00,320.00 L772.00,320.00 Q780.00,320.00 780.00,328.00 L780.00,332.00 Q780.00,340.00 772.00,340.00 L768.00,340.00 Q760.00,340.00 760.00,332.00 L760.00,328.00 Q760.00,320.00 768.00,320.00 Z" fill="#111111"/>
  <path d="M808.00,320.00 L820.00,320.00 L820.00,340.00 L808.00,340.00 Q800.00,340.00 800.00,332.00 L800.00,328.00 Q800.00,320.00 808.00,320.00 Z" fill="#111111"/>
  <path d="M820.00,320.00 L840.00,320.00 L840.00,340.00 L820.00,340.00 L820.00,320.00 Z" fill="#111111"/>
  <path d="M40.00,340.00 L60.00,340.00 L60.00,360.00 L40.00,360.00 L40.00,340.00 Z" fill="#111111"/>
  <path d="M80.00,340.00 L100.00,340.00 L100.00,360.00 L88.00,360.00 Q80.00,360.00 80.00,352.00 L80.00,340.00 Z" fill="#111111"/>
  <path d="M100.00,340.00 L120.00,340.00 L120.00,360.00 L100.00,360.00 L100.00,340.00 Z" fill="#111111"/>
  <path d="M120.00,340.00 L132.00,340.00 Q140.00,340.00 140.00,348.00 L140.00,352.00 Q140.00,360.00 132.00,360.00 L120.00,360.00 L120.00,340.00 Z" fill="#111111"/>
  <path d="M180.00,340.00 L200.00,340.00 L200.00,360.00 L180.00,360.00 L180.00,340.00 Z" fill="#111111"/>
  <path d="M200.00,340.00 L220.00,340.00 L220.00,352.00 Q220.00,360.00 212.00,360.00 L200.00,360.00 L200.00,340.00 Z" fill="#111111"/>
  <path d="M268.00,340.00 L280.00,340.00 L280.00,360.00 L260.00,360.00 L260.00,348.00 Q260.00,340.00 268.00,340.00 Z" fill="#111111"/>
  <path d="M280.00,340.00 L292.00,340.00 Q300.00,340.00 300.00,348.00 L300.00,352.00 Q300.00,360.00 292.00,360.00 L280.00,360.00 L280.00,340.00 Z" fill="#111111"/>
  <path d="M588.00,340.00 L592.00,340.00 Q600.00,340.00 600.00,348.00 L600.00,352.00 Q600.00,360.00 592.00,360.00 L588.00,360.00 Q580.00,360.00 580.00,352.00 L580.00,348.00 Q580.00,340.00 588.00,340.00 Z" fill="#111111"/>
  <path d="M628.00,340.00 L640.00,340.00 L640.00,360.00 L628.00,360.00 Q620.00,360.00 620.00,352.00 L620.00,348.00 Q620.00,340.00 628.00,340.00 Z" fill="#111111"/>
  <path d="M640.00,340.00 L660.00,340.00 L660.00,360.00 L640.00,360.00 L640.00,340.00 Z" fill="#111111"/>
  <path d="M680.00,340.00 L700.00,340.00 L700.00,360.00 L688.00,360.00 Q680.00,360.00 680.00,352.00 L680.00,340.00 Z" fill="#111111"/>
  <path d="M700.00,340.00 L712.00,340.00 Q720.00,340.00 720.00,348.00 L720.00,360.00 L700.00,360.00 L700.00,340.00 Z" fill="#111111"/>
  <path d="M748.00,340.00 L752.00,340.00 Q760.00,340.00 760.00,348.00 L760.00,352.00 Q760.00,360.00 752.00,360.00 L748.00,360.00 Q740.00,360.00 740.00,352.00 L740.00,348.00 Q740.00,340.00 748.00,340.00 Z" fill="#111111"/>
  <path d="M788.00,340.00 L792.00,340.00 Q800.00,340.00 800.00,348.00 L800.00,360.00 L780.00,360.00 L780.00,348.00 Q780.00,340.00 788.00,340.00 Z" fill="#111111"/>
  <path d="M820.00,340.00 L840.00,340.00 L840.00,360.00 L820.00,360.00 L820.00,340.00 Z" fill="#111111"/>
  <path d="M840.00,340.00 L852.00,340.00 Q860.00,340.00 860.00,348.00 L860.00,352.00 Q860.00,360.00 852.00,360.00 L840.00,360.00 L840.00,340.00 Z" fill="#111111"/>
  <path d="M40.00,360.00 L60.00,360.00 L60.00,380.00 L40.00,380.00 L40.00,360.00 Z" fill="#111111"/>
  <path d="M60.00,360.00 L72.00,360.00 Q80.00,360.00 80.00,368.00 L80.00,380.00 L60.00,380.00 L60.00,360.00 Z" fill="#111111"/>
  <path d="M168.00,360.00 L180.00,360.00 L180.00,380.00 L168.00,380.00 Q160.00,380.00 160.00,372.00 L160.00,368.00 Q160.00,360.00 168.00,360.00 Z" fill="#111111"/>
  <path d="M180.00,360.00 L200.00,360.00 L200.00,380.00 L180.00,380.00 L180.00,360.00 Z" fill="#111111"/>
  <path d="M228.00,360.00 L232.00,360.00 Q240.00,360.00 240.00,368.00 L240.00,372.00 Q240.00,380.00 232.00,380.00 L228.00,380.00 Q220.00,380.00 220.00,372.00 L220.00,368.00 Q220.00,360.00 228.00,360.00 Z" fill="#111111"/>
  <path d="M260.00,360.00 L280.00,360.00 L280.00,372.00 Q280.00,380.00 272.00,380.00 L268.00,380.00 Q260.00,380.00 260.00,372.00 L260.00,360.00 Z" fill="#111111"/>
  <path d="M308.00,360.00 L312.00,360.00 Q320.00,360.00 320.00,368.00 L320.00,380.00 L300.00,380.00 L300.00,368.00 Q300.00,360.00 308.00,360.00 Z" fill="#111111"/>
  <path d="M608.00,360.00 L612.00,360.00 Q620.00,360.00 620.00,368.00 L620.00,380.00 L600.00,380.00 L600.00,368.00 Q600.00,360.00 608.00,360.00 Z" fill="#111111"/>
  <path d="M640.00,360.00 L660.00,360.00 L660.00,380.00 L640.00,380.00 L640.00,360.00 Z" fill="#111111"/>
  <path d="M660.00,360.00 L672.00,360.00 Q680.00,360.00 680.00,368.00 L680.00,380.00 L660.00,380.00 L660.00,360.00 Z" fill="#111111"/>
  <path d="M700.00,360.00 L720.00,360.00 L720.00,380.00 L700.00,380.00 L700.00,360.00 Z" fill="#111111"/>
  <path d="M720.00,360.00 L732.00,360.00 Q740.00,360.00 740.00,368.00 L740.00,380.00 L720.00,380.00 L720.00,360.00 Z" fill="#111111"/>
  <path d="M780.00,360.00 L800.00,360.00 L800.00,380.00 L780.00,380.00 L780.00,360.00 Z" fill="#111111"/>
  <path d="M820.00,360.00 L840.00,360.00 L840.00,380.00 L820.00,380.00 L820.00,360.00 Z" fill="#111111"/>
  <path d="M40.00,380.00 L60.00,380.00 L60.00,400.00 L40.00,400.00 L40.00,380.00 Z" fill="#111111"/>
  <path d="M60.00,380.00 L80.00,380.00 L80.00,400.00 L60.00,400.00 L60.00,380.00 Z" fill="#111111"/>
  <path d="M80.00,380.00 L100.00,380.00 L100.00,400.00 L80.00,400.00 L80.00,380.00 Z" fill="#111111"/>
  <path d="M100.00,380.00 L112.00,380.00 Q120.00,380.00 120.00,388.00 L120.00,392.00 Q120.00,400.00 112.00,400.00 L100.00,400.00 L100.00,380.00 Z" fill="#111111"/>
  <path d="M180.00,380.00 L200.00,380.00 L200.00,400.00 L180.00,400.00 L180.00,380.00 Z" fill="#111111"/>
  <path d="M200.00,380.00 L212.00,380.00 Q220.00,380.00 220.00,388.00 L220.00,392.00 Q220.00,400.00 212.00,400.00 L200.00,400.00 L200.00,380.00 Z" fill="#111111"/>
  <path d="M248.00,380.00 L252.00,380.00 Q260.00,380.00 260.00,388.00 L260.00,400.00 L240.00,400.00 L240.00,388.00 Q240.00,380.00 248.00,380.00 Z" fill="#111111"/>
  <path d="M288.00,380.00 L300.00,380.00 L300.00,400.00 L280.00,400.00 L280.00,388.00 Q280.00,380.00 288.00,380.00 Z" fill="#111111"/>
  <path d="M300.00,380.00 L320.00,380.00 L320.00,392.00 Q320.00,400.00 312.00,400.00 L300.00,400.00 L300.00,380.00 Z" fill="#111111"/>
  <path d="M588.00,380.00 L600.00,380.00 L600.00,400.00 L580.00,400.00 L580.00,388.00 Q580.00,380.00 588.00,380.00 Z" fill="#111111"/>
  <path d="M600.00,380.00 L620.00,380.00 L620.00,400.00 L600.00,400.00 L600.00,380.00 Z" fill="#111111"/>
  <path d="M640.00,380.00 L660.00,380.00 L660.00,400.00 L648.00,400.00 Q640.00,400.00 640.00,392.00 L640.00,380.00 Z" fill="#111111"/>
  <path d="M660.00,380.00 L680.00,380.00 L680.00,392.00 Q680.00,400.00 672.00,400.00 L660.00,400.00 L660.00,380.00 Z" fill="#111111"/>
  <path d="M700.00,380.00 L720.00,380.00 L720.00,400.00 L700.00,400.00 L700.00,380.00 Z" fill="#111111"/>
  <path d="M720.00,380.00 L740.00,380.00 L740.00,400.00 L720.00,400.00 L720.00,380.00 Z" fill="#111111"/>
  <path d="M740.00,380.00 L752.00,380.00 Q760.00,380.00 760.00,388.00 L760.00,400.00 L740.00,400.00 L740.00,380.00 Z" fill="#111111"/>
  <path d="M780.00,380.00 L800.00,380.00 L800.00,400.00 L780.00,400.00 L780.00,380.00 Z" fill="#111111"/>
  <path d="M820.00,380.00 L840.00,380.00 L840.00,400.00 L828.00,400.00 Q820.00,400.00 820.00,392.00 L820.00,380.00 Z" fill="#111111"/>
  <path d="M840.00,380.00 L852.00,380.00 Q860.00,380.00 860.00,388.00 L860.00,400.00 L840.00,400.00 L840.00,380.00 Z" fill="#111111"/>
  <path d="M40.00,400.00 L60.00,400.00 L60.00,420.00 L40.00,420.00 L40.00,400.00 Z" fill="#111111"/>
  <path d="M60.00,400.00 L80.00,400.00 L80.00,420.00 L60.00,420.00 L60.00,400.00 Z" fill="#111111"/>
  <path d="M128.00,400.00 L132.00,400.00 Q140.00,400.00 140.00,408.00 L140.00,412.00 Q140.00,420.00 132.00,420.00 L128.00,420.00 Q120.00,420.00 120.00,412.00 L120.00,408.00 Q120.00,400.00 128.00,400.00 Z" fill="#111111"/>
  <path d="M168.00,400.00 L180.00,400.00 L180.00,420.00 L168.00,420.00 Q160.00,420.00 160.00,412.00 L160.00,408.00 Q160.00,400.00 168.00,400.00 Z" fill="#111111"/>
  <path d="M180.00,400.00 L200.00,400.00 L200.00,420.00 L180.00,420.00 L180.00,400.00 Z" fill="#111111"/>
  <path d="M240.00,400.00 L260.00,400.00 L260.00,412.00 Q260.00,420.00 252.00,420.00 L248.00,420.00 Q240.00,420.00 240.00,412.00 L240.00,400.00 Z" fill="#111111"/>
  <path d="M280.00,400.00 L300.00,400.00 L300.00,412.00 Q300.00,420.00 292.00,420.00 L288.00,420.00 Q280.00,420.00 280.00,412.00 L280.00,400.00 Z" fill="#111111"/>
  <path d="M580.00,400.00 L600.00,400.00 L600.00,420.00 L588.00,420.00 Q580.00,420.00 580.00,412.00 L580.00,400.00 Z" fill="#111111"/>
  <path d="M600.00,400.00 L620.00,400.00 L620.00,420.00 L600.00,420.00 L600.00,400.00 Z" fill="#111111"/>
  <path d="M620.00,400.00 L632.00,400.00 Q640.00,400.00 640.00,408.00 L640.00,412.00 Q640.00,420.00 632.00,420.00 L620.00,420.00 L620.00,400.00 Z" fill="#111111"/>
  <path d="M700.00,400.00 L720.00,400.00 L720.00,420.00 L700.00,420.00 L700.00,400.00 Z" fill="#111111"/>
  <path d="M740.00,400.00 L760.00,400.00 L760.00,420.00 L740.00,420.00 L740.00,400.00 Z" fill="#111111"/>
  <path d="M780.00,400.00 L800.00,400.00 L800.00,420.00 L780.00,420.00 L780.00,400.00 Z" fill="#111111"/>
  <path d="M800.00,400.00 L812.00,400.00 Q820.00,400.00 820.00,408.00 L820.00,412.00 Q820.00,420.00 812.00,420.00 L800.00,420.00 L800.00,400.00 Z" fill="#111111"/>
  <path d="M840.00,400.00 L860.00,400.00 L860.00,420.00 L840.00,420.00 L840.00,400.00 Z" fill="#111111"/>
  <path d="M40.00,420.00 L60.00,420.00 L60.00,440.00 L48.00,440.00 Q40.00,440.00 40.00,432.00 L40.00,420.00 Z" fill="#111111"/>
  <path d="M60.00,420.00 L80.00,420.00 L80.00,440.00 L60.00,440.00 L60.00,420.00 Z" fill="#111111"/>
  <path d="M148.00,420.00 L152.00,420.00 Q160.00,420.00 160.00,428.00 L160.00,432.00 Q160.00,440.00 152.00,440.00 L148.00,440.00 Q140.00,440.00 140.00,432.00 L140.00,428.00 Q140.00,420.00 148.00,420.00 Z" fill="#111111"/>
  <path d="M180.00,420.00 L200.00,420.00 L200.00,432.00 Q200.00,440.00 192.00,440.00 L188.00,440.00 Q180.00,440.00 180.00,432.00 L180.00,420.00 Z" fill="#111111"/>
  <path d="M600.00,420.00 L620.00,420.00 L620.00,432.00 Q620.00,440.00 612.00,440.00 L608.00,440.00 Q600.00,440.00 600.00,432.00 L600.00,420.00 Z" fill="#111111"/>
  <path d="M668.00,420.00 L672.00,420.00 Q680.00,420.00 680.00,428.00 L680.00,432.00 Q680.00,440.00 672.00,440.00 L668.00,440.00 Q660.00,440.00 660.00,432.00 L660.00,428.00 Q660.00,420.00 668.00,420.00 Z" fill="#111111"/>
  <path d="M700.00,420.00 L720.00,420.00 L720.00,440.00 L700.00,440.00 L700.00,420.00 Z" fill="#111111"/>
  <path d="M720.00,420.00 L740.00,420.00 L740.00,440.00 L720.00,440.00 L720.00,420.00 Z" fill="#111111"/>
  <path d="M740.00,420.00 L760.00,420.00 L760.00,432.00 Q760.00,440.00 752.00,440.00 L740.00,440.00 L740.00,420.00 Z" fill="#111111"/>
  <path d="M780.00,420.00 L800.00,420.00 L800.00,440.00 L780.00,440.00 L780.00,420.00 Z" fill="#111111"/>
  <path d="M828.00,420.00 L840.00,420.00 L840.00,440.00 L828.00,440.00 Q820.00,440.00 820.00,432.00 L820.00,428.00 Q820.00,420.00 828.00,420.00 Z" fill="#111111"/>
  <path d="M840.00,420.00 L860.00,420.00 L860.00,440.00 L840.00,440.00 L840.00,420.00 Z" fill="#111111"/>
  <path d="M60.00,440.00 L80.00,440.00 L80.00,452.00 Q80.00,460.00 72.00,460.00 L68.00,460.00 Q60.00,460.00 60.00,452.00 L60.00,440.00 Z" fill="#111111"/>
  <path d="M108.00,440.00 L112.00,440.00 Q120.00,440.00 120.00,448.00 L120.00,452.00 Q120.00,460.00 112.00,460.00 L108.00,460.00 Q100.00,460.00 100.00,452.00 L100.00,448.00 Q100.00,440.00 108.00,440.00 Z" fill="#111111"/>
  <path d="M168.00,440.00 L172.00,440.00 Q180.00,440.00 180.00,448.00 L180.00,452.00 Q180.00,460.00 172.00,460.00 L168.00,460.00 Q160.00,460.00 160.00,452.00 L160.00,448.00 Q160.00,440.00 168.00,440.00 Z" fill="#111111"/>
  <path d="M208.00,440.00 L212.00,440.00 Q220.00,440.00 220.00,448.00 L220.00,460.00 L200.00,460.00 L200.00,448.00 Q200.00,440.00 208.00,440.00 Z" fill="#111111"/>
  <path d="M288.00,440.00 L300.00,440.00 L300.00,460.00 L288.00,460.00 Q280.00,460.00 280.00,452.00 L280.00,448.00 Q280.00,440.00 288.00,440.00 Z" fill="#111111"/>
  <path d="M300.00,440.00 L312.00,440.00 Q320.00,440.00 320.00,448.00 L320.00,452.00 Q320.00,460.00 312.00,460.00 L300.00,460.00 L300.00,440.00 Z" fill="#111111"/>
  <path d="M588.00,440.00 L592.00,440.00 Q600.00,440.00 600.00,448.00 L600.00,460.00 L580.00,460.00 L580.00,448.00 Q580.00,440.00 588.00,440.00 Z" fill="#111111"/>
  <path d="M688.00,440.00 L700.00,440.00 L700.00,460.00 L680.00,460.00 L680.00,448.00 Q680.00,440.00 688.00,440.00 Z" fill="#111111"/>
  <path d="M700.00,440.00 L720.00,440.00 L720.00,460.00 L700.00,460.00 L700.00,440.00 Z" fill="#111111"/>
  <path d="M768.00,440.00 L780.00,440.00 L780.00,460.00 L760.00,460.00 L760.00,448.00 Q760.00,440.00 768.00,440.00 Z" fill="#111111"/>
  <path d="M780.00,440.00 L800.00,440.00 L800.00,460.00 L780.00,460.00 L780.00,440.00 Z" fill="#111111"/>
  <path d="M800.00,440.00 L812.00,440.00 Q820.00,440.00 820.00,448.00 L820.00,460.00 L800.00,460.00 L800.00,440.00 Z" fill="#111111"/>
  <path d="M840.00,440.00 L860.00,440.00 L860.00,460.00 L840.00,460.00 L840.00,440.00 Z" fill="#111111"/>
  <path d="M48.00,460.00 L52.00,460.00 Q60.00,460.00 60.00,468.00 L60.00,480.00 L40.00,480.00 L40.00,468.00 Q40.00,460.00 48.00,460.00 Z" fill="#111111"/>
  <path d="M88.00,460.00 L92.00,460.00 Q100.00,460.00 100.00,468.00 L100.00,472.00 Q100.00,480.00 92.00,480.00 L88.00,480.00 Q80.00,480.00 80.00,472.00 L80.00,468.00 Q80.00,460.00 88.00,460.00 Z" fill="#111111"/>
  <path d="M148.00,460.00 L152.00,460.00 Q160.00,460.00 160.00,468.00 L160.00,480.00 L140.00,480.00 L140.00,468.00 Q140.00,460.00 148.00,460.00 Z" fill="#111111"/>
  <path d="M188.00,460.00 L200.00,460.00 L200.00,480.00 L188.00,480.00 Q180.00,480.00 180.00,472.00 L180.00,468.00 Q180.00,460.00 188.00,460.00 Z" fill="#111111"/>
  <path d="M200.00,460.00 L220.00,460.00 L220.00,480.00 L200.00,480.00 L200.00,460.00 Z" fill="#111111"/>
  <path d="M220.00,460.00 L240.00,460.00 L240.00,480.00 L220.00,480.00 L220.00,460.00 Z" fill="#111111"/>
  <path d="M240.00,460.00 L260.00,460.00 L260.00,480.00 L240.00,480.00 L240.00,460.00 Z" fill="#111111"/>
  <path d="M260.00,460.00 L272.00,460.00 Q280.00,460.00 280.00,468.00 L280.00,472.00 Q280.00,480.00 272.00,480.00 L260.00,480.00 L260.00,460.00 Z" fill="#111111"/>
  <path d="M580.00,460.00 L600.00,460.00 L600.00,472.00 Q600.00,480.00 592.00,480.00 L588.00,480.00 Q580.00,480.00 580.00,472.00 L580.00,460.00 Z" fill="#111111"/>
  <path d="M628.00,460.00 L632.00,460.00 Q640.00,460.00 640.00,468.00 L640.00,472.00 Q640.00,480.00 632.00,480.00 L628.00,480.00 Q620.00,480.00 620.00,472.00 L620.00,468.00 Q620.00,460.00 628.00,460.00 Z" fill="#111111"/>
  <path d="M668.00,460.00 L680.00,460.00 L680.00,480.00 L660.00,480.00 L660.00,468.00 Q660.00,460.00 668.00,460.00 Z" fill="#111111"/>
  <path d="M680.00,460.00 L700.00,460.00 L700.00,480.00 L680.00,480.00 L680.00,460.00 Z" fill="#111111"/>
  <path d="M700.00,460.00 L720.00,460.00 L720.00,472.00 Q720.00,480.00 712.00,480.00 L700.00,480.00 L700.00,460.00 Z" fill="#111111"/>
  <path d="M760.00,460.00 L780.00,460.00 L780.00,472.00 Q780.00,480.00 772.00,480.00 L768.00,480.00 Q760.00,480.00 760.00,472.00 L760.00,460.00 Z" fill="#111111"/>
  <path d="M800.00,460.00 L820.00,460.00 L820.00,472.00 Q820.00,480.00 812.00,480.00 L808.00,480.00 Q800.00,480.00 800.00,472.00 L800.00,460.00 Z" fill="#111111"/>
  <path d="M840.00,460.00 L860.00,460.00 L860.00,480.00 L840.00,480.00 L840.00,460.00 Z" fill="#111111"/>
  <path d="M40.00,480.00 L60.00,480.00 L60.00,492.00 Q60.00,500.00 52.00,500.00 L48.00,500.00 Q40.00,500.00 40.00,492.00 L40.00,480.00 Z" fill="#111111"/>
  <path d="M108.00,480.00 L120.00,480.00 L120.00,500.00 L108.00,500.00 Q100.00,500.00 100.00,492.00 L100.00,488.00 Q100.00,480.00 108.00,480.00 Z" fill="#111111"/>
  <path d="M120.00,480.00 L140.00,480.00 L140.00,500.00 L120.00,500.00 L120.00,480.00 Z" fill="#111111"/>
  <path d="M140.00,480.00 L160.00,480.00 L160.00,500.00 L140.00,500.00 L140.00,480.00 Z" fill="#111111"/>
  <path d="M160.00,480.00 L172.00,480.00 Q180.00,480.00 180.00,488.00 L180.00,492.00 Q180.00,500.00 172.00,500.00 L160.00,500.00 L160.00,480.00 Z" fill="#111111"/>
  <path d="M200.00,480.00 L220.00,480.00 L220.00,492.00 Q220.00,500.00 212.00,500.00 L208.00,500.00 Q200.00,500.00 200.00,492.00 L200.00,480.00 Z" fill="#111111"/>
  <path d="M308.00,480.00 L312.00,480.00 Q320.00,480.00 320.00,488.00 L320.00,500.00 L300.00,500.00 L300.00,488.00 Q300.00,480.00 308.00,480.00 Z" fill="#111111"/>
  <path d="M660.00,480.00 L680.00,480.00 L680.00,500.00 L668.00,500.00 Q660.00,500.00 660.00,492.00 L660.00,480.00 Z" fill="#111111"/>
  <path d="M680.00,480.00 L700.00,480.00 L700.00,500.00 L680.00,500.00 L680.00,480.00 Z" fill="#111111"/>
  <path d="M728.00,480.00 L732.00,480.00 Q740.00,480.00 740.00,488.00 L740.00,492.00 Q740.00,500.00 732.00,500.00 L728.00,500.00 Q720.00,500.00 720.00,492.00 L720.00,488.00 Q720.00,480.00 728.00,480.00 Z" fill="#111111"/>
  <path d="M828.00,480.00 L840.00,480.00 L840.00,500.00 L820.00,500.00 L820.00,488.00 Q820.00,480.00 828.00,480.00 Z" fill="#111111"/>
  <path d="M840.00,480.00 L860.00,480.00 L860.00,500.00 L840.00,500.00 L840.00,480.00 Z" fill="#111111"/>
  <path d="M68.00,500.00 L80.00,500.00 L80.00,520.00 L68.00,520.00 Q60.00,520.00 60.00,512.00 L60.00,508.00 Q60.00,500.00 68.00,500.00 Z" fill="#111111"/>
  <path d="M80.00,500.00 L92.00,500.00 Q100.00,500.00 100.00,508.00 L100.00,520.00 L80.00,520.00 L80.00,500.00 Z" fill="#111111"/>
  <path d="M120.00,500.00 L140.00,500.00 L140.00,520.00 L120.00,520.00 L120.00,500.00 Z" fill="#111111"/>
  <path d="M140.00,500.00 L160.00,500.00 L160.00,520.00 L140.00,520.00 L140.00,500.00 Z" fill="#111111"/>
  <path d="M288.00,500.00 L300.00,500.00 L300.00,520.00 L280.00,520.00 L280.00,508.00 Q280.00,500.00 288.00,500.00 Z" fill="#111111"/>
  <path d="M300.00,500.00 L320.00,500.00 L320.00,520.00 L300.00,520.00 L300.00,500.00 Z" fill="#111111"/>
  <path d="M588.00,500.00 L592.00,500.00 Q600.00,500.00 600.00,508.00 L600.00,512.00 Q600.00,520.00 592.00,520.00 L588.00,520.00 Q580.00,520.00 580.00,512.00 L580.00,508.00 Q580.00,500.00 588.00,500.00 Z" fill="#111111"/>
  <path d="M628.00,500.00 L632.00,500.00 Q640.00,500.00 640.00,508.00 L640.00,520.00 L620.00,520.00 L620.00,508.00 Q620.00,500.00 628.00,500.00 Z" fill="#111111"/>
  <path d="M680.00,500.00 L700.00,500.00 L700.00,520.00 L680.00,520.00 L680.00,500.00 Z" fill="#111111"/>
  <path d="M768.00,500.00 L772.00,500.00 Q780.00,500.00 780.00,508.00 L780.00,520.00 L760.00,520.00 L760.00,508.00 Q760.00,500.00 768.00,500.00 Z" fill="#111111"/>
  <path d="M808.00,500.00 L820.00,500.00 L820.00,520.00 L800.00,520.00 L800.00,508.00 Q800.00,500.00 808.00,500.00 Z" fill="#111111"/>
  <path d="M820.00,500.00 L840.00,500.00 L840.00,520.00 L820.00,520.00 L820.00,500.00 Z" fill="#111111"/>
  <path d="M840.00,500.00 L860.00,500.00 L860.00,520.00 L840.00,520.00 L840.00,500.00 Z" fill="#111111"/>
  <path d="M48.00,520.00 L52.00,520.00 Q60.00,520.00 60.00,528.00 L60.00,540.00 L40.00,540.00 L40.00,528.00 Q40.00,520.00 48.00,520.00 Z" fill="#111111"/>
  <path d="M80.00,520.00 L100.00,520.00 L100.00,532.00 Q100.00,540.00 92.00,540.00 L88.00,540.00 Q80.00,540.00 80.00,532.00 L80.00,520.00 Z" fill="#111111"/>
  <path d="M120.00,520.00 L140.00,520.00 L140.00,540.00 L120.00,540.00 L120.00,520.00 Z" fill="#111111"/>
  <path d="M140.00,520.00 L160.00,520.00 L160.00,540.00 L140.00,540.00 L140.00,520.00 Z" fill="#111111"/>
  <path d="M160.00,520.00 L172.00,520.00 Q180.00,520.00 180.00,528.00 L180.00,532.00 Q180.00,540.00 172.00,540.00 L160.00,540.00 L160.00,520.00 Z" fill="#111111"/>
  <path d="M208.00,520.00 L212.00,520.00 Q220.00,520.00 220.00,528.00 L220.00,540.00 L200.00,540.00 L200.00,528.00 Q200.00,520.00 208.00,520.00 Z" fill="#111111"/>
  <path d="M280.00,520.00 L300.00,520.00 L300.00,540.00 L288.00,540.00 Q280.00,540.00 280.00,532.00 L280.00,520.00 Z" fill="#111111"/>
  <path d="M300.00,520.00 L320.00,520.00 L320.00,540.00 L300.00,540.00 L300.00,520.00 Z" fill="#111111"/>
  <path d="M608.00,520.00 L620.00,520.00 L620.00,540.00 L600.00,540.00 L600.00,528.00 Q600.00,520.00 608.00,520.00 Z" fill="#111111"/>
  <path d="M620.00,520.00 L640.00,520.00 L640.00,540.00 L620.00,540.00 L620.00,520.00 Z" fill="#111111"/>
  <path d="M668.00,520.00 L680.00,520.00 L680.00,540.00 L668.00,540.00 Q660.00,540.00 660.00,532.00 L660.00,528.00 Q660.00,520.00 668.00,520.00 Z" fill="#111111"/>
  <path d="M680.00,520.00 L700.00,520.00 L700.00,532.00 Q700.00,540.00 692.00,540.00 L680.00,540.00 L680.00,520.00 Z" fill="#111111"/>
  <path d="M728.00,520.00 L740.00,520.00 L740.00,540.00 L728.00,540.00 Q720.00,540.00 720.00,532.00 L720.00,528.00 Q720.00,520.00 728.00,520.00 Z" fill="#111111"/>
  <path d="M740.00,520.00 L760.00,520.00 L760.00,540.00 L740.00,540.00 L740.00,520.00 Z" fill="#111111"/>
  <path d="M760.00,520.00 L780.00,520.00 L780.00,532.00 Q780.00,540.00 772.00,540.00 L760.00,540.00 L760.00,520.00 Z" fill="#111111"/>
  <path d="M800.00,520.00 L820.00,520.00 L820.00,540.00 L800.00,540.00 L800.00,520.00 Z" fill="#111111"/>
  <path d="M840.00,520.00 L860.00,520.00 L860.00,532.00 Q860.00,540.00 852.00,540.00 L848.00,540.00 Q840.00,540.00 840.00,532.00 L840.00,520.00 Z" fill="#111111"/>
  <path d="M40.00,540.00 L60.00,540.00 L60.00,552.00 Q60.00,560.00 52.00,560.00 L48.00,560.00 Q40.00,560.00 40.00,552.00 L40.00,540.00 Z" fill="#111111"/>
  <path d="M120.00,540.00 L140.00,540.00 L140.00,560.00 L120.00,560.00 L120.00,540.00 Z" fill="#111111"/>
  <path d="M200.00,540.00 L220.00,540.00 L220.00,560.00 L200.00,560.00 L200.00,540.00 Z" fill="#111111"/>
  <path d="M220.00,540.00 L240.00,540.00 L240.00,560.00 L220.00,560.00 L220.00,540.00 Z" fill="#111111"/>
  <path d="M240.00,540.00 L252.00,540.00 Q260.00,540.00 260.00,548.00 L260.00,552.00 Q260.00,560.00 252.00,560.00 L240.00,560.00 L240.00,540.00 Z" fill="#111111"/>
  <path d="M300.00,540.00 L320.00,540.00 L320.00,560.00 L300.00,560.00 L300.00,540.00 Z" fill="#111111"/>
  <path d="M600.00,540.00 L620.00,540.00 L620.00,560.00 L608.00,560.00 Q600.00,560.00 600.00,552.00 L600.00,540.00 Z" fill="#111111"/>
  <path d="M620.00,540.00 L640.00,540.00 L640.00,552.00 Q640.00,560.00 632.00,560.00 L620.00,560.00 L620.00,540.00 Z" fill="#111111"/>
  <path d="M740.00,540.00 L760.00,540.00 L760.00,560.00 L740.00,560.00 L740.00,540.00 Z" fill="#111111"/>
  <path d="M788.00,540.00 L800.00,540.00 L800.00,560.00 L788.00,560.00 Q780.00,560.00 780.00,552.00 L780.00,548.00 Q780.00,540.00 788.00,540.00 Z" fill="#111111"/>
  <path d="M800.00,540.00 L820.00,540.00 L820.00,560.00 L800.00,560.00 L800.00,540.00 Z" fill="#111111"/>
  <path d="M820.00,540.00 L832.00,540.00 Q840.00,540.00 840.00,548.00 L840.00,560.00 L820.00,560.00 L820.00,540.00 Z" fill="#111111"/>
  <path d="M88.00,560.00 L100.00,560.00 L100.00,580.00 L88.00,580.00 Q80.00,580.00 80.00,572.00 L80.00,568.00 Q80.00,560.00 88.00,560.00 Z" fill="#111111"/>
  <path d="M100.00,560.00 L120.00,560.00 L120.00,580.00 L100.00,580.00 L100.00,560.00 Z" fill="#111111"/>
  <path d="M120.00,560.00 L140.00,560.00 L140.00,580.00 L120.00,580.00 L120.00,560.00 Z" fill="#111111"/>
  <path d="M140.00,560.00 L160.00,560.00 L160.00,580.00 L140.00,580.00 L140.00,560.00 Z" fill="#111111"/>
  <path d="M160.00,560.00 L172.00,560.00 Q180.00,560.00 180.00,568.00 L180.00,572.00 Q180.00,580.00 172.00,580.00 L160.00,580.00 L160.00,560.00 Z" fill="#111111"/>
  <path d="M200.00,560.00 L220.00,560.00 L220.00,580.00 L200.00,580.00 L200.00,560.00 Z" fill="#111111"/>
  <path d="M268.00,560.00 L272.00,560.00 Q280.00,560.00 280.00,568.00 L280.00,572.00 Q280.00,580.00 272.00,580.00 L268.00,580.00 Q260.00,580.00 260.00,572.00 L260.00,568.00 Q260.00,560.00 268.00,560.00 Z" fill="#111111"/>
  <path d="M300.00,560.00 L320.00,560.00 L320.00,580.00 L300.00,580.00 L300.00,560.00 Z" fill="#111111"/>
  <path d="M648.00,560.00 L652.00,560.00 Q660.00,560.00 660.00,568.00 L660.00,580.00 L640.00,580.00 L640.00,568.00 Q640.00,560.00 648.00,560.00 Z" fill="#111111"/>
  <path d="M708.00,560.00 L712.00,560.00 Q720.00,560.00 720.00,568.00 L720.00,580.00 L700.00,580.00 L700.00,568.00 Q700.00,560.00 708.00,560.00 Z" fill="#111111"/>
  <path d="M740.00,560.00 L760.00,560.00 L760.00,580.00 L740.00,580.00 L740.00,560.00 Z" fill="#111111"/>
  <path d="M760.00,560.00 L772.00,560.00 Q780.00,560.00 780.00,568.00 L780.00,572.00 Q780.00,580.00 772.00,580.00 L760.00,580.00 L760.00,560.00 Z" fill="#111111"/>
  <path d="M800.00,560.00 L820.00,560.00 L820.00,580.00 L808.00,580.00 Q800.00,580.00 800.00,572.00 L800.00,560.00 Z" fill="#111111"/>
  <path d="M820.00,560.00 L840.00,560.00 L840.00,580.00 L820.00,580.00 L820.00,560.00 Z" fill="#111111"/>
  <path d="M48.00,580.00 L60.00,580.00 L60.00,600.00 L40.00,600.00 L40.00,588.00 Q40.00,580.00 48.00,580.00 Z" fill="#111111"/>
  <path d="M60.00,580.00 L72.00,580.00 Q80.00,580.00 80.00,588.00 L80.00,592.00 Q80.00,600.00 72.00,600.00 L60.00,600.00 L60.00,580.00 Z" fill="#111111"/>
  <path d="M100.00,580.00 L120.00,580.00 L120.00,600.00 L100.00,600.00 L100.00,580.00 Z" fill="#111111"/>
  <path d="M188.00,580.00 L200.00,580.00 L200.00,600.00 L180.00,600.00 L180.00,588.00 Q180.00,580.00 188.00,580.00 Z" fill="#111111"/>
  <path d="M200.00,580.00 L220.00,580.00 L220.00,592.00 Q220.00,600.00 212.00,600.00 L200.00,600.00 L200.00,580.00 Z" fill="#111111"/>
  <path d="M300.00,580.00 L320.00,580.00 L320.00,600.00 L300.00,600.00 L300.00,580.00 Z" fill="#111111"/>
  <path d="M348.00,580.00 L360.00,580.00 L360.00,600.00 L348.00,600.00 Q340.00,600.00 340.00,592.00 L340.00,588.00 Q340.00,580.00 348.00,580.00 Z" fill="#111111"/>
  <path d="M360.00,580.00 L372.00,580.00 Q380.00,580.00 380.00,588.00 L380.00,600.00 L360.00,600.00 L360.00,580.00 Z" fill="#111111"/>
  <path d="M408.00,580.00 L420.00,580.00 L420.00,600.00 L400.00,600.00 L400.00,588.00 Q400.00,580.00 408.00,580.00 Z" fill="#111111"/>
  <path d="M420.00,580.00 L432.00,580.00 Q440.00,580.00 440.00,588.00 L440.00,600.00 L420.00,600.00 L420.00,580.00 Z" fill="#111111"/>
  <path d="M468.00,580.00 L480.00,580.00 L480.00,600.00 L460.00,600.00 L460.00,588.00 Q460.00,580.00 468.00,580.00 Z" fill="#111111"/>
  <path d="M480.00,580.00 L492.00,580.00 Q500.00,580.00 500.00,588.00 L500.00,592.00 Q500.00,600.00 492.00,600.00 L480.00,600.00 L480.00,580.00 Z" fill="#111111"/>
  <path d="M528.00,580.00 L532.00,580.00 Q540.00,580.00 540.00,588.00 L540.00,592.00 Q540.00,600.00 532.00,600.00 L528.00,600.00 Q520.00,600.00 520.00,592.00 L520.00,588.00 Q520.00,580.00 528.00,580.00 Z" fill="#111111"/>
  <path d="M568.00,580.00 L572.00,580.00 Q580.00,580.00 580.00,588.00 L580.00,600.00 L560.00,600.00 L560.00,588.00 Q560.00,580.00 568.00,580.00 Z" fill="#111111"/>
  <path d="M628.00,580.00 L640.00,580.00 L640.00,600.00 L628.00,600.00 Q620.00,600.00 620.00,592.00 L620.00,588.00 Q620.00,580.00 628.00,580.00 Z" fill="#111111"/>
  <path d="M640.00,580.00 L660.00,580.00 L660.00,600.00 L640.00,600.00 L640.00,580.00 Z" fill="#111111"/>
  <path d="M700.00,580.00 L720.00,580.00 L720.00,600.00 L700.00,600.00 L700.00,580.00 Z" fill="#111111"/>
  <path d="M720.00,580.00 L740.00,580.00 L740.00,600.00 L720.00,600.00 L720.00,580.00 Z" fill="#111111"/>
  <path d="M740.00,580.00 L760.00,580.00 L760.00,592.00 Q760.00,600.00 752.00,600.00 L740.00,600.00 L740.00,580.00 Z" fill="#111111"/>
  <path d="M820.00,580.00 L840.00,580.00 L840.00,600.00 L820.00,600.00 L820.00,580.00 Z" fill="#111111"/>
  <path d="M840.00,580.00 L852.00,580.00 Q860.00,580.00 860.00,588.00 L860.00,592.00 Q860.00,600.00 852.00,600.00 L840.00,600.00 L840.00,580.00 Z" fill="#111111"/>
  <path d="M40.00,600.00 L60.00,600.00 L60.00,612.00 Q60.00,620.00 52.00,620.00 L48.00,620.00 Q40.00,620.00 40.00,612.00 L40.00,600.00 Z" fill="#111111"/>
  <path d="M88.00,600.00 L100.00,600.00 L100.00,620.00 L88.00,620.00 Q80.00,620.00 80.00,612.00 L80.00,608.00 Q80.00,600.00 88.00,600.00 Z" fill="#111111"/>
  <path d="M100.00,600.00 L120.00,600.00 L120.00,620.00 L100.00,620.00 L100.00,600.00 Z" fill="#111111"/>
  <path d="M120.00,600.00 L132.00,600.00 Q140.00,600.00 140.00,608.00 L140.00,612.00 Q140.00,620.00 132.00,620.00 L120.00,620.00 L120.00,600.00 Z" fill="#111111"/>
  <path d="M168.00,600.00 L180.00,600.00 L180.00,620.00 L168.00,620.00 Q160.00,620.00 160.00,612.00 L160.00,608.00 Q160.00,600.00 168.00,600.00 Z" fill="#111111"/>
  <path d="M180.00,600.00 L200.00,600.00 L200.00,612.00 Q200.00,620.00 192.00,620.00 L180.00,620.00 L180.00,600.00 Z" fill="#111111"/>
  <path d="M248.00,600.00 L260.00,600.00 L260.00,620.00 L248.00,620.00 Q240.00,620.00 240.00,612.00 L240.00,608.00 Q240.00,600.00 248.00,600.00 Z" fill="#111111"/>
  <path d="M260.00,600.00 L272.00,600.00 Q280.00,600.00 280.00,608.00 L280.00,620.00 L260.00,620.00 L260.00,600.00 Z" fill="#111111"/>
  <path d="M300.00,600.00 L320.00,600.00 L320.00,620.00 L300.00,620.00 L300.00,600.00 Z" fill="#111111"/>
  <path d="M320.00,600.00 L332.00,600.00 Q340.00,600.00 340.00,608.00 L340.00,620.00 L320.00,620.00 L320.00,600.00 Z" fill="#111111"/>
  <path d="M360.00,600.00 L380.00,600.00 L380.00,620.00 L360.00,620.00 L360.00,600.00 Z" fill="#111111"/>
  <path d="M380.00,600.00 L400.00,600.00 L400.00,620.00 L380.00,620.00 L380.00,600.00 Z" fill="#111111"/>
  <path d="M400.00,600.00 L420.00,600.00 L420.00,620.00 L400.00,620.00 L400.00,600.00 Z" fill="#111111"/>
  <path d="M420.00,600.00 L440.00,600.00 L440.00,612.00 Q440.00,620.00 432.00,620.00 L420.00,620.00 L420.00,600.00 Z" fill="#111111"/>
  <path d="M460.00,600.00 L480.00,600.00 L480.00,620.00 L460.00,620.00 L460.00,600.00 Z" fill="#111111"/>
  <path d="M560.00,600.00 L580.00,600.00 L580.00,620.00 L560.00,620.00 L560.00,600.00 Z" fill="#111111"/>
  <path d="M608.00,600.00 L612.00,600.00 Q620.00,600.00 620.00,608.00 L620.00,620.00 L600.00,620.00 L600.00,608.00 Q600.00,600.00 608.00,600.00 Z" fill="#111111"/>
  <path d="M640.00,600.00 L660.00,600.00 L660.00,620.00 L640.00,620.00 L640.00,600.00 Z" fill="#111111"/>
  <path d="M700.00,600.00 L720.00,600.00 L720.00,620.00 L700.00,620.00 L700.00,600.00 Z" fill="#111111"/>
  <path d="M768.00,600.00 L772.00,600.00 Q780.00,600.00 780.00,608.00 L780.00,612.00 Q780.00,620.00 772.00,620.00 L768.00,620.00 Q760.00,620.00 760.00,612.00 L760.00,608.00 Q760.00,600.00 768.00,600.00 Z" fill="#111111"/>
  <path d="M820.00,600.00 L840.00,600.00 L840.00,612.00 Q840.00,620.00 832.00,620.00 L828.00,620.00 Q820.00,620.00 820.00,612.00 L820.00,600.00 Z" fill="#111111"/>
  <path d="M68.00,620.00 L72.00,620.00 Q80.00,620.00 80.00,628.00 L80.00,632.00 Q80.00,640.00 72.00,640.00 L68.00,640.00 Q60.00,640.00 60.00,632.00 L60.00,628.00 Q60.00,620.00 68.00,620.00 Z" fill="#111111"/>
  <path d="M148.00,620.00 L152.00,620.00 Q160.00,620.00 160.00,628.00 L160.00,640.00 L140.00,640.00 L140.00,628.00 Q140.00,620.00 148.00,620.00 Z" fill="#111111"/>
  <path d="M228.00,620.00 L232.00,620.00 Q240.00,620.00 240.00,628.00 L240.00,640.00 L220.00,640.00 L220.00,628.00 Q220.00,620.00 228.00,620.00 Z" fill="#111111"/>
  <path d="M260.00,620.00 L280.00,620.00 L280.00,640.00 L268.00,640.00 Q260.00,640.00 260.00,632.00 L260.00,620.00 Z" fill="#111111"/>
  <path d="M280.00,620.00 L300.00,620.00 L300.00,640.00 L280.00,640.00 L280.00,620.00 Z" fill="#111111"/>
  <path d="M300.00,620.00 L320.00,620.00 L320.00,640.00 L300.00,640.00 L300.00,620.00 Z" fill="#111111"/>
  <path d="M320.00,620.00 L340.00,620.00 L340.00,640.00 L320.00,640.00 L320.00,620.00 Z" fill="#111111"/>
  <path d="M360.00,620.00 L380.00,620.00 L380.00,640.00 L360.00,640.00 L360.00,620.00 Z" fill="#111111"/>
  <path d="M400.00,620.00 L420.00,620.00 L420.00,640.00 L400.00,640.00 L400.00,620.00 Z" fill="#111111"/>
  <path d="M448.00,620.00 L460.00,620.00 L460.00,640.00 L440.00,640.00 L440.00,628.00 Q440.00,620.00 448.00,620.00 Z" fill="#111111"/>
  <path d="M460.00,620.00 L480.00,620.00 L480.00,632.00 Q480.00,640.00 472.00,640.00 L460.00,640.00 L460.00,620.00 Z" fill="#111111"/>
  <path d="M508.00,620.00 L512.00,620.00 Q520.00,620.00 520.00,628.00 L520.00,632.00 Q520.00,640.00 512.00,640.00 L508.00,640.00 Q500.00,640.00 500.00,632.00 L500.00,628.00 Q500.00,620.00 508.00,620.00 Z" fill="#111111"/>
  <path d="M560.00,620.00 L580.00,620.00 L580.00,640.00 L560.00,640.00 L560.00,620.00 Z" fill="#111111"/>
  <path d="M580.00,620.00 L600.00,620.00 L600.00,640.00 L580.00,640.00 L580.00,620.00 Z" fill="#111111"/>
  <path d="M600.00,620.00 L620.00,620.00 L620.00,640.00 L600.00,640.00 L600.00,620.00 Z" fill="#111111"/>
  <path d="M640.00,620.00 L660.00,620.00 L660.00,640.00 L648.00,640.00 Q640.00,640.00 640.00,632.00 L640.00,620.00 Z" fill="#111111"/>
  <path d="M660.00,620.00 L672.00,620.00 Q680.00,620.00 680.00,628.00 L680.00,632.00 Q680.00,640.00 672.00,640.00 L660.00,640.00 L660.00,620.00 Z" fill="#111111"/>
  <path d="M700.00,620.00 L720.00,620.00 L720.00,632.00 Q720.00,640.00 712.00,640.00 L708.00,640.00 Q700.00,640.00 700.00,632.00 L700.00,620.00 Z" fill="#111111"/>
  <path d="M748.00,620.00 L752.00,620.00 Q760.00,620.00 760.00,628.00 L760.00,632.00 Q760.00,640.00 752.00,640.00 L748.00,640.00 Q740.00,640.00 740.00,632.00 L740.00,628.00 Q740.00,620.00 748.00,620.00 Z" fill="#111111"/>
  <path d="M788.00,620.00 L800.00,620.00 L800.00,640.00 L780.00,640.00 L780.00,628.00 Q780.00,620.00 788.00,620.00 Z" fill="#111111"/>
  <path d="M800.00,620.00 L812.00,620.00 Q820.00,620.00 820.00,628.00 L820.00,640.00 L800.00,640.00 L800.00,620.00 Z" fill="#111111"/>
  <path d="M48.00,640.00 L52.00,640.00 Q60.00,640.00 60.00,648.00 L60.00,652.00 Q60.00,660.00 52.00,660.00 L48.00,660.00 Q40.00,660.00 40.00,652.00 L40.00,648.00 Q40.00,640.00 48.00,640.00 Z" fill="#111111"/>
  <path d="M128.00,640.00 L140.00,640.00 L140.00,660.00 L128.00,660.00 Q120.00,660.00 120.00,652.00 L120.00,648.00 Q120.00,640.00 128.00,640.00 Z" fill="#111111"/>
  <path d="M140.00,640.00 L160.00,640.00 L160.00,660.00 L140.00,660.00 L140.00,640.00 Z" fill="#111111"/>
  <path d="M160.00,640.00 L180.00,640.00 L180.00,660.00 L160.00,660.00 L160.00,640.00 Z" fill="#111111"/>
  <path d="M180.00,640.00 L192.00,640.00 Q200.00,640.00 200.00,648.00 L200.00,652.00 Q200.00,660.00 192.00,660.00 L180.00,660.00 L180.00,640.00 Z" fill="#111111"/>
  <path d="M220.00,640.00 L240.00,640.00 L240.00,652.00 Q240.00,660.00 232.00,660.00 L228.00,660.00 Q220.00,660.00 220.00,652.00 L220.00,640.00 Z" fill="#111111"/>
  <path d="M300.00,640.00 L320.00,640.00 L320.00,660.00 L308.00,660.00 Q300.00,660.00 300.00,652.00 L300.00,640.00 Z" fill="#111111"/>
  <path d="M320.00,640.00 L340.00,640.00 L340.00,660.00 L320.00,660.00 L320.00,640.00 Z" fill="#111111"/>
  <path d="M340.00,640.00 L360.00,640.00 L360.00,660.00 L340.00,660.00 L340.00,640.00 Z" fill="#111111"/>
  <path d="M360.00,640.00 L380.00,640.00 L380.00,660.00 L360.00,660.00 L360.00,640.00 Z" fill="#111111"/>
  <path d="M380.00,640.00 L400.00,640.00 L400.00,660.00 L380.00,660.00 L380.00,640.00 Z" fill="#111111"/>
  <path d="M400.00,640.00 L420.00,640.00 L420.00,660.00 L400.00,660.00 L400.00,640.00 Z" fill="#111111"/>
  <path d="M440.00,640.00 L460.00,640.00 L460.00,652.00 Q460.00,660.00 452.00,660.00 L448.00,660.00 Q440.00,660.00 440.00,652.00 L440.00,640.00 Z" fill="#111111"/>
  <path d="M488.00,640.00 L492.00,640.00 Q500.00,640.00 500.00,648.00 L500.00,652.00 Q500.00,660.00 492.00,660.00 L488.00,660.00 Q480.00,660.00 480.00,652.00 L480.00,648.00 Q480.00,640.00 488.00,640.00 Z" fill="#111111"/>
  <path d="M528.00,640.00 L540.00,640.00 L540.00,660.00 L528.00,660.00 Q520.00,660.00 520.00,652.00 L520.00,648.00 Q520.00,640.00 528.00,640.00 Z" fill="#111111"/>
  <path d="M540.00,640.00 L560.00,640.00 L560.00,660.00 L540.00,660.00 L540.00,640.00 Z" fill="#111111"/>
  <path d="M560.00,640.00 L580.00,640.00 L580.00,660.00 L560.00,660.00 L560.00,640.00 Z" fill="#111111"/>
  <path d="M580.00,640.00 L600.00,640.00 L600.00,660.00 L580.00,660.00 L580.00,640.00 Z" fill="#111111"/>
  <path d="M600.00,640.00 L620.00,640.00 L620.00,660.00 L600.00,660.00 L600.00,640.00 Z" fill="#111111"/>
  <path d="M620.00,640.00 L632.00,640.00 Q640.00,640.00 640.00,648.00 L640.00,652.00 Q640.00,660.00 632.00,660.00 L620.00,660.00 L620.00,640.00 Z" fill="#111111"/>
  <path d="M768.00,640.00 L780.00,640.00 L780.00,660.00 L768.00,660.00 Q760.00,660.00 760.00,652.00 L760.00,648.00 Q760.00,640.00 768.00,640.00 Z" fill="#111111"/>
  <path d="M780.00,640.00 L800.00,640.00 L800.00,660.00 L780.00,660.00 L780.00,640.00 Z" fill="#111111"/>
  <path d="M800.00,640.00 L820.00,640.00 L820.00,652.00 Q820.00,660.00 812.00,660.00 L800.00,660.00 L800.00,640.00 Z" fill="#111111"/>
  <path d="M848.00,640.00 L852.00,640.00 Q860.00,640.00 860.00,648.00 L860.00,652.00 Q860.00,660.00 852.00,660.00 L848.00,660.00 Q840.00,660.00 840.00,652.00 L840.00,648.00 Q840.00,640.00 848.00,640.00 Z" fill="#111111"/>
  <path d="M68.00,660.00 L80.00,660.00 L80.00,680.00 L68.00,680.00 Q60.00,680.00 60.00,672.00 L60.00,668.00 Q60.00,660.00 68.00,660.00 Z" fill="#111111"/>
  <path d="M80.00,660.00 L100.00,660.00 L100.00,680.00 L80.00,680.00 L80.00,660.00 Z" fill="#111111"/>
  <path d="M100.00,660.00 L112.00,660.00 Q120.00,660.00 120.00,668.00 L120.00,680.00 L100.00,680.00 L100.00,660.00 Z" fill="#111111"/>
  <path d="M248.00,660.00 L252.00,660.00 Q260.00,660.00 260.00,668.00 L260.00,680.00 L240.00,680.00 L240.00,668.00 Q240.00,660.00 248.00,660.00 Z" fill="#111111"/>
  <path d="M340.00,660.00 L360.00,660.00 L360.00,680.00 L340.00,680.00 L340.00,660.00 Z" fill="#111111"/>
  <path d="M400.00,660.00 L420.00,660.00 L420.00,672.00 Q420.00,680.00 412.00,680.00 L408.00,680.00 Q400.00,680.00 400.00,672.00 L400.00,660.00 Z" fill="#111111"/>
  <path d="M508.00,660.00 L512.00,660.00 Q520.00,660.00 520.00,668.00 L520.00,672.00 Q520.00,680.00 512.00,680.00 L508.00,680.00 Q500.00,680.00 500.00,672.00 L500.00,668.00 Q500.00,660.00 508.00,660.00 Z" fill="#111111"/>
  <path d="M560.00,660.00 L580.00,660.00 L580.00,680.00 L560.00,680.00 L560.00,660.00 Z" fill="#111111"/>
  <path d="M600.00,660.00 L620.00,660.00 L620.00,672.00 Q620.00,680.00 612.00,680.00 L608.00,680.00 Q600.00,680.00 600.00,672.00 L600.00,660.00 Z" fill="#111111"/>
  <path d="M668.00,660.00 L672.00,660.00 Q680.00,660.00 680.00,668.00 L680.00,672.00 Q680.00,680.00 672.00,680.00 L668.00,680.00 Q660.00,680.00 660.00,672.00 L660.00,668.00 Q660.00,660.00 668.00,660.00 Z" fill="#111111"/>
  <path d="M748.00,660.00 L752.00,660.00 Q760.00,660.00 760.00,668.00 L760.00,680.00 L740.00,680.00 L740.00,668.00 Q740.00,660.00 748.00,660.00 Z" fill="#111111"/>
  <path d="M780.00,660.00 L800.00,660.00 L800.00,680.00 L780.00,680.00 L780.00,660.00 Z" fill="#111111"/>
  <path d="M48.00,680.00 L52.00,680.00 Q60.00,680.00 60.00,688.00 L60.00,692.00 Q60.00,700.00 52.00,700.00 L48.00,700.00 Q40.00,700.00 40.00,692.00 L40.00,688.00 Q40.00,680.00 48.00,680.00 Z" fill="#111111"/>
  <path d="M100.00,680.00 L120.00,680.00 L120.00,692.00 Q120.00,700.00 112.00,700.00 L108.00,700.00 Q100.00,700.00 100.00,692.00 L100.00,680.00 Z" fill="#111111"/>
  <path d="M148.00,680.00 L160.00,680.00 L160.00,700.00 L148.00,700.00 Q140.00,700.00 140.00,692.00 L140.00,688.00 Q140.00,680.00 148.00,680.00 Z" fill="#111111"/>
  <path d="M160.00,680.00 L172.00,680.00 Q180.00,680.00 180.00,688.00 L180.00,692.00 Q180.00,700.00 172.00,700.00 L160.00,700.00 L160.00,680.00 Z" fill="#111111"/>
  <path d="M240.00,680.00 L260.00,680.00 L260.00,700.00 L240.00,700.00 L240.00,680.00 Z" fill="#111111"/>
  <path d="M260.00,680.00 L272.00,680.00 Q280.00,680.00 280.00,688.00 L280.00,700.00 L260.00,700.00 L260.00,680.00 Z" fill="#111111"/>
  <path d="M308.00,680.00 L312.00,680.00 Q320.00,680.00 320.00,688.00 L320.00,692.00 Q320.00,700.00 312.00,700.00 L308.00,700.00 Q300.00,700.00 300.00,692.00 L300.00,688.00 Q300.00,680.00 308.00,680.00 Z" fill="#111111"/>
  <path d="M340.00,680.00 L360.00,680.00 L360.00,692.00 Q360.00,700.00 352.00,700.00 L348.00,700.00 Q340.00,700.00 340.00,692.00 L340.00,680.00 Z" fill="#111111"/>
  <path d="M388.00,680.00 L392.00,680.00 Q400.00,680.00 400.00,688.00 L400.00,700.00 L380.00,700.00 L380.00,688.00 Q380.00,680.00 388.00,680.00 Z" fill="#111111"/>
  <path d="M448.00,680.00 L452.00,680.00 Q460.00,680.00 460.00,688.00 L460.00,700.00 L440.00,700.00 L440.00,688.00 Q440.00,680.00 448.00,680.00 Z" fill="#111111"/>
  <path d="M488.00,680.00 L492.00,680.00 Q500.00,680.00 500.00,688.00 L500.00,700.00 L480.00,700.00 L480.00,688.00 Q480.00,680.00 488.00,680.00 Z" fill="#111111"/>
  <path d="M548.00,680.00 L560.00,680.00 L560.00,700.00 L548.00,700.00 Q540.00,700.00 540.00,692.00 L540.00,688.00 Q540.00,680.00 548.00,680.00 Z" fill="#111111"/>
  <path d="M560.00,680.00 L580.00,680.00 L580.00,700.00 L560.00,700.00 L560.00,680.00 Z" fill="#111111"/>
  <path d="M580.00,680.00 L592.00,680.00 Q600.00,680.00 600.00,688.00 L600.00,700.00 L580.00,700.00 L580.00,680.00 Z" fill="#111111"/>
  <path d="M688.00,680.00 L700.00,680.00 L700.00,700.00 L680.00,700.00 L680.00,688.00 Q680.00,680.00 688.00,680.00 Z" fill="#111111"/>
  <path d="M700.00,680.00 L720.00,680.00 L720.00,700.00 L700.00,700.00 L700.00,680.00 Z" fill="#111111"/>
  <path d="M720.00,680.00 L740.00,680.00 L740.00,700.00 L720.00,700.00 L720.00,680.00 Z" fill="#111111"/>
  <path d="M740.00,680.00 L760.00,680.00 L760.00,700.00 L740.00,700.00 L740.00,680.00 Z" fill="#111111"/>
  <path d="M760.00,680.00 L780.00,680.00 L780.00,700.00 L760.00,700.00 L760.00,680.00 Z" fill="#111111"/>
  <path d="M780.00,680.00 L800.00,680.00 L800.00,692.00 Q800.00,700.00 792.00,700.00 L780.00,700.00 L780.00,680.00 Z" fill="#111111"/>
  <path d="M848.00,680.00 L852.00,680.00 Q860.00,680.00 860.00,688.00 L860.00,700.00 L840.00,700.00 L840.00,688.00 Q840.00,680.00 848.00,680.00 Z" fill="#111111"/>
  <path d="M208.00,700.00 L212.00,700.00 Q220.00,700.00 220.00,708.00 L220.00,712.00 Q220.00,720.00 212.00,720.00 L208.00,720.00 Q200.00,720.00 200.00,712.00 L200.00,708.00 Q200.00,700.00 208.00,700.00 Z" fill="#111111"/>
  <path d="M240.00,700.00 L260.00,700.00 L260.00,720.00 L248.00,720.00 Q240.00,720.00 240.00,712.00 L240.00,700.00 Z" fill="#111111"/>
  <path d="M260.00,700.00 L280.00,700.00 L280.00,712.00 Q280.00,720.00 272.00,720.00 L260.00,720.00 L260.00,700.00 Z" fill="#111111"/>
  <path d="M368.00,700.00 L380.00,700.00 L380.00,720.00 L368.00,720.00 Q360.00,720.00 360.00,712.00 L360.00,708.00 Q360.00,700.00 368.00,700.00 Z" fill="#111111"/>
  <path d="M380.00,700.00 L400.00,700.00 L400.00,720.00 L380.00,720.00 L380.00,700.00 Z" fill="#111111"/>
  <path d="M400.00,700.00 L412.00,700.00 Q420.00,700.00 420.00,708.00 L420.00,712.00 Q420.00,720.00 412.00,720.00 L400.00,720.00 L400.00,700.00 Z" fill="#111111"/>
  <path d="M440.00,700.00 L460.00,700.00 L460.00,720.00 L440.00,720.00 L440.00,700.00 Z" fill="#111111"/>
  <path d="M460.00,700.00 L480.00,700.00 L480.00,720.00 L460.00,720.00 L460.00,700.00 Z" fill="#111111"/>
  <path d="M480.00,700.00 L500.00,700.00 L500.00,712.00 Q500.00,720.00 492.00,720.00 L480.00,720.00 L480.00,700.00 Z" fill="#111111"/>
  <path d="M528.00,700.00 L532.00,700.00 Q540.00,700.00 540.00,708.00 L540.00,720.00 L520.00,720.00 L520.00,708.00 Q520.00,700.00 528.00,700.00 Z" fill="#111111"/>
  <path d="M580.00,700.00 L600.00,700.00 L600.00,712.00 Q600.00,720.00 592.00,720.00 L588.00,720.00 Q580.00,720.00 580.00,712.00 L580.00,700.00 Z" fill="#111111"/>
  <path d="M628.00,700.00 L632.00,700.00 Q640.00,700.00 640.00,708.00 L640.00,712.00 Q640.00,720.00 632.00,720.00 L628.00,720.00 Q620.00,720.00 620.00,712.00 L620.00,708.00 Q620.00,700.00 628.00,700.00 Z" fill="#111111"/>
  <path d="M668.00,700.00 L680.00,700.00 L680.00,720.00 L668.00,720.00 Q660.00,720.00 660.00,712.00 L660.00,708.00 Q660.00,700.00 668.00,700.00 Z" fill="#111111"/>
  <path d="M680.00,700.00 L700.00,700.00 L700.00,720.00 L680.00,720.00 L680.00,700.00 Z" fill="#111111"/>
  <path d="M760.00,700.00 L780.00,700.00 L780.00,720.00 L760.00,720.00 L760.00,700.00 Z" fill="#111111"/>
  <path d="M808.00,700.00 L812.00,700.00 Q820.00,700.00 820.00,708.00 L820.00,712.00 Q820.00,720.00 812.00,720.00 L808.00,720.00 Q800.00,720.00 800.00,712.00 L800.00,708.00 Q800.00,700.00 808.00,700.00 Z" fill="#111111"/>
  <path d="M840.00,700.00 L860.00,700.00 L860.00,720.00 L840.00,720.00 L840.00,700.00 Z" fill="#111111"/>
  <path d="M228.00,720.00 L232.00,720.00 Q240.00,720.00 240.00,728.00 L240.00,740.00 L220.00,740.00 L220.00,728.00 Q220.00,720.00 228.00,720.00 Z" fill="#111111"/>
  <path d="M288.00,720.00 L300.00,720.00 L300.00,740.00 L288.00,740.00 Q280.00,740.00 280.00,732.00 L280.00,728.00 Q280.00,720.00 288.00,720.00 Z" fill="#111111"/>
  <path d="M300.00,720.00 L320.00,720.00 L320.00,740.00 L300.00,740.00 L300.00,720.00 Z" fill="#111111"/>
  <path d="M320.00,720.00 L340.00,720.00 L340.00,740.00 L320.00,740.00 L320.00,720.00 Z" fill="#111111"/>
  <path d="M340.00,720.00 L352.00,720.00 Q360.00,720.00 360.00,728.00 L360.00,740.00 L340.00,740.00 L340.00,720.00 Z" fill="#111111"/>
  <path d="M380.00,720.00 L400.00,720.00 L400.00,732.00 Q400.00,740.00 392.00,740.00 L388.00,740.00 Q380.00,740.00 380.00,732.00 L380.00,720.00 Z" fill="#111111"/>
  <path d="M440.00,720.00 L460.00,720.00 L460.00,732.00 Q460.00,740.00 452.00,740.00 L448.00,740.00 Q440.00,740.00 440.00,732.00 L440.00,720.00 Z" fill="#111111"/>
  <path d="M508.00,720.00 L520.00,720.00 L520.00,740.00 L500.00,740.00 L500.00,728.00 Q500.00,720.00 508.00,720.00 Z" fill="#111111"/>
  <path d="M520.00,720.00 L540.00,720.00 L540.00,740.00 L520.00,740.00 L520.00,720.00 Z" fill="#111111"/>
  <path d="M540.00,720.00 L560.00,720.00 L560.00,740.00 L540.00,740.00 L540.00,720.00 Z" fill="#111111"/>
  <path d="M560.00,720.00 L572.00,720.00 Q580.00,720.00 580.00,728.00 L580.00,740.00 L560.00,740.00 L560.00,720.00 Z" fill="#111111"/>
  <path d="M648.00,720.00 L652.00,720.00 Q660.00,720.00 660.00,728.00 L660.00,740.00 L640.00,740.00 L640.00,728.00 Q640.00,720.00 648.00,720.00 Z" fill="#111111"/>
  <path d="M680.00,720.00 L700.00,720.00 L700.00,740.00 L680.00,740.00 L680.00,720.00 Z" fill="#111111"/>
  <path d="M728.00,720.00 L732.00,720.00 Q740.00,720.00 740.00,728.00 L740.00,732.00 Q740.00,740.00 732.00,740.00 L728.00,740.00 Q720.00,740.00 720.00,732.00 L720.00,728.00 Q720.00,720.00 728.00,720.00 Z" fill="#111111"/>
  <path d="M760.00,720.00 L780.00,720.00 L780.00,740.00 L760.00,740.00 L760.00,720.00 Z" fill="#111111"/>
  <path d="M828.00,720.00 L840.00,720.00 L840.00,740.00 L828.00,740.00 Q820.00,740.00 820.00,732.00 L820.00,728.00 Q820.00,720.00 828.00,720.00 Z" fill="#111111"/>
  <path d="M840.00,720.00 L860.00,720.00 L860.00,732.00 Q860.00,740.00 852.00,740.00 L840.00,740.00 L840.00,720.00 Z" fill="#111111"/>
  <path d="M208.00,740.00 L220.00,740.00 L220.00,760.00 L200.00,760.00 L200.00,748.00 Q200.00,740.00 208.00,740.00 Z" fill="#111111"/>
  <path d="M220.00,740.00 L240.00,740.00 L240.00,760.00 L220.00,760.00 L220.00,740.00 Z" fill="#111111"/>
  <path d="M240.00,740.00 L260.00,740.00 L260.00,760.00 L240.00,760.00 L240.00,740.00 Z" fill="#111111"/>
  <path d="M260.00,740.00 L272.00,740.00 Q280.00,740.00 280.00,748.00 L280.00,752.00 Q280.00,760.00 272.00,760.00 L260.00,760.00 L260.00,740.00 Z" fill="#111111"/>
  <path d="M340.00,740.00 L360.00,740.00 L360.00,760.00 L340.00,760.00 L340.00,740.00 Z" fill="#111111"/>
  <path d="M360.00,740.00 L372.00,740.00 Q380.00,740.00 380.00,748.00 L380.00,760.00 L360.00,760.00 L360.00,740.00 Z" fill="#111111"/>
  <path d="M428.00,740.00 L432.00,740.00 Q440.00,740.00 440.00,748.00 L440.00,760.00 L420.00,760.00 L420.00,748.00 Q420.00,740.00 428.00,740.00 Z" fill="#111111"/>
  <path d="M500.00,740.00 L520.00,740.00 L520.00,760.00 L500.00,760.00 L500.00,740.00 Z" fill="#111111"/>
  <path d="M540.00,740.00 L560.00,740.00 L560.00,760.00 L548.00,760.00 Q540.00,760.00 540.00,752.00 L540.00,740.00 Z" fill="#111111"/>
  <path d="M560.00,740.00 L580.00,740.00 L580.00,760.00 L560.00,760.00 L560.00,740.00 Z" fill="#111111"/>
  <path d="M580.00,740.00 L592.00,740.00 Q600.00,740.00 600.00,748.00 L600.00,752.00 Q600.00,760.00 592.00,760.00 L580.00,760.00 L580.00,740.00 Z" fill="#111111"/>
  <path d="M628.00,740.00 L640.00,740.00 L640.00,760.00 L628.00,760.00 Q620.00,760.00 620.00,752.00 L620.00,748.00 Q620.00,740.00 628.00,740.00 Z" fill="#111111"/>
  <path d="M640.00,740.00 L660.00,740.00 L660.00,760.00 L640.00,760.00 L640.00,740.00 Z" fill="#111111"/>
  <path d="M680.00,740.00 L700.00,740.00 L700.00,760.00 L680.00,760.00 L680.00,740.00 Z" fill="#111111"/>
  <path d="M760.00,740.00 L780.00,740.00 L780.00,760.00 L760.00,760.00 L760.00,740.00 Z" fill="#111111"/>
  <path d="M808.00,740.00 L812.00,740.00 Q820.00,740.00 820.00,748.00 L820.00,760.00 L800.00,760.00 L800.00,748.00 Q800.00,740.00 808.00,740.00 Z" fill="#111111"/>
  <path d="M200.00,760.00 L220.00,760.00 L220.00,772.00 Q220.00,780.00 212.00,780.00 L208.00,780.00 Q200.00,780.00 200.00,772.00 L200.00,760.00 Z" fill="#111111"/>
  <path d="M340.00,760.00 L360.00,760.00 L360.00,780.00 L348.00,780.00 Q340.00,780.00 340.00,772.00 L340.00,760.00 Z" fill="#111111"/>
  <path d="M360.00,760.00 L380.00,760.00 L380.00,780.00 L360.00,780.00 L360.00,760.00 Z" fill="#111111"/>
  <path d="M380.00,760.00 L392.00,760.00 Q400.00,760.00 400.00,768.00 L400.00,780.00 L380.00,780.00 L380.00,760.00 Z" fill="#111111"/>
  <path d="M420.00,760.00 L440.00,760.00 L440.00,780.00 L420.00,780.00 L420.00,760.00 Z" fill="#111111"/>
  <path d="M468.00,760.00 L472.00,760.00 Q480.00,760.00 480.00,768.00 L480.00,780.00 L460.00,780.00 L460.00,768.00 Q460.00,760.00 468.00,760.00 Z" fill="#111111"/>
  <path d="M500.00,760.00 L520.00,760.00 L520.00,780.00 L500.00,780.00 L500.00,760.00 Z" fill="#111111"/>
  <path d="M608.00,760.00 L612.00,760.00 Q620.00,760.00 620.00,768.00 L620.00,780.00 L600.00,780.00 L600.00,768.00 Q600.00,760.00 608.00,760.00 Z" fill="#111111"/>
  <path d="M640.00,760.00 L660.00,760.00 L660.00,780.00 L640.00,780.00 L640.00,760.00 Z" fill="#111111"/>
  <path d="M660.00,760.00 L680.00,760.00 L680.00,780.00 L660.00,780.00 L660.00,760.00 Z" fill="#111111"/>
  <path d="M680.00,760.00 L700.00,760.00 L700.00,780.00 L680.00,780.00 L680.00,760.00 Z" fill="#111111"/>
  <path d="M700.00,760.00 L720.00,760.00 L720.00,780.00 L700.00,780.00 L700.00,760.00 Z" fill="#111111"/>
  <path d="M720.00,760.00 L740.00,760.00 L740.00,780.00 L720.00,780.00 L720.00,760.00 Z" fill="#111111"/>
  <path d="M740.00,760.00 L760.00,760.00 L760.00,780.00 L740.00,780.00 L740.00,760.00 Z" fill="#111111"/>
  <path d="M760.00,760.00 L780.00,760.00 L780.00,780.00 L760.00,780.00 L760.00,760.00 Z" fill="#111111"/>
  <path d="M800.00,760.00 L820.00,760.00 L820.00,780.00 L808.00,780.00 Q800.00,780.00 800.00,772.00 L800.00,760.00 Z" fill="#111111"/>
  <path d="M820.00,760.00 L840.00,760.00 L840.00,780.00 L820.00,780.00 L820.00,760.00 Z" fill="#111111"/>
  <path d="M840.00,760.00 L852.00,760.00 Q860.00,760.00 860.00,768.00 L860.00,772.00 Q860.00,780.00 852.00,780.00 L840.00,780.00 L840.00,760.00 Z" fill="#111111"/>
  <path d="M268.00,780.00 L280.00,780.00 L280.00,800.00 L268.00,800.00 Q260.00,800.00 260.00,792.00 L260.00,788.00 Q260.00,780.00 268.00,780.00 Z" fill="#111111"/>
  <path d="M280.00,780.00 L300.00,780.00 L300.00,800.00 L280.00,800.00 L280.00,780.00 Z" fill="#111111"/>
  <path d="M300.00,780.00 L320.00,780.00 L320.00,800.00 L300.00,800.00 L300.00,780.00 Z" fill="#111111"/>
  <path d="M320.00,780.00 L332.00,780.00 Q340.00,780.00 340.00,788.00 L340.00,800.00 L320.00,800.00 L320.00,780.00 Z" fill="#111111"/>
  <path d="M380.00,780.00 L400.00,780.00 L400.00,792.00 Q400.00,800.00 392.00,800.00 L388.00,800.00 Q380.00,800.00 380.00,792.00 L380.00,780.00 Z" fill="#111111"/>
  <path d="M420.00,780.00 L440.00,780.00 L440.00,800.00 L428.00,800.00 Q420.00,800.00 420.00,792.00 L420.00,780.00 Z" fill="#111111"/>
  <path d="M440.00,780.00 L460.00,780.00 L460.00,800.00 L440.00,800.00 L440.00,780.00 Z" fill="#111111"/>
  <path d="M460.00,780.00 L480.00,780.00 L480.00,800.00 L460.00,800.00 L460.00,780.00 Z" fill="#111111"/>
  <path d="M500.00,780.00 L520.00,780.00 L520.00,800.00 L508.00,800.00 Q500.00,800.00 500.00,792.00 L500.00,780.00 Z" fill="#111111"/>
  <path d="M520.00,780.00 L540.00,780.00 L540.00,800.00 L520.00,800.00 L520.00,780.00 Z" fill="#111111"/>
  <path d="M540.00,780.00 L552.00,780.00 Q560.00,780.00 560.00,788.00 L560.00,800.00 L540.00,800.00 L540.00,780.00 Z" fill="#111111"/>
  <path d="M588.00,780.00 L600.00,780.00 L600.00,800.00 L580.00,800.00 L580.00,788.00 Q580.00,780.00 588.00,780.00 Z" fill="#111111"/>
  <path d="M600.00,780.00 L620.00,780.00 L620.00,800.00 L600.00,800.00 L600.00,780.00 Z" fill="#111111"/>
  <path d="M640.00,780.00 L660.00,780.00 L660.00,800.00 L640.00,800.00 L640.00,780.00 Z" fill="#111111"/>
  <path d="M660.00,780.00 L680.00,780.00 L680.00,800.00 L660.00,800.00 L660.00,780.00 Z" fill="#111111"/>
  <path d="M680.00,780.00 L700.00,780.00 L700.00,792.00 Q700.00,800.00 692.00,800.00 L680.00,800.00 L680.00,780.00 Z" fill="#111111"/>
  <path d="M760.00,780.00 L780.00,780.00 L780.00,800.00 L760.00,800.00 L760.00,780.00 Z" fill="#111111"/>
  <path d="M780.00,780.00 L792.00,780.00 Q800.00,780.00 800.00,788.00 L800.00,800.00 L780.00,800.00 L780.00,780.00 Z" fill="#111111"/>
  <path d="M208.00,800.00 L220.00,800.00 L220.00,820.00 L208.00,820.00 Q200.00,820.00 200.00,812.00 L200.00,808.00 Q200.00,800.00 208.00,800.00 Z" fill="#111111"/>
  <path d="M220.00,800.00 L232.00,800.00 Q240.00,800.00 240.00,808.00 L240.00,820.00 L220.00,820.00 L220.00,800.00 Z" fill="#111111"/>
  <path d="M300.00,800.00 L320.00,800.00 L320.00,820.00 L300.00,820.00 L300.00,800.00 Z" fill="#111111"/>
  <path d="M320.00,800.00 L340.00,800.00 L340.00,820.00 L320.00,820.00 L320.00,800.00 Z" fill="#111111"/>
  <path d="M340.00,800.00 L360.00,800.00 L360.00,820.00 L340.00,820.00 L340.00,800.00 Z" fill="#111111"/>
  <path d="M360.00,800.00 L372.00,800.00 Q380.00,800.00 380.00,808.00 L380.00,820.00 L360.00,820.00 L360.00,800.00 Z" fill="#111111"/>
  <path d="M460.00,800.00 L480.00,800.00 L480.00,820.00 L460.00,820.00 L460.00,800.00 Z" fill="#111111"/>
  <path d="M520.00,800.00 L540.00,800.00 L540.00,820.00 L520.00,820.00 L520.00,800.00 Z" fill="#111111"/>
  <path d="M540.00,800.00 L560.00,800.00 L560.00,820.00 L540.00,820.00 L540.00,800.00 Z" fill="#111111"/>
  <path d="M560.00,800.00 L580.00,800.00 L580.00,820.00 L560.00,820.00 L560.00,800.00 Z" fill="#111111"/>
  <path d="M580.00,800.00 L600.00,800.00 L600.00,820.00 L580.00,820.00 L580.00,800.00 Z" fill="#111111"/>
  <path d="M600.00,800.00 L620.00,800.00 L620.00,820.00 L600.00,820.00 L600.00,800.00 Z" fill="#111111"/>
  <path d="M640.00,800.00 L660.00,800.00 L660.00,820.00 L640.00,820.00 L640.00,800.00 Z" fill="#111111"/>
  <path d="M660.00,800.00 L680.00,800.00 L680.00,812.00 Q680.00,820.00 672.00,820.00 L660.00,820.00 L660.00,800.00 Z" fill="#111111"/>
  <path d="M708.00,800.00 L712.00,800.00 Q720.00,800.00 720.00,808.00 L720.00,820.00 L700.00,820.00 L700.00,808.00 Q700.00,800.00 708.00,800.00 Z" fill="#111111"/>
  <path d="M748.00,800.00 L760.00,800.00 L760.00,820.00 L748.00,820.00 Q740.00,820.00 740.00,812.00 L740.00,808.00 Q740.00,800.00 748.00,800.00 Z" fill="#111111"/>
  <path d="M760.00,800.00 L780.00,800.00 L780.00,820.00 L760.00,820.00 L760.00,800.00 Z" fill="#111111"/>
  <path d="M780.00,800.00 L800.00,800.00 L800.00,820.00 L780.00,820.00 L780.00,800.00 Z" fill="#111111"/>
  <path d="M800.00,800.00 L812.00,800.00 Q820.00,800.00 820.00,808.00 L820.00,812.00 Q820.00,820.00 812.00,820.00 L800.00,820.00 L800.00,800.00 Z" fill="#111111"/>
  <path d="M848.00,800.00 L852.00,800.00 Q860.00,800.00 860.00,808.00 L860.00,812.00 Q860.00,820.00 852.00,820.00 L848.00,820.00 Q840.00,820.00 840.00,812.00 L840.00,808.00 Q840.00,800.00 848.00,800.00 Z" fill="#111111"/>
  <path d="M220.00,820.00 L240.00,820.00 L240.00,840.00 L220.00,840.00 L220.00,820.00 Z" fill="#111111"/>
  <path d="M240.00,820.00 L260.00,820.00 L260.00,840.00 L240.00,840.00 L240.00,820.00 Z" fill="#111111"/>
  <path d="M260.00,820.00 L280.00,820.00 L280.00,840.00 L260.00,840.00 L260.00,820.00 Z" fill="#111111"/>
  <path d="M280.00,820.00 L300.00,820.00 L300.00,840.00 L280.00,840.00 L280.00,820.00 Z" fill="#111111"/>
  <path d="M300.00,820.00 L320.00,820.00 L320.00,840.00 L300.00,840.00 L300.00,820.00 Z" fill="#111111"/>
  <path d="M360.00,820.00 L380.00,820.00 L380.00,840.00 L368.00,840.00 Q360.00,840.00 360.00,832.00 L360.00,820.00 Z" fill="#111111"/>
  <path d="M380.00,820.00 L400.00,820.00 L400.00,840.00 L380.00,840.00 L380.00,820.00 Z" fill="#111111"/>
  <path d="M400.00,820.00 L420.00,820.00 L420.00,840.00 L400.00,840.00 L400.00,820.00 Z" fill="#111111"/>
  <path d="M420.00,820.00 L432.00,820.00 Q440.00,820.00 440.00,828.00 L440.00,832.00 Q440.00,840.00 432.00,840.00 L420.00,840.00 L420.00,820.00 Z" fill="#111111"/>
  <path d="M460.00,820.00 L480.00,820.00 L480.00,832.00 Q480.00,840.00 472.00,840.00 L468.00,840.00 Q460.00,840.00 460.00,832.00 L460.00,820.00 Z" fill="#111111"/>
  <path d="M520.00,820.00 L540.00,820.00 L540.00,840.00 L528.00,840.00 Q520.00,840.00 520.00,832.00 L520.00,820.00 Z" fill="#111111"/>
  <path d="M540.00,820.00 L560.00,820.00 L560.00,840.00 L540.00,840.00 L540.00,820.00 Z" fill="#111111"/>
  <path d="M560.00,820.00 L580.00,820.00 L580.00,832.00 Q580.00,840.00 572.00,840.00 L560.00,840.00 L560.00,820.00 Z" fill="#111111"/>
  <path d="M600.00,820.00 L620.00,820.00 L620.00,840.00 L600.00,840.00 L600.00,820.00 Z" fill="#111111"/>
  <path d="M620.00,820.00 L640.00,820.00 L640.00,840.00 L620.00,840.00 L620.00,820.00 Z" fill="#111111"/>
  <path d="M640.00,820.00 L660.00,820.00 L660.00,832.00 Q660.00,840.00 652.00,840.00 L640.00,840.00 L640.00,820.00 Z" fill="#111111"/>
  <path d="M700.00,820.00 L720.00,820.00 L720.00,840.00 L700.00,840.00 L700.00,820.00 Z" fill="#111111"/>
  <path d="M780.00,820.00 L800.00,820.00 L800.00,840.00 L780.00,840.00 L780.00,820.00 Z" fill="#111111"/>
  <path d="M828.00,820.00 L832.00,820.00 Q840.00,820.00 840.00,828.00 L840.00,840.00 L820.00,840.00 L820.00,828.00 Q820.00,820.00 828.00,820.00 Z" fill="#111111"/>
  <path d="M220.00,840.00 L240.00,840.00 L240.00,860.00 L228.00,860.00 Q220.00,860.00 220.00,852.00 L220.00,840.00 Z" fill="#111111"/>
  <path d="M240.00,840.00 L260.00,840.00 L260.00,860.00 L240.00,860.00 L240.00,840.00 Z" fill="#111111"/>
  <path d="M260.00,840.00 L280.00,840.00 L280.00,860.00 L260.00,860.00 L260.00,840.00 Z" fill="#111111"/>
  <path d="M280.00,840.00 L300.00,840.00 L300.00,860.00 L280.00,860.00 L280.00,840.00 Z" fill="#111111"/>
  <path d="M300.00,840.00 L320.00,840.00 L320.00,860.00 L300.00,860.00 L300.00,840.00 Z" fill="#111111"/>
  <path d="M320.00,840.00 L340.00,840.00 L340.00,860.00 L320.00,860.00 L320.00,840.00 Z" fill="#111111"/>
  <path d="M340.00,840.00 L352.00,840.00 Q360.00,840.00 360.00,848.00 L360.00,852.00 Q360.00,860.00 352.00,860.00 L340.00,860.00 L340.00,840.00 Z" fill="#111111"/>
  <path d="M400.00,840.00 L420.00,840.00 L420.00,852.00 Q420.00,860.00 412.00,860.00 L408.00,860.00 Q400.00,860.00 400.00,852.00 L400.00,840.00 Z" fill="#111111"/>
  <path d="M488.00,840.00 L500.00,840.00 L500.00,860.00 L488.00,860.00 Q480.00,860.00 480.00,852.00 L480.00,848.00 Q480.00,840.00 488.00,840.00 Z" fill="#111111"/>
  <path d="M500.00,840.00 L512.00,840.00 Q520.00,840.00 520.00,848.00 L520.00,852.00 Q520.00,860.00 512.00,860.00 L500.00,860.00 L500.00,840.00 Z" fill="#111111"/>
  <path d="M588.00,840.00 L600.00,840.00 L600.00,860.00 L588.00,860.00 Q580.00,860.00 580.00,852.00 L580.00,848.00 Q580.00,840.00 588.00,840.00 Z" fill="#111111"/>
  <path d="M600.00,840.00 L620.00,840.00 L620.00,860.00 L600.00,860.00 L600.00,840.00 Z" fill="#111111"/>
  <path d="M620.00,840.00 L640.00,840.00 L640.00,852.00 Q640.00,860.00 632.00,860.00 L620.00,860.00 L620.00,840.00 Z" fill="#111111"/>
  <path d="M688.00,840.00 L700.00,840.00 L700.00,860.00 L688.00,860.00 Q680.00,860.00 680.00,852.00 L680.00,848.00 Q680.00,840.00 688.00,840.00 Z" fill="#111111"/>
  <path d="M700.00,840.00 L720.00,840.00 L720.00,860.00 L700.00,860.00 L700.00,840.00 Z" fill="#111111"/>
  <path d="M720.00,840.00 L732.00,840.00 Q740.00,840.00 740.00,848.00 L740.00,852.00 Q740.00,860.00 732.00,860.00 L720.00,860.00 L720.00,840.00 Z" fill="#111111"/>
  <path d="M780.00,840.00 L800.00,840.00 L800.00,860.00 L788.00,860.00 Q780.00,860.00 780.00,852.00 L780.00,840.00 Z" fill="#111111"/>
  <path d="M800.00,840.00 L820.00,840.00 L820.00,860.00 L800.00,860.00 L800.00,840.00 Z" fill="#111111"/>
  <path d="M820.00,840.00 L840.00,840.00 L840.00,860.00 L820.00,860.00 L820.00,840.00 Z" fill="#111111"/>
  <path d="M840.00,840.00 L852.00,840.00 Q860.00,840.00 860.00,848.00 L860.00,852.00 Q860.00,860.00 852.00,860.00 L840.00,860.00 L840.00,840.00 Z" fill="#111111"/>
  <path d="M100.00,40.00 L180.00,40.00 L180.00,180.00 L40.00,180.00 L40.00,100.00 Q40.00,40.00 100.00,40.00 Z" fill="#111111"/>
  <path d="M100.00,60.00 L160.00,60.00 L160.00,160.00 L60.00,160.00 L60.00,100.00 Q60.00,60.00 100.00,60.00 Z" fill="white"/>
  <path d="M100.00,80.00 L140.00,80.00 L140.00,140.00 L80.00,140.00 L80.00,100.00 Q80.00,80.00 100.00,80.00 Z" fill="#111111"/>
  <path d="M720.00,40.00 L800.00,40.00 Q860.00,40.00 860.00,100.00 L860.00,180.00 L720.00,180.00 L720.00,40.00 Z" fill="#111111"/>
  <path d="M740.00,60.00 L800.00,60.00 Q840.00,60.00 840.00,100.00 L840.00,160.00 L740.00,160.00 L740.00,60.00 Z" fill="white"/>
  <path d="M760.00,80.00 L800.00,80.00 Q820.00,80.00 820.00,100.00 L820.00,140.00 L760.00,140.00 L760.00,80.00 Z" fill="#111111"/>
  <path d="M40.00,720.00 L180.00,720.00 L180.00,860.00 L100.00,860.00 Q40.00,860.00 40.00,800.00 L40.00,720.00 Z" fill="#111111"/>
  <path d="M60.00,740.00 L160.00,740.00 L160.00,840.00 L100.00,840.00 Q60.00,840.00 60.00,800.00 L60.00,740.00 Z" fill="white"/>
  <path d="M80.00,760.00 L140.00,760.00 L140.00,820.00 L100.00,820.00 Q80.00,820.00 80.00,800.00 L80.00,760.00 Z" fill="#111111"/>
  <g transform="translate(320.00,320.00) scale(0.260000,0.260000)">
<defs>
    <style>
      .cls-1 {
        fill: #1971f2;
      }

      .cls-2 {
        fill: #fff;
      }
    </style>
  </defs>
  <rect class="cls-2" width="1000" height="1000"/>
  <g id="Layer_1" data-name="Layer 1">
    <g id="Layer_3" data-name="Layer 3">
      <rect class="cls-1" x="85.9" y="85.19" width="828.8" height="828.8" rx="115" ry="115"/>
      <g>
        <circle class="cls-2" cx="315.49" cy="326.3" r="111.57"/>
        <path class="cls-2" d="M778.68,264.39v526.03h-168.44v-146.03c-6.45,6.01-13.06,11.86-19.87,17.56-50.59,42.38-109.77,75.05-175.92,97.13-62.26,20.79-127.98,31.33-195.3,31.33v-168.44c188.62,0,378.93-110.57,378.93-357.59h180.59Z"/>
      </g>
    </g>
  </g>
  </g>
</svg>