<?xml version="1.0" encoding="UTF-8"?>
<svg id="Layer_1" data-name="Layer 1" xmlns="http://www.w3.org/2000/svg" viewBox="0 0 1141.98 227.8">
  <defs>
    <style>
      .cls-1 {
        fill: #1971f2;
      }
    </style>
  </defs>
  <g>
    <circle class="cls-1" cx="43.94" cy="43.94" r="43.94" transform="translate(-6.47 80.27) rotate(-80.78)"/>
    <path d="M226.35,19.56v207.16h-66.33v-57.51c-2.53,2.36-5.14,4.67-7.83,6.92-38.95,32.63-90.87,50.6-146.19,50.6v-66.34c74.28,0,149.23-43.54,149.23-140.83h71.12Z"/>
  </g>
  <g>
    <path d="M370.95,227.66c-9.9,0-18.78-1.73-26.63-5.18s-14.01-8.62-18.5-15.49c-4.48-6.87-6.73-15.39-6.73-25.58,0-8.69,1.59-15.93,4.76-21.72s7.52-10.46,13.03-14.01,11.79-6.24,18.85-8.06c7.05-1.82,14.46-3.11,22.21-3.85,9.06-.93,16.35-1.8,21.86-2.59,5.51-.79,9.53-2.03,12.05-3.71s3.78-4.2,3.78-7.57v-.7c0-4.3-.96-7.96-2.87-11-1.92-3.04-4.69-5.37-8.34-7.01-3.64-1.63-8.08-2.45-13.31-2.45s-9.97.82-13.94,2.45c-3.97,1.64-7.19,3.83-9.67,6.59s-4.23,5.86-5.26,9.32l-38.54-4.9c2.15-9.34,6.26-17.33,12.33-23.96,6.07-6.63,13.83-11.7,23.26-15.21,9.44-3.5,20.18-5.25,32.23-5.25,8.78,0,17.12,1.03,25.01,3.08,7.89,2.06,14.92,5.23,21.09,9.53,6.17,4.3,11,9.74,14.5,16.33s5.25,14.46,5.25,23.61v104.4h-39.94v-21.58h-1.26c-2.52,4.86-5.86,9.13-10.02,12.82-4.16,3.69-9.13,6.56-14.92,8.62-5.79,2.05-12.57,3.08-20.32,3.08h.04ZM382.72,198.37c6.63,0,12.42-1.31,17.38-3.92,4.95-2.61,8.83-6.12,11.63-10.51s4.2-9.34,4.2-14.85v-16.4c-1.31.75-3.13,1.5-5.47,2.24-2.34.75-5,1.4-7.99,1.96s-6,1.08-9.04,1.54c-3.04.47-5.82.89-8.34,1.26-5.04.75-9.53,1.94-13.45,3.57-3.92,1.64-6.96,3.83-9.11,6.59-2.15,2.76-3.22,6.19-3.22,10.3s1,7.24,3.01,9.95,4.76,4.76,8.27,6.17c3.5,1.4,7.54,2.1,12.12,2.1h0Z"/>
    <path d="M533.51,15.91v208.8h-41.76V15.91h41.76Z"/>
    <path d="M609.74,15.91v208.8h-41.76V15.91h41.76Z"/>
    <path d="M714.01,227.8c-15.6,0-29.13-3.34-40.57-10.02s-20.27-16.02-26.49-28.03c-6.21-12-9.32-25.95-9.32-41.83s3.11-30.11,9.32-42.11,15.04-21.35,26.49-28.03c11.44-6.68,24.97-10.02,40.57-10.02s28.98,3.34,40.43,10.02c11.44,6.68,20.27,16.02,26.49,28.03,6.21,12.01,9.32,26.04,9.32,42.11s-3.11,29.83-9.32,41.83-15.04,21.35-26.49,28.03c-11.45,6.68-24.92,10.02-40.43,10.02ZM714.01,194.73c7.29,0,13.43-2.01,18.43-6.03s8.8-9.55,11.42-16.61c2.61-7.05,3.92-15.16,3.92-24.31s-1.31-17.38-3.92-24.38c-2.62-7.01-6.42-12.52-11.42-16.54-5-4.02-11.14-6.03-18.43-6.03s-13.45,2.01-18.5,6.03c-5.04,4.02-8.85,9.53-11.42,16.54s-3.85,15.13-3.85,24.38,1.28,17.26,3.85,24.31c2.57,7.05,6.35,12.59,11.35,16.61,5,4.02,11.19,6.03,18.57,6.03Z"/>
    <path d="M818.13,224.72V15.92h41.76v208.8h-41.76ZM855.96,179.59v-50.17h6.03l51.29-59.42h48.63l-67.55,77.64h-9.81l-28.59,31.95h0ZM915.66,224.72l-46.95-67.69,27.89-29.71,68.25,97.4h-49.19Z"/>
    <path d="M1003.53,49.97c-6.45,0-11.94-2.1-16.47-6.31-4.53-4.2-6.8-9.34-6.8-15.42s2.26-11.21,6.8-15.42c4.53-4.2,10.02-6.31,16.47-6.31s11.91,2.1,16.4,6.31,6.73,9.34,6.73,15.42-2.24,11.21-6.73,15.42-9.95,6.31-16.4,6.31ZM982.65,224.72V70.01h41.76v154.71h-41.76Z"/>
    <path d="M1138.62,70.01v32.09h-93.89v-32.09h93.89ZM1067.29,32.03h41.76v146.86c0,4.95,1.1,8.57,3.29,10.86,2.19,2.29,5.86,3.43,11,3.43,1.87,0,4.27-.16,7.22-.49,2.94-.33,5.21-.63,6.8-.91l4.62,31.81c-4.21,1.03-8.6,1.75-13.17,2.17-4.58.42-9.02.63-13.31.63-15.88,0-27.89-3.67-36.02-11s-12.19-18.05-12.19-32.16V32.02h0Z"/>
  </g>
</svg>