<?xml version="1.0" encoding="UTF-8"?>
<svg xmlns="http://www.w3.org/2000/svg" viewBox="0 0 1000 1500">
  <defs>
    <style>
      .cls-1 {
        fill: #1971f2;
      }

      .cls-2, .cls-3 {
        fill: #fff;
      }

      .cls-4, .cls-3 {
        isolation: isolate;
      }

      .cls-3 {
        opacity: .88;
      }
    </style>
  </defs>
  <rect class="cls-2" width="1000" height="1500"/>
  <g id="Layer_1" data-name="Layer 1">
    <g>
      <path class="cls-1" d="M1000,1500H0v-597.58l55.32,64.16c16.33,18.93,40.09,29.82,65.09,29.82h759.19c25,0,48.76-10.89,65.09-29.82l55.32-64.16v597.58h0Z"/>
      <rect class="cls-3" x="75.86" y="1236.55" width="848.28" height="1.5"/>
      <g>
        <circle class="cls-2" cx="154.11" cy="1121.78" r="12.44"/>
        <path class="cls-2" d="M174.85,1147.26c-.68,0-1.35-.28-1.84-.82-.91-1.02-.83-2.58.19-3.49,5.99-5.38,9.43-13.1,9.43-21.17s-3.44-15.79-9.43-21.17c-1.02-.91-1.1-2.48-.19-3.49.91-1.02,2.48-1.1,3.49-.19,7.04,6.32,11.07,15.37,11.07,24.85s-4.03,18.53-11.07,24.85c-.47.42-1.06.63-1.65.63Z"/>
        <path class="cls-2" d="M133.38,1147.26c-.59,0-1.18-.21-1.65-.63-7.04-6.32-11.07-15.37-11.07-24.85s4.04-18.53,11.07-24.85c1.02-.91,2.58-.83,3.49.19.91,1.02.83,2.58-.19,3.49-5.99,5.38-9.43,13.1-9.43,21.17s3.44,15.79,9.43,21.17c1.02.91,1.1,2.48.19,3.49-.49.54-1.16.82-1.84.82h0Z"/>
        <path class="cls-2" d="M121.14,1160.86c-.59,0-1.18-.21-1.65-.64-10.87-9.79-17.1-23.8-17.1-38.44s6.24-28.64,17.12-38.44c1.01-.91,2.58-.83,3.49.18.91,1.01.83,2.58-.18,3.49-9.84,8.87-15.48,21.54-15.48,34.77s5.64,25.91,15.46,34.77c1.01.91,1.1,2.48.18,3.49-.49.54-1.16.82-1.84.82h0Z"/>
        <path class="cls-2" d="M187.07,1160.86c-.68,0-1.35-.28-1.84-.82-.91-1.01-.83-2.58.18-3.49,9.83-8.86,15.46-21.53,15.46-34.77s-5.64-25.89-15.47-34.75c-1.01-.91-1.1-2.48-.18-3.49.92-1.02,2.48-1.1,3.49-.18,10.87,9.79,17.1,23.8,17.1,38.42s-6.23,28.64-17.1,38.44c-.47.43-1.06.64-1.65.64h0Z"/>
      </g>
      <g class="cls-4">
        <g class="cls-4">
          <path class="cls-2" d="M278.81,1110.86c-3.02,0-5.66-.51-7.89-1.52-2.24-1.01-3.98-2.42-5.22-4.23-1.24-1.81-1.93-3.94-2.06-6.39h5.34c.11,1.65.61,3.03,1.5,4.13.89,1.11,2.06,1.93,3.52,2.48,1.46.55,3.06.82,4.8.82,1.91,0,3.61-.31,5.11-.92,1.49-.61,2.67-1.47,3.54-2.57.86-1.1,1.29-2.39,1.29-3.86,0-1.3-.35-2.37-1.06-3.21-.71-.84-1.67-1.54-2.91-2.1-1.23-.56-2.65-1.05-4.24-1.47l-4.93-1.36c-3.54-.96-6.24-2.32-8.1-4.08-1.86-1.75-2.78-4.01-2.78-6.78,0-2.36.62-4.41,1.86-6.16s2.94-3.12,5.09-4.09c2.15-.97,4.58-1.46,7.29-1.46s5.2.49,7.31,1.47c2.11.98,3.76,2.34,4.97,4.06,1.21,1.72,1.85,3.69,1.92,5.9h-5.12c-.22-2.15-1.18-3.82-2.87-5.01s-3.81-1.78-6.37-1.78c-1.78,0-3.35.3-4.7.89s-2.41,1.4-3.16,2.42c-.75,1.02-1.13,2.19-1.13,3.51s.41,2.46,1.24,3.33c.83.86,1.86,1.55,3.09,2.07,1.23.52,2.46.95,3.69,1.28l4.26,1.14c1.32.33,2.66.79,4.04,1.35,1.37.57,2.64,1.29,3.81,2.16,1.17.87,2.12,1.96,2.84,3.26s1.08,2.86,1.08,4.68c0,2.3-.6,4.36-1.79,6.18-1.2,1.82-2.92,3.25-5.16,4.3-2.25,1.05-4.94,1.57-8.1,1.57Z"/>
        </g>
        <g class="cls-4">
          <path class="cls-2" d="M313.63,1110.8c-2.8,0-5.26-.66-7.36-1.99-2.11-1.33-3.75-3.19-4.93-5.58-1.18-2.39-1.77-5.16-1.77-8.29s.59-5.99,1.77-8.39,2.82-4.27,4.93-5.59c2.11-1.33,4.56-1.99,7.36-1.99,1.54,0,2.99.2,4.34.61,1.35.41,2.58,1,3.67,1.78,1.09.78,2.03,1.72,2.81,2.83s1.35,2.35,1.73,3.74l-4.81,1.06c-.2-.82-.53-1.56-.99-2.24s-1.01-1.27-1.66-1.77c-.65-.5-1.4-.89-2.25-1.17-.85-.28-1.8-.42-2.84-.42-2.02,0-3.7.52-5.04,1.57-1.34,1.05-2.34,2.44-3.01,4.19s-1,3.67-1,5.79.33,3.98,1,5.72c.67,1.73,1.67,3.12,2.99,4.16s3.01,1.56,5.05,1.56c1.04,0,1.99-.14,2.85-.42.86-.28,1.63-.68,2.3-1.2s1.22-1.14,1.67-1.85.78-1.49,1-2.32l4.81,1.06c-.37,1.41-.95,2.67-1.73,3.79s-1.72,2.07-2.83,2.88c-1.1.81-2.34,1.43-3.72,1.85-1.37.43-2.83.64-4.37.64Z"/>
        </g>
        <g class="cls-4">
          <path class="cls-2" d="M342.3,1110.8c-1.97,0-3.74-.36-5.33-1.09-1.59-.72-2.85-1.79-3.79-3.2s-1.41-3.12-1.41-5.15c0-1.76.35-3.19,1.04-4.29.7-1.1,1.62-1.96,2.78-2.6,1.16-.64,2.45-1.12,3.87-1.43,1.42-.31,2.85-.56,4.3-.75,1.87-.24,3.38-.43,4.52-.56,1.14-.13,1.98-.35,2.53-.65.55-.31.82-.84.82-1.6v-.19c0-1.24-.25-2.31-.74-3.2-.49-.89-1.22-1.57-2.19-2.05-.96-.47-2.16-.71-3.59-.71s-2.72.23-3.77.68-1.9,1.04-2.56,1.75-1.12,1.47-1.38,2.27l-4.81-1.25c.63-1.87,1.59-3.38,2.87-4.52,1.28-1.14,2.75-1.97,4.41-2.5,1.66-.53,3.37-.79,5.13-.79,1.19,0,2.45.15,3.79.46s2.59.84,3.77,1.6c1.18.76,2.14,1.84,2.88,3.24.74,1.4,1.11,3.21,1.11,5.41v20.46h-4.87v-4.23h-.28c-.35.72-.91,1.46-1.67,2.23-.76.76-1.75,1.4-2.98,1.91s-2.72.77-4.48.77ZM343.1,1106.4c1.87,0,3.44-.36,4.7-1.07,1.26-.71,2.22-1.65,2.87-2.8.65-1.15.97-2.36.97-3.62v-4.17c-.2.22-.63.43-1.27.61-.64.19-1.38.35-2.23.5s-1.68.27-2.5.38-1.53.19-2.1.26c-1.19.15-2.3.4-3.34.77-1.04.36-1.87.89-2.5,1.57-.63.69-.95,1.62-.95,2.78,0,1.04.27,1.92.82,2.63s1.29,1.25,2.24,1.61c.95.36,2.04.54,3.28.54Z"/>
          <path class="cls-2" d="M369.93,1091.82v18.31h-4.95v-30.73h4.76l.03,7.43h-.83c.95-2.82,2.29-4.84,4.04-6.05,1.74-1.21,3.79-1.82,6.15-1.82,2.08,0,3.91.43,5.5,1.29,1.59.86,2.83,2.16,3.73,3.9.9,1.74,1.35,3.92,1.35,6.55v19.43h-4.95v-19.04c0-2.41-.62-4.29-1.86-5.64-1.24-1.35-2.95-2.02-5.12-2.02-1.48,0-2.82.32-3.99.95s-2.11,1.57-2.8,2.81c-.69,1.24-1.03,2.78-1.03,4.62Z"/>
          <path class="cls-2" d="M403.05,1091.82v18.31h-4.95v-30.73h4.76l.03,7.43h-.83c.95-2.82,2.29-4.84,4.04-6.05,1.74-1.21,3.79-1.82,6.15-1.82,2.08,0,3.91.43,5.5,1.29,1.59.86,2.83,2.16,3.73,3.9.9,1.74,1.35,3.92,1.35,6.55v19.43h-4.95v-19.04c0-2.41-.62-4.29-1.86-5.64-1.24-1.35-2.95-2.02-5.12-2.02-1.48,0-2.82.32-3.99.95s-2.11,1.57-2.8,2.81c-.69,1.24-1.03,2.78-1.03,4.62Z"/>
          <path class="cls-2" d="M444.08,1110.8c-2.97,0-5.53-.67-7.68-2-2.15-1.34-3.8-3.19-4.95-5.57-1.15-2.38-1.73-5.13-1.73-8.27s.57-5.91,1.71-8.32c1.14-2.41,2.76-4.29,4.84-5.65,2.09-1.35,4.51-2.03,7.28-2.03,1.74,0,3.42.29,5.04.88,1.61.58,3.06,1.5,4.34,2.75,1.28,1.25,2.29,2.86,3.03,4.83.74,1.97,1.11,4.31,1.11,7.04v1.92h-24.16v-4.17h21.46l-2.25,1.5c0-2.02-.33-3.81-.99-5.37s-1.62-2.78-2.89-3.66-2.83-1.32-4.69-1.32-3.42.45-4.75,1.34c-1.33.89-2.34,2.07-3.05,3.55-.71,1.47-1.06,3.09-1.06,4.86v2.62c0,2.25.38,4.17,1.16,5.76.77,1.6,1.86,2.81,3.28,3.65,1.42.83,3.08,1.25,4.97,1.25,1.26,0,2.4-.19,3.41-.56s1.88-.92,2.6-1.64c.72-.72,1.27-1.61,1.64-2.67l4.81,1.06c-.46,1.61-1.27,3.04-2.42,4.29-1.15,1.24-2.58,2.21-4.3,2.91-1.72.7-3.64,1.04-5.77,1.04Z"/>
          <path class="cls-2" d="M463.87,1110.13v-30.73h4.76v4.73h.28c.57-1.56,1.57-2.81,2.98-3.76,1.41-.95,3.03-1.42,4.87-1.42.39,0,.83,0,1.31.03.48.02.85.04,1.11.06v4.98c-.15-.04-.52-.09-1.1-.17-.58-.07-1.21-.11-1.88-.11-1.39,0-2.65.3-3.77.89s-2,1.43-2.64,2.5c-.64,1.08-.96,2.35-.96,3.81v19.18h-4.95Z"/>
          <path class="cls-2" d="M500.27,1121.77v-42.36h4.79v4.84h.45c.41-.69.96-1.44,1.67-2.25.71-.82,1.65-1.53,2.84-2.13,1.19-.6,2.71-.9,4.56-.9,2.6,0,4.88.65,6.83,1.95,1.96,1.3,3.49,3.14,4.61,5.51s1.67,5.18,1.67,8.4-.55,6.06-1.66,8.45c-1.1,2.38-2.63,4.23-4.59,5.54-1.96,1.31-4.24,1.96-6.83,1.96-1.8,0-3.3-.3-4.5-.91-1.2-.6-2.15-1.32-2.87-2.16-.71-.83-1.29-1.61-1.71-2.31h-.31v16.37h-4.95ZM513.85,1106.35c1.89,0,3.49-.5,4.8-1.5,1.31-1,2.3-2.38,2.98-4.12.68-1.74,1.02-3.72,1.02-5.93s-.33-4.17-1-5.89c-.67-1.71-1.66-3.07-2.96-4.05-1.31-.98-2.92-1.47-4.83-1.47s-3.49.48-4.79,1.43c-1.3.96-2.29,2.29-2.96,3.99-.68,1.71-1.02,3.7-1.02,5.98s.34,4.29,1.02,6.03c.68,1.74,1.67,3.09,2.99,4.06,1.32.97,2.9,1.46,4.76,1.46Z"/>
          <path class="cls-2" d="M547.14,1110.8c-2.8,0-5.26-.66-7.36-1.99-2.11-1.33-3.75-3.19-4.93-5.58-1.18-2.39-1.77-5.16-1.77-8.29s.59-5.99,1.77-8.39c1.18-2.4,2.82-4.27,4.93-5.59,2.11-1.33,4.56-1.99,7.36-1.99s5.26.66,7.38,1.99,3.76,3.19,4.94,5.59c1.18,2.4,1.77,5.2,1.77,8.39s-.59,5.9-1.77,8.29c-1.18,2.39-2.83,4.25-4.94,5.58s-4.57,1.99-7.38,1.99ZM547.14,1106.38c2.04,0,3.73-.52,5.08-1.56,1.34-1.04,2.35-2.43,3.01-4.16.66-1.74.99-3.64.99-5.72s-.33-4.02-.99-5.78c-.66-1.75-1.66-3.15-3.01-4.2-1.35-1.05-3.04-1.57-5.08-1.57s-3.7.52-5.04,1.57c-1.34,1.05-2.34,2.44-3.01,4.19s-1,3.67-1,5.79.33,3.98,1,5.72c.67,1.73,1.67,3.12,2.99,4.16,1.33,1.04,3.01,1.56,5.05,1.56Z"/>
          <path class="cls-2" d="M578.73,1110.55c-2.08,0-3.92-.43-5.51-1.29s-2.84-2.16-3.74-3.9c-.9-1.73-1.35-3.91-1.35-6.53v-19.43h4.95v19.01c0,2.43.63,4.32,1.88,5.66,1.25,1.35,2.96,2.02,5.14,2.02,1.46,0,2.79-.32,3.97-.96,1.18-.64,2.11-1.58,2.8-2.82.69-1.24,1.03-2.78,1.03-4.59v-18.31h4.98v30.73h-4.79v-7.46h.81c-.96,2.86-2.33,4.88-4.09,6.08-1.76,1.2-3.79,1.8-6.07,1.8Z"/>
          <path class="cls-2" d="M601.27,1110.13v-30.73h4.76v4.73h.28c.57-1.56,1.57-2.81,2.98-3.76,1.41-.95,3.03-1.42,4.87-1.42.39,0,.83,0,1.31.03.48.02.85.04,1.11.06v4.98c-.15-.04-.51-.09-1.1-.17-.58-.07-1.21-.11-1.88-.11-1.39,0-2.65.3-3.77.89-1.12.59-2,1.43-2.64,2.5-.64,1.08-.96,2.35-.96,3.81v19.18h-4.95Z"/>
        </g>
        <g class="cls-4">
          <path class="cls-2" d="M264.84,1190.17v-42.36h4.79v4.84h.45c.41-.69.96-1.44,1.67-2.25.71-.82,1.65-1.53,2.84-2.13,1.19-.6,2.71-.9,4.56-.9,2.6,0,4.88.65,6.83,1.95,1.96,1.3,3.49,3.14,4.61,5.51s1.67,5.18,1.67,8.41-.55,6.06-1.66,8.45c-1.1,2.38-2.63,4.23-4.59,5.54-1.96,1.31-4.24,1.96-6.83,1.96-1.8,0-3.3-.3-4.5-.91-1.2-.6-2.15-1.32-2.87-2.16-.71-.83-1.29-1.6-1.71-2.31h-.31v16.37h-4.95ZM278.42,1174.75c1.89,0,3.49-.5,4.8-1.5,1.31-1,2.3-2.38,2.98-4.12.68-1.74,1.02-3.72,1.02-5.93s-.33-4.17-1-5.89-1.66-3.07-2.96-4.05c-1.31-.98-2.92-1.47-4.83-1.47s-3.49.48-4.79,1.43c-1.3.96-2.29,2.29-2.96,3.99-.68,1.71-1.02,3.7-1.02,5.98s.34,4.29,1.02,6.03c.68,1.74,1.67,3.09,2.99,4.06,1.32.97,2.9,1.46,4.76,1.46Z"/>
          <path class="cls-2" d="M304.11,1137.06v41.47h-4.95v-41.47h4.95Z"/>
          <path class="cls-2" d="M323.12,1178.95c-2.08,0-3.92-.43-5.51-1.29-1.6-.86-2.84-2.16-3.74-3.9-.9-1.73-1.35-3.91-1.35-6.53v-19.43h4.95v19.01c0,2.43.63,4.32,1.88,5.66,1.25,1.35,2.96,2.02,5.13,2.02,1.47,0,2.79-.32,3.97-.96,1.18-.64,2.11-1.58,2.8-2.82.69-1.24,1.03-2.77,1.03-4.59v-18.31h4.98v30.73h-4.79v-7.46h.81c-.96,2.86-2.33,4.88-4.09,6.08-1.76,1.2-3.79,1.8-6.07,1.8Z"/>
          <path class="cls-2" d="M356.16,1179.2c-2.12,0-4.01-.32-5.68-.96-1.67-.64-3.04-1.59-4.12-2.85s-1.77-2.82-2.09-4.68l4.73-.89c.39,1.72,1.19,3,2.41,3.83,1.21.83,2.78,1.24,4.69,1.24,2.13,0,3.84-.46,5.11-1.38,1.27-.92,1.91-2.02,1.91-3.3,0-1.08-.38-1.97-1.16-2.67-.77-.7-1.9-1.22-3.38-1.56l-5.09-1.22c-2.8-.65-4.89-1.67-6.26-3.08-1.37-1.4-2.06-3.19-2.06-5.36,0-1.76.49-3.32,1.46-4.66.97-1.34,2.31-2.4,4.02-3.16,1.71-.76,3.66-1.14,5.84-1.14s3.93.33,5.46,1,2.75,1.6,3.69,2.78c.94,1.19,1.59,2.56,1.96,4.12l-4.54.92c-.33-1.21-1.02-2.28-2.05-3.21-1.03-.94-2.53-1.41-4.49-1.41-1.86,0-3.38.43-4.58,1.28-1.2.85-1.79,1.93-1.79,3.23,0,1.15.42,2.07,1.25,2.76s2.12,1.23,3.84,1.64l4.7,1.11c2.82.67,4.9,1.69,6.25,3.08,1.35,1.38,2.02,3.14,2.02,5.27,0,1.82-.51,3.42-1.53,4.81s-2.44,2.48-4.24,3.27c-1.81.79-3.9,1.18-6.28,1.18Z"/>
          <path class="cls-2" d="M402.3,1179.17c-2.58,0-4.85-.65-6.82-1.96-1.97-1.31-3.5-3.15-4.61-5.54-1.1-2.38-1.66-5.2-1.66-8.45s.55-6.03,1.66-8.41c1.1-2.38,2.64-4.21,4.62-5.51,1.98-1.3,4.24-1.95,6.8-1.95,1.86,0,3.38.3,4.56.9,1.19.6,2.13,1.31,2.84,2.13.71.82,1.26,1.57,1.67,2.25h.31v-15.59h4.95v41.47h-4.79v-4.73h-.45c-.43.71-1,1.48-1.73,2.31-.72.84-1.68,1.55-2.87,2.16s-2.69.91-4.51.91ZM403.02,1174.75c1.87,0,3.47-.49,4.77-1.46,1.31-.97,2.31-2.33,2.99-4.06.69-1.74,1.03-3.74,1.03-6.03s-.34-4.28-1.02-5.98c-.68-1.71-1.67-3.04-2.98-3.99-1.31-.96-2.91-1.43-4.8-1.43s-3.49.49-4.8,1.47c-1.31.98-2.3,2.33-2.98,4.05-.68,1.72-1.02,3.68-1.02,5.89s.34,4.18,1.02,5.93c.68,1.74,1.67,3.12,2.99,4.12s2.91,1.5,4.79,1.5Z"/>
          <path class="cls-2" d="M437.9,1179.2c-2.97,0-5.53-.67-7.68-2-2.15-1.34-3.8-3.19-4.95-5.57-1.15-2.38-1.73-5.13-1.73-8.27s.57-5.91,1.71-8.32c1.14-2.41,2.76-4.29,4.84-5.65,2.09-1.35,4.51-2.03,7.28-2.03,1.74,0,3.42.29,5.04.88,1.61.58,3.06,1.5,4.34,2.75,1.28,1.25,2.29,2.86,3.03,4.83s1.11,4.31,1.11,7.04v1.92h-24.16v-4.17h21.46l-2.25,1.5c0-2.02-.33-3.81-.99-5.37-.66-1.56-1.62-2.78-2.89-3.66-1.27-.88-2.83-1.32-4.69-1.32s-3.42.45-4.75,1.34c-1.33.89-2.34,2.07-3.05,3.55-.71,1.47-1.06,3.09-1.06,4.86v2.62c0,2.25.38,4.17,1.16,5.76.77,1.6,1.86,2.81,3.28,3.65,1.42.83,3.08,1.25,4.97,1.25,1.26,0,2.4-.18,3.41-.56,1.01-.37,1.88-.92,2.6-1.64s1.27-1.61,1.64-2.67l4.81,1.06c-.46,1.61-1.27,3.04-2.42,4.29-1.15,1.24-2.58,2.21-4.3,2.91-1.72.7-3.64,1.04-5.77,1.04Z"/>
          <path class="cls-2" d="M484.91,1179.17c-2.58,0-4.85-.65-6.82-1.96-1.97-1.31-3.5-3.15-4.61-5.54-1.1-2.38-1.66-5.2-1.66-8.45s.55-6.03,1.66-8.41c1.1-2.38,2.64-4.21,4.62-5.51,1.98-1.3,4.24-1.95,6.8-1.95,1.86,0,3.38.3,4.56.9,1.19.6,2.13,1.31,2.84,2.13.71.82,1.26,1.57,1.67,2.25h.31v-15.59h4.95v41.47h-4.79v-4.73h-.45c-.43.71-1,1.48-1.73,2.31-.72.84-1.68,1.55-2.87,2.16s-2.69.91-4.51.91ZM485.63,1174.75c1.87,0,3.47-.49,4.77-1.46,1.31-.97,2.31-2.33,2.99-4.06.69-1.74,1.03-3.74,1.03-6.03s-.34-4.28-1.02-5.98c-.68-1.71-1.67-3.04-2.98-3.99-1.31-.96-2.91-1.43-4.8-1.43s-3.49.49-4.8,1.47c-1.31.98-2.3,2.33-2.98,4.05-.68,1.72-1.02,3.68-1.02,5.89s.34,4.18,1.02,5.93c.68,1.74,1.67,3.12,2.99,4.12s2.91,1.5,4.79,1.5Z"/>
          <path class="cls-2" d="M520.5,1179.2c-2.97,0-5.53-.67-7.68-2-2.15-1.34-3.8-3.19-4.95-5.57-1.15-2.38-1.73-5.13-1.73-8.27s.57-5.91,1.71-8.32c1.14-2.41,2.76-4.29,4.84-5.65,2.09-1.35,4.51-2.03,7.28-2.03,1.74,0,3.42.29,5.04.88,1.61.58,3.06,1.5,4.34,2.75,1.28,1.25,2.29,2.86,3.03,4.83s1.11,4.31,1.11,7.04v1.92h-24.16v-4.17h21.46l-2.25,1.5c0-2.02-.33-3.81-.99-5.37-.66-1.56-1.62-2.78-2.89-3.66-1.27-.88-2.83-1.32-4.69-1.32s-3.42.45-4.75,1.34c-1.33.89-2.34,2.07-3.05,3.55-.71,1.47-1.06,3.09-1.06,4.86v2.62c0,2.25.38,4.17,1.16,5.76.77,1.6,1.86,2.81,3.28,3.65,1.42.83,3.08,1.25,4.97,1.25,1.26,0,2.4-.18,3.41-.56,1.01-.37,1.88-.92,2.6-1.64s1.27-1.61,1.64-2.67l4.81,1.06c-.46,1.61-1.27,3.04-2.42,4.29-1.15,1.24-2.58,2.21-4.3,2.91-1.72.7-3.64,1.04-5.77,1.04ZM517.72,1143.8l3.9-8.21h5.57l-5.4,8.21h-4.06Z"/>
        </g>
        <g class="cls-4">
          <path class="cls-2" d="M552.67,1147.81v4.23h-16.06v-4.23h16.06ZM541.4,1140.26h4.95v30.42c0,1.32.27,2.28.82,2.88.55.6,1.47.9,2.77.9.33,0,.75-.03,1.24-.08.49-.06.94-.11,1.35-.17l.81,4.18c-.52.15-1.1.26-1.74.33-.64.07-1.27.11-1.88.11-2.65,0-4.7-.68-6.15-2.03s-2.17-3.27-2.17-5.73v-30.81Z"/>
        </g>
        <g class="cls-4">
          <path class="cls-2" d="M567.91,1179.2c-1.97,0-3.74-.36-5.33-1.09-1.59-.72-2.85-1.79-3.79-3.2-.94-1.41-1.41-3.13-1.41-5.15,0-1.76.35-3.19,1.04-4.29.7-1.09,1.62-1.96,2.78-2.6,1.16-.64,2.45-1.12,3.87-1.43,1.42-.32,2.85-.57,4.3-.75,1.87-.24,3.38-.43,4.52-.56,1.14-.13,1.99-.35,2.53-.65.55-.31.82-.84.82-1.6v-.19c0-1.24-.25-2.31-.74-3.2-.49-.89-1.22-1.57-2.18-2.05-.96-.47-2.16-.71-3.59-.71s-2.72.23-3.77.68c-1.05.46-1.9,1.04-2.56,1.75-.66.71-1.12,1.47-1.38,2.27l-4.82-1.25c.63-1.87,1.59-3.38,2.87-4.52,1.28-1.14,2.75-1.98,4.41-2.5,1.66-.53,3.37-.79,5.13-.79,1.19,0,2.45.15,3.79.46,1.34.31,2.59.84,3.77,1.6,1.18.76,2.14,1.84,2.88,3.24.74,1.4,1.11,3.21,1.11,5.41v20.46h-4.87v-4.23h-.28c-.35.72-.91,1.47-1.67,2.23s-1.75,1.4-2.98,1.91c-1.22.51-2.72.77-4.48.77ZM568.71,1174.8c1.87,0,3.44-.36,4.7-1.07s2.22-1.65,2.87-2.8c.65-1.15.97-2.36.97-3.62v-4.17c-.2.22-.63.43-1.27.61-.64.19-1.38.35-2.23.5-.84.15-1.68.27-2.5.38-.83.1-1.53.19-2.1.26-1.19.15-2.3.4-3.34.77-1.04.36-1.88.89-2.5,1.57-.63.69-.95,1.61-.95,2.78,0,1.04.27,1.92.82,2.63.55.71,1.29,1.25,2.24,1.61.95.36,2.04.54,3.28.54Z"/>
          <path class="cls-2" d="M593.07,1142.58c-.93,0-1.73-.32-2.41-.97-.68-.65-1.02-1.43-1.02-2.34s.34-1.68,1.02-2.32c.68-.64,1.48-.96,2.41-.96s1.76.32,2.44.96c.68.64,1.02,1.42,1.02,2.32s-.34,1.69-1.02,2.34c-.68.65-1.49.97-2.44.97ZM590.59,1178.53v-30.73h4.95v30.73h-4.95Z"/>
          <path class="cls-2" d="M608.9,1137.06v41.47h-4.95v-41.47h4.95Z"/>
          <path class="cls-2" d="M627.8,1179.2c-2.12,0-4.01-.32-5.68-.96-1.67-.64-3.04-1.59-4.12-2.85s-1.77-2.82-2.09-4.68l4.73-.89c.39,1.72,1.19,3,2.41,3.83,1.21.83,2.78,1.24,4.69,1.24,2.13,0,3.84-.46,5.11-1.38,1.27-.92,1.91-2.02,1.91-3.3,0-1.08-.38-1.97-1.16-2.67-.77-.7-1.9-1.22-3.38-1.56l-5.09-1.22c-2.8-.65-4.89-1.67-6.26-3.08-1.37-1.4-2.06-3.19-2.06-5.36,0-1.76.49-3.32,1.46-4.66.97-1.34,2.31-2.4,4.02-3.16,1.71-.76,3.66-1.14,5.84-1.14s3.93.33,5.46,1,2.75,1.6,3.69,2.78c.94,1.19,1.59,2.56,1.96,4.12l-4.54.92c-.33-1.21-1.02-2.28-2.05-3.21-1.03-.94-2.53-1.41-4.49-1.41-1.86,0-3.38.43-4.58,1.28-1.2.85-1.79,1.93-1.79,3.23,0,1.15.42,2.07,1.25,2.76s2.12,1.23,3.84,1.64l4.7,1.11c2.82.67,4.9,1.69,6.25,3.08,1.35,1.38,2.02,3.14,2.02,5.27,0,1.82-.51,3.42-1.53,4.81s-2.44,2.48-4.24,3.27c-1.81.79-3.9,1.18-6.28,1.18Z"/>
        </g>
      </g>
      <path class="cls-2" d="M896.42,1097.76v48.53c0,1.66-1.34,3-3,3s-3-1.34-3-3v-41.4l-44.46,43.54c-.58.57-1.34.86-2.1.86s-1.56-.3-2.14-.9c-1.16-1.18-1.14-3.08.04-4.24l44.31-43.39h-37.52c-1.66,0-3-1.34-3-3s1.34-3,3-3h44.87c.11,0,.21.01.32.02.07,0,.14.02.22.03.07.01.14.03.21.05.05.01.1.02.14.04.16.04.31.1.45.18.12.05.23.12.34.19.09.06.17.12.25.2.05.04.1.08.15.13.1.09.19.19.26.29.09.1.17.22.24.34.07.11.13.23.18.36.01,0,.01.03.02.04.07.17.12.34.16.52,0,.02,0,.03.01.04.03.19.05.38.05.57Z"/>
      <g>
        <g>
          <circle class="cls-2" cx="121.08" cy="1297.91" r="13.53"/>
          <path class="cls-2" d="M177.26,1290.4v63.8h-20.43v-17.71c-.78.73-1.58,1.44-2.41,2.13-12,10.05-27.99,15.58-45.03,15.58v-20.43c22.88,0,45.96-13.41,45.96-43.38h21.91Z"/>
        </g>
        <g>
          <path class="cls-2" d="M221.8,1354.5c-3.05,0-5.78-.53-8.2-1.6s-4.32-2.65-5.7-4.77c-1.38-2.12-2.07-4.74-2.07-7.88,0-2.68.49-4.91,1.47-6.69.98-1.78,2.32-3.22,4.01-4.32,1.7-1.09,3.63-1.92,5.81-2.48,2.17-.56,4.45-.96,6.84-1.19,2.79-.29,5.04-.55,6.73-.8,1.7-.24,2.94-.63,3.71-1.14s1.16-1.29,1.16-2.33v-.22c0-1.32-.3-2.45-.88-3.39-.59-.94-1.44-1.65-2.57-2.16-1.12-.5-2.49-.75-4.1-.75s-3.07.25-4.29.75c-1.22.51-2.21,1.18-2.98,2.03s-1.3,1.8-1.62,2.87l-11.87-1.51c.66-2.88,1.93-5.34,3.8-7.38,1.87-2.04,4.26-3.6,7.16-4.68,2.91-1.08,6.22-1.62,9.93-1.62,2.7,0,5.27.32,7.7.95s4.6,1.61,6.5,2.94c1.9,1.32,3.39,3,4.47,5.03s1.62,4.45,1.62,7.27v32.15h-12.3v-6.65h-.39c-.78,1.5-1.8,2.81-3.09,3.95-1.28,1.14-2.81,2.02-4.6,2.65-1.78.63-3.87.95-6.26.95h0v.02ZM225.42,1345.48c2.04,0,3.83-.4,5.35-1.21,1.52-.8,2.72-1.88,3.58-3.24s1.29-2.88,1.29-4.57v-5.05c-.4.23-.96.46-1.68.69-.72.23-1.54.43-2.46.6s-1.85.33-2.78.47c-.94.14-1.79.27-2.57.39-1.55.23-2.94.6-4.14,1.1-1.21.51-2.14,1.18-2.81,2.03-.66.85-.99,1.91-.99,3.17s.31,2.23.93,3.06,1.47,1.47,2.55,1.9,2.32.65,3.73.65h0Z"/>
          <path class="cls-2" d="M271.87,1289.28v64.31h-12.86v-64.31h12.86Z"/>
          <path class="cls-2" d="M295.35,1289.28v64.31h-12.86v-64.31h12.86Z"/>
          <path class="cls-2" d="M327.46,1354.54c-4.8,0-8.97-1.03-12.5-3.09s-6.24-4.93-8.16-8.63c-1.91-3.7-2.87-7.99-2.87-12.88s.96-9.27,2.87-12.97,4.63-6.58,8.16-8.63c3.52-2.06,7.69-3.09,12.5-3.09s8.93,1.03,12.45,3.09c3.52,2.06,6.24,4.93,8.16,8.63,1.91,3.7,2.87,8.02,2.87,12.97s-.96,9.19-2.87,12.88c-1.91,3.7-4.63,6.58-8.16,8.63-3.53,2.06-7.68,3.09-12.45,3.09ZM327.46,1344.36c2.25,0,4.14-.62,5.68-1.86s2.71-2.94,3.52-5.12c.8-2.17,1.21-4.67,1.21-7.49s-.4-5.35-1.21-7.51-1.98-3.86-3.52-5.09c-1.54-1.24-3.43-1.86-5.68-1.86s-4.14.62-5.7,1.86c-1.55,1.24-2.73,2.94-3.52,5.09s-1.19,4.66-1.19,7.51.39,5.32,1.19,7.49c.79,2.17,1.96,3.88,3.5,5.12s3.45,1.86,5.72,1.86Z"/>
          <path class="cls-2" d="M359.53,1353.59v-64.31h12.86v64.31h-12.86ZM371.18,1339.69v-15.45h1.86l15.8-18.3h14.98l-20.81,23.91h-3.02l-8.81,9.84h0ZM389.57,1353.59l-14.46-20.85,8.59-9.15,21.02,30h-15.15Z"/>
          <path class="cls-2" d="M416.63,1299.77c-1.99,0-3.68-.65-5.07-1.94-1.4-1.29-2.09-2.88-2.09-4.75s.7-3.45,2.09-4.75c1.4-1.29,3.09-1.94,5.07-1.94s3.67.65,5.05,1.94c1.38,1.3,2.07,2.88,2.07,4.75s-.69,3.45-2.07,4.75-3.06,1.94-5.05,1.94ZM410.2,1353.59v-47.65h12.86v47.65h-12.86Z"/>
          <path class="cls-2" d="M458.24,1305.94v9.88h-28.92v-9.88h28.92ZM436.27,1294.24h12.86v45.23c0,1.52.34,2.64,1.01,3.34.67.71,1.8,1.06,3.39,1.06.58,0,1.32-.05,2.22-.15.91-.1,1.6-.19,2.09-.28l1.42,9.8c-1.3.32-2.65.54-4.06.67s-2.78.19-4.1.19c-4.89,0-8.59-1.13-11.09-3.39s-3.75-5.56-3.75-9.91v-46.57h0Z"/>
        </g>
      </g>
      <g class="cls-4">
        <g class="cls-4">
          <path class="cls-2" d="M124.84,1431.6c-2.97,0-5.61-.72-7.92-2.16-2.31-1.44-4.12-3.47-5.43-6.1-1.31-2.63-1.96-5.73-1.96-9.29s.65-6.71,1.96-9.33c1.31-2.62,3.12-4.66,5.43-6.1,2.31-1.45,4.95-2.17,7.92-2.17,1.74,0,3.39.26,4.93.77,1.54.51,2.93,1.26,4.17,2.24,1.23.98,2.26,2.17,3.08,3.56.82,1.39,1.38,2.98,1.69,4.75h-4.34c-.25-1.19-.66-2.24-1.25-3.14-.59-.9-1.31-1.67-2.17-2.29-.86-.63-1.8-1.1-2.83-1.41-1.03-.31-2.12-.47-3.27-.47-2.13,0-4.03.54-5.7,1.61-1.67,1.07-2.99,2.62-3.95,4.65-.96,2.03-1.43,4.48-1.43,7.36s.48,5.31,1.45,7.33c.96,2.03,2.28,3.57,3.96,4.64,1.67,1.06,3.57,1.59,5.68,1.59,1.15,0,2.24-.16,3.27-.48,1.03-.32,1.97-.79,2.82-1.41.85-.62,1.57-1.38,2.17-2.28.6-.9,1.02-1.94,1.29-3.12h4.31c-.29,1.74-.85,3.31-1.68,4.69-.83,1.38-1.85,2.57-3.08,3.56-1.22.99-2.61,1.74-4.15,2.26-1.55.52-3.2.78-4.96.78Z"/>
          <path class="cls-2" d="M154.95,1431.67c-2.31,0-4.33-.55-6.07-1.64s-3.09-2.63-4.06-4.6c-.97-1.97-1.46-4.25-1.46-6.84s.49-4.94,1.46-6.92c.97-1.98,2.33-3.52,4.06-4.61,1.74-1.09,3.76-1.64,6.07-1.64s4.34.55,6.08,1.64c1.74,1.09,3.1,2.63,4.07,4.61.97,1.98,1.46,4.29,1.46,6.92s-.49,4.87-1.46,6.84c-.97,1.97-2.33,3.51-4.07,4.6s-3.77,1.64-6.08,1.64ZM154.95,1428.02c1.68,0,3.08-.43,4.19-1.29,1.11-.86,1.94-2,2.48-3.43.54-1.43.81-3,.81-4.72s-.27-3.32-.81-4.76c-.54-1.45-1.37-2.6-2.48-3.47-1.11-.86-2.51-1.3-4.19-1.3s-3.05.43-4.15,1.3c-1.1.87-1.93,2.02-2.48,3.45-.55,1.44-.83,3.03-.83,4.77s.28,3.29.83,4.72c.55,1.43,1.37,2.57,2.47,3.43,1.09.86,2.48,1.29,4.17,1.29Z"/>
          <path class="cls-2" d="M176.34,1416.02v15.1h-4.08v-25.34h3.92l.02,6.13h-.69c.78-2.33,1.89-3.99,3.33-4.99,1.44-1,3.13-1.5,5.07-1.5,1.71,0,3.22.36,4.53,1.07,1.31.71,2.33,1.78,3.08,3.21.74,1.43,1.11,3.23,1.11,5.4v16.02h-4.08v-15.7c0-1.99-.51-3.54-1.54-4.65-1.03-1.11-2.43-1.66-4.22-1.66-1.22,0-2.32.26-3.29.78-.97.52-1.74,1.29-2.31,2.32-.57,1.03-.85,2.29-.85,3.81Z"/>
        </g>
        <g class="cls-4">
          <path class="cls-2" d="M209.77,1405.78v3.49h-13.24v-3.49h13.24ZM200.48,1399.56h4.08v25.08c0,1.09.23,1.88.68,2.38.45.5,1.21.75,2.28.75.28,0,.62-.02,1.02-.07.4-.04.78-.09,1.11-.14l.67,3.44c-.43.12-.91.21-1.43.28-.53.06-1.04.09-1.55.09-2.19,0-3.88-.56-5.07-1.67-1.19-1.12-1.79-2.69-1.79-4.73v-25.4Z"/>
        </g>
        <g class="cls-4">
          <path class="cls-2" d="M222.33,1431.67c-1.62,0-3.09-.3-4.39-.89-1.31-.6-2.35-1.48-3.12-2.64-.77-1.16-1.16-2.58-1.16-4.25,0-1.45.29-2.63.86-3.54.57-.9,1.34-1.62,2.29-2.15.96-.53,2.02-.92,3.19-1.18,1.17-.26,2.35-.47,3.55-.62,1.54-.2,2.79-.35,3.73-.46.94-.11,1.64-.29,2.09-.54.45-.25.68-.69.68-1.32v-.16c0-1.02-.2-1.9-.61-2.64s-1.01-1.3-1.8-1.69c-.8-.39-1.78-.58-2.96-.58s-2.25.19-3.11.56c-.86.38-1.57.86-2.11,1.45-.54.59-.92,1.21-1.14,1.87l-3.97-1.03c.52-1.55,1.31-2.79,2.36-3.73,1.06-.94,2.27-1.63,3.64-2.07,1.37-.44,2.78-.65,4.23-.65.98,0,2.02.13,3.12.38,1.1.25,2.14.69,3.11,1.32.97.63,1.76,1.52,2.38,2.67.61,1.16.92,2.64.92,4.46v16.87h-4.02v-3.49h-.23c-.29.6-.75,1.21-1.38,1.84-.63.63-1.45,1.15-2.46,1.57-1.01.42-2.24.63-3.69.63ZM222.99,1428.04c1.54,0,2.84-.29,3.88-.88,1.04-.59,1.83-1.36,2.36-2.31.54-.95.8-1.94.8-2.98v-3.44c-.17.18-.52.35-1.04.51-.53.15-1.14.29-1.84.41-.7.12-1.39.23-2.07.31-.68.08-1.26.16-1.73.22-.98.12-1.9.33-2.75.63-.86.3-1.55.73-2.07,1.3-.52.57-.78,1.33-.78,2.29,0,.86.23,1.58.68,2.17.45.59,1.07,1.03,1.85,1.33.78.3,1.68.45,2.71.45Z"/>
          <path class="cls-2" d="M251.38,1431.67c-2.31,0-4.33-.55-6.07-1.64s-3.09-2.63-4.06-4.6c-.97-1.97-1.46-4.25-1.46-6.84s.49-4.94,1.46-6.92c.97-1.98,2.33-3.52,4.06-4.61,1.74-1.09,3.76-1.64,6.07-1.64,1.27,0,2.46.17,3.58.5,1.12.34,2.13.83,3.03,1.47.9.64,1.68,1.42,2.32,2.33.64.91,1.12,1.94,1.42,3.09l-3.97.87c-.17-.67-.44-1.29-.81-1.85-.38-.56-.83-1.04-1.37-1.46-.54-.41-1.16-.73-1.86-.96-.7-.23-1.48-.34-2.34-.34-1.67,0-3.05.43-4.15,1.3-1.1.87-1.93,2.02-2.48,3.45-.55,1.44-.83,3.03-.83,4.77s.28,3.29.83,4.72c.55,1.43,1.37,2.57,2.47,3.43,1.09.86,2.48,1.29,4.17,1.29.86,0,1.64-.12,2.35-.34.71-.23,1.34-.56,1.89-.99.55-.43,1.01-.94,1.38-1.53s.64-1.23.83-1.92l3.97.87c-.31,1.16-.78,2.2-1.42,3.12s-1.42,1.71-2.33,2.38c-.91.67-1.93,1.17-3.06,1.53-1.13.35-2.33.53-3.6.53Z"/>
          <path class="cls-2" d="M277.59,1405.78v3.49h-13.24v-3.49h13.24ZM268.29,1399.56h4.08v25.08c0,1.09.23,1.88.68,2.38.45.5,1.21.75,2.28.75.28,0,.62-.02,1.02-.07.4-.04.78-.09,1.11-.14l.67,3.44c-.43.12-.91.21-1.43.28-.53.06-1.04.09-1.55.09-2.19,0-3.88-.56-5.07-1.67-1.19-1.12-1.79-2.69-1.79-4.73v-25.4Z"/>
          <path class="cls-2" d="M285.53,1413.01c-.84,0-1.56-.3-2.15-.89s-.88-1.32-.88-2.16.29-1.56.88-2.16,1.3-.89,2.15-.89,1.58.3,2.17.89.88,1.32.88,2.16-.29,1.56-.88,2.16-1.31.89-2.17.89ZM285.53,1431.44c-.84,0-1.56-.3-2.15-.9-.59-.6-.88-1.32-.88-2.16s.29-1.56.88-2.16c.59-.6,1.3-.89,2.15-.89s1.58.3,2.17.89c.59.6.88,1.32.88,2.16s-.29,1.56-.88,2.16c-.59.6-1.31.9-2.17.9Z"/>
        </g>
        <g class="cls-4">
          <path class="cls-2" d="M305.72,1424.46v-4.84l14.73-22.7h3.99v6.77h-2.39l-10.12,15.54v.23h20.56v5h-26.78ZM322.2,1431.12v-8.12l.07-2.2v-23.87h5.78v34.19h-5.85Z"/>
          <path class="cls-2" d="M348.71,1431.58c-2.25,0-4.26-.42-6.02-1.27-1.77-.85-3.17-2.03-4.21-3.53s-1.6-3.22-1.67-5.15h5.94c.06.98.36,1.84.91,2.59.54.75,1.25,1.34,2.13,1.77.88.43,1.85.64,2.93.64,1.24,0,2.34-.28,3.29-.85.96-.57,1.7-1.35,2.24-2.34.54-1,.8-2.14.8-3.44s-.28-2.48-.83-3.5-1.3-1.81-2.26-2.39c-.96-.57-2.07-.86-3.34-.86-1.16,0-2.26.23-3.28.68-1.03.45-1.81,1.06-2.36,1.82l-5.55-.71,1.61-18.11h20.1v5.12h-14.94l-.92,9.09h.16c.7-.8,1.64-1.44,2.82-1.93,1.18-.49,2.46-.73,3.86-.73,1.54,0,2.98.28,4.3.84,1.32.56,2.47,1.35,3.45,2.38.98,1.02,1.74,2.23,2.28,3.61s.81,2.9.81,4.56c0,2.28-.52,4.3-1.56,6.06-1.04,1.76-2.48,3.14-4.31,4.15s-3.96,1.51-6.38,1.51Z"/>
          <path class="cls-2" d="M378.56,1431.6c-2.77,0-5.14-.7-7.1-2.09-1.97-1.39-3.47-3.4-4.52-6.01s-1.57-5.77-1.57-9.46.53-6.84,1.58-9.46,2.56-4.63,4.52-6.04c1.96-1.41,4.32-2.11,7.09-2.11s5.11.7,7.08,2.11c1.97,1.41,3.47,3.42,4.52,6.04s1.57,5.77,1.57,9.46-.52,6.82-1.56,9.44c-1.04,2.62-2.54,4.63-4.51,6.02-1.97,1.39-4.33,2.09-7.1,2.09ZM378.56,1426.48c1.5,0,2.78-.49,3.84-1.47,1.06-.98,1.87-2.39,2.43-4.25.56-1.85.84-4.09.84-6.72s-.28-4.9-.84-6.76c-.56-1.86-1.37-3.28-2.43-4.27-1.06-.99-2.34-1.48-3.84-1.48s-2.8.49-3.86,1.48c-1.06.99-1.86,2.41-2.42,4.27-.56,1.86-.84,4.11-.84,6.76s.28,4.87.83,6.72c.55,1.85,1.36,3.27,2.42,4.25,1.06.98,2.35,1.47,3.87,1.47Z"/>
        </g>
        <g class="cls-4">
          <path class="cls-2" d="M412.42,1414.55v4.91h-15.35v-4.91h15.35Z"/>
        </g>
        <g class="cls-4">
          <path class="cls-2" d="M418.35,1431.12l14.57-28.87v-.18h-16.91v-5.14h23.25v5.25l-14.57,28.94h-6.33Z"/>
        </g>
        <g class="cls-4">
          <path class="cls-2" d="M440.46,1424.46v-4.84l14.73-22.7h3.99v6.77h-2.39l-10.12,15.54v.23h20.56v5h-26.78ZM456.93,1431.12v-8.12l.07-2.2v-23.87h5.78v34.19h-5.85Z"/>
          <path class="cls-2" d="M472.13,1431.12v-4.45l11.98-11.5c1.13-1.12,2.08-2.12,2.86-3,.77-.88,1.36-1.74,1.77-2.59.41-.85.61-1.78.61-2.79,0-1.1-.25-2.05-.75-2.86-.5-.8-1.17-1.42-2.03-1.85-.86-.43-1.85-.64-2.98-.64s-2.2.24-3.08.72c-.87.48-1.55,1.17-2.02,2.07-.47.89-.71,1.96-.71,3.2h-5.78c0-2.22.49-4.15,1.48-5.79.99-1.64,2.36-2.92,4.11-3.83s3.78-1.37,6.07-1.37,4.29.43,6.02,1.3c1.74.87,3.09,2.05,4.06,3.56s1.46,3.24,1.46,5.2c0,1.33-.25,2.61-.75,3.84-.5,1.23-1.35,2.58-2.55,4.04s-2.85,3.19-4.95,5.17l-6.38,6.27v.21h15.05v5.09h-23.5Z"/>
          <path class="cls-2" d="M516.69,1414.55v4.91h-15.35v-4.91h15.35Z"/>
          <path class="cls-2" d="M535.95,1396.92v34.19h-6.04v-28.66h-.18l-8.03,5.62v-5.76l7.73-5.39h6.52Z"/>
        </g>
        <g class="cls-4">
          <path class="cls-2" d="M543.31,1431.12l14.57-28.87v-.18h-16.91v-5.14h23.25v5.25l-14.57,28.94h-6.33Z"/>
        </g>
        <g class="cls-4">
          <path class="cls-2" d="M580.61,1431.6c-2.77,0-5.14-.7-7.1-2.09-1.97-1.39-3.47-3.4-4.52-6.01-1.05-2.62-1.57-5.77-1.57-9.46s.53-6.84,1.58-9.46c1.05-2.62,2.56-4.63,4.52-6.04,1.96-1.41,4.32-2.11,7.09-2.11s5.11.7,7.08,2.11c1.97,1.41,3.47,3.42,4.52,6.04,1.05,2.62,1.57,5.77,1.57,9.46s-.52,6.82-1.56,9.44c-1.04,2.62-2.54,4.63-4.51,6.02-1.97,1.39-4.33,2.09-7.1,2.09ZM580.61,1426.48c1.5,0,2.78-.49,3.84-1.47,1.06-.98,1.87-2.39,2.43-4.25.56-1.85.84-4.09.84-6.72s-.28-4.9-.84-6.76c-.56-1.86-1.37-3.28-2.43-4.27-1.06-.99-2.34-1.48-3.84-1.48s-2.8.49-3.86,1.48c-1.05.99-1.86,2.41-2.42,4.27-.56,1.86-.84,4.11-.84,6.76s.28,4.87.83,6.72c.55,1.85,1.36,3.27,2.42,4.25,1.06.98,2.35,1.47,3.87,1.47Z"/>
          <path class="cls-2" d="M610.84,1431.6c-2.46,0-4.63-.44-6.49-1.31-1.87-.87-3.33-2.07-4.38-3.59-1.06-1.52-1.61-3.28-1.65-5.27h6.1c.05,1.04.35,1.94.91,2.71.56.77,1.31,1.35,2.26,1.76s2.03.61,3.24.61,2.36-.22,3.32-.65c.96-.44,1.71-1.04,2.25-1.83.54-.78.81-1.69.81-2.73s-.28-1.96-.84-2.75c-.56-.79-1.36-1.42-2.4-1.86-1.04-.44-2.29-.67-3.74-.67h-3.01v-4.73h3.01c1.21,0,2.27-.21,3.19-.62.92-.41,1.63-.99,2.15-1.73.51-.74.77-1.61.77-2.6s-.23-1.86-.68-2.59c-.45-.73-1.09-1.31-1.91-1.72s-1.78-.62-2.88-.62-2.1.2-3,.6c-.89.4-1.61.96-2.14,1.7-.54.73-.82,1.61-.85,2.64h-5.85c.03-1.94.57-3.66,1.61-5.14,1.04-1.48,2.45-2.65,4.23-3.49,1.78-.84,3.8-1.26,6.05-1.26s4.25.42,5.94,1.27c1.7.85,3.02,1.99,3.97,3.42.95,1.43,1.42,3.03,1.42,4.79,0,1.91-.57,3.52-1.71,4.83-1.14,1.31-2.64,2.17-4.51,2.58v.23c1.58.21,2.92.69,4.03,1.43,1.11.74,1.95,1.68,2.52,2.8.57,1.12.86,2.39.86,3.8,0,1.93-.54,3.64-1.63,5.15-1.09,1.51-2.57,2.69-4.46,3.56s-4.06,1.3-6.51,1.3Z"/>
        </g>
      </g>
    </g>
  </g>
</svg>