<?xml version="1.0" encoding="UTF-8"?>
<svg xmlns="http://www.w3.org/2000/svg" viewBox="0 0 72 108">
  <defs>
    <style>
      .cls-1 {
        fill: #1971f2;
      }

      .cls-2 {
        fill: none;
        opacity: .88;
        stroke: #fff;
        stroke-miterlimit: 10;
        stroke-width: .11px;
      }

      .cls-3 {
        fill: #fff;
      }
    </style>
  </defs>
  <rect class="cls-3" width="72" height="108"/>
  <g id="Layer_1" data-name="Layer 1">
    <g>
      <path class="cls-1" d="M72,108H0v-43.03l3.98,4.62c1.18,1.36,2.89,2.15,4.69,2.15h54.66c1.8,0,3.51-.78,4.69-2.15l3.98-4.62v43.03Z"/>
      <line class="cls-2" x1="5.46" y1="89.09" x2="66.54" y2="89.09"/>
      <g>
        <circle class="cls-3" cx="11.1" cy="80.77" r=".9"/>
        <path class="cls-3" d="M12.59,82.6s-.1-.02-.13-.06c-.07-.07-.06-.19.01-.25.43-.39.68-.94.68-1.52s-.25-1.14-.68-1.52c-.07-.07-.08-.18-.01-.25.07-.07.18-.08.25-.01.51.45.8,1.11.8,1.79s-.29,1.33-.8,1.79c-.03.03-.08.05-.12.05Z"/>
        <path class="cls-3" d="M9.6,82.6s-.08-.02-.12-.05c-.51-.45-.8-1.11-.8-1.79s.29-1.33.8-1.79c.07-.07.19-.06.25.01.07.07.06.19-.01.25-.43.39-.68.94-.68,1.52s.25,1.14.68,1.52c.07.07.08.18.01.25-.04.04-.08.06-.13.06Z"/>
        <path class="cls-3" d="M8.72,83.58s-.09-.02-.12-.05c-.78-.71-1.23-1.71-1.23-2.77s.45-2.06,1.23-2.77c.07-.07.19-.06.25.01.07.07.06.19-.01.25-.71.64-1.11,1.55-1.11,2.5s.41,1.87,1.11,2.5c.07.07.08.18.01.25-.04.04-.08.06-.13.06Z"/>
        <path class="cls-3" d="M13.47,83.58s-.1-.02-.13-.06c-.07-.07-.06-.19.01-.25.71-.64,1.11-1.55,1.11-2.5s-.41-1.86-1.11-2.5c-.07-.07-.08-.18-.01-.25.07-.07.18-.08.25-.01.78.71,1.23,1.71,1.23,2.77s-.45,2.06-1.23,2.77c-.03.03-.08.05-.12.05Z"/>
      </g>
      <g>
        <path class="cls-3" d="M20.07,79.98c-.22,0-.41-.04-.57-.11-.16-.07-.29-.17-.38-.3-.09-.13-.14-.28-.15-.46h.38c0,.12.04.22.11.3.06.08.15.14.25.18s.22.06.35.06c.14,0,.26-.02.37-.07s.19-.11.25-.19.09-.17.09-.28c0-.09-.03-.17-.08-.23s-.12-.11-.21-.15-.19-.08-.31-.11l-.35-.1c-.26-.07-.45-.17-.58-.29-.13-.13-.2-.29-.2-.49,0-.17.04-.32.13-.44.09-.13.21-.22.37-.29.16-.07.33-.1.53-.1s.37.04.53.11c.15.07.27.17.36.29.09.12.13.27.14.42h-.37c-.02-.16-.08-.28-.21-.36-.12-.08-.27-.13-.46-.13-.13,0-.24.02-.34.06-.1.04-.17.1-.23.17-.05.07-.08.16-.08.25s.03.18.09.24.13.11.22.15c.09.04.18.07.27.09l.31.08c.09.02.19.06.29.1.1.04.19.09.27.16.08.06.15.14.2.23s.08.21.08.34c0,.17-.04.31-.13.44-.09.13-.21.23-.37.31-.16.08-.36.11-.58.11Z"/>
        <path class="cls-3" d="M22.58,79.98c-.2,0-.38-.05-.53-.14-.15-.1-.27-.23-.35-.4-.08-.17-.13-.37-.13-.6s.04-.43.13-.6c.08-.17.2-.31.35-.4.15-.09.33-.14.53-.14.11,0,.21.01.31.04s.19.07.26.13c.08.06.15.12.2.2.06.08.1.17.12.27l-.35.08c-.02-.06-.04-.11-.07-.16s-.07-.09-.12-.13c-.05-.04-.1-.06-.16-.08-.06-.02-.13-.03-.2-.03-.15,0-.27.04-.36.11s-.17.18-.22.3c-.05.12-.07.26-.07.42s.02.29.07.41c.05.12.12.22.22.3.1.08.22.11.36.11.07,0,.14,0,.21-.03.06-.02.12-.05.17-.09.05-.04.09-.08.12-.13.03-.05.06-.11.07-.17l.35.08c-.03.1-.07.19-.12.27s-.12.15-.2.21c-.08.06-.17.1-.27.13-.1.03-.2.05-.31.05Z"/>
        <path class="cls-3" d="M24.64,79.98c-.14,0-.27-.03-.38-.08-.11-.05-.21-.13-.27-.23-.07-.1-.1-.22-.1-.37,0-.13.02-.23.08-.31.05-.08.12-.14.2-.19s.18-.08.28-.1.21-.04.31-.05c.13-.02.24-.03.33-.04.08,0,.14-.03.18-.05.04-.02.06-.06.06-.12h0c0-.1-.02-.18-.05-.24-.04-.06-.09-.11-.16-.15-.07-.03-.16-.05-.26-.05s-.2.02-.27.05c-.08.03-.14.08-.18.13-.05.05-.08.11-.1.16l-.35-.09c.05-.13.11-.24.21-.33s.2-.14.32-.18c.12-.04.24-.06.37-.06.09,0,.18.01.27.03.1.02.19.06.27.12s.15.13.21.23c.05.1.08.23.08.39v1.47h-.35v-.3h-.02c-.03.05-.07.11-.12.16s-.13.1-.21.14c-.09.04-.2.05-.32.05ZM24.7,79.66c.14,0,.25-.03.34-.08s.16-.12.21-.2.07-.17.07-.26v-.3s-.04.03-.09.04c-.05.01-.1.03-.16.04-.06.01-.12.02-.18.03-.06,0-.11.01-.15.02-.09,0-.17.03-.24.05-.08.03-.14.06-.18.11s-.07.12-.07.2c0,.08.02.14.06.19s.09.09.16.12c.07.03.15.04.24.04Z"/>
        <path class="cls-3" d="M26.63,78.61v1.32h-.36v-2.21h.34v.53s-.06,0-.06,0c.07-.2.17-.35.29-.44.13-.09.27-.13.44-.13.15,0,.28.03.4.09.11.06.2.16.27.28.06.12.1.28.1.47v1.4h-.36v-1.37c0-.17-.04-.31-.13-.41-.09-.1-.21-.15-.37-.15-.11,0-.2.02-.29.07-.08.04-.15.11-.2.2-.05.09-.07.2-.07.33Z"/>
        <path class="cls-3" d="M29.02,78.61v1.32h-.36v-2.21h.34v.53s-.06,0-.06,0c.07-.2.17-.35.29-.44.13-.09.27-.13.44-.13.15,0,.28.03.4.09.11.06.2.16.27.28.06.12.1.28.1.47v1.4h-.36v-1.37c0-.17-.04-.31-.13-.41-.09-.1-.21-.15-.37-.15-.11,0-.2.02-.29.07-.08.04-.15.11-.2.2-.05.09-.07.2-.07.33Z"/>
        <path class="cls-3" d="M31.97,79.98c-.21,0-.4-.05-.55-.14-.15-.1-.27-.23-.36-.4-.08-.17-.12-.37-.12-.59s.04-.43.12-.6c.08-.17.2-.31.35-.41.15-.1.32-.15.52-.15.13,0,.25.02.36.06s.22.11.31.2c.09.09.17.21.22.35.05.14.08.31.08.51v.14h-1.74v-.3h1.54l-.16.11c0-.15-.02-.27-.07-.39s-.12-.2-.21-.26c-.09-.06-.2-.09-.34-.09s-.25.03-.34.1c-.1.06-.17.15-.22.26s-.08.22-.08.35v.19c0,.16.03.3.08.42.06.11.13.2.24.26.1.06.22.09.36.09.09,0,.17-.01.25-.04.07-.03.14-.07.19-.12.05-.05.09-.12.12-.19l.35.08c-.03.12-.09.22-.17.31-.08.09-.19.16-.31.21-.12.05-.26.08-.42.08Z"/>
        <path class="cls-3" d="M33.4,79.93v-2.21h.34v.34h.02c.04-.11.11-.2.21-.27.1-.07.22-.1.35-.1.03,0,.06,0,.09,0,.03,0,.06,0,.08,0v.36s-.04,0-.08-.01c-.04,0-.09,0-.14,0-.1,0-.19.02-.27.06-.08.04-.14.1-.19.18-.05.08-.07.17-.07.27v1.38h-.36Z"/>
        <path class="cls-3" d="M36.02,80.77v-3.05h.34v.35h.03s.07-.1.12-.16c.05-.06.12-.11.2-.15.09-.04.2-.06.33-.06.19,0,.35.05.49.14.14.09.25.23.33.4s.12.37.12.6-.04.44-.12.61-.19.3-.33.4c-.14.09-.3.14-.49.14-.13,0-.24-.02-.32-.06-.09-.04-.15-.1-.21-.16-.05-.06-.09-.12-.12-.17h-.02v1.18h-.36ZM37,79.66c.14,0,.25-.04.35-.11.09-.07.17-.17.21-.3.05-.12.07-.27.07-.43s-.02-.3-.07-.42c-.05-.12-.12-.22-.21-.29-.09-.07-.21-.11-.35-.11s-.25.03-.34.1c-.09.07-.17.16-.21.29-.05.12-.07.27-.07.43s.02.31.07.43c.05.12.12.22.22.29.09.07.21.11.34.11Z"/>
        <path class="cls-3" d="M39.39,79.98c-.2,0-.38-.05-.53-.14-.15-.1-.27-.23-.35-.4-.09-.17-.13-.37-.13-.6s.04-.43.13-.6c.08-.17.2-.31.35-.4.15-.09.33-.14.53-.14s.38.05.53.14c.15.1.27.23.36.4.08.17.13.37.13.6s-.04.42-.13.6c-.09.17-.2.31-.36.4-.15.09-.33.14-.53.14ZM39.39,79.66c.15,0,.27-.04.37-.11.1-.08.17-.17.22-.3.05-.12.07-.26.07-.41s-.02-.29-.07-.42c-.05-.13-.12-.23-.22-.3-.1-.08-.22-.11-.37-.11s-.27.04-.36.11-.17.18-.22.3c-.05.12-.07.26-.07.42s.02.29.07.41c.05.12.12.22.22.3.09.08.22.11.36.11Z"/>
        <path class="cls-3" d="M41.67,79.96c-.15,0-.28-.03-.4-.09-.12-.06-.21-.16-.27-.28s-.1-.28-.1-.47v-1.4h.36v1.37c0,.17.04.31.13.41s.21.14.37.14c.11,0,.2-.02.29-.07.08-.05.15-.11.2-.2.05-.09.07-.2.07-.33v-1.32h.36v2.21h-.34v-.54h.06c-.07.21-.17.35-.29.44-.13.09-.27.13-.44.13Z"/>
        <path class="cls-3" d="M43.29,79.93v-2.21h.34v.34h.02c.04-.11.11-.2.21-.27.1-.07.22-.1.35-.1.03,0,.06,0,.09,0,.03,0,.06,0,.08,0v.36s-.04,0-.08-.01c-.04,0-.09,0-.13,0-.1,0-.19.02-.27.06-.08.04-.14.1-.19.18-.05.08-.07.17-.07.27v1.38h-.36Z"/>
        <path class="cls-3" d="M19.07,85.69v-3.05h.34v.35h.03s.07-.1.12-.16c.05-.06.12-.11.2-.15.09-.04.2-.06.33-.06.19,0,.35.05.49.14.14.09.25.23.33.4s.12.37.12.6-.04.44-.12.61-.19.3-.33.4c-.14.09-.31.14-.49.14-.13,0-.24-.02-.32-.06-.09-.04-.15-.1-.21-.16-.05-.06-.09-.12-.12-.17h-.02v1.18h-.36ZM20.05,84.58c.14,0,.25-.04.35-.11.09-.07.17-.17.21-.3.05-.12.07-.27.07-.43s-.02-.3-.07-.42c-.05-.12-.12-.22-.21-.29-.09-.07-.21-.11-.35-.11s-.25.03-.34.1c-.09.07-.17.16-.21.29-.05.12-.07.27-.07.43s.02.31.07.43c.05.12.12.22.22.29.09.07.21.11.34.11Z"/>
        <path class="cls-3" d="M21.9,81.87v2.99h-.36v-2.99h.36Z"/>
        <path class="cls-3" d="M23.26,84.88c-.15,0-.28-.03-.4-.09-.12-.06-.21-.16-.27-.28-.06-.12-.1-.28-.1-.47v-1.4h.36v1.37c0,.17.05.31.14.41.09.1.21.14.37.14.11,0,.2-.02.29-.07.08-.05.15-.11.2-.2.05-.09.07-.2.07-.33v-1.32h.36v2.21h-.34v-.54h.06c-.07.21-.17.35-.29.44-.13.09-.27.13-.44.13Z"/>
        <path class="cls-3" d="M25.64,84.9c-.15,0-.29-.02-.41-.07-.12-.05-.22-.11-.3-.21-.08-.09-.13-.2-.15-.34l.34-.06c.03.12.09.22.17.28s.2.09.34.09c.15,0,.28-.03.37-.1.09-.07.14-.15.14-.24,0-.08-.03-.14-.08-.19-.06-.05-.14-.09-.24-.11l-.37-.09c-.2-.05-.35-.12-.45-.22-.1-.1-.15-.23-.15-.39,0-.13.04-.24.1-.34.07-.1.17-.17.29-.23.12-.05.26-.08.42-.08s.28.02.39.07c.11.05.2.11.27.2.07.08.11.18.14.3l-.33.07c-.02-.09-.07-.16-.15-.23s-.18-.1-.32-.1c-.13,0-.24.03-.33.09-.09.06-.13.14-.13.23,0,.08.03.15.09.2.06.05.15.09.28.12l.34.08c.2.05.35.12.45.22.1.1.15.23.15.38,0,.13-.04.25-.11.35-.07.1-.18.18-.31.24-.13.06-.28.08-.45.08Z"/>
        <path class="cls-3" d="M28.97,84.9c-.19,0-.35-.05-.49-.14-.14-.09-.25-.23-.33-.4s-.12-.37-.12-.61.04-.43.12-.6.19-.3.33-.4c.14-.09.31-.14.49-.14.13,0,.24.02.33.06.09.04.15.09.2.15.05.06.09.11.12.16h.02v-1.12h.36v2.99h-.34v-.34h-.03c-.03.05-.07.11-.12.17-.05.06-.12.11-.21.16-.09.04-.19.06-.32.06ZM29.02,84.58c.13,0,.25-.04.34-.11.09-.07.17-.17.22-.29.05-.12.07-.27.07-.43s-.02-.31-.07-.43-.12-.22-.21-.29c-.09-.07-.21-.1-.35-.1s-.25.04-.35.11c-.09.07-.17.17-.21.29-.05.12-.07.27-.07.42s.02.3.07.43c.05.13.12.22.22.3.09.07.21.11.34.11Z"/>
        <path class="cls-3" d="M31.53,84.9c-.21,0-.4-.05-.55-.14-.15-.1-.27-.23-.36-.4-.08-.17-.12-.37-.12-.59s.04-.43.12-.6c.08-.17.2-.31.35-.41.15-.1.32-.15.52-.15.13,0,.25.02.36.06s.22.11.31.2c.09.09.17.21.22.35.05.14.08.31.08.51v.14h-1.74v-.3h1.54l-.16.11c0-.15-.02-.27-.07-.39s-.12-.2-.21-.26c-.09-.06-.2-.09-.34-.09s-.25.03-.34.1c-.1.06-.17.15-.22.26s-.08.22-.08.35v.19c0,.16.03.3.08.42.06.11.13.2.24.26.1.06.22.09.36.09.09,0,.17-.01.25-.04.07-.03.14-.07.19-.12.05-.05.09-.12.12-.19l.35.08c-.03.12-.09.22-.17.31-.08.09-.19.16-.31.21-.12.05-.26.08-.42.08Z"/>
        <path class="cls-3" d="M34.91,84.9c-.19,0-.35-.05-.49-.14-.14-.09-.25-.23-.33-.4s-.12-.37-.12-.61.04-.43.12-.6.19-.3.33-.4c.14-.09.31-.14.49-.14.13,0,.24.02.33.06.09.04.15.09.2.15.05.06.09.11.12.16h.02v-1.12h.36v2.99h-.34v-.34h-.03c-.03.05-.07.11-.12.17-.05.06-.12.11-.21.16-.09.04-.19.06-.32.06ZM34.96,84.58c.13,0,.25-.04.34-.11.09-.07.17-.17.22-.29.05-.12.07-.27.07-.43s-.02-.31-.07-.43-.12-.22-.21-.29c-.09-.07-.21-.1-.35-.1s-.25.04-.35.11c-.09.07-.17.17-.21.29-.05.12-.07.27-.07.42s.02.3.07.43c.05.13.12.22.22.3.09.07.21.11.34.11Z"/>
        <path class="cls-3" d="M37.48,84.9c-.21,0-.4-.05-.55-.14-.15-.1-.27-.23-.36-.4-.08-.17-.12-.37-.12-.59s.04-.43.12-.6c.08-.17.2-.31.35-.41.15-.1.32-.15.52-.15.12,0,.25.02.36.06.12.04.22.11.31.2.09.09.16.21.22.35s.08.31.08.51v.14h-1.74v-.3h1.54l-.16.11c0-.15-.02-.27-.07-.39s-.12-.2-.21-.26-.21-.09-.34-.09-.25.03-.34.1c-.1.06-.17.15-.22.26s-.08.22-.08.35v.19c0,.16.03.3.08.42.06.11.13.2.24.26.1.06.22.09.36.09.09,0,.17-.01.25-.04.07-.03.14-.07.19-.12.05-.05.09-.12.12-.19l.35.08c-.03.12-.09.22-.17.31-.08.09-.19.16-.31.21-.12.05-.26.08-.42.08ZM37.28,82.35l.28-.59h.4l-.39.59h-.29Z"/>
        <path class="cls-3" d="M39.79,82.64v.3h-1.16v-.3h1.16ZM38.98,82.1h.36v2.19c0,.09.02.16.06.21.04.04.11.06.2.06.02,0,.05,0,.09,0,.04,0,.07,0,.1-.01l.06.3s-.08.02-.12.02c-.05,0-.09,0-.13,0-.19,0-.34-.05-.44-.15s-.16-.24-.16-.41v-2.22Z"/>
        <path class="cls-3" d="M40.89,84.9c-.14,0-.27-.03-.38-.08-.11-.05-.21-.13-.27-.23s-.1-.22-.1-.37c0-.13.02-.23.07-.31.05-.08.12-.14.2-.19.08-.05.18-.08.28-.1s.21-.04.31-.05c.13-.02.24-.03.33-.04.08,0,.14-.03.18-.05.04-.02.06-.06.06-.12h0c0-.1-.02-.18-.05-.24s-.09-.11-.16-.15-.16-.05-.26-.05-.2.02-.27.05c-.08.03-.14.08-.18.13-.05.05-.08.11-.1.16l-.35-.09c.05-.13.11-.24.21-.33.09-.08.2-.14.32-.18s.24-.06.37-.06c.09,0,.18.01.27.03.1.02.19.06.27.12.08.05.15.13.21.23.05.1.08.23.08.39v1.47h-.35v-.3h-.02c-.03.05-.07.11-.12.16s-.13.1-.21.14c-.09.04-.2.05-.32.05ZM40.95,84.58c.14,0,.25-.03.34-.08.09-.05.16-.12.21-.2s.07-.17.07-.26v-.3s-.04.03-.09.04c-.05.01-.1.03-.16.04-.06.01-.12.02-.18.03-.06,0-.11.01-.15.02-.09,0-.17.03-.24.05-.08.03-.14.06-.18.11-.04.05-.07.12-.07.2,0,.08.02.14.06.19.04.05.09.09.16.12.07.03.15.04.24.04Z"/>
        <path class="cls-3" d="M42.7,82.26c-.07,0-.12-.02-.17-.07s-.07-.1-.07-.17.02-.12.07-.17.11-.07.17-.07.13.02.18.07.07.1.07.17-.02.12-.07.17-.11.07-.18.07ZM42.52,84.85v-2.21h.36v2.21h-.36Z"/>
        <path class="cls-3" d="M43.84,81.87v2.99h-.36v-2.99h.36Z"/>
        <path class="cls-3" d="M45.2,84.9c-.15,0-.29-.02-.41-.07-.12-.05-.22-.11-.3-.21s-.13-.2-.15-.34l.34-.06c.03.12.09.22.17.28.09.06.2.09.34.09.15,0,.28-.03.37-.1.09-.07.14-.15.14-.24,0-.08-.03-.14-.08-.19-.06-.05-.14-.09-.24-.11l-.37-.09c-.2-.05-.35-.12-.45-.22-.1-.1-.15-.23-.15-.39,0-.13.04-.24.1-.34.07-.1.17-.17.29-.23.12-.05.26-.08.42-.08s.28.02.39.07c.11.05.2.11.27.2.07.08.12.18.14.3l-.33.07c-.02-.09-.07-.16-.15-.23s-.18-.1-.32-.1c-.13,0-.24.03-.33.09-.09.06-.13.14-.13.23,0,.08.03.15.09.2.06.05.15.09.28.12l.34.08c.2.05.35.12.45.22s.15.23.15.38c0,.13-.04.25-.11.35s-.17.18-.31.24c-.13.06-.28.08-.45.08Z"/>
      </g>
      <g>
        <path class="cls-3" d="M64.54,79.04v3.49c0,.12-.09.22-.21.22s-.22-.1-.22-.22v-2.98l-3.2,3.14s-.1.06-.15.06c-.06,0-.11-.02-.16-.07-.08-.08-.08-.22.01-.3l3.19-3.13h-2.7c-.12,0-.22-.09-.22-.21s.1-.22.22-.22h3.23s.08,0,.11.04c.02.01.04.03.05.04.03.04.05.09.05.14Z"/>
        <path class="cls-3" d="M64.54,79.04s-.02-.1-.05-.14c.02.02.03.04.04.06,0,.02,0,.05,0,.08Z"/>
      </g>
      <g>
        <g>
          <circle class="cls-3" cx="8.72" cy="93.45" r=".97"/>
          <path class="cls-3" d="M12.76,92.91v4.59h-1.47v-1.28c-.06.05-.11.1-.17.15-.86.72-2.02,1.12-3.24,1.12v-1.47c1.65,0,3.31-.97,3.31-3.12h1.58Z"/>
        </g>
        <g>
          <path class="cls-3" d="M15.97,97.52c-.22,0-.42-.04-.59-.11s-.31-.19-.41-.34c-.1-.15-.15-.34-.15-.57,0-.19.04-.35.11-.48s.17-.23.29-.31.26-.14.42-.18c.16-.04.32-.07.49-.09.2-.02.36-.04.48-.06.12-.02.21-.05.27-.08s.08-.09.08-.17v-.02c0-.1-.02-.18-.06-.24-.04-.07-.1-.12-.18-.16-.08-.04-.18-.05-.3-.05s-.22.02-.31.05c-.09.04-.16.08-.21.15s-.09.13-.12.21l-.85-.11c.05-.21.14-.38.27-.53.13-.15.31-.26.52-.34.21-.08.45-.12.71-.12.19,0,.38.02.55.07.17.05.33.12.47.21.14.1.24.22.32.36s.12.32.12.52v2.32h-.89v-.48h-.03c-.06.11-.13.2-.22.28-.09.08-.2.15-.33.19-.13.05-.28.07-.45.07h0ZM16.23,96.87c.15,0,.28-.03.39-.09.11-.06.2-.14.26-.23s.09-.21.09-.33v-.36s-.07.03-.12.05c-.05.02-.11.03-.18.04s-.13.02-.2.03c-.07.01-.13.02-.18.03-.11.02-.21.04-.3.08-.09.04-.15.08-.2.15-.05.06-.07.14-.07.23s.02.16.07.22.11.11.18.14c.08.03.17.05.27.05h0Z"/>
          <path class="cls-3" d="M19.57,92.83v4.63h-.93v-4.63h.93Z"/>
          <path class="cls-3" d="M21.26,92.83v4.63h-.93v-4.63h.93Z"/>
          <path class="cls-3" d="M23.58,97.53c-.35,0-.65-.07-.9-.22s-.45-.36-.59-.62c-.14-.27-.21-.58-.21-.93s.07-.67.21-.93.33-.47.59-.62c.25-.15.55-.22.9-.22s.64.07.9.22c.25.15.45.36.59.62.14.27.21.58.21.93s-.07.66-.21.93-.33.47-.59.62c-.25.15-.55.22-.9.22ZM23.58,96.79c.16,0,.3-.04.41-.13s.2-.21.25-.37c.06-.16.09-.34.09-.54s-.03-.39-.09-.54c-.06-.16-.14-.28-.25-.37-.11-.09-.25-.13-.41-.13s-.3.04-.41.13c-.11.09-.2.21-.25.37s-.09.34-.09.54.03.38.09.54c.06.16.14.28.25.37.11.09.25.13.41.13Z"/>
          <path class="cls-3" d="M25.89,97.46v-4.63h.93v4.63h-.93ZM26.73,96.46v-1.11h.13l1.14-1.32h1.08l-1.5,1.72h-.22l-.63.71h0ZM28.05,97.46l-1.04-1.5.62-.66,1.51,2.16h-1.09Z"/>
          <path class="cls-3" d="M30,93.58c-.14,0-.26-.05-.37-.14-.1-.09-.15-.21-.15-.34s.05-.25.15-.34c.1-.09.22-.14.37-.14s.26.05.36.14.15.21.15.34-.05.25-.15.34-.22.14-.36.14ZM29.53,97.46v-3.43h.93v3.43h-.93Z"/>
          <path class="cls-3" d="M32.99,94.03v.71h-2.08v-.71h2.08ZM31.41,93.19h.93v3.26c0,.11.02.19.07.24.05.05.13.08.24.08.04,0,.09,0,.16-.01.07,0,.12-.01.15-.02l.1.71c-.09.02-.19.04-.29.05-.1,0-.2.01-.3.01-.35,0-.62-.08-.8-.24s-.27-.4-.27-.71v-3.35h0Z"/>
        </g>
      </g>
      <g>
        <path class="cls-3" d="M8.68,103.04l-.91-2.46h.33l.52,1.47c.03.08.07.19.11.33s.1.31.16.52h-.07c.06-.21.11-.38.16-.52.04-.14.08-.25.11-.33l.51-1.47h.33l-.9,2.46h-.36Z"/>
        <path class="cls-3" d="M10.81,103.08c-.17,0-.31-.04-.44-.12-.12-.08-.22-.19-.29-.33-.07-.14-.1-.31-.1-.49s.04-.36.1-.5.17-.25.29-.33.27-.12.44-.12.31.04.44.12.22.19.29.33c.07.14.1.31.1.5s-.03.35-.1.49c-.07.14-.17.25-.29.33-.13.08-.27.12-.44.12ZM10.81,102.82c.12,0,.22-.03.3-.09.08-.06.14-.14.18-.25.04-.1.06-.22.06-.34s-.02-.24-.06-.34-.1-.19-.18-.25c-.08-.06-.18-.09-.3-.09s-.22.03-.3.09c-.08.06-.14.14-.18.25s-.06.22-.06.34.02.24.06.34c.04.1.1.19.18.25s.18.09.3.09Z"/>
        <path class="cls-3" d="M12.79,101.22v.25h-.95v-.25h.95ZM12.12,100.77h.29v1.81c0,.08.02.13.05.17.03.04.09.05.16.05.02,0,.04,0,.07,0s.06,0,.08,0l.05.25s-.07.01-.1.02c-.04,0-.08,0-.11,0-.16,0-.28-.04-.37-.12s-.13-.19-.13-.34v-1.83Z"/>
        <path class="cls-3" d="M13.15,103.04v-1.82h.28v.28h.02c.03-.09.09-.17.18-.22.08-.06.18-.08.29-.08.02,0,.05,0,.08,0,.03,0,.05,0,.07,0v.3s-.03,0-.06,0c-.04,0-.07,0-.11,0-.08,0-.16.02-.22.05-.07.04-.12.08-.16.15-.04.06-.06.14-.06.23v1.14h-.29Z"/>
        <path class="cls-3" d="M15.1,103.08c-.18,0-.33-.04-.46-.12-.13-.08-.23-.19-.29-.33-.07-.14-.1-.3-.1-.49s.03-.35.1-.49c.07-.14.16-.25.29-.34.12-.08.27-.12.43-.12.1,0,.2.02.3.05.1.04.18.09.26.16.08.07.14.17.18.29.04.12.07.26.07.42v.11h-1.43v-.25h1.27l-.13.09c0-.12-.02-.23-.06-.32s-.1-.17-.17-.22c-.08-.05-.17-.08-.28-.08s-.2.03-.28.08c-.08.05-.14.12-.18.21-.04.09-.06.18-.06.29v.16c0,.13.02.25.07.34.05.09.11.17.2.22.08.05.18.08.29.08.07,0,.14-.01.2-.03.06-.02.11-.05.15-.1s.08-.1.1-.16l.29.06c-.03.1-.08.18-.14.25-.07.07-.15.13-.25.17-.1.04-.22.06-.34.06Z"/>
        <path class="cls-3" d="M17.35,100.91c-.06,0-.1-.02-.14-.06-.04-.04-.06-.08-.06-.14s.02-.1.06-.14c.04-.04.09-.06.14-.06s.1.02.14.06c.04.04.06.08.06.14s-.02.1-.06.14c-.04.04-.09.06-.14.06ZM17.2,103.04v-1.82h.29v1.82h-.29Z"/>
        <path class="cls-3" d="M18.29,101.95v1.09h-.29v-1.82h.28v.44s-.05,0-.05,0c.06-.17.14-.29.24-.36s.23-.11.37-.11c.12,0,.23.03.33.08.09.05.17.13.22.23.05.1.08.23.08.39v1.15h-.29v-1.13c0-.14-.04-.25-.11-.33s-.18-.12-.3-.12c-.09,0-.17.02-.24.06-.07.04-.13.09-.17.17-.04.07-.06.17-.06.27Z"/>
        <path class="cls-3" d="M20.43,103.04l-.7-1.82h.32l.39,1.08c.04.11.07.21.1.32.03.11.06.21.09.31h-.1c.03-.1.06-.2.09-.31s.06-.21.1-.32l.39-1.08h.32l-.7,1.82h-.31Z"/>
        <path class="cls-3" d="M22.47,103.08c-.18,0-.33-.04-.46-.12-.13-.08-.23-.19-.29-.33-.07-.14-.1-.3-.1-.49s.03-.35.1-.49c.07-.14.16-.25.29-.34.12-.08.27-.12.43-.12.1,0,.2.02.3.05.1.04.18.09.26.16.08.07.14.17.18.29.04.12.07.26.07.42v.11h-1.43v-.25h1.27l-.13.09c0-.12-.02-.23-.06-.32s-.1-.17-.17-.22c-.08-.05-.17-.08-.28-.08s-.2.03-.28.08c-.08.05-.14.12-.18.21-.04.09-.06.18-.06.29v.16c0,.13.02.25.07.34.05.09.11.17.2.22.08.05.18.08.29.08.07,0,.14-.01.2-.03.06-.02.11-.05.15-.1s.08-.1.1-.16l.29.06c-.03.1-.08.18-.14.25-.07.07-.15.13-.25.17-.1.04-.22.06-.34.06Z"/>
        <path class="cls-3" d="M23.94,101.95v1.09h-.29v-1.82h.28v.44s-.05,0-.05,0c.06-.17.14-.29.24-.36s.23-.11.37-.11c.12,0,.23.03.33.08.09.05.17.13.22.23.05.1.08.23.08.39v1.15h-.29v-1.13c0-.14-.04-.25-.11-.33s-.18-.12-.3-.12c-.09,0-.17.02-.24.06-.07.04-.13.09-.17.17-.04.07-.06.17-.06.27Z"/>
        <path class="cls-3" d="M26.34,101.22v.25h-.95v-.25h.95ZM25.67,100.77h.29v1.81c0,.08.02.13.05.17.03.04.09.05.16.05.02,0,.04,0,.07,0s.06,0,.08,0l.05.25s-.07.01-.1.02c-.04,0-.08,0-.11,0-.16,0-.28-.04-.37-.12s-.13-.19-.13-.34v-1.83Z"/>
        <path class="cls-3" d="M27.25,103.08c-.12,0-.22-.02-.32-.06s-.17-.11-.22-.19-.08-.19-.08-.31c0-.1.02-.19.06-.25.04-.06.1-.12.17-.15s.15-.07.23-.08c.08-.02.17-.03.26-.04.11-.01.2-.03.27-.03.07,0,.12-.02.15-.04.03-.02.05-.05.05-.09h0c0-.09-.01-.15-.04-.2s-.07-.09-.13-.12c-.06-.03-.13-.04-.21-.04s-.16.01-.22.04c-.06.03-.11.06-.15.1-.04.04-.07.09-.08.13l-.29-.08c.04-.11.09-.2.17-.27.08-.07.16-.12.26-.15s.2-.05.31-.05c.07,0,.15,0,.22.03.08.02.15.05.22.09.07.04.13.11.17.19.04.08.07.19.07.32v1.21h-.29v-.25h-.02s-.05.09-.1.13c-.05.04-.1.08-.18.11s-.16.05-.27.05ZM27.29,102.82c.11,0,.2-.02.28-.06.07-.04.13-.1.17-.17.04-.07.06-.14.06-.21v-.25s-.04.03-.08.04c-.04.01-.08.02-.13.03-.05,0-.1.02-.15.02-.05,0-.09.01-.12.02-.07,0-.14.02-.2.04s-.11.05-.15.09c-.04.04-.06.1-.06.17,0,.06.02.11.05.16.03.04.08.07.13.1s.12.03.19.03Z"/>
        <path class="cls-3" d="M28.74,100.91c-.06,0-.1-.02-.14-.06-.04-.04-.06-.08-.06-.14s.02-.1.06-.14c.04-.04.09-.06.14-.06s.1.02.14.06c.04.04.06.08.06.14s-.02.1-.06.14c-.04.04-.09.06-.14.06ZM28.59,103.04v-1.82h.29v1.82h-.29Z"/>
        <path class="cls-3" d="M29.39,103.04v-1.82h.28v.28h.02c.03-.09.09-.17.18-.22.08-.06.18-.08.29-.08.02,0,.05,0,.08,0,.03,0,.05,0,.07,0v.3s-.03,0-.06,0c-.04,0-.07,0-.11,0-.08,0-.16.02-.22.05-.07.04-.12.08-.16.15-.04.06-.06.14-.06.23v1.14h-.29Z"/>
        <path class="cls-3" d="M31.33,103.08c-.18,0-.33-.04-.46-.12-.13-.08-.23-.19-.29-.33-.07-.14-.1-.3-.1-.49s.03-.35.1-.49c.07-.14.16-.25.29-.34.12-.08.27-.12.43-.12.1,0,.2.02.3.05.1.04.18.09.26.16.08.07.14.17.18.29.04.12.07.26.07.42v.11h-1.43v-.25h1.27l-.13.09c0-.12-.02-.23-.06-.32s-.1-.17-.17-.22c-.08-.05-.17-.08-.28-.08s-.2.03-.28.08c-.08.05-.14.12-.18.21-.04.09-.06.18-.06.29v.16c0,.13.02.25.07.34.05.09.11.17.2.22.08.05.18.08.29.08.07,0,.14-.01.2-.03.06-.02.11-.05.15-.1s.08-.1.1-.16l.29.06c-.03.1-.08.18-.14.25-.07.07-.15.13-.25.17-.1.04-.22.06-.34.06Z"/>
        <path class="cls-3" d="M34.06,103.08c-.13,0-.24-.02-.34-.06s-.18-.09-.24-.17c-.06-.08-.11-.17-.12-.28l.28-.05c.02.1.07.18.14.23s.17.07.28.07c.13,0,.23-.03.3-.08.08-.05.11-.12.11-.2,0-.06-.02-.12-.07-.16-.05-.04-.11-.07-.2-.09l-.3-.07c-.17-.04-.29-.1-.37-.18-.08-.08-.12-.19-.12-.32,0-.1.03-.2.09-.28.06-.08.14-.14.24-.19.1-.04.22-.07.35-.07s.23.02.32.06c.09.04.16.09.22.17s.09.15.12.24l-.27.05c-.02-.07-.06-.13-.12-.19s-.15-.08-.27-.08c-.11,0-.2.03-.27.08-.07.05-.11.12-.11.19,0,.07.02.12.07.16.05.04.13.07.23.1l.28.07c.17.04.29.1.37.18.08.08.12.19.12.31,0,.11-.03.2-.09.29-.06.08-.14.15-.25.19s-.23.07-.37.07Z"/>
        <path class="cls-3" d="M35.93,103.08c-.17,0-.31-.04-.44-.12-.12-.08-.22-.19-.29-.33-.07-.14-.1-.31-.1-.49s.04-.36.1-.5.17-.25.29-.33.27-.12.44-.12.31.04.44.12.22.19.29.33c.07.14.1.31.1.5s-.03.35-.1.49c-.07.14-.17.25-.29.33-.13.08-.27.12-.44.12ZM35.93,102.82c.12,0,.22-.03.3-.09.08-.06.14-.14.18-.25.04-.1.06-.22.06-.34s-.02-.24-.06-.34-.1-.19-.18-.25c-.08-.06-.18-.09-.3-.09s-.22.03-.3.09c-.08.06-.14.14-.18.25s-.06.22-.06.34.02.24.06.34c.04.1.1.19.18.25s.18.09.3.09Z"/>
        <path class="cls-3" d="M37.8,103.06c-.12,0-.23-.03-.33-.08-.09-.05-.17-.13-.22-.23-.05-.1-.08-.23-.08-.39v-1.15h.29v1.13c0,.14.04.26.11.34s.18.12.3.12c.09,0,.17-.02.24-.06.07-.04.13-.09.17-.17.04-.07.06-.17.06-.27v-1.09h.29v1.82h-.28v-.44h.05c-.06.17-.14.29-.24.36s-.22.11-.36.11Z"/>
        <path class="cls-3" d="M39.76,103.08c-.12,0-.24-.02-.34-.06-.1-.04-.18-.09-.24-.17-.06-.08-.11-.17-.12-.28l.28-.05c.02.1.07.18.14.23s.16.07.28.07c.13,0,.23-.03.3-.08.08-.05.11-.12.11-.2,0-.06-.02-.12-.07-.16-.04-.04-.11-.07-.2-.09l-.3-.07c-.17-.04-.29-.1-.37-.18-.08-.08-.12-.19-.12-.32,0-.1.03-.2.09-.28.06-.08.14-.14.24-.19.1-.04.22-.07.35-.07s.23.02.32.06c.09.04.16.09.22.17s.09.15.12.24l-.27.05c-.02-.07-.06-.13-.12-.19s-.15-.08-.27-.08c-.11,0-.2.03-.27.08-.07.05-.11.12-.11.19,0,.07.03.12.07.16.05.04.13.07.23.1l.28.07c.17.04.29.1.37.18s.12.19.12.31c0,.11-.03.2-.09.29-.06.08-.14.15-.25.19s-.23.07-.37.07Z"/>
        <path class="cls-3" d="M42.56,103.08c-.17,0-.31-.04-.44-.12-.12-.08-.22-.19-.29-.33-.07-.14-.1-.31-.1-.49s.04-.36.1-.5.17-.25.29-.33.27-.12.44-.12c.09,0,.18.01.26.04s.15.06.22.11c.06.05.12.1.17.17.05.07.08.14.1.22l-.29.06s-.03-.09-.06-.13-.06-.08-.1-.11c-.04-.03-.08-.05-.13-.07-.05-.02-.11-.02-.17-.02-.12,0-.22.03-.3.09-.08.06-.14.14-.18.25s-.06.22-.06.34.02.24.06.34c.04.1.1.19.18.25s.18.09.3.09c.06,0,.12,0,.17-.03.05-.02.1-.04.14-.07.04-.03.07-.07.1-.11.03-.04.05-.09.06-.14l.29.06c-.02.08-.06.16-.1.22-.05.07-.1.12-.17.17-.07.05-.14.08-.22.11-.08.03-.17.04-.26.04Z"/>
        <path class="cls-3" d="M44.46,103.08c-.17,0-.31-.04-.44-.12-.12-.08-.22-.19-.29-.33-.07-.14-.11-.31-.11-.49s.04-.36.11-.5c.07-.14.17-.25.29-.33s.27-.12.44-.12.31.04.44.12.22.19.29.33c.07.14.1.31.1.5s-.03.35-.1.49c-.07.14-.17.25-.29.33-.13.08-.27.12-.44.12ZM44.46,102.82c.12,0,.22-.03.3-.09.08-.06.14-.14.18-.25.04-.1.06-.22.06-.34s-.02-.24-.06-.34-.1-.19-.18-.25c-.08-.06-.18-.09-.3-.09s-.22.03-.3.09c-.08.06-.14.14-.18.25-.04.1-.06.22-.06.34s.02.24.06.34c.04.1.1.19.18.25.08.06.18.09.3.09Z"/>
        <path class="cls-3" d="M46,101.95v1.09h-.29v-1.82h.28v.44s-.05,0-.05,0c.06-.17.14-.29.24-.36s.23-.11.37-.11c.12,0,.23.03.33.08.09.05.17.13.22.23.05.1.08.23.08.39v1.15h-.29v-1.13c0-.14-.04-.25-.11-.33-.07-.08-.17-.12-.3-.12-.09,0-.17.02-.24.06s-.12.09-.17.17c-.04.07-.06.17-.06.27Z"/>
        <path class="cls-3" d="M48.41,101.22v.25h-.95v-.25h.95ZM47.74,100.77h.29v1.81c0,.08.02.13.05.17s.09.05.16.05c.02,0,.04,0,.07,0s.06,0,.08,0l.05.25s-.07.01-.1.02c-.04,0-.08,0-.11,0-.16,0-.28-.04-.37-.12s-.13-.19-.13-.34v-1.83Z"/>
        <path class="cls-3" d="M48.77,103.04v-1.82h.28v.28h.02c.03-.09.09-.17.18-.22.08-.06.18-.08.29-.08.02,0,.05,0,.08,0,.03,0,.05,0,.07,0v.3s-.03,0-.06,0c-.04,0-.07,0-.11,0-.08,0-.16.02-.22.05s-.12.08-.16.15c-.04.06-.06.14-.06.23v1.14h-.29Z"/>
        <path class="cls-3" d="M50.69,103.08c-.17,0-.31-.04-.44-.12-.12-.08-.22-.19-.29-.33-.07-.14-.11-.31-.11-.49s.04-.36.11-.5c.07-.14.17-.25.29-.33s.27-.12.44-.12.31.04.44.12.22.19.29.33c.07.14.1.31.1.5s-.03.35-.1.49c-.07.14-.17.25-.29.33-.13.08-.27.12-.44.12ZM50.69,102.82c.12,0,.22-.03.3-.09.08-.06.14-.14.18-.25.04-.1.06-.22.06-.34s-.02-.24-.06-.34-.1-.19-.18-.25c-.08-.06-.18-.09-.3-.09s-.22.03-.3.09c-.08.06-.14.14-.18.25-.04.1-.06.22-.06.34s.02.24.06.34c.04.1.1.19.18.25.08.06.18.09.3.09ZM50.45,100.95h-.29s.39-.46.39-.46h.28l.39.44h0s-.29.01-.29.01l-.24-.29-.24.29Z"/>
        <path class="cls-3" d="M52.23,100.58v2.46h-.29v-2.46h.29Z"/>
        <path class="cls-3" d="M53.49,103.08c-.18,0-.33-.04-.46-.12s-.23-.19-.29-.33c-.07-.14-.1-.3-.1-.49s.03-.35.1-.49.16-.25.29-.34c.12-.08.27-.12.43-.12.1,0,.2.02.3.05.1.04.18.09.26.16s.14.17.18.29c.04.12.07.26.07.42v.11h-1.43v-.25h1.27l-.13.09c0-.12-.02-.23-.06-.32s-.1-.17-.17-.22c-.08-.05-.17-.08-.28-.08s-.2.03-.28.08c-.08.05-.14.12-.18.21-.04.09-.06.18-.06.29v.16c0,.13.02.25.07.34.05.09.11.17.2.22.08.05.18.08.29.08.07,0,.14-.01.2-.03.06-.02.11-.05.16-.1s.07-.1.1-.16l.29.06c-.03.1-.08.18-.14.25-.07.07-.15.13-.25.17-.1.04-.22.06-.34.06Z"/>
        <path class="cls-3" d="M54.88,103.06c-.06,0-.11-.02-.15-.06s-.06-.09-.06-.16.02-.11.06-.16.09-.06.15-.06.11.02.16.06.06.09.06.16-.02.11-.06.16-.09.06-.16.06Z"/>
      </g>
    </g>
  </g>
</svg>