<?xml version="1.0" encoding="UTF-8"?>
<svg xmlns="http://www.w3.org/2000/svg" viewBox="0 0 72 108">
  <defs>
    <style>
      .cls-1 {
        fill: #1971f2;
      }

      .cls-2, .cls-3 {
        fill: #fff;
      }

      .cls-4, .cls-3 {
        isolation: isolate;
      }

      .cls-3 {
        opacity: .88;
      }
    </style>
  </defs>
  <rect class="cls-2" width="72" height="108"/>
  <g id="Layer_1" data-name="Layer 1">
    <g>
      <path class="cls-1" d="M72,108H0v-43.03l3.98,4.62c1.18,1.36,2.89,2.15,4.69,2.15h54.66c1.8,0,3.51-.78,4.69-2.15l3.98-4.62v43.03h0Z"/>
      <rect class="cls-3" x="5.46" y="89.03" width="61.08" height=".11"/>
      <g>
        <circle class="cls-2" cx="11.1" cy="80.77" r=".9"/>
        <path class="cls-2" d="M12.59,82.6s-.1-.02-.13-.06c-.07-.07-.06-.19.01-.25.43-.39.68-.94.68-1.52s-.25-1.14-.68-1.52c-.07-.07-.08-.18-.01-.25s.18-.08.25-.01c.51.46.8,1.11.8,1.79s-.29,1.33-.8,1.79c-.03.03-.08.05-.12.05v-.02Z"/>
        <path class="cls-2" d="M9.6,82.6s-.08-.02-.12-.05c-.51-.46-.8-1.11-.8-1.79s.29-1.33.8-1.79c.07-.07.19-.06.25.01.07.07.06.19-.01.25-.43.39-.68.94-.68,1.52s.25,1.14.68,1.52c.07.07.08.18.01.25-.04.04-.08.06-.13.06h0v.02Z"/>
        <path class="cls-2" d="M8.72,83.58s-.08-.02-.12-.05c-.78-.7-1.23-1.71-1.23-2.77s.45-2.06,1.23-2.77c.07-.07.19-.06.25.01.07.07.06.19-.01.25-.71.64-1.11,1.55-1.11,2.5s.41,1.87,1.11,2.5c.07.07.08.18.01.25-.04.04-.08.06-.13.06h0v.02Z"/>
        <path class="cls-2" d="M13.47,83.58s-.1-.02-.13-.06c-.07-.07-.06-.19.01-.25.71-.64,1.11-1.55,1.11-2.5s-.41-1.86-1.11-2.5c-.07-.07-.08-.18-.01-.25s.18-.08.25-.01c.78.7,1.23,1.71,1.23,2.77s-.45,2.06-1.23,2.77c-.03.03-.08.05-.12.05h0v-.02Z"/>
      </g>
      <g class="cls-4">
        <g class="cls-4">
          <path class="cls-2" d="M20.07,79.98c-.22,0-.41-.04-.57-.11s-.29-.17-.38-.3c-.09-.13-.14-.28-.15-.46h.38c0,.12.04.22.11.3.06.08.15.14.25.18s.22.06.35.06c.14,0,.26-.02.37-.07.11-.04.19-.11.25-.19s.09-.17.09-.28c0-.09-.03-.17-.08-.23-.05-.06-.12-.11-.21-.15-.09-.04-.19-.08-.31-.11l-.35-.1c-.26-.07-.45-.17-.58-.29-.13-.13-.2-.29-.2-.49,0-.17.04-.32.13-.44s.21-.22.37-.29c.15-.07.33-.11.53-.11s.37.04.53.11c.15.07.27.17.36.29s.13.27.14.42h-.37c-.02-.15-.08-.28-.21-.36s-.27-.13-.46-.13c-.13,0-.24.02-.34.06s-.17.1-.23.17c-.05.07-.08.16-.08.25s.03.18.09.24.13.11.22.15.18.07.27.09l.31.08c.09.02.19.06.29.1s.19.09.27.16c.08.06.15.14.2.23s.08.21.08.34c0,.17-.04.31-.13.44-.09.13-.21.23-.37.31-.16.08-.36.11-.58.11v.02Z"/>
        </g>
        <g class="cls-4">
          <path class="cls-2" d="M22.58,79.98c-.2,0-.38-.05-.53-.14-.15-.1-.27-.23-.35-.4s-.13-.37-.13-.6.04-.43.13-.6.2-.31.35-.4c.15-.1.33-.14.53-.14.11,0,.22.01.31.04.1.03.19.07.26.13.08.06.15.12.2.2s.1.17.12.27l-.35.08c-.01-.06-.04-.11-.07-.16s-.07-.09-.12-.13c-.05-.04-.1-.06-.16-.08-.06-.02-.13-.03-.2-.03-.15,0-.27.04-.36.11-.1.08-.17.18-.22.3s-.07.26-.07.42.02.29.07.41.12.22.22.3.22.11.36.11c.07,0,.14,0,.21-.03.06-.02.12-.05.17-.09s.09-.08.12-.13.06-.11.07-.17l.35.08c-.03.1-.07.19-.12.27s-.12.15-.2.21-.17.1-.27.13-.2.05-.31.05h0Z"/>
        </g>
        <g class="cls-4">
          <path class="cls-2" d="M24.65,79.98c-.14,0-.27-.03-.38-.08-.11-.05-.21-.13-.27-.23s-.1-.22-.1-.37c0-.13.03-.23.08-.31.05-.08.12-.14.2-.19s.18-.08.28-.1.21-.04.31-.05c.13-.02.24-.03.33-.04.08,0,.14-.03.18-.05.04-.02.06-.06.06-.12h0c0-.1-.02-.18-.05-.24-.04-.06-.09-.11-.16-.15-.07-.03-.16-.05-.26-.05s-.2.02-.27.05-.14.07-.18.13-.08.11-.1.16l-.35-.09c.05-.13.11-.24.21-.33.09-.08.2-.14.32-.18.12-.04.24-.06.37-.06.09,0,.18.01.27.03s.19.06.27.12c.08.05.15.13.21.23.05.1.08.23.08.39v1.47h-.35v-.3h-.02c-.03.05-.07.11-.12.16-.05.05-.13.1-.21.14s-.2.06-.32.06h-.03ZM24.7,79.66c.13,0,.25-.03.34-.08s.16-.12.21-.2c.05-.08.07-.17.07-.26v-.3s-.05.03-.09.04c-.05.01-.1.03-.16.04s-.12.02-.18.03-.11.01-.15.02c-.09.01-.17.03-.24.06s-.13.06-.18.11c-.05.05-.07.12-.07.2,0,.07.02.14.06.19s.09.09.16.12c.07.03.15.04.24.04h0Z"/>
          <path class="cls-2" d="M26.63,78.61v1.32h-.36v-2.21h.34v.54h-.06c.07-.2.16-.35.29-.44.13-.09.27-.13.44-.13.15,0,.28.03.4.09.11.06.2.16.27.28.06.13.1.28.1.47v1.4h-.36v-1.37c0-.17-.04-.31-.13-.41-.09-.1-.21-.15-.37-.15-.11,0-.2.02-.29.07s-.15.11-.2.2c-.05.09-.07.2-.07.33h0Z"/>
          <path class="cls-2" d="M29.02,78.61v1.32h-.36v-2.21h.34v.54h-.06c.07-.2.16-.35.29-.44.13-.09.27-.13.44-.13.15,0,.28.03.4.09.11.06.2.16.27.28.06.13.1.28.1.47v1.4h-.36v-1.37c0-.17-.04-.31-.13-.41-.09-.1-.21-.15-.37-.15-.11,0-.2.02-.29.07s-.15.11-.2.2c-.05.09-.07.2-.07.33h0Z"/>
          <path class="cls-2" d="M31.97,79.98c-.21,0-.4-.05-.55-.14-.16-.1-.27-.23-.36-.4-.08-.17-.12-.37-.12-.6s.04-.43.12-.6.2-.31.35-.41c.15-.1.32-.15.52-.15.13,0,.25.02.36.06.12.04.22.11.31.2s.16.21.22.35c.05.14.08.31.08.51v.14h-1.74v-.3h1.54l-.16.11c0-.15-.02-.27-.07-.39s-.12-.2-.21-.26-.2-.1-.34-.1-.25.03-.34.1c-.1.06-.17.15-.22.26s-.08.22-.08.35v.19c0,.16.03.3.08.41.06.11.13.2.24.26.1.06.22.09.36.09.09,0,.17-.01.25-.04s.14-.07.19-.12.09-.12.12-.19l.35.08c-.03.12-.09.22-.17.31-.08.09-.19.16-.31.21-.12.05-.26.08-.42.08h0Z"/>
          <path class="cls-2" d="M33.4,79.93v-2.21h.34v.34h.02c.04-.11.11-.2.21-.27s.22-.1.35-.1h.17v.36s-.04,0-.08-.01h-.14c-.1,0-.19.02-.27.06s-.14.1-.19.18-.07.17-.07.27v1.38h-.36.02Z"/>
          <path class="cls-2" d="M36.02,80.77v-3.05h.34v.35h.03s.07-.1.12-.16c.05-.06.12-.11.2-.15.09-.04.2-.07.33-.07.19,0,.35.05.49.14.14.09.25.23.33.4s.12.37.12.61-.04.44-.12.61c-.08.17-.19.3-.33.4-.14.09-.3.14-.49.14-.13,0-.24-.02-.32-.07-.09-.04-.15-.1-.21-.16-.05-.06-.09-.12-.12-.17h-.02v1.18h-.36,0ZM37,79.66c.14,0,.25-.04.35-.11.09-.07.17-.17.21-.3.05-.13.07-.27.07-.43s-.02-.3-.07-.42c-.05-.12-.12-.22-.21-.29s-.21-.11-.35-.11-.25.03-.34.1-.16.16-.21.29c-.05.12-.07.27-.07.43s.02.31.07.43c.05.13.12.22.22.29.09.07.21.11.34.11h-.01Z"/>
          <path class="cls-2" d="M39.39,79.98c-.2,0-.38-.05-.53-.14-.15-.1-.27-.23-.35-.4-.08-.17-.13-.37-.13-.6s.04-.43.13-.6c.08-.17.2-.31.35-.4.15-.1.33-.14.53-.14s.38.05.53.14.27.23.36.4c.08.17.13.37.13.6s-.04.42-.13.6c-.08.17-.2.31-.36.4s-.33.14-.53.14ZM39.39,79.66c.15,0,.27-.04.37-.11s.17-.17.22-.3c.05-.13.07-.26.07-.41s-.02-.29-.07-.42-.12-.23-.22-.3c-.1-.08-.22-.11-.37-.11s-.27.04-.36.11c-.1.08-.17.18-.22.3s-.07.26-.07.42.02.29.07.41.12.22.22.3c.1.07.22.11.36.11Z"/>
          <path class="cls-2" d="M41.67,79.96c-.15,0-.28-.03-.4-.09s-.2-.16-.27-.28c-.06-.12-.1-.28-.1-.47v-1.4h.36v1.37c0,.17.05.31.14.41.09.1.21.15.37.15.11,0,.2-.02.29-.07.08-.05.15-.11.2-.2s.07-.2.07-.33v-1.32h.36v2.21h-.34v-.54h.06c-.07.21-.17.35-.29.44-.13.09-.27.13-.44.13h-.01Z"/>
          <path class="cls-2" d="M43.29,79.93v-2.21h.34v.34h.02c.04-.11.11-.2.21-.27s.22-.1.35-.1h.17v.36s-.04,0-.08-.01h-.14c-.1,0-.19.02-.27.06s-.14.1-.19.18-.07.17-.07.27v1.38h-.36.02Z"/>
        </g>
        <g class="cls-4">
          <path class="cls-2" d="M19.07,85.69v-3.05h.34v.35h.03s.07-.1.12-.16c.05-.06.12-.11.2-.15.09-.04.2-.07.33-.07.19,0,.35.05.49.14s.25.23.33.4.12.37.12.61-.04.44-.12.61-.19.3-.33.4c-.14.09-.3.14-.49.14-.13,0-.24-.02-.32-.07-.09-.04-.15-.1-.21-.16-.05-.06-.09-.12-.12-.17h-.02v1.18h-.36,0ZM20.05,84.58c.14,0,.25-.04.35-.11.09-.07.17-.17.21-.3.05-.13.07-.27.07-.43s-.02-.3-.07-.42-.12-.22-.21-.29c-.09-.07-.21-.11-.35-.11s-.25.03-.34.1-.16.16-.21.29c-.05.12-.07.27-.07.43s.02.31.07.43.12.22.22.29c.09.07.21.11.34.11h-.01Z"/>
          <path class="cls-2" d="M21.9,81.87v2.99h-.36v-2.99h.36Z"/>
          <path class="cls-2" d="M23.26,84.88c-.15,0-.28-.03-.4-.09-.11-.06-.2-.16-.27-.28-.06-.12-.1-.28-.1-.47v-1.4h.36v1.37c0,.18.05.31.14.41.09.1.21.15.37.15.11,0,.2-.02.29-.07.08-.05.15-.11.2-.2.05-.09.07-.2.07-.33v-1.32h.36v2.21h-.34v-.54h.06c-.07.21-.17.35-.29.44-.13.09-.27.13-.44.13h-.01Z"/>
          <path class="cls-2" d="M25.64,84.9c-.15,0-.29-.02-.41-.07-.12-.05-.22-.11-.3-.21s-.13-.2-.15-.34l.34-.06c.03.12.09.22.17.28.09.06.2.09.34.09.15,0,.28-.03.37-.1s.14-.15.14-.24c0-.08-.03-.14-.08-.19-.06-.05-.14-.09-.24-.11l-.37-.09c-.2-.05-.35-.12-.45-.22s-.15-.23-.15-.39c0-.13.04-.24.11-.34s.17-.17.29-.23c.12-.05.26-.08.42-.08s.28.02.39.07.2.11.27.2.11.18.14.3l-.33.07c-.02-.09-.07-.16-.15-.23-.07-.07-.18-.1-.32-.1-.13,0-.24.03-.33.09s-.13.14-.13.23c0,.08.03.15.09.2s.15.09.28.12l.34.08c.2.05.35.12.45.22s.15.23.15.38c0,.13-.04.25-.11.35s-.18.18-.31.24-.28.09-.45.09h-.01Z"/>
          <path class="cls-2" d="M28.97,84.9c-.19,0-.35-.05-.49-.14s-.25-.23-.33-.4-.12-.37-.12-.61.04-.43.12-.61c.08-.17.19-.3.33-.4.14-.09.31-.14.49-.14.13,0,.24.02.33.07.09.04.15.09.2.15.05.06.09.11.12.16h.02v-1.12h.36v2.99h-.34v-.34h-.03c-.03.05-.07.11-.12.17-.05.06-.12.11-.21.16s-.19.07-.32.07h-.01ZM29.02,84.58c.13,0,.25-.04.34-.11s.17-.17.22-.29.07-.27.07-.43-.02-.31-.07-.43-.12-.22-.21-.29c-.09-.07-.21-.1-.35-.1s-.25.04-.35.11c-.09.07-.17.17-.21.29-.05.12-.07.26-.07.42s.02.3.07.43.12.22.22.3.21.11.34.11h0Z"/>
          <path class="cls-2" d="M31.53,84.9c-.21,0-.4-.05-.55-.14-.16-.1-.27-.23-.36-.4-.08-.17-.12-.37-.12-.6s.04-.43.12-.6.2-.31.35-.41c.15-.1.32-.15.52-.15.13,0,.25.02.36.06.12.04.22.11.31.2s.16.21.22.35.08.31.08.51v.14h-1.74v-.3h1.55l-.16.11c0-.15-.02-.27-.07-.39-.05-.11-.12-.2-.21-.26-.09-.06-.2-.1-.34-.1s-.25.03-.34.1c-.1.06-.17.15-.22.26s-.08.22-.08.35v.19c0,.16.03.3.08.41.06.11.13.2.24.26.1.06.22.09.36.09.09,0,.17-.01.25-.04.07-.03.14-.07.19-.12s.09-.12.12-.19l.35.08c-.03.12-.09.22-.17.31-.08.09-.19.16-.31.21-.12.05-.26.08-.42.08h-.01Z"/>
          <path class="cls-2" d="M34.91,84.9c-.19,0-.35-.05-.49-.14-.14-.09-.25-.23-.33-.4s-.12-.37-.12-.61.04-.43.12-.61c.08-.17.19-.3.33-.4.14-.09.31-.14.49-.14.13,0,.24.02.33.07.09.04.15.09.2.15.05.06.09.11.12.16h.02v-1.12h.36v2.99h-.34v-.34h-.03c-.03.05-.07.11-.12.17s-.12.11-.21.16-.19.07-.32.07h-.01ZM34.97,84.58c.13,0,.25-.04.34-.11s.17-.17.22-.29c.05-.12.07-.27.07-.43s-.02-.31-.07-.43-.12-.22-.21-.29-.21-.1-.35-.1-.25.04-.35.11c-.09.07-.17.17-.21.29-.05.12-.07.26-.07.42s.02.3.07.43.12.22.22.3.21.11.34.11h0Z"/>
          <path class="cls-2" d="M37.48,84.9c-.21,0-.4-.05-.55-.14-.16-.1-.27-.23-.36-.4-.08-.17-.12-.37-.12-.6s.04-.43.12-.6c.08-.17.2-.31.35-.41.15-.1.32-.15.52-.15.13,0,.25.02.36.06.12.04.22.11.31.2s.16.21.22.35.08.31.08.51v.14h-1.74v-.3h1.55l-.16.11c0-.15-.02-.27-.07-.39-.05-.11-.12-.2-.21-.26-.09-.06-.2-.1-.34-.1s-.25.03-.34.1c-.1.06-.17.15-.22.26-.05.11-.08.22-.08.35v.19c0,.16.03.3.08.41.06.11.13.2.24.26.1.06.22.09.36.09.09,0,.17-.01.25-.04.07-.03.14-.07.19-.12s.09-.12.12-.19l.35.08c-.03.12-.09.22-.17.31-.08.09-.19.16-.31.21-.12.05-.26.08-.42.08h-.01ZM37.28,82.35l.28-.59h.4l-.39.59h-.29Z"/>
        </g>
        <g class="cls-4">
          <path class="cls-2" d="M39.79,82.64v.3h-1.16v-.3h1.16ZM38.98,82.1h.36v2.19c0,.09.02.16.06.21.04.04.11.07.2.07h.09s.07,0,.1-.01l.06.3s-.08.02-.13.02h-.14c-.19,0-.34-.05-.44-.15s-.16-.24-.16-.41c0,0,0-2.22,0-2.22Z"/>
        </g>
        <g class="cls-4">
          <path class="cls-2" d="M40.89,84.9c-.14,0-.27-.03-.38-.08s-.21-.13-.27-.23c-.07-.1-.1-.23-.1-.37,0-.13.03-.23.08-.31.05-.08.12-.14.2-.19s.18-.08.28-.1.21-.04.31-.05c.13-.02.24-.03.33-.04.08,0,.14-.03.18-.05.04-.02.06-.06.06-.12h0c0-.1-.02-.18-.05-.24-.04-.06-.09-.11-.16-.15-.07-.03-.16-.05-.26-.05s-.2.02-.27.05c-.08.03-.14.07-.18.13-.05.05-.08.11-.1.16l-.35-.09c.05-.13.11-.24.21-.33.09-.08.2-.14.32-.18s.24-.06.37-.06c.09,0,.18.01.27.03.1.02.19.06.27.12.08.05.15.13.21.23.05.1.08.23.08.39v1.47h-.35v-.3h-.02c-.03.05-.07.11-.12.16s-.13.1-.21.14c-.09.04-.2.06-.32.06h-.03ZM40.95,84.59c.13,0,.25-.03.34-.08s.16-.12.21-.2c.05-.08.07-.17.07-.26v-.3s-.05.03-.09.04c-.05.01-.1.03-.16.04s-.12.02-.18.03c-.06,0-.11.01-.15.02-.09.01-.17.03-.24.06-.07.03-.13.06-.18.11s-.07.12-.07.2c0,.07.02.14.06.19s.09.09.16.12c.07.03.15.04.24.04h0Z"/>
          <path class="cls-2" d="M42.7,82.27c-.07,0-.12-.02-.17-.07s-.07-.1-.07-.17.02-.12.07-.17c.05-.05.11-.07.17-.07s.13.02.18.07.07.1.07.17-.02.12-.07.17c-.05.05-.11.07-.18.07ZM42.52,84.85v-2.21h.36v2.21h-.36Z"/>
          <path class="cls-2" d="M43.84,81.87v2.99h-.36v-2.99h.36Z"/>
          <path class="cls-2" d="M45.2,84.9c-.15,0-.29-.02-.41-.07s-.22-.11-.3-.21-.13-.2-.15-.34l.34-.06c.03.12.09.22.17.28.09.06.2.09.34.09.15,0,.28-.03.37-.1s.14-.15.14-.24c0-.08-.03-.14-.08-.19-.06-.05-.14-.09-.24-.11l-.37-.09c-.2-.05-.35-.12-.45-.22-.1-.1-.15-.23-.15-.39,0-.13.04-.24.11-.34s.17-.17.29-.23c.12-.05.26-.08.42-.08s.28.02.39.07.2.11.27.2.11.18.14.3l-.33.07c-.02-.09-.07-.16-.15-.23-.07-.07-.18-.1-.32-.1-.13,0-.24.03-.33.09s-.13.14-.13.23c0,.08.03.15.09.2s.15.09.28.12l.34.08c.2.05.35.12.45.22.1.1.15.23.15.38,0,.13-.04.25-.11.35s-.18.18-.31.24-.28.09-.45.09h0Z"/>
        </g>
      </g>
      <path class="cls-2" d="M64.54,79.04v3.49c0,.12-.1.22-.22.22s-.22-.1-.22-.22v-2.98l-3.2,3.13s-.1.06-.15.06-.11-.02-.15-.06c-.08-.08-.08-.22,0-.31l3.19-3.12h-2.7c-.12,0-.22-.1-.22-.22s.1-.22.22-.22h3.3s.02,0,.03.01c0,0,.02,0,.02.01,0,0,.01,0,.02.01h.01l.02.02s.01.02.02.02c0,0,0,.02.01.03h0s0,.02.01.04h0v.09Z"/>
      <g>
        <g>
          <circle class="cls-2" cx="8.72" cy="93.45" r=".97"/>
          <path class="cls-2" d="M12.76,92.91v4.59h-1.47v-1.28c-.06.05-.11.1-.17.15-.86.72-2.02,1.12-3.24,1.12v-1.47c1.65,0,3.31-.97,3.31-3.12h1.58-.01Z"/>
        </g>
        <g>
          <path class="cls-2" d="M15.97,97.52c-.22,0-.42-.04-.59-.12s-.31-.19-.41-.34c-.1-.15-.15-.34-.15-.57,0-.19.04-.35.11-.48.07-.13.17-.23.29-.31.12-.08.26-.14.42-.18s.32-.07.49-.09c.2-.02.36-.04.48-.06.12-.02.21-.05.27-.08s.08-.09.08-.17v-.02c0-.1-.02-.18-.06-.24-.04-.07-.1-.12-.19-.16-.08-.04-.18-.05-.3-.05s-.22.02-.31.05c-.09.04-.16.08-.21.15s-.09.13-.12.21l-.85-.11c.05-.21.14-.38.27-.53s.31-.26.52-.34c.21-.08.45-.12.71-.12.19,0,.38.02.55.07s.33.12.47.21c.14.1.24.22.32.36s.12.32.12.52v2.31h-.89v-.48h-.03c-.06.11-.13.2-.22.28s-.2.15-.33.19c-.13.05-.28.07-.45.07h0v.03ZM16.23,96.87c.15,0,.28-.03.39-.09.11-.06.2-.14.26-.23s.09-.21.09-.33v-.36s-.07.03-.12.05c-.05.02-.11.03-.18.04s-.13.02-.2.03c-.07.01-.13.02-.19.03-.11.02-.21.04-.3.08-.09.04-.15.08-.2.15-.05.06-.07.14-.07.23s.02.16.07.22.11.11.18.14c.07.03.17.05.27.05h0Z"/>
          <path class="cls-2" d="M19.57,92.83v4.63h-.93v-4.63h.93Z"/>
          <path class="cls-2" d="M21.26,92.83v4.63h-.93v-4.63h.93Z"/>
          <path class="cls-2" d="M23.58,97.53c-.35,0-.65-.07-.9-.22s-.45-.35-.59-.62c-.14-.27-.21-.58-.21-.93s.07-.67.21-.93.33-.47.59-.62c.25-.15.55-.22.9-.22s.64.07.9.22c.25.15.45.35.59.62.14.27.21.58.21.93s-.07.66-.21.93-.33.47-.59.62c-.25.15-.55.22-.9.22ZM23.58,96.79c.16,0,.3-.04.41-.13s.2-.21.25-.37c.06-.16.09-.34.09-.54s-.03-.39-.09-.54-.14-.28-.25-.37c-.11-.09-.25-.13-.41-.13s-.3.04-.41.13-.2.21-.25.37-.09.34-.09.54.03.38.09.54.14.28.25.37.25.13.41.13Z"/>
          <path class="cls-2" d="M25.89,97.46v-4.63h.93v4.63h-.93ZM26.72,96.46v-1.11h.13l1.14-1.32h1.08l-1.5,1.72h-.22l-.63.71h0ZM28.05,97.46l-1.04-1.5.62-.66,1.51,2.16h-1.09Z"/>
          <path class="cls-2" d="M30,93.58c-.14,0-.26-.05-.37-.14-.1-.09-.15-.21-.15-.34s.05-.25.15-.34.22-.14.37-.14.26.05.36.14.15.21.15.34-.05.25-.15.34-.22.14-.36.14ZM29.53,97.46v-3.43h.93v3.43h-.93Z"/>
          <path class="cls-2" d="M32.99,94.03v.71h-2.08v-.71h2.08ZM31.41,93.19h.93v3.26c0,.11.02.19.07.24.05.05.13.08.24.08.04,0,.1,0,.16-.01.07,0,.12-.01.15-.02l.1.71c-.09.02-.19.04-.29.05s-.2.01-.3.01c-.35,0-.62-.08-.8-.24s-.27-.4-.27-.71v-3.35h0v-.02Z"/>
        </g>
      </g>
      <g class="cls-4">
        <g class="cls-4">
          <path class="cls-2" d="M8.99,103.08c-.21,0-.4-.05-.57-.16-.17-.1-.3-.25-.39-.44s-.14-.41-.14-.67.05-.48.14-.67c.09-.19.22-.34.39-.44.17-.1.36-.16.57-.16.13,0,.24.02.36.06.11.04.21.09.3.16.09.07.16.16.22.26s.1.21.12.34h-.31c-.02-.09-.05-.16-.09-.23s-.09-.12-.16-.17c-.06-.05-.13-.08-.2-.1s-.15-.03-.24-.03c-.15,0-.29.04-.41.12s-.22.19-.28.33c-.07.15-.1.32-.1.53s.03.38.1.53c.07.15.16.26.29.33.12.08.26.11.41.11.08,0,.16-.01.24-.03.07-.02.14-.06.2-.1.06-.04.11-.1.16-.16.04-.07.07-.14.09-.22h.31c-.02.13-.06.24-.12.34-.06.1-.13.19-.22.26s-.19.13-.3.16c-.11.04-.23.06-.36.06h-.01Z"/>
          <path class="cls-2" d="M11.16,103.08c-.17,0-.31-.04-.44-.12s-.22-.19-.29-.33-.1-.31-.1-.49.03-.36.1-.5c.07-.14.17-.25.29-.33.13-.08.27-.12.44-.12s.31.04.44.12c.13.08.22.19.29.33s.1.31.1.5-.03.35-.1.49c-.07.14-.17.25-.29.33s-.27.12-.44.12ZM11.16,102.82c.12,0,.22-.03.3-.09s.14-.14.18-.25c.04-.1.06-.22.06-.34s-.02-.24-.06-.34-.1-.19-.18-.25-.18-.09-.3-.09-.22.03-.3.09-.14.15-.18.25-.06.22-.06.34.02.24.06.34.1.19.18.25.18.09.3.09Z"/>
          <path class="cls-2" d="M12.7,101.95v1.09h-.29v-1.82h.28v.44h-.05c.06-.17.14-.29.24-.36.1-.07.23-.11.37-.11.12,0,.23.03.33.08.09.05.17.13.22.23.05.1.08.23.08.39v1.15h-.29v-1.13c0-.14-.04-.25-.11-.33s-.18-.12-.3-.12c-.09,0-.17.02-.24.06s-.13.09-.17.17c-.04.07-.06.17-.06.27h0Z"/>
        </g>
        <g class="cls-4">
          <path class="cls-2" d="M15.1,101.22v.25h-.95v-.25h.95ZM14.43,100.77h.29v1.81c0,.08.02.14.05.17.03.04.09.05.16.05h.15l.05.25s-.07.02-.1.02h-.11c-.16,0-.28-.04-.37-.12s-.13-.19-.13-.34v-1.83h.01Z"/>
        </g>
        <g class="cls-4">
          <path class="cls-2" d="M16.01,103.08c-.12,0-.22-.02-.32-.06-.09-.04-.17-.11-.22-.19-.06-.08-.08-.19-.08-.31,0-.1.02-.19.06-.25s.1-.12.17-.15c.07-.04.15-.07.23-.09s.17-.03.26-.04c.11-.01.2-.03.27-.03s.12-.02.15-.04c.03-.02.05-.05.05-.09h0c0-.09-.01-.15-.04-.2s-.07-.09-.13-.12c-.06-.03-.13-.04-.21-.04s-.16.01-.22.04-.11.06-.15.1-.07.09-.08.13l-.29-.07c.04-.11.09-.2.17-.27s.16-.12.26-.15.2-.05.3-.05c.07,0,.15,0,.22.03.08.02.15.05.22.09.07.05.13.11.17.19s.07.19.07.32v1.21h-.29v-.25h-.02s-.05.09-.1.13c-.05.05-.1.08-.18.11-.07.03-.16.05-.27.05ZM16.06,102.82c.11,0,.2-.02.28-.06.07-.04.13-.1.17-.17s.06-.14.06-.21v-.25s-.04.03-.08.04c-.04.01-.08.02-.13.03-.05,0-.1.02-.15.02s-.09.01-.12.02c-.07,0-.14.02-.2.05-.06.02-.11.05-.15.09-.04.04-.06.1-.06.17,0,.06.02.11.05.16.03.04.08.07.13.1.06.02.12.03.19.03v-.02Z"/>
          <path class="cls-2" d="M18.1,103.08c-.17,0-.31-.04-.44-.12s-.22-.19-.29-.33c-.07-.14-.1-.31-.1-.49s.03-.36.1-.5.17-.25.29-.33c.13-.08.27-.12.44-.12.09,0,.18.01.26.04.08.02.15.06.22.11.06.05.12.1.17.17s.08.14.1.22l-.29.06s-.03-.09-.06-.13c-.03-.04-.06-.08-.1-.1-.04-.03-.08-.05-.13-.07s-.11-.02-.17-.02c-.12,0-.22.03-.3.09s-.14.15-.18.25-.06.22-.06.34.02.24.06.34c.04.1.1.19.18.25s.18.09.3.09c.06,0,.12,0,.17-.02s.1-.04.14-.07c.04-.03.07-.07.1-.11s.05-.09.06-.14l.29.06c-.02.08-.06.16-.1.22s-.1.12-.17.17c-.07.05-.14.08-.22.11s-.17.04-.26.04h-.01Z"/>
          <path class="cls-2" d="M19.99,101.22v.25h-.95v-.25h.95ZM19.32,100.77h.29v1.81c0,.08.02.14.05.17.03.04.09.05.16.05h.15l.05.25s-.07.02-.1.02h-.11c-.16,0-.28-.04-.37-.12s-.13-.19-.13-.34v-1.83h.01Z"/>
          <path class="cls-2" d="M20.56,101.74c-.06,0-.11-.02-.15-.06s-.06-.09-.06-.16.02-.11.06-.16.09-.06.15-.06.11.02.16.06.06.09.06.16-.02.11-.06.16-.09.06-.16.06ZM20.56,103.06c-.06,0-.11-.02-.15-.06-.04-.04-.06-.09-.06-.16s.02-.11.06-.16c.04-.04.09-.06.15-.06s.11.02.16.06c.04.04.06.09.06.16s-.02.11-.06.16c-.04.04-.09.06-.16.06Z"/>
        </g>
        <g class="cls-4">
          <path class="cls-2" d="M22.01,102.56v-.35l1.06-1.63h.29v.49h-.17l-.73,1.12v.02h1.48v.36h-1.93ZM23.2,103.04v-2.46h.42v2.46h-.42Z"/>
          <path class="cls-2" d="M25.11,103.07c-.16,0-.31-.03-.43-.09-.13-.06-.23-.15-.3-.25s-.12-.23-.12-.37h.43c0,.07.03.13.07.19.04.05.09.1.15.13s.13.05.21.05c.09,0,.17-.02.24-.06s.12-.1.16-.17c.04-.07.06-.15.06-.25s-.02-.18-.06-.25-.09-.13-.16-.17-.15-.06-.24-.06c-.08,0-.16.02-.24.05-.07.03-.13.08-.17.13l-.4-.05.12-1.3h1.45v.37h-1.08l-.07.65h.01c.05-.06.12-.1.2-.14s.18-.05.28-.05c.11,0,.21.02.31.06s.18.1.25.17.13.16.16.26.06.21.06.33c0,.16-.04.31-.11.44-.07.13-.18.23-.31.3s-.29.11-.46.11v-.03Z"/>
          <path class="cls-2" d="M27.26,103.08c-.2,0-.37-.05-.51-.15s-.25-.24-.33-.43-.11-.42-.11-.68.04-.49.11-.68.18-.33.33-.43c.14-.1.31-.15.51-.15s.37.05.51.15.25.25.33.43.11.42.11.68-.04.49-.11.68-.18.33-.32.43-.31.15-.51.15h-.01ZM27.26,102.71c.11,0,.2-.04.28-.11s.13-.17.18-.31c.04-.13.06-.29.06-.48s-.02-.35-.06-.49c-.04-.13-.1-.24-.18-.31s-.17-.11-.28-.11-.2.04-.28.11-.13.17-.17.31c-.04.13-.06.3-.06.49s.02.35.06.48c.04.13.1.24.17.31.08.07.17.11.28.11Z"/>
        </g>
        <g class="cls-4">
          <path class="cls-2" d="M29.69,101.85v.35h-1.11v-.35h1.11Z"/>
        </g>
        <g class="cls-4">
          <path class="cls-2" d="M30.12,103.04l1.05-2.08h-1.22v-.38h1.67v.38l-1.05,2.08h-.46,0Z"/>
        </g>
        <g class="cls-4">
          <path class="cls-2" d="M31.71,102.56v-.35l1.06-1.63h.29v.49h-.17l-.73,1.12v.02h1.48v.36h-1.93ZM32.9,103.04v-2.46h.42v2.46h-.42Z"/>
          <path class="cls-2" d="M33.99,103.04v-.32l.86-.83c.08-.08.15-.15.21-.22.06-.06.1-.13.13-.19s.04-.13.04-.2c0-.08-.02-.15-.05-.21-.04-.06-.08-.1-.15-.13-.06-.03-.13-.05-.21-.05s-.16.02-.22.05c-.06.03-.11.08-.15.15-.03.06-.05.14-.05.23h-.42c0-.16.04-.3.11-.42.07-.12.17-.21.3-.28s.27-.1.44-.1.31.03.43.09.22.15.29.26.1.23.1.37c0,.1-.02.19-.05.28-.04.09-.1.19-.18.29s-.21.23-.36.37l-.46.45h1.08v.38h-1.69v.03Z"/>
          <path class="cls-2" d="M37.2,101.85v.35h-1.11v-.35h1.11Z"/>
          <path class="cls-2" d="M38.59,100.58v2.46h-.43v-2.06h0l-.58.4v-.41l.56-.39h.47-.01Z"/>
        </g>
        <g class="cls-4">
          <path class="cls-2" d="M39.12,103.04l1.05-2.08h-1.22v-.38h1.67v.38l-1.05,2.08h-.46.01Z"/>
        </g>
        <g class="cls-4">
          <path class="cls-2" d="M41.8,103.08c-.2,0-.37-.05-.51-.15s-.25-.24-.33-.43-.11-.42-.11-.68.04-.49.11-.68c.08-.19.18-.33.33-.43.14-.1.31-.15.51-.15s.37.05.51.15.25.25.33.43c.08.19.11.42.11.68s-.04.49-.11.68-.18.33-.32.43-.31.15-.51.15h-.01ZM41.8,102.71c.11,0,.2-.04.28-.11.08-.07.13-.17.18-.31.04-.13.06-.29.06-.48s-.02-.35-.06-.49c-.04-.13-.1-.24-.18-.31s-.17-.11-.28-.11-.2.04-.28.11c-.08.07-.13.17-.17.31-.04.13-.06.3-.06.49s.02.35.06.48c.04.13.1.24.17.31.08.07.17.11.28.11Z"/>
          <path class="cls-2" d="M43.98,103.08c-.18,0-.33-.03-.47-.09-.13-.06-.24-.15-.32-.26-.08-.11-.12-.24-.12-.38h.44c0,.07.03.14.07.19.04.06.09.1.16.13s.15.04.23.04.17-.02.24-.05c.07-.03.12-.08.16-.13.04-.06.06-.12.06-.2s-.02-.14-.06-.2-.1-.1-.17-.13-.16-.05-.27-.05h-.22v-.34h.22c.09,0,.16-.01.23-.04s.12-.07.15-.12c.04-.05.06-.12.06-.19s-.02-.13-.05-.19c-.03-.05-.08-.09-.14-.12s-.13-.04-.21-.04-.15.01-.22.04c-.06.03-.12.07-.15.12-.04.05-.06.12-.06.19h-.42c0-.14.04-.26.12-.37.07-.11.18-.19.3-.25.13-.06.27-.09.44-.09s.31.03.43.09.22.14.29.25c.07.1.1.22.1.34,0,.14-.04.25-.12.35-.08.09-.19.16-.32.19v.02c.11.02.21.05.29.1.08.05.14.12.18.2.04.08.06.17.06.27,0,.14-.04.26-.12.37-.08.11-.19.19-.32.26s-.29.09-.47.09Z"/>
        </g>
      </g>
    </g>
  </g>
</svg>