<svg xmlns="http://www.w3.org/2000/svg" xmlns:xlink="http://www.w3.org/1999/xlink" width="740" height="740" viewBox="0 0 740 740">
  <rect width="740" height="740" fill="white"/>
  <path d="M228.00,40.00 L240.00,40.00 L240.00,60.00 L228.00,60.00 Q220.00,60.00 220.00,52.00 L220.00,48.00 Q220.00,40.00 228.00,40.00 Z" fill="#111111"/>
  <path d="M240.00,40.00 L252.00,40.00 Q260.00,40.00 260.00,48.00 L260.00,60.00 L240.00,60.00 L240.00,40.00 Z" fill="#111111"/>
  <path d="M288.00,40.00 L292.00,40.00 Q300.00,40.00 300.00,48.00 L300.00,52.00 Q300.00,60.00 292.00,60.00 L288.00,60.00 Q280.00,60.00 280.00,52.00 L280.00,48.00 Q280.00,40.00 288.00,40.00 Z" fill="#111111"/>
  <path d="M408.00,40.00 L412.00,40.00 Q420.00,40.00 420.00,48.00 L420.00,52.00 Q420.00,60.00 412.00,60.00 L408.00,60.00 Q400.00,60.00 400.00,52.00 L400.00,48.00 Q400.00,40.00 408.00,40.00 Z" fill="#111111"/>
  <path d="M468.00,40.00 L472.00,40.00 Q480.00,40.00 480.00,48.00 L480.00,60.00 L460.00,60.00 L460.00,48.00 Q460.00,40.00 468.00,40.00 Z" fill="#111111"/>
  <path d="M508.00,40.00 L520.00,40.00 L520.00,60.00 L500.00,60.00 L500.00,48.00 Q500.00,40.00 508.00,40.00 Z" fill="#111111"/>
  <path d="M520.00,40.00 L532.00,40.00 Q540.00,40.00 540.00,48.00 L540.00,52.00 Q540.00,60.00 532.00,60.00 L520.00,60.00 L520.00,40.00 Z" fill="#111111"/>
  <path d="M240.00,60.00 L260.00,60.00 L260.00,80.00 L240.00,80.00 L240.00,60.00 Z" fill="#111111"/>
  <path d="M308.00,60.00 L320.00,60.00 L320.00,80.00 L300.00,80.00 L300.00,68.00 Q300.00,60.00 308.00,60.00 Z" fill="#111111"/>
  <path d="M320.00,60.00 L332.00,60.00 Q340.00,60.00 340.00,68.00 L340.00,72.00 Q340.00,80.00 332.00,80.00 L320.00,80.00 L320.00,60.00 Z" fill="#111111"/>
  <path d="M428.00,60.00 L440.00,60.00 L440.00,80.00 L420.00,80.00 L420.00,68.00 Q420.00,60.00 428.00,60.00 Z" fill="#111111"/>
  <path d="M440.00,60.00 L460.00,60.00 L460.00,80.00 L440.00,80.00 L440.00,60.00 Z" fill="#111111"/>
  <path d="M460.00,60.00 L480.00,60.00 L480.00,72.00 Q480.00,80.00 472.00,80.00 L460.00,80.00 L460.00,60.00 Z" fill="#111111"/>
  <path d="M500.00,60.00 L520.00,60.00 L520.00,80.00 L500.00,80.00 L500.00,60.00 Z" fill="#111111"/>
  <path d="M228.00,80.00 L240.00,80.00 L240.00,100.00 L228.00,100.00 Q220.00,100.00 220.00,92.00 L220.00,88.00 Q220.00,80.00 228.00,80.00 Z" fill="#111111"/>
  <path d="M240.00,80.00 L260.00,80.00 L260.00,100.00 L240.00,100.00 L240.00,80.00 Z" fill="#111111"/>
  <path d="M260.00,80.00 L280.00,80.00 L280.00,100.00 L260.00,100.00 L260.00,80.00 Z" fill="#111111"/>
  <path d="M280.00,80.00 L300.00,80.00 L300.00,100.00 L280.00,100.00 L280.00,80.00 Z" fill="#111111"/>
  <path d="M300.00,80.00 L320.00,80.00 L320.00,92.00 Q320.00,100.00 312.00,100.00 L300.00,100.00 L300.00,80.00 Z" fill="#111111"/>
  <path d="M368.00,80.00 L380.00,80.00 L380.00,100.00 L360.00,100.00 L360.00,88.00 Q360.00,80.00 368.00,80.00 Z" fill="#111111"/>
  <path d="M380.00,80.00 L400.00,80.00 L400.00,100.00 L380.00,100.00 L380.00,80.00 Z" fill="#111111"/>
  <path d="M400.00,80.00 L420.00,80.00 L420.00,100.00 L400.00,100.00 L400.00,80.00 Z" fill="#111111"/>
  <path d="M420.00,80.00 L440.00,80.00 L440.00,100.00 L420.00,100.00 L420.00,80.00 Z" fill="#111111"/>
  <path d="M440.00,80.00 L460.00,80.00 L460.00,92.00 Q460.00,100.00 452.00,100.00 L440.00,100.00 L440.00,80.00 Z" fill="#111111"/>
  <path d="M488.00,80.00 L500.00,80.00 L500.00,100.00 L480.00,100.00 L480.00,88.00 Q480.00,80.00 488.00,80.00 Z" fill="#111111"/>
  <path d="M500.00,80.00 L520.00,80.00 L520.00,100.00 L500.00,100.00 L500.00,80.00 Z" fill="#111111"/>
  <path d="M328.00,100.00 L332.00,100.00 Q340.00,100.00 340.00,108.00 L340.00,112.00 Q340.00,120.00 332.00,120.00 L328.00,120.00 Q320.00,120.00 320.00,112.00 L320.00,108.00 Q320.00,100.00 328.00,100.00 Z" fill="#111111"/>
  <path d="M360.00,100.00 L380.00,100.00 L380.00,120.00 L368.00,120.00 Q360.00,120.00 360.00,112.00 L360.00,100.00 Z" fill="#111111"/>
  <path d="M380.00,100.00 L400.00,100.00 L400.00,120.00 L380.00,120.00 L380.00,100.00 Z" fill="#111111"/>
  <path d="M420.00,100.00 L440.00,100.00 L440.00,120.00 L420.00,120.00 L420.00,100.00 Z" fill="#111111"/>
  <path d="M480.00,100.00 L500.00,100.00 L500.00,120.00 L488.00,120.00 Q480.00,120.00 480.00,112.00 L480.00,100.00 Z" fill="#111111"/>
  <path d="M500.00,100.00 L520.00,100.00 L520.00,120.00 L500.00,120.00 L500.00,100.00 Z" fill="#111111"/>
  <path d="M520.00,100.00 L532.00,100.00 Q540.00,100.00 540.00,108.00 L540.00,120.00 L520.00,120.00 L520.00,100.00 Z" fill="#111111"/>
  <path d="M208.00,120.00 L212.00,120.00 Q220.00,120.00 220.00,128.00 L220.00,132.00 Q220.00,140.00 212.00,140.00 L208.00,140.00 Q200.00,140.00 200.00,132.00 L200.00,128.00 Q200.00,120.00 208.00,120.00 Z" fill="#111111"/>
  <path d="M248.00,120.00 L252.00,120.00 Q260.00,120.00 260.00,128.00 L260.00,132.00 Q260.00,140.00 252.00,140.00 L248.00,140.00 Q240.00,140.00 240.00,132.00 L240.00,128.00 Q240.00,120.00 248.00,120.00 Z" fill="#111111"/>
  <path d="M288.00,120.00 L292.00,120.00 Q300.00,120.00 300.00,128.00 L300.00,132.00 Q300.00,140.00 292.00,140.00 L288.00,140.00 Q280.00,140.00 280.00,132.00 L280.00,128.00 Q280.00,120.00 288.00,120.00 Z" fill="#111111"/>
  <path d="M380.00,120.00 L400.00,120.00 L400.00,140.00 L380.00,140.00 L380.00,120.00 Z" fill="#111111"/>
  <path d="M420.00,120.00 L440.00,120.00 L440.00,140.00 L420.00,140.00 L420.00,120.00 Z" fill="#111111"/>
  <path d="M468.00,120.00 L472.00,120.00 Q480.00,120.00 480.00,128.00 L480.00,132.00 Q480.00,140.00 472.00,140.00 L468.00,140.00 Q460.00,140.00 460.00,132.00 L460.00,128.00 Q460.00,120.00 468.00,120.00 Z" fill="#111111"/>
  <path d="M500.00,120.00 L520.00,120.00 L520.00,140.00 L500.00,140.00 L500.00,120.00 Z" fill="#111111"/>
  <path d="M520.00,120.00 L540.00,120.00 L540.00,132.00 Q540.00,140.00 532.00,140.00 L520.00,140.00 L520.00,120.00 Z" fill="#111111"/>
  <path d="M228.00,140.00 L232.00,140.00 Q240.00,140.00 240.00,148.00 L240.00,152.00 Q240.00,160.00 232.00,160.00 L228.00,160.00 Q220.00,160.00 220.00,152.00 L220.00,148.00 Q220.00,140.00 228.00,140.00 Z" fill="#111111"/>
  <path d="M268.00,140.00 L272.00,140.00 Q280.00,140.00 280.00,148.00 L280.00,152.00 Q280.00,160.00 272.00,160.00 L268.00,160.00 Q260.00,160.00 260.00,152.00 L260.00,148.00 Q260.00,140.00 268.00,140.00 Z" fill="#111111"/>
  <path d="M308.00,140.00 L320.00,140.00 L320.00,160.00 L308.00,160.00 Q300.00,160.00 300.00,152.00 L300.00,148.00 Q300.00,140.00 308.00,140.00 Z" fill="#111111"/>
  <path d="M320.00,140.00 L332.00,140.00 Q340.00,140.00 340.00,148.00 L340.00,160.00 L320.00,160.00 L320.00,140.00 Z" fill="#111111"/>
  <path d="M380.00,140.00 L400.00,140.00 L400.00,160.00 L388.00,160.00 Q380.00,160.00 380.00,152.00 L380.00,140.00 Z" fill="#111111"/>
  <path d="M400.00,140.00 L420.00,140.00 L420.00,160.00 L400.00,160.00 L400.00,140.00 Z" fill="#111111"/>
  <path d="M420.00,140.00 L440.00,140.00 L440.00,152.00 Q440.00,160.00 432.00,160.00 L420.00,160.00 L420.00,140.00 Z" fill="#111111"/>
  <path d="M488.00,140.00 L500.00,140.00 L500.00,160.00 L480.00,160.00 L480.00,148.00 Q480.00,140.00 488.00,140.00 Z" fill="#111111"/>
  <path d="M500.00,140.00 L520.00,140.00 L520.00,152.00 Q520.00,160.00 512.00,160.00 L500.00,160.00 L500.00,140.00 Z" fill="#111111"/>
  <path d="M208.00,160.00 L212.00,160.00 Q220.00,160.00 220.00,168.00 L220.00,180.00 L200.00,180.00 L200.00,168.00 Q200.00,160.00 208.00,160.00 Z" fill="#111111"/>
  <path d="M248.00,160.00 L252.00,160.00 Q260.00,160.00 260.00,168.00 L260.00,180.00 L240.00,180.00 L240.00,168.00 Q240.00,160.00 248.00,160.00 Z" fill="#111111"/>
  <path d="M288.00,160.00 L292.00,160.00 Q300.00,160.00 300.00,168.00 L300.00,172.00 Q300.00,180.00 292.00,180.00 L288.00,180.00 Q280.00,180.00 280.00,172.00 L280.00,168.00 Q280.00,160.00 288.00,160.00 Z" fill="#111111"/>
  <path d="M320.00,160.00 L340.00,160.00 L340.00,172.00 Q340.00,180.00 332.00,180.00 L328.00,180.00 Q320.00,180.00 320.00,172.00 L320.00,160.00 Z" fill="#111111"/>
  <path d="M368.00,160.00 L372.00,160.00 Q380.00,160.00 380.00,168.00 L380.00,180.00 L360.00,180.00 L360.00,168.00 Q360.00,160.00 368.00,160.00 Z" fill="#111111"/>
  <path d="M400.00,160.00 L420.00,160.00 L420.00,172.00 Q420.00,180.00 412.00,180.00 L408.00,180.00 Q400.00,180.00 400.00,172.00 L400.00,160.00 Z" fill="#111111"/>
  <path d="M448.00,160.00 L452.00,160.00 Q460.00,160.00 460.00,168.00 L460.00,172.00 Q460.00,180.00 452.00,180.00 L448.00,180.00 Q440.00,180.00 440.00,172.00 L440.00,168.00 Q440.00,160.00 448.00,160.00 Z" fill="#111111"/>
  <path d="M480.00,160.00 L500.00,160.00 L500.00,172.00 Q500.00,180.00 492.00,180.00 L488.00,180.00 Q480.00,180.00 480.00,172.00 L480.00,160.00 Z" fill="#111111"/>
  <path d="M528.00,160.00 L532.00,160.00 Q540.00,160.00 540.00,168.00 L540.00,180.00 L520.00,180.00 L520.00,168.00 Q520.00,160.00 528.00,160.00 Z" fill="#111111"/>
  <path d="M200.00,180.00 L220.00,180.00 L220.00,200.00 L200.00,200.00 L200.00,180.00 Z" fill="#111111"/>
  <path d="M240.00,180.00 L260.00,180.00 L260.00,200.00 L248.00,200.00 Q240.00,200.00 240.00,192.00 L240.00,180.00 Z" fill="#111111"/>
  <path d="M260.00,180.00 L272.00,180.00 Q280.00,180.00 280.00,188.00 L280.00,200.00 L260.00,200.00 L260.00,180.00 Z" fill="#111111"/>
  <path d="M360.00,180.00 L380.00,180.00 L380.00,200.00 L368.00,200.00 Q360.00,200.00 360.00,192.00 L360.00,180.00 Z" fill="#111111"/>
  <path d="M380.00,180.00 L392.00,180.00 Q400.00,180.00 400.00,188.00 L400.00,200.00 L380.00,200.00 L380.00,180.00 Z" fill="#111111"/>
  <path d="M428.00,180.00 L432.00,180.00 Q440.00,180.00 440.00,188.00 L440.00,192.00 Q440.00,200.00 432.00,200.00 L428.00,200.00 Q420.00,200.00 420.00,192.00 L420.00,188.00 Q420.00,180.00 428.00,180.00 Z" fill="#111111"/>
  <path d="M520.00,180.00 L540.00,180.00 L540.00,192.00 Q540.00,200.00 532.00,200.00 L528.00,200.00 Q520.00,200.00 520.00,192.00 L520.00,180.00 Z" fill="#111111"/>
  <path d="M88.00,200.00 L100.00,200.00 L100.00,220.00 L80.00,220.00 L80.00,208.00 Q80.00,200.00 88.00,200.00 Z" fill="#111111"/>
  <path d="M100.00,200.00 L112.00,200.00 Q120.00,200.00 120.00,208.00 L120.00,212.00 Q120.00,220.00 112.00,220.00 L100.00,220.00 L100.00,200.00 Z" fill="#111111"/>
  <path d="M168.00,200.00 L180.00,200.00 L180.00,220.00 L168.00,220.00 Q160.00,220.00 160.00,212.00 L160.00,208.00 Q160.00,200.00 168.00,200.00 Z" fill="#111111"/>
  <path d="M180.00,200.00 L200.00,200.00 L200.00,220.00 L180.00,220.00 L180.00,200.00 Z" fill="#111111"/>
  <path d="M200.00,200.00 L220.00,200.00 L220.00,212.00 Q220.00,220.00 212.00,220.00 L200.00,220.00 L200.00,200.00 Z" fill="#111111"/>
  <path d="M260.00,200.00 L280.00,200.00 L280.00,220.00 L268.00,220.00 Q260.00,220.00 260.00,212.00 L260.00,200.00 Z" fill="#111111"/>
  <path d="M280.00,200.00 L300.00,200.00 L300.00,220.00 L280.00,220.00 L280.00,200.00 Z" fill="#111111"/>
  <path d="M300.00,200.00 L320.00,200.00 L320.00,220.00 L300.00,220.00 L300.00,200.00 Z" fill="#111111"/>
  <path d="M320.00,200.00 L340.00,200.00 L340.00,220.00 L320.00,220.00 L320.00,200.00 Z" fill="#111111"/>
  <path d="M340.00,200.00 L352.00,200.00 Q360.00,200.00 360.00,208.00 L360.00,212.00 Q360.00,220.00 352.00,220.00 L340.00,220.00 L340.00,200.00 Z" fill="#111111"/>
  <path d="M380.00,200.00 L400.00,200.00 L400.00,212.00 Q400.00,220.00 392.00,220.00 L388.00,220.00 Q380.00,220.00 380.00,212.00 L380.00,200.00 Z" fill="#111111"/>
  <path d="M468.00,200.00 L472.00,200.00 Q480.00,200.00 480.00,208.00 L480.00,220.00 L460.00,220.00 L460.00,208.00 Q460.00,200.00 468.00,200.00 Z" fill="#111111"/>
  <path d="M508.00,200.00 L512.00,200.00 Q520.00,200.00 520.00,208.00 L520.00,220.00 L500.00,220.00 L500.00,208.00 Q500.00,200.00 508.00,200.00 Z" fill="#111111"/>
  <path d="M548.00,200.00 L560.00,200.00 L560.00,220.00 L540.00,220.00 L540.00,208.00 Q540.00,200.00 548.00,200.00 Z" fill="#111111"/>
  <path d="M560.00,200.00 L572.00,200.00 Q580.00,200.00 580.00,208.00 L580.00,220.00 L560.00,220.00 L560.00,200.00 Z" fill="#111111"/>
  <path d="M608.00,200.00 L612.00,200.00 Q620.00,200.00 620.00,208.00 L620.00,212.00 Q620.00,220.00 612.00,220.00 L608.00,220.00 Q600.00,220.00 600.00,212.00 L600.00,208.00 Q600.00,200.00 608.00,200.00 Z" fill="#111111"/>
  <path d="M80.00,220.00 L100.00,220.00 L100.00,240.00 L80.00,240.00 L80.00,220.00 Z" fill="#111111"/>
  <path d="M148.00,220.00 L152.00,220.00 Q160.00,220.00 160.00,228.00 L160.00,240.00 L140.00,240.00 L140.00,228.00 Q140.00,220.00 148.00,220.00 Z" fill="#111111"/>
  <path d="M228.00,220.00 L240.00,220.00 L240.00,240.00 L228.00,240.00 Q220.00,240.00 220.00,232.00 L220.00,228.00 Q220.00,220.00 228.00,220.00 Z" fill="#111111"/>
  <path d="M240.00,220.00 L252.00,220.00 Q260.00,220.00 260.00,228.00 L260.00,232.00 Q260.00,240.00 252.00,240.00 L240.00,240.00 L240.00,220.00 Z" fill="#111111"/>
  <path d="M300.00,220.00 L320.00,220.00 L320.00,232.00 Q320.00,240.00 312.00,240.00 L308.00,240.00 Q300.00,240.00 300.00,232.00 L300.00,220.00 Z" fill="#111111"/>
  <path d="M368.00,220.00 L372.00,220.00 Q380.00,220.00 380.00,228.00 L380.00,232.00 Q380.00,240.00 372.00,240.00 L368.00,240.00 Q360.00,240.00 360.00,232.00 L360.00,228.00 Q360.00,220.00 368.00,220.00 Z" fill="#111111"/>
  <path d="M408.00,220.00 L412.00,220.00 Q420.00,220.00 420.00,228.00 L420.00,232.00 Q420.00,240.00 412.00,240.00 L408.00,240.00 Q400.00,240.00 400.00,232.00 L400.00,228.00 Q400.00,220.00 408.00,220.00 Z" fill="#111111"/>
  <path d="M460.00,220.00 L480.00,220.00 L480.00,240.00 L468.00,240.00 Q460.00,240.00 460.00,232.00 L460.00,220.00 Z" fill="#111111"/>
  <path d="M480.00,220.00 L500.00,220.00 L500.00,240.00 L480.00,240.00 L480.00,220.00 Z" fill="#111111"/>
  <path d="M500.00,220.00 L520.00,220.00 L520.00,240.00 L500.00,240.00 L500.00,220.00 Z" fill="#111111"/>
  <path d="M540.00,220.00 L560.00,220.00 L560.00,240.00 L540.00,240.00 L540.00,220.00 Z" fill="#111111"/>
  <path d="M560.00,220.00 L580.00,220.00 L580.00,240.00 L560.00,240.00 L560.00,220.00 Z" fill="#111111"/>
  <path d="M688.00,220.00 L692.00,220.00 Q700.00,220.00 700.00,228.00 L700.00,240.00 L680.00,240.00 L680.00,228.00 Q680.00,220.00 688.00,220.00 Z" fill="#111111"/>
  <path d="M68.00,240.00 L80.00,240.00 L80.00,260.00 L68.00,260.00 Q60.00,260.00 60.00,252.00 L60.00,248.00 Q60.00,240.00 68.00,240.00 Z" fill="#111111"/>
  <path d="M80.00,240.00 L100.00,240.00 L100.00,260.00 L80.00,260.00 L80.00,240.00 Z" fill="#111111"/>
  <path d="M100.00,240.00 L120.00,240.00 L120.00,260.00 L100.00,260.00 L100.00,240.00 Z" fill="#111111"/>
  <path d="M120.00,240.00 L140.00,240.00 L140.00,260.00 L120.00,260.00 L120.00,240.00 Z" fill="#111111"/>
  <path d="M140.00,240.00 L160.00,240.00 L160.00,260.00 L140.00,260.00 L140.00,240.00 Z" fill="#111111"/>
  <path d="M160.00,240.00 L180.00,240.00 L180.00,260.00 L160.00,260.00 L160.00,240.00 Z" fill="#111111"/>
  <path d="M180.00,240.00 L200.00,240.00 L200.00,260.00 L180.00,260.00 L180.00,240.00 Z" fill="#111111"/>
  <path d="M200.00,240.00 L212.00,240.00 Q220.00,240.00 220.00,248.00 L220.00,252.00 Q220.00,260.00 212.00,260.00 L200.00,260.00 L200.00,240.00 Z" fill="#111111"/>
  <path d="M500.00,240.00 L520.00,240.00 L520.00,252.00 Q520.00,260.00 512.00,260.00 L508.00,260.00 Q500.00,260.00 500.00,252.00 L500.00,240.00 Z" fill="#111111"/>
  <path d="M540.00,240.00 L560.00,240.00 L560.00,260.00 L540.00,260.00 L540.00,240.00 Z" fill="#111111"/>
  <path d="M560.00,240.00 L580.00,240.00 L580.00,252.00 Q580.00,260.00 572.00,260.00 L560.00,260.00 L560.00,240.00 Z" fill="#111111"/>
  <path d="M628.00,240.00 L632.00,240.00 Q640.00,240.00 640.00,248.00 L640.00,260.00 L620.00,260.00 L620.00,248.00 Q620.00,240.00 628.00,240.00 Z" fill="#111111"/>
  <path d="M668.00,240.00 L680.00,240.00 L680.00,260.00 L668.00,260.00 Q660.00,260.00 660.00,252.00 L660.00,248.00 Q660.00,240.00 668.00,240.00 Z" fill="#111111"/>
  <path d="M680.00,240.00 L700.00,240.00 L700.00,252.00 Q700.00,260.00 692.00,260.00 L680.00,260.00 L680.00,240.00 Z" fill="#111111"/>
  <path d="M48.00,260.00 L52.00,260.00 Q60.00,260.00 60.00,268.00 L60.00,280.00 L40.00,280.00 L40.00,268.00 Q40.00,260.00 48.00,260.00 Z" fill="#111111"/>
  <path d="M100.00,260.00 L120.00,260.00 L120.00,280.00 L108.00,280.00 Q100.00,280.00 100.00,272.00 L100.00,260.00 Z" fill="#111111"/>
  <path d="M120.00,260.00 L140.00,260.00 L140.00,280.00 L120.00,280.00 L120.00,260.00 Z" fill="#111111"/>
  <path d="M528.00,260.00 L540.00,260.00 L540.00,280.00 L520.00,280.00 L520.00,268.00 Q520.00,260.00 528.00,260.00 Z" fill="#111111"/>
  <path d="M540.00,260.00 L560.00,260.00 L560.00,280.00 L540.00,280.00 L540.00,260.00 Z" fill="#111111"/>
  <path d="M588.00,260.00 L600.00,260.00 L600.00,280.00 L580.00,280.00 L580.00,268.00 Q580.00,260.00 588.00,260.00 Z" fill="#111111"/>
  <path d="M600.00,260.00 L620.00,260.00 L620.00,280.00 L600.00,280.00 L600.00,260.00 Z" fill="#111111"/>
  <path d="M620.00,260.00 L640.00,260.00 L640.00,272.00 Q640.00,280.00 632.00,280.00 L620.00,280.00 L620.00,260.00 Z" fill="#111111"/>
  <path d="M40.00,280.00 L60.00,280.00 L60.00,292.00 Q60.00,300.00 52.00,300.00 L48.00,300.00 Q40.00,300.00 40.00,292.00 L40.00,280.00 Z" fill="#111111"/>
  <path d="M120.00,280.00 L140.00,280.00 L140.00,300.00 L120.00,300.00 L120.00,280.00 Z" fill="#111111"/>
  <path d="M168.00,280.00 L172.00,280.00 Q180.00,280.00 180.00,288.00 L180.00,292.00 Q180.00,300.00 172.00,300.00 L168.00,300.00 Q160.00,300.00 160.00,292.00 L160.00,288.00 Q160.00,280.00 168.00,280.00 Z" fill="#111111"/>
  <path d="M520.00,280.00 L540.00,280.00 L540.00,300.00 L520.00,300.00 L520.00,280.00 Z" fill="#111111"/>
  <path d="M540.00,280.00 L560.00,280.00 L560.00,300.00 L540.00,300.00 L540.00,280.00 Z" fill="#111111"/>
  <path d="M580.00,280.00 L600.00,280.00 L600.00,292.00 Q600.00,300.00 592.00,300.00 L588.00,300.00 Q580.00,300.00 580.00,292.00 L580.00,280.00 Z" fill="#111111"/>
  <path d="M688.00,280.00 L692.00,280.00 Q700.00,280.00 700.00,288.00 L700.00,292.00 Q700.00,300.00 692.00,300.00 L688.00,300.00 Q680.00,300.00 680.00,292.00 L680.00,288.00 Q680.00,280.00 688.00,280.00 Z" fill="#111111"/>
  <path d="M88.00,300.00 L100.00,300.00 L100.00,320.00 L80.00,320.00 L80.00,308.00 Q80.00,300.00 88.00,300.00 Z" fill="#111111"/>
  <path d="M100.00,300.00 L120.00,300.00 L120.00,320.00 L100.00,320.00 L100.00,300.00 Z" fill="#111111"/>
  <path d="M120.00,300.00 L140.00,300.00 L140.00,320.00 L120.00,320.00 L120.00,300.00 Z" fill="#111111"/>
  <path d="M228.00,300.00 L232.00,300.00 Q240.00,300.00 240.00,308.00 L240.00,312.00 Q240.00,320.00 232.00,320.00 L228.00,320.00 Q220.00,320.00 220.00,312.00 L220.00,308.00 Q220.00,300.00 228.00,300.00 Z" fill="#111111"/>
  <path d="M520.00,300.00 L540.00,300.00 L540.00,320.00 L528.00,320.00 Q520.00,320.00 520.00,312.00 L520.00,300.00 Z" fill="#111111"/>
  <path d="M540.00,300.00 L560.00,300.00 L560.00,312.00 Q560.00,320.00 552.00,320.00 L540.00,320.00 L540.00,300.00 Z" fill="#111111"/>
  <path d="M648.00,300.00 L652.00,300.00 Q660.00,300.00 660.00,308.00 L660.00,312.00 Q660.00,320.00 652.00,320.00 L648.00,320.00 Q640.00,320.00 640.00,312.00 L640.00,308.00 Q640.00,300.00 648.00,300.00 Z" fill="#111111"/>
  <path d="M48.00,320.00 L52.00,320.00 Q60.00,320.00 60.00,328.00 L60.00,332.00 Q60.00,340.00 52.00,340.00 L48.00,340.00 Q40.00,340.00 40.00,332.00 L40.00,328.00 Q40.00,320.00 48.00,320.00 Z" fill="#111111"/>
  <path d="M80.00,320.00 L100.00,320.00 L100.00,340.00 L80.00,340.00 L80.00,320.00 Z" fill="#111111"/>
  <path d="M100.00,320.00 L120.00,320.00 L120.00,340.00 L100.00,340.00 L100.00,320.00 Z" fill="#111111"/>
  <path d="M120.00,320.00 L140.00,320.00 L140.00,340.00 L120.00,340.00 L120.00,320.00 Z" fill="#111111"/>
  <path d="M140.00,320.00 L160.00,320.00 L160.00,340.00 L140.00,340.00 L140.00,320.00 Z" fill="#111111"/>
  <path d="M160.00,320.00 L180.00,320.00 L180.00,340.00 L160.00,340.00 L160.00,320.00 Z" fill="#111111"/>
  <path d="M180.00,320.00 L192.00,320.00 Q200.00,320.00 200.00,328.00 L200.00,340.00 L180.00,340.00 L180.00,320.00 Z" fill="#111111"/>
  <path d="M568.00,320.00 L572.00,320.00 Q580.00,320.00 580.00,328.00 L580.00,340.00 L560.00,340.00 L560.00,328.00 Q560.00,320.00 568.00,320.00 Z" fill="#111111"/>
  <path d="M608.00,320.00 L612.00,320.00 Q620.00,320.00 620.00,328.00 L620.00,332.00 Q620.00,340.00 612.00,340.00 L608.00,340.00 Q600.00,340.00 600.00,332.00 L600.00,328.00 Q600.00,320.00 608.00,320.00 Z" fill="#111111"/>
  <path d="M68.00,340.00 L80.00,340.00 L80.00,360.00 L60.00,360.00 L60.00,348.00 Q60.00,340.00 68.00,340.00 Z" fill="#111111"/>
  <path d="M80.00,340.00 L100.00,340.00 L100.00,360.00 L80.00,360.00 L80.00,340.00 Z" fill="#111111"/>
  <path d="M120.00,340.00 L140.00,340.00 L140.00,360.00 L120.00,360.00 L120.00,340.00 Z" fill="#111111"/>
  <path d="M140.00,340.00 L160.00,340.00 L160.00,352.00 Q160.00,360.00 152.00,360.00 L140.00,360.00 L140.00,340.00 Z" fill="#111111"/>
  <path d="M180.00,340.00 L200.00,340.00 L200.00,352.00 Q200.00,360.00 192.00,360.00 L188.00,360.00 Q180.00,360.00 180.00,352.00 L180.00,340.00 Z" fill="#111111"/>
  <path d="M508.00,340.00 L512.00,340.00 Q520.00,340.00 520.00,348.00 L520.00,352.00 Q520.00,360.00 512.00,360.00 L508.00,360.00 Q500.00,360.00 500.00,352.00 L500.00,348.00 Q500.00,340.00 508.00,340.00 Z" fill="#111111"/>
  <path d="M548.00,340.00 L560.00,340.00 L560.00,360.00 L540.00,360.00 L540.00,348.00 Q540.00,340.00 548.00,340.00 Z" fill="#111111"/>
  <path d="M560.00,340.00 L580.00,340.00 L580.00,360.00 L560.00,360.00 L560.00,340.00 Z" fill="#111111"/>
  <path d="M580.00,340.00 L592.00,340.00 Q600.00,340.00 600.00,348.00 L600.00,352.00 Q600.00,360.00 592.00,360.00 L580.00,360.00 L580.00,340.00 Z" fill="#111111"/>
  <path d="M628.00,340.00 L640.00,340.00 L640.00,360.00 L628.00,360.00 Q620.00,360.00 620.00,352.00 L620.00,348.00 Q620.00,340.00 628.00,340.00 Z" fill="#111111"/>
  <path d="M640.00,340.00 L652.00,340.00 Q660.00,340.00 660.00,348.00 L660.00,352.00 Q660.00,360.00 652.00,360.00 L640.00,360.00 L640.00,340.00 Z" fill="#111111"/>
  <path d="M60.00,360.00 L80.00,360.00 L80.00,380.00 L60.00,380.00 L60.00,360.00 Z" fill="#111111"/>
  <path d="M80.00,360.00 L100.00,360.00 L100.00,380.00 L80.00,380.00 L80.00,360.00 Z" fill="#111111"/>
  <path d="M120.00,360.00 L140.00,360.00 L140.00,380.00 L120.00,380.00 L120.00,360.00 Z" fill="#111111"/>
  <path d="M168.00,360.00 L172.00,360.00 Q180.00,360.00 180.00,368.00 L180.00,372.00 Q180.00,380.00 172.00,380.00 L168.00,380.00 Q160.00,380.00 160.00,372.00 L160.00,368.00 Q160.00,360.00 168.00,360.00 Z" fill="#111111"/>
  <path d="M528.00,360.00 L540.00,360.00 L540.00,380.00 L528.00,380.00 Q520.00,380.00 520.00,372.00 L520.00,368.00 Q520.00,360.00 528.00,360.00 Z" fill="#111111"/>
  <path d="M540.00,360.00 L560.00,360.00 L560.00,380.00 L540.00,380.00 L540.00,360.00 Z" fill="#111111"/>
  <path d="M560.00,360.00 L580.00,360.00 L580.00,372.00 Q580.00,380.00 572.00,380.00 L560.00,380.00 L560.00,360.00 Z" fill="#111111"/>
  <path d="M668.00,360.00 L672.00,360.00 Q680.00,360.00 680.00,368.00 L680.00,380.00 L660.00,380.00 L660.00,368.00 Q660.00,360.00 668.00,360.00 Z" fill="#111111"/>
  <path d="M48.00,380.00 L60.00,380.00 L60.00,400.00 L48.00,400.00 Q40.00,400.00 40.00,392.00 L40.00,388.00 Q40.00,380.00 48.00,380.00 Z" fill="#111111"/>
  <path d="M60.00,380.00 L80.00,380.00 L80.00,400.00 L60.00,400.00 L60.00,380.00 Z" fill="#111111"/>
  <path d="M80.00,380.00 L100.00,380.00 L100.00,400.00 L80.00,400.00 L80.00,380.00 Z" fill="#111111"/>
  <path d="M100.00,380.00 L120.00,380.00 L120.00,400.00 L100.00,400.00 L100.00,380.00 Z" fill="#111111"/>
  <path d="M120.00,380.00 L140.00,380.00 L140.00,400.00 L120.00,400.00 L120.00,380.00 Z" fill="#111111"/>
  <path d="M140.00,380.00 L152.00,380.00 Q160.00,380.00 160.00,388.00 L160.00,400.00 L140.00,400.00 L140.00,380.00 Z" fill="#111111"/>
  <path d="M188.00,380.00 L192.00,380.00 Q200.00,380.00 200.00,388.00 L200.00,392.00 Q200.00,400.00 192.00,400.00 L188.00,400.00 Q180.00,400.00 180.00,392.00 L180.00,388.00 Q180.00,380.00 188.00,380.00 Z" fill="#111111"/>
  <path d="M228.00,380.00 L232.00,380.00 Q240.00,380.00 240.00,388.00 L240.00,400.00 L220.00,400.00 L220.00,388.00 Q220.00,380.00 228.00,380.00 Z" fill="#111111"/>
  <path d="M508.00,380.00 L512.00,380.00 Q520.00,380.00 520.00,388.00 L520.00,392.00 Q520.00,400.00 512.00,400.00 L508.00,400.00 Q500.00,400.00 500.00,392.00 L500.00,388.00 Q500.00,380.00 508.00,380.00 Z" fill="#111111"/>
  <path d="M540.00,380.00 L560.00,380.00 L560.00,400.00 L540.00,400.00 L540.00,380.00 Z" fill="#111111"/>
  <path d="M588.00,380.00 L600.00,380.00 L600.00,400.00 L588.00,400.00 Q580.00,400.00 580.00,392.00 L580.00,388.00 Q580.00,380.00 588.00,380.00 Z" fill="#111111"/>
  <path d="M600.00,380.00 L612.00,380.00 Q620.00,380.00 620.00,388.00 L620.00,392.00 Q620.00,400.00 612.00,400.00 L600.00,400.00 L600.00,380.00 Z" fill="#111111"/>
  <path d="M648.00,380.00 L660.00,380.00 L660.00,400.00 L640.00,400.00 L640.00,388.00 Q640.00,380.00 648.00,380.00 Z" fill="#111111"/>
  <path d="M660.00,380.00 L680.00,380.00 L680.00,400.00 L660.00,400.00 L660.00,380.00 Z" fill="#111111"/>
  <path d="M680.00,380.00 L692.00,380.00 Q700.00,380.00 700.00,388.00 L700.00,392.00 Q700.00,400.00 692.00,400.00 L680.00,400.00 L680.00,380.00 Z" fill="#111111"/>
  <path d="M120.00,400.00 L140.00,400.00 L140.00,420.00 L128.00,420.00 Q120.00,420.00 120.00,412.00 L120.00,400.00 Z" fill="#111111"/>
  <path d="M140.00,400.00 L160.00,400.00 L160.00,420.00 L140.00,420.00 L140.00,400.00 Z" fill="#111111"/>
  <path d="M160.00,400.00 L172.00,400.00 Q180.00,400.00 180.00,408.00 L180.00,412.00 Q180.00,420.00 172.00,420.00 L160.00,420.00 L160.00,400.00 Z" fill="#111111"/>
  <path d="M220.00,400.00 L240.00,400.00 L240.00,420.00 L220.00,420.00 L220.00,400.00 Z" fill="#111111"/>
  <path d="M540.00,400.00 L560.00,400.00 L560.00,420.00 L548.00,420.00 Q540.00,420.00 540.00,412.00 L540.00,400.00 Z" fill="#111111"/>
  <path d="M560.00,400.00 L572.00,400.00 Q580.00,400.00 580.00,408.00 L580.00,412.00 Q580.00,420.00 572.00,420.00 L560.00,420.00 L560.00,400.00 Z" fill="#111111"/>
  <path d="M640.00,400.00 L660.00,400.00 L660.00,420.00 L648.00,420.00 Q640.00,420.00 640.00,412.00 L640.00,400.00 Z" fill="#111111"/>
  <path d="M660.00,400.00 L680.00,400.00 L680.00,412.00 Q680.00,420.00 672.00,420.00 L660.00,420.00 L660.00,400.00 Z" fill="#111111"/>
  <path d="M68.00,420.00 L80.00,420.00 L80.00,440.00 L68.00,440.00 Q60.00,440.00 60.00,432.00 L60.00,428.00 Q60.00,420.00 68.00,420.00 Z" fill="#111111"/>
  <path d="M80.00,420.00 L100.00,420.00 L100.00,440.00 L80.00,440.00 L80.00,420.00 Z" fill="#111111"/>
  <path d="M100.00,420.00 L112.00,420.00 Q120.00,420.00 120.00,428.00 L120.00,440.00 L100.00,440.00 L100.00,420.00 Z" fill="#111111"/>
  <path d="M188.00,420.00 L200.00,420.00 L200.00,440.00 L188.00,440.00 Q180.00,440.00 180.00,432.00 L180.00,428.00 Q180.00,420.00 188.00,420.00 Z" fill="#111111"/>
  <path d="M200.00,420.00 L220.00,420.00 L220.00,440.00 L200.00,440.00 L200.00,420.00 Z" fill="#111111"/>
  <path d="M220.00,420.00 L240.00,420.00 L240.00,440.00 L220.00,440.00 L220.00,420.00 Z" fill="#111111"/>
  <path d="M688.00,420.00 L692.00,420.00 Q700.00,420.00 700.00,428.00 L700.00,440.00 L680.00,440.00 L680.00,428.00 Q680.00,420.00 688.00,420.00 Z" fill="#111111"/>
  <path d="M80.00,440.00 L100.00,440.00 L100.00,460.00 L80.00,460.00 L80.00,440.00 Z" fill="#111111"/>
  <path d="M100.00,440.00 L120.00,440.00 L120.00,460.00 L100.00,460.00 L100.00,440.00 Z" fill="#111111"/>
  <path d="M120.00,440.00 L140.00,440.00 L140.00,460.00 L120.00,460.00 L120.00,440.00 Z" fill="#111111"/>
  <path d="M140.00,440.00 L160.00,440.00 L160.00,460.00 L140.00,460.00 L140.00,440.00 Z" fill="#111111"/>
  <path d="M160.00,440.00 L172.00,440.00 Q180.00,440.00 180.00,448.00 L180.00,452.00 Q180.00,460.00 172.00,460.00 L160.00,460.00 L160.00,440.00 Z" fill="#111111"/>
  <path d="M220.00,440.00 L240.00,440.00 L240.00,452.00 Q240.00,460.00 232.00,460.00 L228.00,460.00 Q220.00,460.00 220.00,452.00 L220.00,440.00 Z" fill="#111111"/>
  <path d="M528.00,440.00 L532.00,440.00 Q540.00,440.00 540.00,448.00 L540.00,460.00 L520.00,460.00 L520.00,448.00 Q520.00,440.00 528.00,440.00 Z" fill="#111111"/>
  <path d="M568.00,440.00 L580.00,440.00 L580.00,460.00 L568.00,460.00 Q560.00,460.00 560.00,452.00 L560.00,448.00 Q560.00,440.00 568.00,440.00 Z" fill="#111111"/>
  <path d="M580.00,440.00 L592.00,440.00 Q600.00,440.00 600.00,448.00 L600.00,452.00 Q600.00,460.00 592.00,460.00 L580.00,460.00 L580.00,440.00 Z" fill="#111111"/>
  <path d="M628.00,440.00 L640.00,440.00 L640.00,460.00 L620.00,460.00 L620.00,448.00 Q620.00,440.00 628.00,440.00 Z" fill="#111111"/>
  <path d="M640.00,440.00 L660.00,440.00 L660.00,460.00 L640.00,460.00 L640.00,440.00 Z" fill="#111111"/>
  <path d="M660.00,440.00 L680.00,440.00 L680.00,460.00 L660.00,460.00 L660.00,440.00 Z" fill="#111111"/>
  <path d="M680.00,440.00 L700.00,440.00 L700.00,452.00 Q700.00,460.00 692.00,460.00 L680.00,460.00 L680.00,440.00 Z" fill="#111111"/>
  <path d="M48.00,460.00 L60.00,460.00 L60.00,480.00 L48.00,480.00 Q40.00,480.00 40.00,472.00 L40.00,468.00 Q40.00,460.00 48.00,460.00 Z" fill="#111111"/>
  <path d="M60.00,460.00 L80.00,460.00 L80.00,480.00 L60.00,480.00 L60.00,460.00 Z" fill="#111111"/>
  <path d="M80.00,460.00 L100.00,460.00 L100.00,480.00 L80.00,480.00 L80.00,460.00 Z" fill="#111111"/>
  <path d="M100.00,460.00 L120.00,460.00 L120.00,480.00 L100.00,480.00 L100.00,460.00 Z" fill="#111111"/>
  <path d="M120.00,460.00 L140.00,460.00 L140.00,472.00 Q140.00,480.00 132.00,480.00 L120.00,480.00 L120.00,460.00 Z" fill="#111111"/>
  <path d="M208.00,460.00 L212.00,460.00 Q220.00,460.00 220.00,468.00 L220.00,472.00 Q220.00,480.00 212.00,480.00 L208.00,480.00 Q200.00,480.00 200.00,472.00 L200.00,468.00 Q200.00,460.00 208.00,460.00 Z" fill="#111111"/>
  <path d="M520.00,460.00 L540.00,460.00 L540.00,480.00 L520.00,480.00 L520.00,460.00 Z" fill="#111111"/>
  <path d="M620.00,460.00 L640.00,460.00 L640.00,472.00 Q640.00,480.00 632.00,480.00 L628.00,480.00 Q620.00,480.00 620.00,472.00 L620.00,460.00 Z" fill="#111111"/>
  <path d="M660.00,460.00 L680.00,460.00 L680.00,480.00 L660.00,480.00 L660.00,460.00 Z" fill="#111111"/>
  <path d="M80.00,480.00 L100.00,480.00 L100.00,500.00 L80.00,500.00 L80.00,480.00 Z" fill="#111111"/>
  <path d="M148.00,480.00 L160.00,480.00 L160.00,500.00 L148.00,500.00 Q140.00,500.00 140.00,492.00 L140.00,488.00 Q140.00,480.00 148.00,480.00 Z" fill="#111111"/>
  <path d="M160.00,480.00 L180.00,480.00 L180.00,500.00 L160.00,500.00 L160.00,480.00 Z" fill="#111111"/>
  <path d="M180.00,480.00 L192.00,480.00 Q200.00,480.00 200.00,488.00 L200.00,492.00 Q200.00,500.00 192.00,500.00 L180.00,500.00 L180.00,480.00 Z" fill="#111111"/>
  <path d="M228.00,480.00 L232.00,480.00 Q240.00,480.00 240.00,488.00 L240.00,492.00 Q240.00,500.00 232.00,500.00 L228.00,500.00 Q220.00,500.00 220.00,492.00 L220.00,488.00 Q220.00,480.00 228.00,480.00 Z" fill="#111111"/>
  <path d="M508.00,480.00 L520.00,480.00 L520.00,500.00 L508.00,500.00 Q500.00,500.00 500.00,492.00 L500.00,488.00 Q500.00,480.00 508.00,480.00 Z" fill="#111111"/>
  <path d="M520.00,480.00 L540.00,480.00 L540.00,492.00 Q540.00,500.00 532.00,500.00 L520.00,500.00 L520.00,480.00 Z" fill="#111111"/>
  <path d="M568.00,480.00 L580.00,480.00 L580.00,500.00 L568.00,500.00 Q560.00,500.00 560.00,492.00 L560.00,488.00 Q560.00,480.00 568.00,480.00 Z" fill="#111111"/>
  <path d="M580.00,480.00 L592.00,480.00 Q600.00,480.00 600.00,488.00 L600.00,500.00 L580.00,500.00 L580.00,480.00 Z" fill="#111111"/>
  <path d="M648.00,480.00 L660.00,480.00 L660.00,500.00 L648.00,500.00 Q640.00,500.00 640.00,492.00 L640.00,488.00 Q640.00,480.00 648.00,480.00 Z" fill="#111111"/>
  <path d="M660.00,480.00 L680.00,480.00 L680.00,500.00 L660.00,500.00 L660.00,480.00 Z" fill="#111111"/>
  <path d="M680.00,480.00 L692.00,480.00 Q700.00,480.00 700.00,488.00 L700.00,500.00 L680.00,500.00 L680.00,480.00 Z" fill="#111111"/>
  <path d="M68.00,500.00 L80.00,500.00 L80.00,520.00 L68.00,520.00 Q60.00,520.00 60.00,512.00 L60.00,508.00 Q60.00,500.00 68.00,500.00 Z" fill="#111111"/>
  <path d="M80.00,500.00 L100.00,500.00 L100.00,512.00 Q100.00,520.00 92.00,520.00 L80.00,520.00 L80.00,500.00 Z" fill="#111111"/>
  <path d="M128.00,500.00 L132.00,500.00 Q140.00,500.00 140.00,508.00 L140.00,512.00 Q140.00,520.00 132.00,520.00 L128.00,520.00 Q120.00,520.00 120.00,512.00 L120.00,508.00 Q120.00,500.00 128.00,500.00 Z" fill="#111111"/>
  <path d="M208.00,500.00 L212.00,500.00 Q220.00,500.00 220.00,508.00 L220.00,512.00 Q220.00,520.00 212.00,520.00 L208.00,520.00 Q200.00,520.00 200.00,512.00 L200.00,508.00 Q200.00,500.00 208.00,500.00 Z" fill="#111111"/>
  <path d="M268.00,500.00 L272.00,500.00 Q280.00,500.00 280.00,508.00 L280.00,520.00 L260.00,520.00 L260.00,508.00 Q260.00,500.00 268.00,500.00 Z" fill="#111111"/>
  <path d="M328.00,500.00 L332.00,500.00 Q340.00,500.00 340.00,508.00 L340.00,520.00 L320.00,520.00 L320.00,508.00 Q320.00,500.00 328.00,500.00 Z" fill="#111111"/>
  <path d="M368.00,500.00 L380.00,500.00 L380.00,520.00 L368.00,520.00 Q360.00,520.00 360.00,512.00 L360.00,508.00 Q360.00,500.00 368.00,500.00 Z" fill="#111111"/>
  <path d="M380.00,500.00 L400.00,500.00 L400.00,520.00 L380.00,520.00 L380.00,500.00 Z" fill="#111111"/>
  <path d="M400.00,500.00 L420.00,500.00 L420.00,520.00 L400.00,520.00 L400.00,500.00 Z" fill="#111111"/>
  <path d="M420.00,500.00 L432.00,500.00 Q440.00,500.00 440.00,508.00 L440.00,520.00 L420.00,520.00 L420.00,500.00 Z" fill="#111111"/>
  <path d="M488.00,500.00 L492.00,500.00 Q500.00,500.00 500.00,508.00 L500.00,520.00 L480.00,520.00 L480.00,508.00 Q480.00,500.00 488.00,500.00 Z" fill="#111111"/>
  <path d="M548.00,500.00 L552.00,500.00 Q560.00,500.00 560.00,508.00 L560.00,520.00 L540.00,520.00 L540.00,508.00 Q540.00,500.00 548.00,500.00 Z" fill="#111111"/>
  <path d="M580.00,500.00 L600.00,500.00 L600.00,520.00 L580.00,520.00 L580.00,500.00 Z" fill="#111111"/>
  <path d="M600.00,500.00 L620.00,500.00 L620.00,520.00 L600.00,520.00 L600.00,500.00 Z" fill="#111111"/>
  <path d="M620.00,500.00 L632.00,500.00 Q640.00,500.00 640.00,508.00 L640.00,520.00 L620.00,520.00 L620.00,500.00 Z" fill="#111111"/>
  <path d="M680.00,500.00 L700.00,500.00 L700.00,520.00 L680.00,520.00 L680.00,500.00 Z" fill="#111111"/>
  <path d="M48.00,520.00 L52.00,520.00 Q60.00,520.00 60.00,528.00 L60.00,532.00 Q60.00,540.00 52.00,540.00 L48.00,540.00 Q40.00,540.00 40.00,532.00 L40.00,528.00 Q40.00,520.00 48.00,520.00 Z" fill="#111111"/>
  <path d="M108.00,520.00 L112.00,520.00 Q120.00,520.00 120.00,528.00 L120.00,532.00 Q120.00,540.00 112.00,540.00 L108.00,540.00 Q100.00,540.00 100.00,532.00 L100.00,528.00 Q100.00,520.00 108.00,520.00 Z" fill="#111111"/>
  <path d="M168.00,520.00 L172.00,520.00 Q180.00,520.00 180.00,528.00 L180.00,532.00 Q180.00,540.00 172.00,540.00 L168.00,540.00 Q160.00,540.00 160.00,532.00 L160.00,528.00 Q160.00,520.00 168.00,520.00 Z" fill="#111111"/>
  <path d="M248.00,520.00 L260.00,520.00 L260.00,540.00 L248.00,540.00 Q240.00,540.00 240.00,532.00 L240.00,528.00 Q240.00,520.00 248.00,520.00 Z" fill="#111111"/>
  <path d="M260.00,520.00 L280.00,520.00 L280.00,540.00 L260.00,540.00 L260.00,520.00 Z" fill="#111111"/>
  <path d="M280.00,520.00 L300.00,520.00 L300.00,540.00 L280.00,540.00 L280.00,520.00 Z" fill="#111111"/>
  <path d="M300.00,520.00 L320.00,520.00 L320.00,540.00 L300.00,540.00 L300.00,520.00 Z" fill="#111111"/>
  <path d="M320.00,520.00 L340.00,520.00 L340.00,540.00 L320.00,540.00 L320.00,520.00 Z" fill="#111111"/>
  <path d="M340.00,520.00 L352.00,520.00 Q360.00,520.00 360.00,528.00 L360.00,532.00 Q360.00,540.00 352.00,540.00 L340.00,540.00 L340.00,520.00 Z" fill="#111111"/>
  <path d="M420.00,520.00 L440.00,520.00 L440.00,540.00 L428.00,540.00 Q420.00,540.00 420.00,532.00 L420.00,520.00 Z" fill="#111111"/>
  <path d="M440.00,520.00 L452.00,520.00 Q460.00,520.00 460.00,528.00 L460.00,540.00 L440.00,540.00 L440.00,520.00 Z" fill="#111111"/>
  <path d="M480.00,520.00 L500.00,520.00 L500.00,540.00 L480.00,540.00 L480.00,520.00 Z" fill="#111111"/>
  <path d="M528.00,520.00 L540.00,520.00 L540.00,540.00 L520.00,540.00 L520.00,528.00 Q520.00,520.00 528.00,520.00 Z" fill="#111111"/>
  <path d="M540.00,520.00 L560.00,520.00 L560.00,540.00 L540.00,540.00 L540.00,520.00 Z" fill="#111111"/>
  <path d="M560.00,520.00 L580.00,520.00 L580.00,540.00 L560.00,540.00 L560.00,520.00 Z" fill="#111111"/>
  <path d="M580.00,520.00 L600.00,520.00 L600.00,540.00 L580.00,540.00 L580.00,520.00 Z" fill="#111111"/>
  <path d="M600.00,520.00 L620.00,520.00 L620.00,540.00 L600.00,540.00 L600.00,520.00 Z" fill="#111111"/>
  <path d="M620.00,520.00 L640.00,520.00 L640.00,532.00 Q640.00,540.00 632.00,540.00 L620.00,540.00 L620.00,520.00 Z" fill="#111111"/>
  <path d="M668.00,520.00 L680.00,520.00 L680.00,540.00 L660.00,540.00 L660.00,528.00 Q660.00,520.00 668.00,520.00 Z" fill="#111111"/>
  <path d="M680.00,520.00 L700.00,520.00 L700.00,532.00 Q700.00,540.00 692.00,540.00 L680.00,540.00 L680.00,520.00 Z" fill="#111111"/>
  <path d="M208.00,540.00 L212.00,540.00 Q220.00,540.00 220.00,548.00 L220.00,560.00 L200.00,560.00 L200.00,548.00 Q200.00,540.00 208.00,540.00 Z" fill="#111111"/>
  <path d="M260.00,540.00 L280.00,540.00 L280.00,552.00 Q280.00,560.00 272.00,560.00 L268.00,560.00 Q260.00,560.00 260.00,552.00 L260.00,540.00 Z" fill="#111111"/>
  <path d="M300.00,540.00 L320.00,540.00 L320.00,560.00 L300.00,560.00 L300.00,540.00 Z" fill="#111111"/>
  <path d="M320.00,540.00 L340.00,540.00 L340.00,560.00 L320.00,560.00 L320.00,540.00 Z" fill="#111111"/>
  <path d="M388.00,540.00 L400.00,540.00 L400.00,560.00 L380.00,560.00 L380.00,548.00 Q380.00,540.00 388.00,540.00 Z" fill="#111111"/>
  <path d="M400.00,540.00 L412.00,540.00 Q420.00,540.00 420.00,548.00 L420.00,552.00 Q420.00,560.00 412.00,560.00 L400.00,560.00 L400.00,540.00 Z" fill="#111111"/>
  <path d="M440.00,540.00 L460.00,540.00 L460.00,560.00 L448.00,560.00 Q440.00,560.00 440.00,552.00 L440.00,540.00 Z" fill="#111111"/>
  <path d="M460.00,540.00 L480.00,540.00 L480.00,560.00 L460.00,560.00 L460.00,540.00 Z" fill="#111111"/>
  <path d="M480.00,540.00 L500.00,540.00 L500.00,552.00 Q500.00,560.00 492.00,560.00 L480.00,560.00 L480.00,540.00 Z" fill="#111111"/>
  <path d="M520.00,540.00 L540.00,540.00 L540.00,560.00 L520.00,560.00 L520.00,540.00 Z" fill="#111111"/>
  <path d="M600.00,540.00 L620.00,540.00 L620.00,560.00 L600.00,560.00 L600.00,540.00 Z" fill="#111111"/>
  <path d="M660.00,540.00 L680.00,540.00 L680.00,552.00 Q680.00,560.00 672.00,560.00 L668.00,560.00 Q660.00,560.00 660.00,552.00 L660.00,540.00 Z" fill="#111111"/>
  <path d="M200.00,560.00 L220.00,560.00 L220.00,572.00 Q220.00,580.00 212.00,580.00 L208.00,580.00 Q200.00,580.00 200.00,572.00 L200.00,560.00 Z" fill="#111111"/>
  <path d="M300.00,560.00 L320.00,560.00 L320.00,580.00 L300.00,580.00 L300.00,560.00 Z" fill="#111111"/>
  <path d="M320.00,560.00 L340.00,560.00 L340.00,572.00 Q340.00,580.00 332.00,580.00 L320.00,580.00 L320.00,560.00 Z" fill="#111111"/>
  <path d="M368.00,560.00 L380.00,560.00 L380.00,580.00 L360.00,580.00 L360.00,568.00 Q360.00,560.00 368.00,560.00 Z" fill="#111111"/>
  <path d="M380.00,560.00 L400.00,560.00 L400.00,572.00 Q400.00,580.00 392.00,580.00 L380.00,580.00 L380.00,560.00 Z" fill="#111111"/>
  <path d="M428.00,560.00 L432.00,560.00 Q440.00,560.00 440.00,568.00 L440.00,580.00 L420.00,580.00 L420.00,568.00 Q420.00,560.00 428.00,560.00 Z" fill="#111111"/>
  <path d="M460.00,560.00 L480.00,560.00 L480.00,572.00 Q480.00,580.00 472.00,580.00 L468.00,580.00 Q460.00,580.00 460.00,572.00 L460.00,560.00 Z" fill="#111111"/>
  <path d="M508.00,560.00 L520.00,560.00 L520.00,580.00 L508.00,580.00 Q500.00,580.00 500.00,572.00 L500.00,568.00 Q500.00,560.00 508.00,560.00 Z" fill="#111111"/>
  <path d="M520.00,560.00 L540.00,560.00 L540.00,580.00 L520.00,580.00 L520.00,560.00 Z" fill="#111111"/>
  <path d="M568.00,560.00 L572.00,560.00 Q580.00,560.00 580.00,568.00 L580.00,572.00 Q580.00,580.00 572.00,580.00 L568.00,580.00 Q560.00,580.00 560.00,572.00 L560.00,568.00 Q560.00,560.00 568.00,560.00 Z" fill="#111111"/>
  <path d="M600.00,560.00 L620.00,560.00 L620.00,580.00 L600.00,580.00 L600.00,560.00 Z" fill="#111111"/>
  <path d="M648.00,560.00 L652.00,560.00 Q660.00,560.00 660.00,568.00 L660.00,580.00 L640.00,580.00 L640.00,568.00 Q640.00,560.00 648.00,560.00 Z" fill="#111111"/>
  <path d="M228.00,580.00 L232.00,580.00 Q240.00,580.00 240.00,588.00 L240.00,600.00 L220.00,600.00 L220.00,588.00 Q220.00,580.00 228.00,580.00 Z" fill="#111111"/>
  <path d="M268.00,580.00 L280.00,580.00 L280.00,600.00 L268.00,600.00 Q260.00,600.00 260.00,592.00 L260.00,588.00 Q260.00,580.00 268.00,580.00 Z" fill="#111111"/>
  <path d="M280.00,580.00 L300.00,580.00 L300.00,600.00 L280.00,600.00 L280.00,580.00 Z" fill="#111111"/>
  <path d="M300.00,580.00 L320.00,580.00 L320.00,592.00 Q320.00,600.00 312.00,600.00 L300.00,600.00 L300.00,580.00 Z" fill="#111111"/>
  <path d="M348.00,580.00 L360.00,580.00 L360.00,600.00 L340.00,600.00 L340.00,588.00 Q340.00,580.00 348.00,580.00 Z" fill="#111111"/>
  <path d="M360.00,580.00 L380.00,580.00 L380.00,592.00 Q380.00,600.00 372.00,600.00 L360.00,600.00 L360.00,580.00 Z" fill="#111111"/>
  <path d="M420.00,580.00 L440.00,580.00 L440.00,600.00 L420.00,600.00 L420.00,580.00 Z" fill="#111111"/>
  <path d="M520.00,580.00 L540.00,580.00 L540.00,600.00 L520.00,600.00 L520.00,580.00 Z" fill="#111111"/>
  <path d="M600.00,580.00 L620.00,580.00 L620.00,600.00 L600.00,600.00 L600.00,580.00 Z" fill="#111111"/>
  <path d="M620.00,580.00 L640.00,580.00 L640.00,600.00 L620.00,600.00 L620.00,580.00 Z" fill="#111111"/>
  <path d="M640.00,580.00 L660.00,580.00 L660.00,600.00 L640.00,600.00 L640.00,580.00 Z" fill="#111111"/>
  <path d="M660.00,580.00 L680.00,580.00 L680.00,600.00 L660.00,600.00 L660.00,580.00 Z" fill="#111111"/>
  <path d="M680.00,580.00 L692.00,580.00 Q700.00,580.00 700.00,588.00 L700.00,592.00 Q700.00,600.00 692.00,600.00 L680.00,600.00 L680.00,580.00 Z" fill="#111111"/>
  <path d="M220.00,600.00 L240.00,600.00 L240.00,612.00 Q240.00,620.00 232.00,620.00 L228.00,620.00 Q220.00,620.00 220.00,612.00 L220.00,600.00 Z" fill="#111111"/>
  <path d="M280.00,600.00 L300.00,600.00 L300.00,612.00 Q300.00,620.00 292.00,620.00 L288.00,620.00 Q280.00,620.00 280.00,612.00 L280.00,600.00 Z" fill="#111111"/>
  <path d="M340.00,600.00 L360.00,600.00 L360.00,612.00 Q360.00,620.00 352.00,620.00 L348.00,620.00 Q340.00,620.00 340.00,612.00 L340.00,600.00 Z" fill="#111111"/>
  <path d="M420.00,600.00 L440.00,600.00 L440.00,620.00 L420.00,620.00 L420.00,600.00 Z" fill="#111111"/>
  <path d="M440.00,600.00 L452.00,600.00 Q460.00,600.00 460.00,608.00 L460.00,612.00 Q460.00,620.00 452.00,620.00 L440.00,620.00 L440.00,600.00 Z" fill="#111111"/>
  <path d="M488.00,600.00 L500.00,600.00 L500.00,620.00 L480.00,620.00 L480.00,608.00 Q480.00,600.00 488.00,600.00 Z" fill="#111111"/>
  <path d="M500.00,600.00 L520.00,600.00 L520.00,620.00 L500.00,620.00 L500.00,600.00 Z" fill="#111111"/>
  <path d="M520.00,600.00 L540.00,600.00 L540.00,620.00 L520.00,620.00 L520.00,600.00 Z" fill="#111111"/>
  <path d="M540.00,600.00 L560.00,600.00 L560.00,620.00 L540.00,620.00 L540.00,600.00 Z" fill="#111111"/>
  <path d="M560.00,600.00 L580.00,600.00 L580.00,620.00 L560.00,620.00 L560.00,600.00 Z" fill="#111111"/>
  <path d="M580.00,600.00 L600.00,600.00 L600.00,620.00 L580.00,620.00 L580.00,600.00 Z" fill="#111111"/>
  <path d="M600.00,600.00 L620.00,600.00 L620.00,612.00 Q620.00,620.00 612.00,620.00 L600.00,620.00 L600.00,600.00 Z" fill="#111111"/>
  <path d="M640.00,600.00 L660.00,600.00 L660.00,620.00 L640.00,620.00 L640.00,600.00 Z" fill="#111111"/>
  <path d="M660.00,600.00 L680.00,600.00 L680.00,612.00 Q680.00,620.00 672.00,620.00 L660.00,620.00 L660.00,600.00 Z" fill="#111111"/>
  <path d="M208.00,620.00 L212.00,620.00 Q220.00,620.00 220.00,628.00 L220.00,640.00 L200.00,640.00 L200.00,628.00 Q200.00,620.00 208.00,620.00 Z" fill="#111111"/>
  <path d="M248.00,620.00 L252.00,620.00 Q260.00,620.00 260.00,628.00 L260.00,640.00 L240.00,640.00 L240.00,628.00 Q240.00,620.00 248.00,620.00 Z" fill="#111111"/>
  <path d="M420.00,620.00 L440.00,620.00 L440.00,640.00 L420.00,640.00 L420.00,620.00 Z" fill="#111111"/>
  <path d="M468.00,620.00 L480.00,620.00 L480.00,640.00 L468.00,640.00 Q460.00,640.00 460.00,632.00 L460.00,628.00 Q460.00,620.00 468.00,620.00 Z" fill="#111111"/>
  <path d="M480.00,620.00 L500.00,620.00 L500.00,632.00 Q500.00,640.00 492.00,640.00 L480.00,640.00 L480.00,620.00 Z" fill="#111111"/>
  <path d="M520.00,620.00 L540.00,620.00 L540.00,640.00 L520.00,640.00 L520.00,620.00 Z" fill="#111111"/>
  <path d="M580.00,620.00 L600.00,620.00 L600.00,632.00 Q600.00,640.00 592.00,640.00 L588.00,640.00 Q580.00,640.00 580.00,632.00 L580.00,620.00 Z" fill="#111111"/>
  <path d="M640.00,620.00 L660.00,620.00 L660.00,640.00 L640.00,640.00 L640.00,620.00 Z" fill="#111111"/>
  <path d="M200.00,640.00 L220.00,640.00 L220.00,660.00 L208.00,660.00 Q200.00,660.00 200.00,652.00 L200.00,640.00 Z" fill="#111111"/>
  <path d="M220.00,640.00 L240.00,640.00 L240.00,660.00 L220.00,660.00 L220.00,640.00 Z" fill="#111111"/>
  <path d="M240.00,640.00 L260.00,640.00 L260.00,660.00 L240.00,660.00 L240.00,640.00 Z" fill="#111111"/>
  <path d="M260.00,640.00 L272.00,640.00 Q280.00,640.00 280.00,648.00 L280.00,660.00 L260.00,660.00 L260.00,640.00 Z" fill="#111111"/>
  <path d="M420.00,640.00 L440.00,640.00 L440.00,652.00 Q440.00,660.00 432.00,660.00 L428.00,660.00 Q420.00,660.00 420.00,652.00 L420.00,640.00 Z" fill="#111111"/>
  <path d="M520.00,640.00 L540.00,640.00 L540.00,660.00 L520.00,660.00 L520.00,640.00 Z" fill="#111111"/>
  <path d="M540.00,640.00 L560.00,640.00 L560.00,660.00 L540.00,660.00 L540.00,640.00 Z" fill="#111111"/>
  <path d="M560.00,640.00 L572.00,640.00 Q580.00,640.00 580.00,648.00 L580.00,660.00 L560.00,660.00 L560.00,640.00 Z" fill="#111111"/>
  <path d="M628.00,640.00 L640.00,640.00 L640.00,660.00 L620.00,660.00 L620.00,648.00 Q620.00,640.00 628.00,640.00 Z" fill="#111111"/>
  <path d="M640.00,640.00 L660.00,640.00 L660.00,652.00 Q660.00,660.00 652.00,660.00 L640.00,660.00 L640.00,640.00 Z" fill="#111111"/>
  <path d="M220.00,660.00 L240.00,660.00 L240.00,680.00 L228.00,680.00 Q220.00,680.00 220.00,672.00 L220.00,660.00 Z" fill="#111111"/>
  <path d="M240.00,660.00 L260.00,660.00 L260.00,680.00 L240.00,680.00 L240.00,660.00 Z" fill="#111111"/>
  <path d="M260.00,660.00 L280.00,660.00 L280.00,680.00 L260.00,680.00 L260.00,660.00 Z" fill="#111111"/>
  <path d="M280.00,660.00 L300.00,660.00 L300.00,680.00 L280.00,680.00 L280.00,660.00 Z" fill="#111111"/>
  <path d="M300.00,660.00 L312.00,660.00 Q320.00,660.00 320.00,668.00 L320.00,672.00 Q320.00,680.00 312.00,680.00 L300.00,680.00 L300.00,660.00 Z" fill="#111111"/>
  <path d="M348.00,660.00 L352.00,660.00 Q360.00,660.00 360.00,668.00 L360.00,672.00 Q360.00,680.00 352.00,680.00 L348.00,680.00 Q340.00,680.00 340.00,672.00 L340.00,668.00 Q340.00,660.00 348.00,660.00 Z" fill="#111111"/>
  <path d="M388.00,660.00 L392.00,660.00 Q400.00,660.00 400.00,668.00 L400.00,672.00 Q400.00,680.00 392.00,680.00 L388.00,680.00 Q380.00,680.00 380.00,672.00 L380.00,668.00 Q380.00,660.00 388.00,660.00 Z" fill="#111111"/>
  <path d="M488.00,660.00 L500.00,660.00 L500.00,680.00 L488.00,680.00 Q480.00,680.00 480.00,672.00 L480.00,668.00 Q480.00,660.00 488.00,660.00 Z" fill="#111111"/>
  <path d="M500.00,660.00 L520.00,660.00 L520.00,680.00 L500.00,680.00 L500.00,660.00 Z" fill="#111111"/>
  <path d="M520.00,660.00 L540.00,660.00 L540.00,680.00 L520.00,680.00 L520.00,660.00 Z" fill="#111111"/>
  <path d="M540.00,660.00 L560.00,660.00 L560.00,680.00 L540.00,680.00 L540.00,660.00 Z" fill="#111111"/>
  <path d="M560.00,660.00 L580.00,660.00 L580.00,672.00 Q580.00,680.00 572.00,680.00 L560.00,680.00 L560.00,660.00 Z" fill="#111111"/>
  <path d="M620.00,660.00 L640.00,660.00 L640.00,672.00 Q640.00,680.00 632.00,680.00 L628.00,680.00 Q620.00,680.00 620.00,672.00 L620.00,660.00 Z" fill="#111111"/>
  <path d="M688.00,660.00 L692.00,660.00 Q700.00,660.00 700.00,668.00 L700.00,672.00 Q700.00,680.00 692.00,680.00 L688.00,680.00 Q680.00,680.00 680.00,672.00 L680.00,668.00 Q680.00,660.00 688.00,660.00 Z" fill="#111111"/>
  <path d="M328.00,680.00 L332.00,680.00 Q340.00,680.00 340.00,688.00 L340.00,692.00 Q340.00,700.00 332.00,700.00 L328.00,700.00 Q320.00,700.00 320.00,692.00 L320.00,688.00 Q320.00,680.00 328.00,680.00 Z" fill="#111111"/>
  <path d="M368.00,680.00 L372.00,680.00 Q380.00,680.00 380.00,688.00 L380.00,692.00 Q380.00,700.00 372.00,700.00 L368.00,700.00 Q360.00,700.00 360.00,692.00 L360.00,688.00 Q360.00,680.00 368.00,680.00 Z" fill="#111111"/>
  <path d="M428.00,680.00 L432.00,680.00 Q440.00,680.00 440.00,688.00 L440.00,692.00 Q440.00,700.00 432.00,700.00 L428.00,700.00 Q420.00,700.00 420.00,692.00 L420.00,688.00 Q420.00,680.00 428.00,680.00 Z" fill="#111111"/>
  <path d="M468.00,680.00 L472.00,680.00 Q480.00,680.00 480.00,688.00 L480.00,692.00 Q480.00,700.00 472.00,700.00 L468.00,700.00 Q460.00,700.00 460.00,692.00 L460.00,688.00 Q460.00,680.00 468.00,680.00 Z" fill="#111111"/>
  <path d="M588.00,680.00 L600.00,680.00 L600.00,700.00 L588.00,700.00 Q580.00,700.00 580.00,692.00 L580.00,688.00 Q580.00,680.00 588.00,680.00 Z" fill="#111111"/>
  <path d="M600.00,680.00 L612.00,680.00 Q620.00,680.00 620.00,688.00 L620.00,692.00 Q620.00,700.00 612.00,700.00 L600.00,700.00 L600.00,680.00 Z" fill="#111111"/>
  <path d="M100.00,40.00 L180.00,40.00 L180.00,180.00 L40.00,180.00 L40.00,100.00 Q40.00,40.00 100.00,40.00 Z" fill="#111111"/>
  <path d="M100.00,60.00 L160.00,60.00 L160.00,160.00 L60.00,160.00 L60.00,100.00 Q60.00,60.00 100.00,60.00 Z" fill="white"/>
  <path d="M100.00,80.00 L140.00,80.00 L140.00,140.00 L80.00,140.00 L80.00,100.00 Q80.00,80.00 100.00,80.00 Z" fill="#111111"/>
  <path d="M560.00,40.00 L640.00,40.00 Q700.00,40.00 700.00,100.00 L700.00,180.00 L560.00,180.00 L560.00,40.00 Z" fill="#111111"/>
  <path d="M580.00,60.00 L640.00,60.00 Q680.00,60.00 680.00,100.00 L680.00,160.00 L580.00,160.00 L580.00,60.00 Z" fill="white"/>
  <path d="M600.00,80.00 L640.00,80.00 Q660.00,80.00 660.00,100.00 L660.00,140.00 L600.00,140.00 L600.00,80.00 Z" fill="#111111"/>
  <path d="M40.00,560.00 L180.00,560.00 L180.00,700.00 L100.00,700.00 Q40.00,700.00 40.00,640.00 L40.00,560.00 Z" fill="#111111"/>
  <path d="M60.00,580.00 L160.00,580.00 L160.00,680.00 L100.00,680.00 Q60.00,680.00 60.00,640.00 L60.00,580.00 Z" fill="white"/>
  <path d="M80.00,600.00 L140.00,600.00 L140.00,660.00 L100.00,660.00 Q80.00,660.00 80.00,640.00 L80.00,600.00 Z" fill="#111111"/>
  <g transform="translate(240.00,240.00) scale(0.260000,0.260000)">
<defs>
    <style>
      .cls-1 {
        fill: #1971f2;
      }

      .cls-2 {
        fill: #fff;
      }
    </style>
  </defs>
  <rect class="cls-2" width="1000" height="1000"/>
  <g id="Layer_1" data-name="Layer 1">
    <g id="Layer_3" data-name="Layer 3">
      <rect class="cls-1" x="85.9" y="85.19" width="828.8" height="828.8" rx="115" ry="115"/>
      <g>
        <circle class="cls-2" cx="315.49" cy="326.3" r="111.57"/>
        <path class="cls-2" d="M778.68,264.39v526.03h-168.44v-146.03c-6.45,6.01-13.06,11.86-19.87,17.56-50.59,42.38-109.77,75.05-175.92,97.13-62.26,20.79-127.98,31.33-195.3,31.33v-168.44c188.62,0,378.93-110.57,378.93-357.59h180.59Z"/>
      </g>
    </g>
  </g>
  </g>
</svg>