<svg xmlns="http://www.w3.org/2000/svg" xmlns:xlink="http://www.w3.org/1999/xlink" width="580" height="580" viewBox="0 0 580 580">
  <rect width="580" height="580" fill="white"/>
  <path d="M208.00,40.00 L220.00,40.00 L220.00,60.00 L208.00,60.00 Q200.00,60.00 200.00,52.00 L200.00,48.00 Q200.00,40.00 208.00,40.00 Z" fill="#111111"/>
  <path d="M220.00,40.00 L240.00,40.00 L240.00,60.00 L220.00,60.00 L220.00,40.00 Z" fill="#111111"/>
  <path d="M240.00,40.00 L252.00,40.00 Q260.00,40.00 260.00,48.00 L260.00,60.00 L240.00,60.00 L240.00,40.00 Z" fill="#111111"/>
  <path d="M308.00,40.00 L320.00,40.00 L320.00,60.00 L308.00,60.00 Q300.00,60.00 300.00,52.00 L300.00,48.00 Q300.00,40.00 308.00,40.00 Z" fill="#111111"/>
  <path d="M320.00,40.00 L340.00,40.00 L340.00,60.00 L320.00,60.00 L320.00,40.00 Z" fill="#111111"/>
  <path d="M340.00,40.00 L352.00,40.00 Q360.00,40.00 360.00,48.00 L360.00,60.00 L340.00,60.00 L340.00,40.00 Z" fill="#111111"/>
  <path d="M240.00,60.00 L260.00,60.00 L260.00,72.00 Q260.00,80.00 252.00,80.00 L248.00,80.00 Q240.00,80.00 240.00,72.00 L240.00,60.00 Z" fill="#111111"/>
  <path d="M340.00,60.00 L360.00,60.00 L360.00,80.00 L340.00,80.00 L340.00,60.00 Z" fill="#111111"/>
  <path d="M228.00,80.00 L232.00,80.00 Q240.00,80.00 240.00,88.00 L240.00,92.00 Q240.00,100.00 232.00,100.00 L228.00,100.00 Q220.00,100.00 220.00,92.00 L220.00,88.00 Q220.00,80.00 228.00,80.00 Z" fill="#111111"/>
  <path d="M288.00,80.00 L300.00,80.00 L300.00,100.00 L280.00,100.00 L280.00,88.00 Q280.00,80.00 288.00,80.00 Z" fill="#111111"/>
  <path d="M300.00,80.00 L320.00,80.00 L320.00,100.00 L300.00,100.00 L300.00,80.00 Z" fill="#111111"/>
  <path d="M320.00,80.00 L340.00,80.00 L340.00,100.00 L320.00,100.00 L320.00,80.00 Z" fill="#111111"/>
  <path d="M340.00,80.00 L360.00,80.00 L360.00,100.00 L340.00,100.00 L340.00,80.00 Z" fill="#111111"/>
  <path d="M360.00,80.00 L372.00,80.00 Q380.00,80.00 380.00,88.00 L380.00,92.00 Q380.00,100.00 372.00,100.00 L360.00,100.00 L360.00,80.00 Z" fill="#111111"/>
  <path d="M208.00,100.00 L212.00,100.00 Q220.00,100.00 220.00,108.00 L220.00,112.00 Q220.00,120.00 212.00,120.00 L208.00,120.00 Q200.00,120.00 200.00,112.00 L200.00,108.00 Q200.00,100.00 208.00,100.00 Z" fill="#111111"/>
  <path d="M248.00,100.00 L252.00,100.00 Q260.00,100.00 260.00,108.00 L260.00,120.00 L240.00,120.00 L240.00,108.00 Q240.00,100.00 248.00,100.00 Z" fill="#111111"/>
  <path d="M280.00,100.00 L300.00,100.00 L300.00,120.00 L288.00,120.00 Q280.00,120.00 280.00,112.00 L280.00,100.00 Z" fill="#111111"/>
  <path d="M300.00,100.00 L320.00,100.00 L320.00,112.00 Q320.00,120.00 312.00,120.00 L300.00,120.00 L300.00,100.00 Z" fill="#111111"/>
  <path d="M240.00,120.00 L260.00,120.00 L260.00,140.00 L240.00,140.00 L240.00,120.00 Z" fill="#111111"/>
  <path d="M328.00,120.00 L332.00,120.00 Q340.00,120.00 340.00,128.00 L340.00,140.00 L320.00,140.00 L320.00,128.00 Q320.00,120.00 328.00,120.00 Z" fill="#111111"/>
  <path d="M228.00,140.00 L240.00,140.00 L240.00,160.00 L228.00,160.00 Q220.00,160.00 220.00,152.00 L220.00,148.00 Q220.00,140.00 228.00,140.00 Z" fill="#111111"/>
  <path d="M240.00,140.00 L260.00,140.00 L260.00,152.00 Q260.00,160.00 252.00,160.00 L240.00,160.00 L240.00,140.00 Z" fill="#111111"/>
  <path d="M288.00,140.00 L292.00,140.00 Q300.00,140.00 300.00,148.00 L300.00,152.00 Q300.00,160.00 292.00,160.00 L288.00,160.00 Q280.00,160.00 280.00,152.00 L280.00,148.00 Q280.00,140.00 288.00,140.00 Z" fill="#111111"/>
  <path d="M320.00,140.00 L340.00,140.00 L340.00,152.00 Q340.00,160.00 332.00,160.00 L328.00,160.00 Q320.00,160.00 320.00,152.00 L320.00,140.00 Z" fill="#111111"/>
  <path d="M88.00,200.00 L92.00,200.00 Q100.00,200.00 100.00,208.00 L100.00,212.00 Q100.00,220.00 92.00,220.00 L88.00,220.00 Q80.00,220.00 80.00,212.00 L80.00,208.00 Q80.00,200.00 88.00,200.00 Z" fill="#111111"/>
  <path d="M128.00,200.00 L140.00,200.00 L140.00,220.00 L120.00,220.00 L120.00,208.00 Q120.00,200.00 128.00,200.00 Z" fill="#111111"/>
  <path d="M140.00,200.00 L152.00,200.00 Q160.00,200.00 160.00,208.00 L160.00,220.00 L140.00,220.00 L140.00,200.00 Z" fill="#111111"/>
  <path d="M468.00,200.00 L472.00,200.00 Q480.00,200.00 480.00,208.00 L480.00,212.00 Q480.00,220.00 472.00,220.00 L468.00,220.00 Q460.00,220.00 460.00,212.00 L460.00,208.00 Q460.00,200.00 468.00,200.00 Z" fill="#111111"/>
  <path d="M528.00,200.00 L532.00,200.00 Q540.00,200.00 540.00,208.00 L540.00,220.00 L520.00,220.00 L520.00,208.00 Q520.00,200.00 528.00,200.00 Z" fill="#111111"/>
  <path d="M48.00,220.00 L60.00,220.00 L60.00,240.00 L40.00,240.00 L40.00,228.00 Q40.00,220.00 48.00,220.00 Z" fill="#111111"/>
  <path d="M60.00,220.00 L72.00,220.00 Q80.00,220.00 80.00,228.00 L80.00,232.00 Q80.00,240.00 72.00,240.00 L60.00,240.00 L60.00,220.00 Z" fill="#111111"/>
  <path d="M108.00,220.00 L120.00,220.00 L120.00,240.00 L100.00,240.00 L100.00,228.00 Q100.00,220.00 108.00,220.00 Z" fill="#111111"/>
  <path d="M120.00,220.00 L140.00,220.00 L140.00,240.00 L120.00,240.00 L120.00,220.00 Z" fill="#111111"/>
  <path d="M140.00,220.00 L160.00,220.00 L160.00,232.00 Q160.00,240.00 152.00,240.00 L140.00,240.00 L140.00,220.00 Z" fill="#111111"/>
  <path d="M428.00,220.00 L432.00,220.00 Q440.00,220.00 440.00,228.00 L440.00,240.00 L420.00,240.00 L420.00,228.00 Q420.00,220.00 428.00,220.00 Z" fill="#111111"/>
  <path d="M520.00,220.00 L540.00,220.00 L540.00,240.00 L520.00,240.00 L520.00,220.00 Z" fill="#111111"/>
  <path d="M40.00,240.00 L60.00,240.00 L60.00,252.00 Q60.00,260.00 52.00,260.00 L48.00,260.00 Q40.00,260.00 40.00,252.00 L40.00,240.00 Z" fill="#111111"/>
  <path d="M88.00,240.00 L100.00,240.00 L100.00,260.00 L88.00,260.00 Q80.00,260.00 80.00,252.00 L80.00,248.00 Q80.00,240.00 88.00,240.00 Z" fill="#111111"/>
  <path d="M100.00,240.00 L120.00,240.00 L120.00,252.00 Q120.00,260.00 112.00,260.00 L100.00,260.00 L100.00,240.00 Z" fill="#111111"/>
  <path d="M420.00,240.00 L440.00,240.00 L440.00,260.00 L420.00,260.00 L420.00,240.00 Z" fill="#111111"/>
  <path d="M440.00,240.00 L452.00,240.00 Q460.00,240.00 460.00,248.00 L460.00,252.00 Q460.00,260.00 452.00,260.00 L440.00,260.00 L440.00,240.00 Z" fill="#111111"/>
  <path d="M488.00,240.00 L500.00,240.00 L500.00,260.00 L488.00,260.00 Q480.00,260.00 480.00,252.00 L480.00,248.00 Q480.00,240.00 488.00,240.00 Z" fill="#111111"/>
  <path d="M500.00,240.00 L520.00,240.00 L520.00,260.00 L500.00,260.00 L500.00,240.00 Z" fill="#111111"/>
  <path d="M520.00,240.00 L540.00,240.00 L540.00,252.00 Q540.00,260.00 532.00,260.00 L520.00,260.00 L520.00,240.00 Z" fill="#111111"/>
  <path d="M68.00,260.00 L72.00,260.00 Q80.00,260.00 80.00,268.00 L80.00,280.00 L60.00,280.00 L60.00,268.00 Q60.00,260.00 68.00,260.00 Z" fill="#111111"/>
  <path d="M128.00,260.00 L140.00,260.00 L140.00,280.00 L120.00,280.00 L120.00,268.00 Q120.00,260.00 128.00,260.00 Z" fill="#111111"/>
  <path d="M140.00,260.00 L152.00,260.00 Q160.00,260.00 160.00,268.00 L160.00,280.00 L140.00,280.00 L140.00,260.00 Z" fill="#111111"/>
  <path d="M420.00,260.00 L440.00,260.00 L440.00,272.00 Q440.00,280.00 432.00,280.00 L428.00,280.00 Q420.00,280.00 420.00,272.00 L420.00,260.00 Z" fill="#111111"/>
  <path d="M500.00,260.00 L520.00,260.00 L520.00,280.00 L500.00,280.00 L500.00,260.00 Z" fill="#111111"/>
  <path d="M48.00,280.00 L60.00,280.00 L60.00,300.00 L48.00,300.00 Q40.00,300.00 40.00,292.00 L40.00,288.00 Q40.00,280.00 48.00,280.00 Z" fill="#111111"/>
  <path d="M60.00,280.00 L80.00,280.00 L80.00,300.00 L60.00,300.00 L60.00,280.00 Z" fill="#111111"/>
  <path d="M80.00,280.00 L92.00,280.00 Q100.00,280.00 100.00,288.00 L100.00,292.00 Q100.00,300.00 92.00,300.00 L80.00,300.00 L80.00,280.00 Z" fill="#111111"/>
  <path d="M120.00,280.00 L140.00,280.00 L140.00,300.00 L128.00,300.00 Q120.00,300.00 120.00,292.00 L120.00,280.00 Z" fill="#111111"/>
  <path d="M140.00,280.00 L160.00,280.00 L160.00,292.00 Q160.00,300.00 152.00,300.00 L140.00,300.00 L140.00,280.00 Z" fill="#111111"/>
  <path d="M468.00,280.00 L472.00,280.00 Q480.00,280.00 480.00,288.00 L480.00,300.00 L460.00,300.00 L460.00,288.00 Q460.00,280.00 468.00,280.00 Z" fill="#111111"/>
  <path d="M500.00,280.00 L520.00,280.00 L520.00,300.00 L508.00,300.00 Q500.00,300.00 500.00,292.00 L500.00,280.00 Z" fill="#111111"/>
  <path d="M520.00,280.00 L532.00,280.00 Q540.00,280.00 540.00,288.00 L540.00,300.00 L520.00,300.00 L520.00,280.00 Z" fill="#111111"/>
  <path d="M60.00,300.00 L80.00,300.00 L80.00,312.00 Q80.00,320.00 72.00,320.00 L68.00,320.00 Q60.00,320.00 60.00,312.00 L60.00,300.00 Z" fill="#111111"/>
  <path d="M108.00,300.00 L112.00,300.00 Q120.00,300.00 120.00,308.00 L120.00,320.00 L100.00,320.00 L100.00,308.00 Q100.00,300.00 108.00,300.00 Z" fill="#111111"/>
  <path d="M460.00,300.00 L480.00,300.00 L480.00,312.00 Q480.00,320.00 472.00,320.00 L468.00,320.00 Q460.00,320.00 460.00,312.00 L460.00,300.00 Z" fill="#111111"/>
  <path d="M520.00,300.00 L540.00,300.00 L540.00,320.00 L520.00,320.00 L520.00,300.00 Z" fill="#111111"/>
  <path d="M48.00,320.00 L52.00,320.00 Q60.00,320.00 60.00,328.00 L60.00,332.00 Q60.00,340.00 52.00,340.00 L48.00,340.00 Q40.00,340.00 40.00,332.00 L40.00,328.00 Q40.00,320.00 48.00,320.00 Z" fill="#111111"/>
  <path d="M88.00,320.00 L100.00,320.00 L100.00,340.00 L88.00,340.00 Q80.00,340.00 80.00,332.00 L80.00,328.00 Q80.00,320.00 88.00,320.00 Z" fill="#111111"/>
  <path d="M100.00,320.00 L120.00,320.00 L120.00,332.00 Q120.00,340.00 112.00,340.00 L100.00,340.00 L100.00,320.00 Z" fill="#111111"/>
  <path d="M148.00,320.00 L152.00,320.00 Q160.00,320.00 160.00,328.00 L160.00,340.00 L140.00,340.00 L140.00,328.00 Q140.00,320.00 148.00,320.00 Z" fill="#111111"/>
  <path d="M428.00,320.00 L432.00,320.00 Q440.00,320.00 440.00,328.00 L440.00,332.00 Q440.00,340.00 432.00,340.00 L428.00,340.00 Q420.00,340.00 420.00,332.00 L420.00,328.00 Q420.00,320.00 428.00,320.00 Z" fill="#111111"/>
  <path d="M488.00,320.00 L500.00,320.00 L500.00,340.00 L488.00,340.00 Q480.00,340.00 480.00,332.00 L480.00,328.00 Q480.00,320.00 488.00,320.00 Z" fill="#111111"/>
  <path d="M500.00,320.00 L520.00,320.00 L520.00,340.00 L500.00,340.00 L500.00,320.00 Z" fill="#111111"/>
  <path d="M520.00,320.00 L540.00,320.00 L540.00,332.00 Q540.00,340.00 532.00,340.00 L520.00,340.00 L520.00,320.00 Z" fill="#111111"/>
  <path d="M68.00,340.00 L72.00,340.00 Q80.00,340.00 80.00,348.00 L80.00,352.00 Q80.00,360.00 72.00,360.00 L68.00,360.00 Q60.00,360.00 60.00,352.00 L60.00,348.00 Q60.00,340.00 68.00,340.00 Z" fill="#111111"/>
  <path d="M140.00,340.00 L160.00,340.00 L160.00,360.00 L140.00,360.00 L140.00,340.00 Z" fill="#111111"/>
  <path d="M448.00,340.00 L452.00,340.00 Q460.00,340.00 460.00,348.00 L460.00,360.00 L440.00,360.00 L440.00,348.00 Q440.00,340.00 448.00,340.00 Z" fill="#111111"/>
  <path d="M500.00,340.00 L520.00,340.00 L520.00,352.00 Q520.00,360.00 512.00,360.00 L508.00,360.00 Q500.00,360.00 500.00,352.00 L500.00,340.00 Z" fill="#111111"/>
  <path d="M48.00,360.00 L52.00,360.00 Q60.00,360.00 60.00,368.00 L60.00,372.00 Q60.00,380.00 52.00,380.00 L48.00,380.00 Q40.00,380.00 40.00,372.00 L40.00,368.00 Q40.00,360.00 48.00,360.00 Z" fill="#111111"/>
  <path d="M108.00,360.00 L112.00,360.00 Q120.00,360.00 120.00,368.00 L120.00,372.00 Q120.00,380.00 112.00,380.00 L108.00,380.00 Q100.00,380.00 100.00,372.00 L100.00,368.00 Q100.00,360.00 108.00,360.00 Z" fill="#111111"/>
  <path d="M140.00,360.00 L160.00,360.00 L160.00,372.00 Q160.00,380.00 152.00,380.00 L148.00,380.00 Q140.00,380.00 140.00,372.00 L140.00,360.00 Z" fill="#111111"/>
  <path d="M428.00,360.00 L440.00,360.00 L440.00,380.00 L428.00,380.00 Q420.00,380.00 420.00,372.00 L420.00,368.00 Q420.00,360.00 428.00,360.00 Z" fill="#111111"/>
  <path d="M440.00,360.00 L460.00,360.00 L460.00,380.00 L440.00,380.00 L440.00,360.00 Z" fill="#111111"/>
  <path d="M460.00,360.00 L472.00,360.00 Q480.00,360.00 480.00,368.00 L480.00,380.00 L460.00,380.00 L460.00,360.00 Z" fill="#111111"/>
  <path d="M440.00,380.00 L460.00,380.00 L460.00,400.00 L440.00,400.00 L440.00,380.00 Z" fill="#111111"/>
  <path d="M460.00,380.00 L480.00,380.00 L480.00,400.00 L460.00,400.00 L460.00,380.00 Z" fill="#111111"/>
  <path d="M508.00,380.00 L520.00,380.00 L520.00,400.00 L500.00,400.00 L500.00,388.00 Q500.00,380.00 508.00,380.00 Z" fill="#111111"/>
  <path d="M520.00,380.00 L532.00,380.00 Q540.00,380.00 540.00,388.00 L540.00,400.00 L520.00,400.00 L520.00,380.00 Z" fill="#111111"/>
  <path d="M440.00,400.00 L460.00,400.00 L460.00,420.00 L440.00,420.00 L440.00,400.00 Z" fill="#111111"/>
  <path d="M460.00,400.00 L480.00,400.00 L480.00,420.00 L460.00,420.00 L460.00,400.00 Z" fill="#111111"/>
  <path d="M500.00,400.00 L520.00,400.00 L520.00,420.00 L508.00,420.00 Q500.00,420.00 500.00,412.00 L500.00,400.00 Z" fill="#111111"/>
  <path d="M520.00,400.00 L540.00,400.00 L540.00,412.00 Q540.00,420.00 532.00,420.00 L520.00,420.00 L520.00,400.00 Z" fill="#111111"/>
  <path d="M208.00,420.00 L220.00,420.00 L220.00,440.00 L200.00,440.00 L200.00,428.00 Q200.00,420.00 208.00,420.00 Z" fill="#111111"/>
  <path d="M220.00,420.00 L240.00,420.00 L240.00,440.00 L220.00,440.00 L220.00,420.00 Z" fill="#111111"/>
  <path d="M240.00,420.00 L260.00,420.00 L260.00,440.00 L240.00,440.00 L240.00,420.00 Z" fill="#111111"/>
  <path d="M260.00,420.00 L272.00,420.00 Q280.00,420.00 280.00,428.00 L280.00,440.00 L260.00,440.00 L260.00,420.00 Z" fill="#111111"/>
  <path d="M308.00,420.00 L312.00,420.00 Q320.00,420.00 320.00,428.00 L320.00,432.00 Q320.00,440.00 312.00,440.00 L308.00,440.00 Q300.00,440.00 300.00,432.00 L300.00,428.00 Q300.00,420.00 308.00,420.00 Z" fill="#111111"/>
  <path d="M348.00,420.00 L360.00,420.00 L360.00,440.00 L348.00,440.00 Q340.00,440.00 340.00,432.00 L340.00,428.00 Q340.00,420.00 348.00,420.00 Z" fill="#111111"/>
  <path d="M360.00,420.00 L372.00,420.00 Q380.00,420.00 380.00,428.00 L380.00,440.00 L360.00,440.00 L360.00,420.00 Z" fill="#111111"/>
  <path d="M440.00,420.00 L460.00,420.00 L460.00,440.00 L440.00,440.00 L440.00,420.00 Z" fill="#111111"/>
  <path d="M460.00,420.00 L480.00,420.00 L480.00,440.00 L460.00,440.00 L460.00,420.00 Z" fill="#111111"/>
  <path d="M200.00,440.00 L220.00,440.00 L220.00,460.00 L208.00,460.00 Q200.00,460.00 200.00,452.00 L200.00,440.00 Z" fill="#111111"/>
  <path d="M220.00,440.00 L240.00,440.00 L240.00,452.00 Q240.00,460.00 232.00,460.00 L220.00,460.00 L220.00,440.00 Z" fill="#111111"/>
  <path d="M260.00,440.00 L280.00,440.00 L280.00,460.00 L260.00,460.00 L260.00,440.00 Z" fill="#111111"/>
  <path d="M328.00,440.00 L332.00,440.00 Q340.00,440.00 340.00,448.00 L340.00,452.00 Q340.00,460.00 332.00,460.00 L328.00,460.00 Q320.00,460.00 320.00,452.00 L320.00,448.00 Q320.00,440.00 328.00,440.00 Z" fill="#111111"/>
  <path d="M360.00,440.00 L380.00,440.00 L380.00,460.00 L368.00,460.00 Q360.00,460.00 360.00,452.00 L360.00,440.00 Z" fill="#111111"/>
  <path d="M380.00,440.00 L400.00,440.00 L400.00,460.00 L380.00,460.00 L380.00,440.00 Z" fill="#111111"/>
  <path d="M400.00,440.00 L420.00,440.00 L420.00,460.00 L400.00,460.00 L400.00,440.00 Z" fill="#111111"/>
  <path d="M420.00,440.00 L440.00,440.00 L440.00,460.00 L420.00,460.00 L420.00,440.00 Z" fill="#111111"/>
  <path d="M440.00,440.00 L460.00,440.00 L460.00,460.00 L440.00,460.00 L440.00,440.00 Z" fill="#111111"/>
  <path d="M460.00,440.00 L480.00,440.00 L480.00,460.00 L460.00,460.00 L460.00,440.00 Z" fill="#111111"/>
  <path d="M508.00,440.00 L512.00,440.00 Q520.00,440.00 520.00,448.00 L520.00,460.00 L500.00,460.00 L500.00,448.00 Q500.00,440.00 508.00,440.00 Z" fill="#111111"/>
  <path d="M248.00,460.00 L260.00,460.00 L260.00,480.00 L240.00,480.00 L240.00,468.00 Q240.00,460.00 248.00,460.00 Z" fill="#111111"/>
  <path d="M260.00,460.00 L280.00,460.00 L280.00,472.00 Q280.00,480.00 272.00,480.00 L260.00,480.00 L260.00,460.00 Z" fill="#111111"/>
  <path d="M308.00,460.00 L312.00,460.00 Q320.00,460.00 320.00,468.00 L320.00,480.00 L300.00,480.00 L300.00,468.00 Q300.00,460.00 308.00,460.00 Z" fill="#111111"/>
  <path d="M420.00,460.00 L440.00,460.00 L440.00,480.00 L428.00,480.00 Q420.00,480.00 420.00,472.00 L420.00,460.00 Z" fill="#111111"/>
  <path d="M440.00,460.00 L460.00,460.00 L460.00,480.00 L440.00,480.00 L440.00,460.00 Z" fill="#111111"/>
  <path d="M460.00,460.00 L480.00,460.00 L480.00,480.00 L460.00,480.00 L460.00,460.00 Z" fill="#111111"/>
  <path d="M480.00,460.00 L500.00,460.00 L500.00,480.00 L480.00,480.00 L480.00,460.00 Z" fill="#111111"/>
  <path d="M500.00,460.00 L520.00,460.00 L520.00,472.00 Q520.00,480.00 512.00,480.00 L500.00,480.00 L500.00,460.00 Z" fill="#111111"/>
  <path d="M208.00,480.00 L212.00,480.00 Q220.00,480.00 220.00,488.00 L220.00,492.00 Q220.00,500.00 212.00,500.00 L208.00,500.00 Q200.00,500.00 200.00,492.00 L200.00,488.00 Q200.00,480.00 208.00,480.00 Z" fill="#111111"/>
  <path d="M240.00,480.00 L260.00,480.00 L260.00,500.00 L240.00,500.00 L240.00,480.00 Z" fill="#111111"/>
  <path d="M288.00,480.00 L300.00,480.00 L300.00,500.00 L280.00,500.00 L280.00,488.00 Q280.00,480.00 288.00,480.00 Z" fill="#111111"/>
  <path d="M300.00,480.00 L320.00,480.00 L320.00,500.00 L300.00,500.00 L300.00,480.00 Z" fill="#111111"/>
  <path d="M320.00,480.00 L340.00,480.00 L340.00,500.00 L320.00,500.00 L320.00,480.00 Z" fill="#111111"/>
  <path d="M340.00,480.00 L352.00,480.00 Q360.00,480.00 360.00,488.00 L360.00,500.00 L340.00,500.00 L340.00,480.00 Z" fill="#111111"/>
  <path d="M440.00,480.00 L460.00,480.00 L460.00,500.00 L440.00,500.00 L440.00,480.00 Z" fill="#111111"/>
  <path d="M528.00,480.00 L532.00,480.00 Q540.00,480.00 540.00,488.00 L540.00,492.00 Q540.00,500.00 532.00,500.00 L528.00,500.00 Q520.00,500.00 520.00,492.00 L520.00,488.00 Q520.00,480.00 528.00,480.00 Z" fill="#111111"/>
  <path d="M240.00,500.00 L260.00,500.00 L260.00,512.00 Q260.00,520.00 252.00,520.00 L248.00,520.00 Q240.00,520.00 240.00,512.00 L240.00,500.00 Z" fill="#111111"/>
  <path d="M280.00,500.00 L300.00,500.00 L300.00,520.00 L280.00,520.00 L280.00,500.00 Z" fill="#111111"/>
  <path d="M300.00,500.00 L320.00,500.00 L320.00,512.00 Q320.00,520.00 312.00,520.00 L300.00,520.00 L300.00,500.00 Z" fill="#111111"/>
  <path d="M340.00,500.00 L360.00,500.00 L360.00,520.00 L340.00,520.00 L340.00,500.00 Z" fill="#111111"/>
  <path d="M360.00,500.00 L372.00,500.00 Q380.00,500.00 380.00,508.00 L380.00,520.00 L360.00,520.00 L360.00,500.00 Z" fill="#111111"/>
  <path d="M408.00,500.00 L412.00,500.00 Q420.00,500.00 420.00,508.00 L420.00,512.00 Q420.00,520.00 412.00,520.00 L408.00,520.00 Q400.00,520.00 400.00,512.00 L400.00,508.00 Q400.00,500.00 408.00,500.00 Z" fill="#111111"/>
  <path d="M440.00,500.00 L460.00,500.00 L460.00,520.00 L448.00,520.00 Q440.00,520.00 440.00,512.00 L440.00,500.00 Z" fill="#111111"/>
  <path d="M460.00,500.00 L472.00,500.00 Q480.00,500.00 480.00,508.00 L480.00,512.00 Q480.00,520.00 472.00,520.00 L460.00,520.00 L460.00,500.00 Z" fill="#111111"/>
  <path d="M508.00,500.00 L512.00,500.00 Q520.00,500.00 520.00,508.00 L520.00,520.00 L500.00,520.00 L500.00,508.00 Q500.00,500.00 508.00,500.00 Z" fill="#111111"/>
  <path d="M228.00,520.00 L232.00,520.00 Q240.00,520.00 240.00,528.00 L240.00,532.00 Q240.00,540.00 232.00,540.00 L228.00,540.00 Q220.00,540.00 220.00,532.00 L220.00,528.00 Q220.00,520.00 228.00,520.00 Z" fill="#111111"/>
  <path d="M268.00,520.00 L280.00,520.00 L280.00,540.00 L268.00,540.00 Q260.00,540.00 260.00,532.00 L260.00,528.00 Q260.00,520.00 268.00,520.00 Z" fill="#111111"/>
  <path d="M280.00,520.00 L300.00,520.00 L300.00,532.00 Q300.00,540.00 292.00,540.00 L280.00,540.00 L280.00,520.00 Z" fill="#111111"/>
  <path d="M328.00,520.00 L340.00,520.00 L340.00,540.00 L328.00,540.00 Q320.00,540.00 320.00,532.00 L320.00,528.00 Q320.00,520.00 328.00,520.00 Z" fill="#111111"/>
  <path d="M340.00,520.00 L360.00,520.00 L360.00,540.00 L340.00,540.00 L340.00,520.00 Z" fill="#111111"/>
  <path d="M360.00,520.00 L380.00,520.00 L380.00,540.00 L360.00,540.00 L360.00,520.00 Z" fill="#111111"/>
  <path d="M380.00,520.00 L392.00,520.00 Q400.00,520.00 400.00,528.00 L400.00,532.00 Q400.00,540.00 392.00,540.00 L380.00,540.00 L380.00,520.00 Z" fill="#111111"/>
  <path d="M428.00,520.00 L432.00,520.00 Q440.00,520.00 440.00,528.00 L440.00,532.00 Q440.00,540.00 432.00,540.00 L428.00,540.00 Q420.00,540.00 420.00,532.00 L420.00,528.00 Q420.00,520.00 428.00,520.00 Z" fill="#111111"/>
  <path d="M500.00,520.00 L520.00,520.00 L520.00,540.00 L508.00,540.00 Q500.00,540.00 500.00,532.00 L500.00,520.00 Z" fill="#111111"/>
  <path d="M520.00,520.00 L532.00,520.00 Q540.00,520.00 540.00,528.00 L540.00,532.00 Q540.00,540.00 532.00,540.00 L520.00,540.00 L520.00,520.00 Z" fill="#111111"/>
  <path d="M100.00,40.00 L180.00,40.00 L180.00,180.00 L40.00,180.00 L40.00,100.00 Q40.00,40.00 100.00,40.00 Z" fill="#111111"/>
  <path d="M100.00,60.00 L160.00,60.00 L160.00,160.00 L60.00,160.00 L60.00,100.00 Q60.00,60.00 100.00,60.00 Z" fill="white"/>
  <path d="M100.00,80.00 L140.00,80.00 L140.00,140.00 L80.00,140.00 L80.00,100.00 Q80.00,80.00 100.00,80.00 Z" fill="#111111"/>
  <path d="M400.00,40.00 L480.00,40.00 Q540.00,40.00 540.00,100.00 L540.00,180.00 L400.00,180.00 L400.00,40.00 Z" fill="#111111"/>
  <path d="M420.00,60.00 L480.00,60.00 Q520.00,60.00 520.00,100.00 L520.00,160.00 L420.00,160.00 L420.00,60.00 Z" fill="white"/>
  <path d="M440.00,80.00 L480.00,80.00 Q500.00,80.00 500.00,100.00 L500.00,140.00 L440.00,140.00 L440.00,80.00 Z" fill="#111111"/>
  <path d="M40.00,400.00 L180.00,400.00 L180.00,540.00 L100.00,540.00 Q40.00,540.00 40.00,480.00 L40.00,400.00 Z" fill="#111111"/>
  <path d="M60.00,420.00 L160.00,420.00 L160.00,520.00 L100.00,520.00 Q60.00,520.00 60.00,480.00 L60.00,420.00 Z" fill="white"/>
  <path d="M80.00,440.00 L140.00,440.00 L140.00,500.00 L100.00,500.00 Q80.00,500.00 80.00,480.00 L80.00,440.00 Z" fill="#111111"/>
  <g transform="translate(160.00,160.00) scale(0.260000,0.260000)">
<defs>
    <style>
      .cls-1 {
        fill: #1971f2;
      }

      .cls-2 {
        fill: #fff;
      }
    </style>
  </defs>
  <rect class="cls-2" width="1000" height="1000"/>
  <g id="Layer_1" data-name="Layer 1">
    <g id="Layer_3" data-name="Layer 3">
      <rect class="cls-1" x="85.9" y="85.19" width="828.8" height="828.8" rx="115" ry="115"/>
      <g>
        <circle class="cls-2" cx="315.49" cy="326.3" r="111.57"/>
        <path class="cls-2" d="M778.68,264.39v526.03h-168.44v-146.03c-6.45,6.01-13.06,11.86-19.87,17.56-50.59,42.38-109.77,75.05-175.92,97.13-62.26,20.79-127.98,31.33-195.3,31.33v-168.44c188.62,0,378.93-110.57,378.93-357.59h180.59Z"/>
      </g>
    </g>
  </g>
  </g>
</svg>