<svg xmlns="http://www.w3.org/2000/svg" xmlns:xlink="http://www.w3.org/1999/xlink" width="660" height="660" viewBox="0 0 660 660">
  <rect width="660" height="660" fill="white"/>
  <path d="M268.00,40.00 L280.00,40.00 L280.00,60.00 L260.00,60.00 L260.00,48.00 Q260.00,40.00 268.00,40.00 Z" fill="#111111"/>
  <path d="M280.00,40.00 L300.00,40.00 L300.00,60.00 L280.00,60.00 L280.00,40.00 Z" fill="#111111"/>
  <path d="M300.00,40.00 L312.00,40.00 Q320.00,40.00 320.00,48.00 L320.00,52.00 Q320.00,60.00 312.00,60.00 L300.00,60.00 L300.00,40.00 Z" fill="#111111"/>
  <path d="M388.00,40.00 L392.00,40.00 Q400.00,40.00 400.00,48.00 L400.00,60.00 L380.00,60.00 L380.00,48.00 Q380.00,40.00 388.00,40.00 Z" fill="#111111"/>
  <path d="M228.00,60.00 L240.00,60.00 L240.00,80.00 L220.00,80.00 L220.00,68.00 Q220.00,60.00 228.00,60.00 Z" fill="#111111"/>
  <path d="M240.00,60.00 L260.00,60.00 L260.00,80.00 L240.00,80.00 L240.00,60.00 Z" fill="#111111"/>
  <path d="M260.00,60.00 L280.00,60.00 L280.00,80.00 L260.00,80.00 L260.00,60.00 Z" fill="#111111"/>
  <path d="M328.00,60.00 L340.00,60.00 L340.00,80.00 L320.00,80.00 L320.00,68.00 Q320.00,60.00 328.00,60.00 Z" fill="#111111"/>
  <path d="M340.00,60.00 L360.00,60.00 L360.00,80.00 L340.00,80.00 L340.00,60.00 Z" fill="#111111"/>
  <path d="M360.00,60.00 L380.00,60.00 L380.00,80.00 L360.00,80.00 L360.00,60.00 Z" fill="#111111"/>
  <path d="M380.00,60.00 L400.00,60.00 L400.00,72.00 Q400.00,80.00 392.00,80.00 L380.00,80.00 L380.00,60.00 Z" fill="#111111"/>
  <path d="M220.00,80.00 L240.00,80.00 L240.00,92.00 Q240.00,100.00 232.00,100.00 L228.00,100.00 Q220.00,100.00 220.00,92.00 L220.00,80.00 Z" fill="#111111"/>
  <path d="M260.00,80.00 L280.00,80.00 L280.00,100.00 L268.00,100.00 Q260.00,100.00 260.00,92.00 L260.00,80.00 Z" fill="#111111"/>
  <path d="M280.00,80.00 L292.00,80.00 Q300.00,80.00 300.00,88.00 L300.00,92.00 Q300.00,100.00 292.00,100.00 L280.00,100.00 L280.00,80.00 Z" fill="#111111"/>
  <path d="M320.00,80.00 L340.00,80.00 L340.00,100.00 L320.00,100.00 L320.00,80.00 Z" fill="#111111"/>
  <path d="M408.00,80.00 L420.00,80.00 L420.00,100.00 L408.00,100.00 Q400.00,100.00 400.00,92.00 L400.00,88.00 Q400.00,80.00 408.00,80.00 Z" fill="#111111"/>
  <path d="M420.00,80.00 L432.00,80.00 Q440.00,80.00 440.00,88.00 L440.00,92.00 Q440.00,100.00 432.00,100.00 L420.00,100.00 L420.00,80.00 Z" fill="#111111"/>
  <path d="M248.00,100.00 L252.00,100.00 Q260.00,100.00 260.00,108.00 L260.00,112.00 Q260.00,120.00 252.00,120.00 L248.00,120.00 Q240.00,120.00 240.00,112.00 L240.00,108.00 Q240.00,100.00 248.00,100.00 Z" fill="#111111"/>
  <path d="M308.00,100.00 L320.00,100.00 L320.00,120.00 L300.00,120.00 L300.00,108.00 Q300.00,100.00 308.00,100.00 Z" fill="#111111"/>
  <path d="M320.00,100.00 L340.00,100.00 L340.00,120.00 L320.00,120.00 L320.00,100.00 Z" fill="#111111"/>
  <path d="M340.00,100.00 L360.00,100.00 L360.00,120.00 L340.00,120.00 L340.00,100.00 Z" fill="#111111"/>
  <path d="M360.00,100.00 L380.00,100.00 L380.00,120.00 L360.00,120.00 L360.00,100.00 Z" fill="#111111"/>
  <path d="M380.00,100.00 L392.00,100.00 Q400.00,100.00 400.00,108.00 L400.00,112.00 Q400.00,120.00 392.00,120.00 L380.00,120.00 L380.00,100.00 Z" fill="#111111"/>
  <path d="M208.00,120.00 L220.00,120.00 L220.00,140.00 L208.00,140.00 Q200.00,140.00 200.00,132.00 L200.00,128.00 Q200.00,120.00 208.00,120.00 Z" fill="#111111"/>
  <path d="M220.00,120.00 L232.00,120.00 Q240.00,120.00 240.00,128.00 L240.00,140.00 L220.00,140.00 L220.00,120.00 Z" fill="#111111"/>
  <path d="M268.00,120.00 L272.00,120.00 Q280.00,120.00 280.00,128.00 L280.00,132.00 Q280.00,140.00 272.00,140.00 L268.00,140.00 Q260.00,140.00 260.00,132.00 L260.00,128.00 Q260.00,120.00 268.00,120.00 Z" fill="#111111"/>
  <path d="M300.00,120.00 L320.00,120.00 L320.00,140.00 L300.00,140.00 L300.00,120.00 Z" fill="#111111"/>
  <path d="M340.00,120.00 L360.00,120.00 L360.00,132.00 Q360.00,140.00 352.00,140.00 L348.00,140.00 Q340.00,140.00 340.00,132.00 L340.00,120.00 Z" fill="#111111"/>
  <path d="M428.00,120.00 L432.00,120.00 Q440.00,120.00 440.00,128.00 L440.00,140.00 L420.00,140.00 L420.00,128.00 Q420.00,120.00 428.00,120.00 Z" fill="#111111"/>
  <path d="M220.00,140.00 L240.00,140.00 L240.00,152.00 Q240.00,160.00 232.00,160.00 L228.00,160.00 Q220.00,160.00 220.00,152.00 L220.00,140.00 Z" fill="#111111"/>
  <path d="M300.00,140.00 L320.00,140.00 L320.00,152.00 Q320.00,160.00 312.00,160.00 L308.00,160.00 Q300.00,160.00 300.00,152.00 L300.00,140.00 Z" fill="#111111"/>
  <path d="M368.00,140.00 L380.00,140.00 L380.00,160.00 L360.00,160.00 L360.00,148.00 Q360.00,140.00 368.00,140.00 Z" fill="#111111"/>
  <path d="M380.00,140.00 L400.00,140.00 L400.00,160.00 L380.00,160.00 L380.00,140.00 Z" fill="#111111"/>
  <path d="M400.00,140.00 L420.00,140.00 L420.00,160.00 L400.00,160.00 L400.00,140.00 Z" fill="#111111"/>
  <path d="M420.00,140.00 L440.00,140.00 L440.00,152.00 Q440.00,160.00 432.00,160.00 L420.00,160.00 L420.00,140.00 Z" fill="#111111"/>
  <path d="M208.00,160.00 L212.00,160.00 Q220.00,160.00 220.00,168.00 L220.00,180.00 L200.00,180.00 L200.00,168.00 Q200.00,160.00 208.00,160.00 Z" fill="#111111"/>
  <path d="M248.00,160.00 L252.00,160.00 Q260.00,160.00 260.00,168.00 L260.00,180.00 L240.00,180.00 L240.00,168.00 Q240.00,160.00 248.00,160.00 Z" fill="#111111"/>
  <path d="M288.00,160.00 L292.00,160.00 Q300.00,160.00 300.00,168.00 L300.00,172.00 Q300.00,180.00 292.00,180.00 L288.00,180.00 Q280.00,180.00 280.00,172.00 L280.00,168.00 Q280.00,160.00 288.00,160.00 Z" fill="#111111"/>
  <path d="M328.00,160.00 L332.00,160.00 Q340.00,160.00 340.00,168.00 L340.00,172.00 Q340.00,180.00 332.00,180.00 L328.00,180.00 Q320.00,180.00 320.00,172.00 L320.00,168.00 Q320.00,160.00 328.00,160.00 Z" fill="#111111"/>
  <path d="M360.00,160.00 L380.00,160.00 L380.00,180.00 L360.00,180.00 L360.00,160.00 Z" fill="#111111"/>
  <path d="M400.00,160.00 L420.00,160.00 L420.00,172.00 Q420.00,180.00 412.00,180.00 L408.00,180.00 Q400.00,180.00 400.00,172.00 L400.00,160.00 Z" fill="#111111"/>
  <path d="M448.00,160.00 L452.00,160.00 Q460.00,160.00 460.00,168.00 L460.00,172.00 Q460.00,180.00 452.00,180.00 L448.00,180.00 Q440.00,180.00 440.00,172.00 L440.00,168.00 Q440.00,160.00 448.00,160.00 Z" fill="#111111"/>
  <path d="M200.00,180.00 L220.00,180.00 L220.00,200.00 L208.00,200.00 Q200.00,200.00 200.00,192.00 L200.00,180.00 Z" fill="#111111"/>
  <path d="M220.00,180.00 L240.00,180.00 L240.00,200.00 L220.00,200.00 L220.00,180.00 Z" fill="#111111"/>
  <path d="M240.00,180.00 L260.00,180.00 L260.00,200.00 L240.00,200.00 L240.00,180.00 Z" fill="#111111"/>
  <path d="M260.00,180.00 L272.00,180.00 Q280.00,180.00 280.00,188.00 L280.00,192.00 Q280.00,200.00 272.00,200.00 L260.00,200.00 L260.00,180.00 Z" fill="#111111"/>
  <path d="M308.00,180.00 L312.00,180.00 Q320.00,180.00 320.00,188.00 L320.00,192.00 Q320.00,200.00 312.00,200.00 L308.00,200.00 Q300.00,200.00 300.00,192.00 L300.00,188.00 Q300.00,180.00 308.00,180.00 Z" fill="#111111"/>
  <path d="M360.00,180.00 L380.00,180.00 L380.00,192.00 Q380.00,200.00 372.00,200.00 L368.00,200.00 Q360.00,200.00 360.00,192.00 L360.00,180.00 Z" fill="#111111"/>
  <path d="M88.00,200.00 L100.00,200.00 L100.00,220.00 L88.00,220.00 Q80.00,220.00 80.00,212.00 L80.00,208.00 Q80.00,200.00 88.00,200.00 Z" fill="#111111"/>
  <path d="M100.00,200.00 L112.00,200.00 Q120.00,200.00 120.00,208.00 L120.00,220.00 L100.00,220.00 L100.00,200.00 Z" fill="#111111"/>
  <path d="M168.00,200.00 L180.00,200.00 L180.00,220.00 L168.00,220.00 Q160.00,220.00 160.00,212.00 L160.00,208.00 Q160.00,200.00 168.00,200.00 Z" fill="#111111"/>
  <path d="M180.00,200.00 L192.00,200.00 Q200.00,200.00 200.00,208.00 L200.00,220.00 L180.00,220.00 L180.00,200.00 Z" fill="#111111"/>
  <path d="M468.00,200.00 L480.00,200.00 L480.00,220.00 L460.00,220.00 L460.00,208.00 Q460.00,200.00 468.00,200.00 Z" fill="#111111"/>
  <path d="M480.00,200.00 L492.00,200.00 Q500.00,200.00 500.00,208.00 L500.00,212.00 Q500.00,220.00 492.00,220.00 L480.00,220.00 L480.00,200.00 Z" fill="#111111"/>
  <path d="M528.00,200.00 L532.00,200.00 Q540.00,200.00 540.00,208.00 L540.00,220.00 L520.00,220.00 L520.00,208.00 Q520.00,200.00 528.00,200.00 Z" fill="#111111"/>
  <path d="M68.00,220.00 L72.00,220.00 Q80.00,220.00 80.00,228.00 L80.00,240.00 L60.00,240.00 L60.00,228.00 Q60.00,220.00 68.00,220.00 Z" fill="#111111"/>
  <path d="M100.00,220.00 L120.00,220.00 L120.00,240.00 L100.00,240.00 L100.00,220.00 Z" fill="#111111"/>
  <path d="M148.00,220.00 L152.00,220.00 Q160.00,220.00 160.00,228.00 L160.00,240.00 L140.00,240.00 L140.00,228.00 Q140.00,220.00 148.00,220.00 Z" fill="#111111"/>
  <path d="M180.00,220.00 L200.00,220.00 L200.00,232.00 Q200.00,240.00 192.00,240.00 L188.00,240.00 Q180.00,240.00 180.00,232.00 L180.00,220.00 Z" fill="#111111"/>
  <path d="M460.00,220.00 L480.00,220.00 L480.00,232.00 Q480.00,240.00 472.00,240.00 L468.00,240.00 Q460.00,240.00 460.00,232.00 L460.00,220.00 Z" fill="#111111"/>
  <path d="M520.00,220.00 L540.00,220.00 L540.00,240.00 L520.00,240.00 L520.00,220.00 Z" fill="#111111"/>
  <path d="M540.00,220.00 L552.00,220.00 Q560.00,220.00 560.00,228.00 L560.00,240.00 L540.00,240.00 L540.00,220.00 Z" fill="#111111"/>
  <path d="M588.00,220.00 L600.00,220.00 L600.00,240.00 L580.00,240.00 L580.00,228.00 Q580.00,220.00 588.00,220.00 Z" fill="#111111"/>
  <path d="M600.00,220.00 L612.00,220.00 Q620.00,220.00 620.00,228.00 L620.00,232.00 Q620.00,240.00 612.00,240.00 L600.00,240.00 L600.00,220.00 Z" fill="#111111"/>
  <path d="M60.00,240.00 L80.00,240.00 L80.00,260.00 L60.00,260.00 L60.00,240.00 Z" fill="#111111"/>
  <path d="M100.00,240.00 L120.00,240.00 L120.00,260.00 L108.00,260.00 Q100.00,260.00 100.00,252.00 L100.00,240.00 Z" fill="#111111"/>
  <path d="M120.00,240.00 L140.00,240.00 L140.00,260.00 L120.00,260.00 L120.00,240.00 Z" fill="#111111"/>
  <path d="M140.00,240.00 L160.00,240.00 L160.00,260.00 L140.00,260.00 L140.00,240.00 Z" fill="#111111"/>
  <path d="M160.00,240.00 L172.00,240.00 Q180.00,240.00 180.00,248.00 L180.00,252.00 Q180.00,260.00 172.00,260.00 L160.00,260.00 L160.00,240.00 Z" fill="#111111"/>
  <path d="M488.00,240.00 L500.00,240.00 L500.00,260.00 L480.00,260.00 L480.00,248.00 Q480.00,240.00 488.00,240.00 Z" fill="#111111"/>
  <path d="M500.00,240.00 L520.00,240.00 L520.00,260.00 L500.00,260.00 L500.00,240.00 Z" fill="#111111"/>
  <path d="M520.00,240.00 L540.00,240.00 L540.00,260.00 L520.00,260.00 L520.00,240.00 Z" fill="#111111"/>
  <path d="M540.00,240.00 L560.00,240.00 L560.00,260.00 L540.00,260.00 L540.00,240.00 Z" fill="#111111"/>
  <path d="M560.00,240.00 L580.00,240.00 L580.00,260.00 L560.00,260.00 L560.00,240.00 Z" fill="#111111"/>
  <path d="M580.00,240.00 L600.00,240.00 L600.00,252.00 Q600.00,260.00 592.00,260.00 L580.00,260.00 L580.00,240.00 Z" fill="#111111"/>
  <path d="M48.00,260.00 L60.00,260.00 L60.00,280.00 L40.00,280.00 L40.00,268.00 Q40.00,260.00 48.00,260.00 Z" fill="#111111"/>
  <path d="M60.00,260.00 L80.00,260.00 L80.00,280.00 L60.00,280.00 L60.00,260.00 Z" fill="#111111"/>
  <path d="M80.00,260.00 L92.00,260.00 Q100.00,260.00 100.00,268.00 L100.00,272.00 Q100.00,280.00 92.00,280.00 L80.00,280.00 L80.00,260.00 Z" fill="#111111"/>
  <path d="M140.00,260.00 L160.00,260.00 L160.00,280.00 L140.00,280.00 L140.00,260.00 Z" fill="#111111"/>
  <path d="M188.00,260.00 L192.00,260.00 Q200.00,260.00 200.00,268.00 L200.00,272.00 Q200.00,280.00 192.00,280.00 L188.00,280.00 Q180.00,280.00 180.00,272.00 L180.00,268.00 Q180.00,260.00 188.00,260.00 Z" fill="#111111"/>
  <path d="M468.00,260.00 L480.00,260.00 L480.00,280.00 L468.00,280.00 Q460.00,280.00 460.00,272.00 L460.00,268.00 Q460.00,260.00 468.00,260.00 Z" fill="#111111"/>
  <path d="M480.00,260.00 L500.00,260.00 L500.00,272.00 Q500.00,280.00 492.00,280.00 L480.00,280.00 L480.00,260.00 Z" fill="#111111"/>
  <path d="M608.00,260.00 L612.00,260.00 Q620.00,260.00 620.00,268.00 L620.00,272.00 Q620.00,280.00 612.00,280.00 L608.00,280.00 Q600.00,280.00 600.00,272.00 L600.00,268.00 Q600.00,260.00 608.00,260.00 Z" fill="#111111"/>
  <path d="M40.00,280.00 L60.00,280.00 L60.00,300.00 L40.00,300.00 L40.00,280.00 Z" fill="#111111"/>
  <path d="M60.00,280.00 L80.00,280.00 L80.00,292.00 Q80.00,300.00 72.00,300.00 L60.00,300.00 L60.00,280.00 Z" fill="#111111"/>
  <path d="M108.00,280.00 L112.00,280.00 Q120.00,280.00 120.00,288.00 L120.00,292.00 Q120.00,300.00 112.00,300.00 L108.00,300.00 Q100.00,300.00 100.00,292.00 L100.00,288.00 Q100.00,280.00 108.00,280.00 Z" fill="#111111"/>
  <path d="M140.00,280.00 L160.00,280.00 L160.00,300.00 L140.00,300.00 L140.00,280.00 Z" fill="#111111"/>
  <path d="M160.00,280.00 L172.00,280.00 Q180.00,280.00 180.00,288.00 L180.00,292.00 Q180.00,300.00 172.00,300.00 L160.00,300.00 L160.00,280.00 Z" fill="#111111"/>
  <path d="M548.00,280.00 L560.00,280.00 L560.00,300.00 L548.00,300.00 Q540.00,300.00 540.00,292.00 L540.00,288.00 Q540.00,280.00 548.00,280.00 Z" fill="#111111"/>
  <path d="M560.00,280.00 L572.00,280.00 Q580.00,280.00 580.00,288.00 L580.00,292.00 Q580.00,300.00 572.00,300.00 L560.00,300.00 L560.00,280.00 Z" fill="#111111"/>
  <path d="M40.00,300.00 L60.00,300.00 L60.00,320.00 L40.00,320.00 L40.00,300.00 Z" fill="#111111"/>
  <path d="M88.00,300.00 L92.00,300.00 Q100.00,300.00 100.00,308.00 L100.00,312.00 Q100.00,320.00 92.00,320.00 L88.00,320.00 Q80.00,320.00 80.00,312.00 L80.00,308.00 Q80.00,300.00 88.00,300.00 Z" fill="#111111"/>
  <path d="M128.00,300.00 L140.00,300.00 L140.00,320.00 L128.00,320.00 Q120.00,320.00 120.00,312.00 L120.00,308.00 Q120.00,300.00 128.00,300.00 Z" fill="#111111"/>
  <path d="M140.00,300.00 L160.00,300.00 L160.00,312.00 Q160.00,320.00 152.00,320.00 L140.00,320.00 L140.00,300.00 Z" fill="#111111"/>
  <path d="M468.00,300.00 L480.00,300.00 L480.00,320.00 L468.00,320.00 Q460.00,320.00 460.00,312.00 L460.00,308.00 Q460.00,300.00 468.00,300.00 Z" fill="#111111"/>
  <path d="M480.00,300.00 L492.00,300.00 Q500.00,300.00 500.00,308.00 L500.00,320.00 L480.00,320.00 L480.00,300.00 Z" fill="#111111"/>
  <path d="M608.00,300.00 L612.00,300.00 Q620.00,300.00 620.00,308.00 L620.00,320.00 L600.00,320.00 L600.00,308.00 Q600.00,300.00 608.00,300.00 Z" fill="#111111"/>
  <path d="M40.00,320.00 L60.00,320.00 L60.00,340.00 L40.00,340.00 L40.00,320.00 Z" fill="#111111"/>
  <path d="M108.00,320.00 L112.00,320.00 Q120.00,320.00 120.00,328.00 L120.00,340.00 L100.00,340.00 L100.00,328.00 Q100.00,320.00 108.00,320.00 Z" fill="#111111"/>
  <path d="M168.00,320.00 L180.00,320.00 L180.00,340.00 L168.00,340.00 Q160.00,340.00 160.00,332.00 L160.00,328.00 Q160.00,320.00 168.00,320.00 Z" fill="#111111"/>
  <path d="M180.00,320.00 L192.00,320.00 Q200.00,320.00 200.00,328.00 L200.00,340.00 L180.00,340.00 L180.00,320.00 Z" fill="#111111"/>
  <path d="M480.00,320.00 L500.00,320.00 L500.00,332.00 Q500.00,340.00 492.00,340.00 L488.00,340.00 Q480.00,340.00 480.00,332.00 L480.00,320.00 Z" fill="#111111"/>
  <path d="M548.00,320.00 L552.00,320.00 Q560.00,320.00 560.00,328.00 L560.00,340.00 L540.00,340.00 L540.00,328.00 Q540.00,320.00 548.00,320.00 Z" fill="#111111"/>
  <path d="M588.00,320.00 L600.00,320.00 L600.00,340.00 L588.00,340.00 Q580.00,340.00 580.00,332.00 L580.00,328.00 Q580.00,320.00 588.00,320.00 Z" fill="#111111"/>
  <path d="M600.00,320.00 L620.00,320.00 L620.00,340.00 L600.00,340.00 L600.00,320.00 Z" fill="#111111"/>
  <path d="M40.00,340.00 L60.00,340.00 L60.00,352.00 Q60.00,360.00 52.00,360.00 L48.00,360.00 Q40.00,360.00 40.00,352.00 L40.00,340.00 Z" fill="#111111"/>
  <path d="M88.00,340.00 L100.00,340.00 L100.00,360.00 L88.00,360.00 Q80.00,360.00 80.00,352.00 L80.00,348.00 Q80.00,340.00 88.00,340.00 Z" fill="#111111"/>
  <path d="M100.00,340.00 L120.00,340.00 L120.00,352.00 Q120.00,360.00 112.00,360.00 L100.00,360.00 L100.00,340.00 Z" fill="#111111"/>
  <path d="M148.00,340.00 L152.00,340.00 Q160.00,340.00 160.00,348.00 L160.00,352.00 Q160.00,360.00 152.00,360.00 L148.00,360.00 Q140.00,360.00 140.00,352.00 L140.00,348.00 Q140.00,340.00 148.00,340.00 Z" fill="#111111"/>
  <path d="M180.00,340.00 L200.00,340.00 L200.00,360.00 L180.00,360.00 L180.00,340.00 Z" fill="#111111"/>
  <path d="M468.00,340.00 L472.00,340.00 Q480.00,340.00 480.00,348.00 L480.00,352.00 Q480.00,360.00 472.00,360.00 L468.00,360.00 Q460.00,360.00 460.00,352.00 L460.00,348.00 Q460.00,340.00 468.00,340.00 Z" fill="#111111"/>
  <path d="M528.00,340.00 L540.00,340.00 L540.00,360.00 L520.00,360.00 L520.00,348.00 Q520.00,340.00 528.00,340.00 Z" fill="#111111"/>
  <path d="M540.00,340.00 L560.00,340.00 L560.00,352.00 Q560.00,360.00 552.00,360.00 L540.00,360.00 L540.00,340.00 Z" fill="#111111"/>
  <path d="M600.00,340.00 L620.00,340.00 L620.00,360.00 L600.00,360.00 L600.00,340.00 Z" fill="#111111"/>
  <path d="M128.00,360.00 L132.00,360.00 Q140.00,360.00 140.00,368.00 L140.00,372.00 Q140.00,380.00 132.00,380.00 L128.00,380.00 Q120.00,380.00 120.00,372.00 L120.00,368.00 Q120.00,360.00 128.00,360.00 Z" fill="#111111"/>
  <path d="M168.00,360.00 L180.00,360.00 L180.00,380.00 L168.00,380.00 Q160.00,380.00 160.00,372.00 L160.00,368.00 Q160.00,360.00 168.00,360.00 Z" fill="#111111"/>
  <path d="M180.00,360.00 L200.00,360.00 L200.00,380.00 L180.00,380.00 L180.00,360.00 Z" fill="#111111"/>
  <path d="M520.00,360.00 L540.00,360.00 L540.00,372.00 Q540.00,380.00 532.00,380.00 L528.00,380.00 Q520.00,380.00 520.00,372.00 L520.00,360.00 Z" fill="#111111"/>
  <path d="M600.00,360.00 L620.00,360.00 L620.00,372.00 Q620.00,380.00 612.00,380.00 L608.00,380.00 Q600.00,380.00 600.00,372.00 L600.00,360.00 Z" fill="#111111"/>
  <path d="M88.00,380.00 L92.00,380.00 Q100.00,380.00 100.00,388.00 L100.00,400.00 L80.00,400.00 L80.00,388.00 Q80.00,380.00 88.00,380.00 Z" fill="#111111"/>
  <path d="M148.00,380.00 L152.00,380.00 Q160.00,380.00 160.00,388.00 L160.00,400.00 L140.00,400.00 L140.00,388.00 Q140.00,380.00 148.00,380.00 Z" fill="#111111"/>
  <path d="M180.00,380.00 L200.00,380.00 L200.00,400.00 L180.00,400.00 L180.00,380.00 Z" fill="#111111"/>
  <path d="M488.00,380.00 L492.00,380.00 Q500.00,380.00 500.00,388.00 L500.00,392.00 Q500.00,400.00 492.00,400.00 L488.00,400.00 Q480.00,400.00 480.00,392.00 L480.00,388.00 Q480.00,380.00 488.00,380.00 Z" fill="#111111"/>
  <path d="M548.00,380.00 L552.00,380.00 Q560.00,380.00 560.00,388.00 L560.00,392.00 Q560.00,400.00 552.00,400.00 L548.00,400.00 Q540.00,400.00 540.00,392.00 L540.00,388.00 Q540.00,380.00 548.00,380.00 Z" fill="#111111"/>
  <path d="M588.00,380.00 L592.00,380.00 Q600.00,380.00 600.00,388.00 L600.00,392.00 Q600.00,400.00 592.00,400.00 L588.00,400.00 Q580.00,400.00 580.00,392.00 L580.00,388.00 Q580.00,380.00 588.00,380.00 Z" fill="#111111"/>
  <path d="M48.00,400.00 L52.00,400.00 Q60.00,400.00 60.00,408.00 L60.00,412.00 Q60.00,420.00 52.00,420.00 L48.00,420.00 Q40.00,420.00 40.00,412.00 L40.00,408.00 Q40.00,400.00 48.00,400.00 Z" fill="#111111"/>
  <path d="M80.00,400.00 L100.00,400.00 L100.00,420.00 L80.00,420.00 L80.00,400.00 Z" fill="#111111"/>
  <path d="M140.00,400.00 L160.00,400.00 L160.00,420.00 L140.00,420.00 L140.00,400.00 Z" fill="#111111"/>
  <path d="M160.00,400.00 L180.00,400.00 L180.00,420.00 L160.00,420.00 L160.00,400.00 Z" fill="#111111"/>
  <path d="M180.00,400.00 L200.00,400.00 L200.00,412.00 Q200.00,420.00 192.00,420.00 L180.00,420.00 L180.00,400.00 Z" fill="#111111"/>
  <path d="M468.00,400.00 L472.00,400.00 Q480.00,400.00 480.00,408.00 L480.00,420.00 L460.00,420.00 L460.00,408.00 Q460.00,400.00 468.00,400.00 Z" fill="#111111"/>
  <path d="M508.00,400.00 L520.00,400.00 L520.00,420.00 L500.00,420.00 L500.00,408.00 Q500.00,400.00 508.00,400.00 Z" fill="#111111"/>
  <path d="M520.00,400.00 L532.00,400.00 Q540.00,400.00 540.00,408.00 L540.00,412.00 Q540.00,420.00 532.00,420.00 L520.00,420.00 L520.00,400.00 Z" fill="#111111"/>
  <path d="M568.00,400.00 L572.00,400.00 Q580.00,400.00 580.00,408.00 L580.00,420.00 L560.00,420.00 L560.00,408.00 Q560.00,400.00 568.00,400.00 Z" fill="#111111"/>
  <path d="M80.00,420.00 L100.00,420.00 L100.00,440.00 L80.00,440.00 L80.00,420.00 Z" fill="#111111"/>
  <path d="M128.00,420.00 L140.00,420.00 L140.00,440.00 L128.00,440.00 Q120.00,440.00 120.00,432.00 L120.00,428.00 Q120.00,420.00 128.00,420.00 Z" fill="#111111"/>
  <path d="M140.00,420.00 L160.00,420.00 L160.00,440.00 L140.00,440.00 L140.00,420.00 Z" fill="#111111"/>
  <path d="M460.00,420.00 L480.00,420.00 L480.00,440.00 L460.00,440.00 L460.00,420.00 Z" fill="#111111"/>
  <path d="M480.00,420.00 L500.00,420.00 L500.00,440.00 L480.00,440.00 L480.00,420.00 Z" fill="#111111"/>
  <path d="M500.00,420.00 L520.00,420.00 L520.00,440.00 L500.00,440.00 L500.00,420.00 Z" fill="#111111"/>
  <path d="M560.00,420.00 L580.00,420.00 L580.00,440.00 L560.00,440.00 L560.00,420.00 Z" fill="#111111"/>
  <path d="M608.00,420.00 L612.00,420.00 Q620.00,420.00 620.00,428.00 L620.00,440.00 L600.00,440.00 L600.00,428.00 Q600.00,420.00 608.00,420.00 Z" fill="#111111"/>
  <path d="M68.00,440.00 L80.00,440.00 L80.00,460.00 L68.00,460.00 Q60.00,460.00 60.00,452.00 L60.00,448.00 Q60.00,440.00 68.00,440.00 Z" fill="#111111"/>
  <path d="M80.00,440.00 L100.00,440.00 L100.00,460.00 L80.00,460.00 L80.00,440.00 Z" fill="#111111"/>
  <path d="M100.00,440.00 L112.00,440.00 Q120.00,440.00 120.00,448.00 L120.00,452.00 Q120.00,460.00 112.00,460.00 L100.00,460.00 L100.00,440.00 Z" fill="#111111"/>
  <path d="M140.00,440.00 L160.00,440.00 L160.00,460.00 L148.00,460.00 Q140.00,460.00 140.00,452.00 L140.00,440.00 Z" fill="#111111"/>
  <path d="M160.00,440.00 L180.00,440.00 L180.00,460.00 L160.00,460.00 L160.00,440.00 Z" fill="#111111"/>
  <path d="M180.00,440.00 L192.00,440.00 Q200.00,440.00 200.00,448.00 L200.00,452.00 Q200.00,460.00 192.00,460.00 L180.00,460.00 L180.00,440.00 Z" fill="#111111"/>
  <path d="M460.00,440.00 L480.00,440.00 L480.00,460.00 L468.00,460.00 Q460.00,460.00 460.00,452.00 L460.00,440.00 Z" fill="#111111"/>
  <path d="M480.00,440.00 L500.00,440.00 L500.00,460.00 L480.00,460.00 L480.00,440.00 Z" fill="#111111"/>
  <path d="M500.00,440.00 L520.00,440.00 L520.00,460.00 L500.00,460.00 L500.00,440.00 Z" fill="#111111"/>
  <path d="M520.00,440.00 L540.00,440.00 L540.00,460.00 L520.00,460.00 L520.00,440.00 Z" fill="#111111"/>
  <path d="M540.00,440.00 L560.00,440.00 L560.00,460.00 L540.00,460.00 L540.00,440.00 Z" fill="#111111"/>
  <path d="M560.00,440.00 L580.00,440.00 L580.00,460.00 L560.00,460.00 L560.00,440.00 Z" fill="#111111"/>
  <path d="M600.00,440.00 L620.00,440.00 L620.00,460.00 L600.00,460.00 L600.00,440.00 Z" fill="#111111"/>
  <path d="M208.00,460.00 L220.00,460.00 L220.00,480.00 L200.00,480.00 L200.00,468.00 Q200.00,460.00 208.00,460.00 Z" fill="#111111"/>
  <path d="M220.00,460.00 L232.00,460.00 Q240.00,460.00 240.00,468.00 L240.00,480.00 L220.00,480.00 L220.00,460.00 Z" fill="#111111"/>
  <path d="M388.00,460.00 L392.00,460.00 Q400.00,460.00 400.00,468.00 L400.00,472.00 Q400.00,480.00 392.00,480.00 L388.00,480.00 Q380.00,480.00 380.00,472.00 L380.00,468.00 Q380.00,460.00 388.00,460.00 Z" fill="#111111"/>
  <path d="M428.00,460.00 L440.00,460.00 L440.00,480.00 L420.00,480.00 L420.00,468.00 Q420.00,460.00 428.00,460.00 Z" fill="#111111"/>
  <path d="M440.00,460.00 L452.00,460.00 Q460.00,460.00 460.00,468.00 L460.00,480.00 L440.00,480.00 L440.00,460.00 Z" fill="#111111"/>
  <path d="M520.00,460.00 L540.00,460.00 L540.00,480.00 L520.00,480.00 L520.00,460.00 Z" fill="#111111"/>
  <path d="M560.00,460.00 L580.00,460.00 L580.00,480.00 L560.00,480.00 L560.00,460.00 Z" fill="#111111"/>
  <path d="M580.00,460.00 L600.00,460.00 L600.00,480.00 L580.00,480.00 L580.00,460.00 Z" fill="#111111"/>
  <path d="M600.00,460.00 L620.00,460.00 L620.00,472.00 Q620.00,480.00 612.00,480.00 L600.00,480.00 L600.00,460.00 Z" fill="#111111"/>
  <path d="M200.00,480.00 L220.00,480.00 L220.00,500.00 L208.00,500.00 Q200.00,500.00 200.00,492.00 L200.00,480.00 Z" fill="#111111"/>
  <path d="M220.00,480.00 L240.00,480.00 L240.00,500.00 L220.00,500.00 L220.00,480.00 Z" fill="#111111"/>
  <path d="M308.00,480.00 L320.00,480.00 L320.00,500.00 L300.00,500.00 L300.00,488.00 Q300.00,480.00 308.00,480.00 Z" fill="#111111"/>
  <path d="M320.00,480.00 L332.00,480.00 Q340.00,480.00 340.00,488.00 L340.00,492.00 Q340.00,500.00 332.00,500.00 L320.00,500.00 L320.00,480.00 Z" fill="#111111"/>
  <path d="M408.00,480.00 L420.00,480.00 L420.00,500.00 L408.00,500.00 Q400.00,500.00 400.00,492.00 L400.00,488.00 Q400.00,480.00 408.00,480.00 Z" fill="#111111"/>
  <path d="M420.00,480.00 L440.00,480.00 L440.00,500.00 L420.00,500.00 L420.00,480.00 Z" fill="#111111"/>
  <path d="M440.00,480.00 L460.00,480.00 L460.00,500.00 L440.00,500.00 L440.00,480.00 Z" fill="#111111"/>
  <path d="M488.00,480.00 L492.00,480.00 Q500.00,480.00 500.00,488.00 L500.00,492.00 Q500.00,500.00 492.00,500.00 L488.00,500.00 Q480.00,500.00 480.00,492.00 L480.00,488.00 Q480.00,480.00 488.00,480.00 Z" fill="#111111"/>
  <path d="M520.00,480.00 L540.00,480.00 L540.00,500.00 L520.00,500.00 L520.00,480.00 Z" fill="#111111"/>
  <path d="M540.00,480.00 L560.00,480.00 L560.00,500.00 L540.00,500.00 L540.00,480.00 Z" fill="#111111"/>
  <path d="M560.00,480.00 L580.00,480.00 L580.00,500.00 L560.00,500.00 L560.00,480.00 Z" fill="#111111"/>
  <path d="M580.00,480.00 L600.00,480.00 L600.00,500.00 L580.00,500.00 L580.00,480.00 Z" fill="#111111"/>
  <path d="M220.00,500.00 L240.00,500.00 L240.00,520.00 L220.00,520.00 L220.00,500.00 Z" fill="#111111"/>
  <path d="M300.00,500.00 L320.00,500.00 L320.00,512.00 Q320.00,520.00 312.00,520.00 L308.00,520.00 Q300.00,520.00 300.00,512.00 L300.00,500.00 Z" fill="#111111"/>
  <path d="M440.00,500.00 L460.00,500.00 L460.00,520.00 L440.00,520.00 L440.00,500.00 Z" fill="#111111"/>
  <path d="M520.00,500.00 L540.00,500.00 L540.00,520.00 L520.00,520.00 L520.00,500.00 Z" fill="#111111"/>
  <path d="M580.00,500.00 L600.00,500.00 L600.00,520.00 L580.00,520.00 L580.00,500.00 Z" fill="#111111"/>
  <path d="M220.00,520.00 L240.00,520.00 L240.00,540.00 L228.00,540.00 Q220.00,540.00 220.00,532.00 L220.00,520.00 Z" fill="#111111"/>
  <path d="M240.00,520.00 L260.00,520.00 L260.00,540.00 L240.00,540.00 L240.00,520.00 Z" fill="#111111"/>
  <path d="M260.00,520.00 L280.00,520.00 L280.00,540.00 L260.00,540.00 L260.00,520.00 Z" fill="#111111"/>
  <path d="M280.00,520.00 L292.00,520.00 Q300.00,520.00 300.00,528.00 L300.00,540.00 L280.00,540.00 L280.00,520.00 Z" fill="#111111"/>
  <path d="M328.00,520.00 L332.00,520.00 Q340.00,520.00 340.00,528.00 L340.00,540.00 L320.00,540.00 L320.00,528.00 Q320.00,520.00 328.00,520.00 Z" fill="#111111"/>
  <path d="M388.00,520.00 L400.00,520.00 L400.00,540.00 L380.00,540.00 L380.00,528.00 Q380.00,520.00 388.00,520.00 Z" fill="#111111"/>
  <path d="M400.00,520.00 L412.00,520.00 Q420.00,520.00 420.00,528.00 L420.00,540.00 L400.00,540.00 L400.00,520.00 Z" fill="#111111"/>
  <path d="M440.00,520.00 L460.00,520.00 L460.00,540.00 L440.00,540.00 L440.00,520.00 Z" fill="#111111"/>
  <path d="M460.00,520.00 L480.00,520.00 L480.00,540.00 L460.00,540.00 L460.00,520.00 Z" fill="#111111"/>
  <path d="M480.00,520.00 L500.00,520.00 L500.00,540.00 L480.00,540.00 L480.00,520.00 Z" fill="#111111"/>
  <path d="M500.00,520.00 L520.00,520.00 L520.00,540.00 L500.00,540.00 L500.00,520.00 Z" fill="#111111"/>
  <path d="M520.00,520.00 L540.00,520.00 L540.00,540.00 L520.00,540.00 L520.00,520.00 Z" fill="#111111"/>
  <path d="M540.00,520.00 L560.00,520.00 L560.00,540.00 L540.00,540.00 L540.00,520.00 Z" fill="#111111"/>
  <path d="M560.00,520.00 L580.00,520.00 L580.00,540.00 L560.00,540.00 L560.00,520.00 Z" fill="#111111"/>
  <path d="M580.00,520.00 L600.00,520.00 L600.00,540.00 L580.00,540.00 L580.00,520.00 Z" fill="#111111"/>
  <path d="M208.00,540.00 L212.00,540.00 Q220.00,540.00 220.00,548.00 L220.00,560.00 L200.00,560.00 L200.00,548.00 Q200.00,540.00 208.00,540.00 Z" fill="#111111"/>
  <path d="M240.00,540.00 L260.00,540.00 L260.00,560.00 L240.00,560.00 L240.00,540.00 Z" fill="#111111"/>
  <path d="M280.00,540.00 L300.00,540.00 L300.00,560.00 L288.00,560.00 Q280.00,560.00 280.00,552.00 L280.00,540.00 Z" fill="#111111"/>
  <path d="M300.00,540.00 L320.00,540.00 L320.00,560.00 L300.00,560.00 L300.00,540.00 Z" fill="#111111"/>
  <path d="M320.00,540.00 L340.00,540.00 L340.00,552.00 Q340.00,560.00 332.00,560.00 L320.00,560.00 L320.00,540.00 Z" fill="#111111"/>
  <path d="M368.00,540.00 L380.00,540.00 L380.00,560.00 L368.00,560.00 Q360.00,560.00 360.00,552.00 L360.00,548.00 Q360.00,540.00 368.00,540.00 Z" fill="#111111"/>
  <path d="M380.00,540.00 L400.00,540.00 L400.00,560.00 L380.00,560.00 L380.00,540.00 Z" fill="#111111"/>
  <path d="M400.00,540.00 L420.00,540.00 L420.00,552.00 Q420.00,560.00 412.00,560.00 L400.00,560.00 L400.00,540.00 Z" fill="#111111"/>
  <path d="M440.00,540.00 L460.00,540.00 L460.00,552.00 Q460.00,560.00 452.00,560.00 L448.00,560.00 Q440.00,560.00 440.00,552.00 L440.00,540.00 Z" fill="#111111"/>
  <path d="M500.00,540.00 L520.00,540.00 L520.00,560.00 L508.00,560.00 Q500.00,560.00 500.00,552.00 L500.00,540.00 Z" fill="#111111"/>
  <path d="M520.00,540.00 L540.00,540.00 L540.00,552.00 Q540.00,560.00 532.00,560.00 L520.00,560.00 L520.00,540.00 Z" fill="#111111"/>
  <path d="M560.00,540.00 L580.00,540.00 L580.00,560.00 L568.00,560.00 Q560.00,560.00 560.00,552.00 L560.00,540.00 Z" fill="#111111"/>
  <path d="M580.00,540.00 L600.00,540.00 L600.00,552.00 Q600.00,560.00 592.00,560.00 L580.00,560.00 L580.00,540.00 Z" fill="#111111"/>
  <path d="M200.00,560.00 L220.00,560.00 L220.00,580.00 L208.00,580.00 Q200.00,580.00 200.00,572.00 L200.00,560.00 Z" fill="#111111"/>
  <path d="M220.00,560.00 L240.00,560.00 L240.00,580.00 L220.00,580.00 L220.00,560.00 Z" fill="#111111"/>
  <path d="M240.00,560.00 L260.00,560.00 L260.00,580.00 L240.00,580.00 L240.00,560.00 Z" fill="#111111"/>
  <path d="M428.00,560.00 L432.00,560.00 Q440.00,560.00 440.00,568.00 L440.00,572.00 Q440.00,580.00 432.00,580.00 L428.00,580.00 Q420.00,580.00 420.00,572.00 L420.00,568.00 Q420.00,560.00 428.00,560.00 Z" fill="#111111"/>
  <path d="M548.00,560.00 L552.00,560.00 Q560.00,560.00 560.00,568.00 L560.00,572.00 Q560.00,580.00 552.00,580.00 L548.00,580.00 Q540.00,580.00 540.00,572.00 L540.00,568.00 Q540.00,560.00 548.00,560.00 Z" fill="#111111"/>
  <path d="M608.00,560.00 L612.00,560.00 Q620.00,560.00 620.00,568.00 L620.00,572.00 Q620.00,580.00 612.00,580.00 L608.00,580.00 Q600.00,580.00 600.00,572.00 L600.00,568.00 Q600.00,560.00 608.00,560.00 Z" fill="#111111"/>
  <path d="M240.00,580.00 L260.00,580.00 L260.00,592.00 Q260.00,600.00 252.00,600.00 L248.00,600.00 Q240.00,600.00 240.00,592.00 L240.00,580.00 Z" fill="#111111"/>
  <path d="M288.00,580.00 L300.00,580.00 L300.00,600.00 L280.00,600.00 L280.00,588.00 Q280.00,580.00 288.00,580.00 Z" fill="#111111"/>
  <path d="M300.00,580.00 L312.00,580.00 Q320.00,580.00 320.00,588.00 L320.00,600.00 L300.00,600.00 L300.00,580.00 Z" fill="#111111"/>
  <path d="M348.00,580.00 L360.00,580.00 L360.00,600.00 L340.00,600.00 L340.00,588.00 Q340.00,580.00 348.00,580.00 Z" fill="#111111"/>
  <path d="M360.00,580.00 L372.00,580.00 Q380.00,580.00 380.00,588.00 L380.00,600.00 L360.00,600.00 L360.00,580.00 Z" fill="#111111"/>
  <path d="M488.00,580.00 L500.00,580.00 L500.00,600.00 L480.00,600.00 L480.00,588.00 Q480.00,580.00 488.00,580.00 Z" fill="#111111"/>
  <path d="M500.00,580.00 L512.00,580.00 Q520.00,580.00 520.00,588.00 L520.00,600.00 L500.00,600.00 L500.00,580.00 Z" fill="#111111"/>
  <path d="M588.00,580.00 L592.00,580.00 Q600.00,580.00 600.00,588.00 L600.00,600.00 L580.00,600.00 L580.00,588.00 Q580.00,580.00 588.00,580.00 Z" fill="#111111"/>
  <path d="M280.00,600.00 L300.00,600.00 L300.00,620.00 L288.00,620.00 Q280.00,620.00 280.00,612.00 L280.00,600.00 Z" fill="#111111"/>
  <path d="M300.00,600.00 L320.00,600.00 L320.00,620.00 L300.00,620.00 L300.00,600.00 Z" fill="#111111"/>
  <path d="M320.00,600.00 L340.00,600.00 L340.00,620.00 L320.00,620.00 L320.00,600.00 Z" fill="#111111"/>
  <path d="M340.00,600.00 L360.00,600.00 L360.00,620.00 L340.00,620.00 L340.00,600.00 Z" fill="#111111"/>
  <path d="M360.00,600.00 L380.00,600.00 L380.00,612.00 Q380.00,620.00 372.00,620.00 L360.00,620.00 L360.00,600.00 Z" fill="#111111"/>
  <path d="M408.00,600.00 L420.00,600.00 L420.00,620.00 L408.00,620.00 Q400.00,620.00 400.00,612.00 L400.00,608.00 Q400.00,600.00 408.00,600.00 Z" fill="#111111"/>
  <path d="M420.00,600.00 L432.00,600.00 Q440.00,600.00 440.00,608.00 L440.00,612.00 Q440.00,620.00 432.00,620.00 L420.00,620.00 L420.00,600.00 Z" fill="#111111"/>
  <path d="M480.00,600.00 L500.00,600.00 L500.00,620.00 L488.00,620.00 Q480.00,620.00 480.00,612.00 L480.00,600.00 Z" fill="#111111"/>
  <path d="M500.00,600.00 L520.00,600.00 L520.00,612.00 Q520.00,620.00 512.00,620.00 L500.00,620.00 L500.00,600.00 Z" fill="#111111"/>
  <path d="M548.00,600.00 L552.00,600.00 Q560.00,600.00 560.00,608.00 L560.00,612.00 Q560.00,620.00 552.00,620.00 L548.00,620.00 Q540.00,620.00 540.00,612.00 L540.00,608.00 Q540.00,600.00 548.00,600.00 Z" fill="#111111"/>
  <path d="M580.00,600.00 L600.00,600.00 L600.00,612.00 Q600.00,620.00 592.00,620.00 L588.00,620.00 Q580.00,620.00 580.00,612.00 L580.00,600.00 Z" fill="#111111"/>
  <path d="M100.00,40.00 L180.00,40.00 L180.00,180.00 L40.00,180.00 L40.00,100.00 Q40.00,40.00 100.00,40.00 Z" fill="#111111"/>
  <path d="M100.00,60.00 L160.00,60.00 L160.00,160.00 L60.00,160.00 L60.00,100.00 Q60.00,60.00 100.00,60.00 Z" fill="white"/>
  <path d="M100.00,80.00 L140.00,80.00 L140.00,140.00 L80.00,140.00 L80.00,100.00 Q80.00,80.00 100.00,80.00 Z" fill="#111111"/>
  <path d="M480.00,40.00 L560.00,40.00 Q620.00,40.00 620.00,100.00 L620.00,180.00 L480.00,180.00 L480.00,40.00 Z" fill="#111111"/>
  <path d="M500.00,60.00 L560.00,60.00 Q600.00,60.00 600.00,100.00 L600.00,160.00 L500.00,160.00 L500.00,60.00 Z" fill="white"/>
  <path d="M520.00,80.00 L560.00,80.00 Q580.00,80.00 580.00,100.00 L580.00,140.00 L520.00,140.00 L520.00,80.00 Z" fill="#111111"/>
  <path d="M40.00,480.00 L180.00,480.00 L180.00,620.00 L100.00,620.00 Q40.00,620.00 40.00,560.00 L40.00,480.00 Z" fill="#111111"/>
  <path d="M60.00,500.00 L160.00,500.00 L160.00,600.00 L100.00,600.00 Q60.00,600.00 60.00,560.00 L60.00,500.00 Z" fill="white"/>
  <path d="M80.00,520.00 L140.00,520.00 L140.00,580.00 L100.00,580.00 Q80.00,580.00 80.00,560.00 L80.00,520.00 Z" fill="#111111"/>
  <g transform="translate(200.00,200.00) scale(0.260000,0.260000)">
<defs>
    <style>
      .cls-1 {
        fill: #1971f2;
      }

      .cls-2 {
        fill: #fff;
      }
    </style>
  </defs>
  <rect class="cls-2" width="1000" height="1000"/>
  <g id="Layer_1" data-name="Layer 1">
    <g id="Layer_3" data-name="Layer 3">
      <rect class="cls-1" x="85.9" y="85.19" width="828.8" height="828.8" rx="115" ry="115"/>
      <g>
        <circle class="cls-2" cx="315.49" cy="326.3" r="111.57"/>
        <path class="cls-2" d="M778.68,264.39v526.03h-168.44v-146.03c-6.45,6.01-13.06,11.86-19.87,17.56-50.59,42.38-109.77,75.05-175.92,97.13-62.26,20.79-127.98,31.33-195.3,31.33v-168.44c188.62,0,378.93-110.57,378.93-357.59h180.59Z"/>
      </g>
    </g>
  </g>
  </g>
</svg>