<svg xmlns="http://www.w3.org/2000/svg" xmlns:xlink="http://www.w3.org/1999/xlink" width="900" height="900" viewBox="0 0 900 900">
  <rect width="900" height="900" fill="white"/>
  <path d="M208.00,40.00 L220.00,40.00 L220.00,60.00 L200.00,60.00 L200.00,48.00 Q200.00,40.00 208.00,40.00 Z" fill="#111111"/>
  <path d="M220.00,40.00 L240.00,40.00 L240.00,60.00 L220.00,60.00 L220.00,40.00 Z" fill="#111111"/>
  <path d="M240.00,40.00 L260.00,40.00 L260.00,60.00 L240.00,60.00 L240.00,40.00 Z" fill="#111111"/>
  <path d="M260.00,40.00 L280.00,40.00 L280.00,60.00 L260.00,60.00 L260.00,40.00 Z" fill="#111111"/>
  <path d="M280.00,40.00 L300.00,40.00 L300.00,60.00 L280.00,60.00 L280.00,40.00 Z" fill="#111111"/>
  <path d="M300.00,40.00 L312.00,40.00 Q320.00,40.00 320.00,48.00 L320.00,52.00 Q320.00,60.00 312.00,60.00 L300.00,60.00 L300.00,40.00 Z" fill="#111111"/>
  <path d="M348.00,40.00 L352.00,40.00 Q360.00,40.00 360.00,48.00 L360.00,52.00 Q360.00,60.00 352.00,60.00 L348.00,60.00 Q340.00,60.00 340.00,52.00 L340.00,48.00 Q340.00,40.00 348.00,40.00 Z" fill="#111111"/>
  <path d="M388.00,40.00 L392.00,40.00 Q400.00,40.00 400.00,48.00 L400.00,60.00 L380.00,60.00 L380.00,48.00 Q380.00,40.00 388.00,40.00 Z" fill="#111111"/>
  <path d="M468.00,40.00 L480.00,40.00 L480.00,60.00 L468.00,60.00 Q460.00,60.00 460.00,52.00 L460.00,48.00 Q460.00,40.00 468.00,40.00 Z" fill="#111111"/>
  <path d="M480.00,40.00 L500.00,40.00 L500.00,60.00 L480.00,60.00 L480.00,40.00 Z" fill="#111111"/>
  <path d="M500.00,40.00 L512.00,40.00 Q520.00,40.00 520.00,48.00 L520.00,60.00 L500.00,60.00 L500.00,40.00 Z" fill="#111111"/>
  <path d="M588.00,40.00 L600.00,40.00 L600.00,60.00 L588.00,60.00 Q580.00,60.00 580.00,52.00 L580.00,48.00 Q580.00,40.00 588.00,40.00 Z" fill="#111111"/>
  <path d="M600.00,40.00 L620.00,40.00 L620.00,60.00 L600.00,60.00 L600.00,40.00 Z" fill="#111111"/>
  <path d="M620.00,40.00 L632.00,40.00 Q640.00,40.00 640.00,48.00 L640.00,60.00 L620.00,60.00 L620.00,40.00 Z" fill="#111111"/>
  <path d="M200.00,60.00 L220.00,60.00 L220.00,80.00 L200.00,80.00 L200.00,60.00 Z" fill="#111111"/>
  <path d="M380.00,60.00 L400.00,60.00 L400.00,80.00 L380.00,80.00 L380.00,60.00 Z" fill="#111111"/>
  <path d="M428.00,60.00 L432.00,60.00 Q440.00,60.00 440.00,68.00 L440.00,80.00 L420.00,80.00 L420.00,68.00 Q420.00,60.00 428.00,60.00 Z" fill="#111111"/>
  <path d="M480.00,60.00 L500.00,60.00 L500.00,80.00 L488.00,80.00 Q480.00,80.00 480.00,72.00 L480.00,60.00 Z" fill="#111111"/>
  <path d="M500.00,60.00 L520.00,60.00 L520.00,80.00 L500.00,80.00 L500.00,60.00 Z" fill="#111111"/>
  <path d="M620.00,60.00 L640.00,60.00 L640.00,80.00 L620.00,80.00 L620.00,60.00 Z" fill="#111111"/>
  <path d="M688.00,60.00 L692.00,60.00 Q700.00,60.00 700.00,68.00 L700.00,72.00 Q700.00,80.00 692.00,80.00 L688.00,80.00 Q680.00,80.00 680.00,72.00 L680.00,68.00 Q680.00,60.00 688.00,60.00 Z" fill="#111111"/>
  <path d="M200.00,80.00 L220.00,80.00 L220.00,100.00 L208.00,100.00 Q200.00,100.00 200.00,92.00 L200.00,80.00 Z" fill="#111111"/>
  <path d="M220.00,80.00 L232.00,80.00 Q240.00,80.00 240.00,88.00 L240.00,92.00 Q240.00,100.00 232.00,100.00 L220.00,100.00 L220.00,80.00 Z" fill="#111111"/>
  <path d="M268.00,80.00 L280.00,80.00 L280.00,100.00 L268.00,100.00 Q260.00,100.00 260.00,92.00 L260.00,88.00 Q260.00,80.00 268.00,80.00 Z" fill="#111111"/>
  <path d="M280.00,80.00 L300.00,80.00 L300.00,100.00 L280.00,100.00 L280.00,80.00 Z" fill="#111111"/>
  <path d="M300.00,80.00 L320.00,80.00 L320.00,100.00 L300.00,100.00 L300.00,80.00 Z" fill="#111111"/>
  <path d="M320.00,80.00 L340.00,80.00 L340.00,100.00 L320.00,100.00 L320.00,80.00 Z" fill="#111111"/>
  <path d="M340.00,80.00 L352.00,80.00 Q360.00,80.00 360.00,88.00 L360.00,92.00 Q360.00,100.00 352.00,100.00 L340.00,100.00 L340.00,80.00 Z" fill="#111111"/>
  <path d="M380.00,80.00 L400.00,80.00 L400.00,100.00 L388.00,100.00 Q380.00,100.00 380.00,92.00 L380.00,80.00 Z" fill="#111111"/>
  <path d="M400.00,80.00 L420.00,80.00 L420.00,100.00 L400.00,100.00 L400.00,80.00 Z" fill="#111111"/>
  <path d="M420.00,80.00 L440.00,80.00 L440.00,92.00 Q440.00,100.00 432.00,100.00 L420.00,100.00 L420.00,80.00 Z" fill="#111111"/>
  <path d="M500.00,80.00 L520.00,80.00 L520.00,100.00 L500.00,100.00 L500.00,80.00 Z" fill="#111111"/>
  <path d="M520.00,80.00 L532.00,80.00 Q540.00,80.00 540.00,88.00 L540.00,100.00 L520.00,100.00 L520.00,80.00 Z" fill="#111111"/>
  <path d="M568.00,80.00 L572.00,80.00 Q580.00,80.00 580.00,88.00 L580.00,92.00 Q580.00,100.00 572.00,100.00 L568.00,100.00 Q560.00,100.00 560.00,92.00 L560.00,88.00 Q560.00,80.00 568.00,80.00 Z" fill="#111111"/>
  <path d="M608.00,80.00 L620.00,80.00 L620.00,100.00 L600.00,100.00 L600.00,88.00 Q600.00,80.00 608.00,80.00 Z" fill="#111111"/>
  <path d="M620.00,80.00 L640.00,80.00 L640.00,100.00 L620.00,100.00 L620.00,80.00 Z" fill="#111111"/>
  <path d="M640.00,80.00 L652.00,80.00 Q660.00,80.00 660.00,88.00 L660.00,92.00 Q660.00,100.00 652.00,100.00 L640.00,100.00 L640.00,80.00 Z" fill="#111111"/>
  <path d="M400.00,100.00 L420.00,100.00 L420.00,120.00 L400.00,120.00 L400.00,100.00 Z" fill="#111111"/>
  <path d="M500.00,100.00 L520.00,100.00 L520.00,120.00 L500.00,120.00 L500.00,100.00 Z" fill="#111111"/>
  <path d="M520.00,100.00 L540.00,100.00 L540.00,120.00 L520.00,120.00 L520.00,100.00 Z" fill="#111111"/>
  <path d="M600.00,100.00 L620.00,100.00 L620.00,112.00 Q620.00,120.00 612.00,120.00 L608.00,120.00 Q600.00,120.00 600.00,112.00 L600.00,100.00 Z" fill="#111111"/>
  <path d="M248.00,120.00 L260.00,120.00 L260.00,140.00 L240.00,140.00 L240.00,128.00 Q240.00,120.00 248.00,120.00 Z" fill="#111111"/>
  <path d="M260.00,120.00 L280.00,120.00 L280.00,140.00 L260.00,140.00 L260.00,120.00 Z" fill="#111111"/>
  <path d="M280.00,120.00 L300.00,120.00 L300.00,140.00 L280.00,140.00 L280.00,120.00 Z" fill="#111111"/>
  <path d="M300.00,120.00 L312.00,120.00 Q320.00,120.00 320.00,128.00 L320.00,132.00 Q320.00,140.00 312.00,140.00 L300.00,140.00 L300.00,120.00 Z" fill="#111111"/>
  <path d="M348.00,120.00 L352.00,120.00 Q360.00,120.00 360.00,128.00 L360.00,132.00 Q360.00,140.00 352.00,140.00 L348.00,140.00 Q340.00,140.00 340.00,132.00 L340.00,128.00 Q340.00,120.00 348.00,120.00 Z" fill="#111111"/>
  <path d="M388.00,120.00 L400.00,120.00 L400.00,140.00 L380.00,140.00 L380.00,128.00 Q380.00,120.00 388.00,120.00 Z" fill="#111111"/>
  <path d="M400.00,120.00 L420.00,120.00 L420.00,140.00 L400.00,140.00 L400.00,120.00 Z" fill="#111111"/>
  <path d="M500.00,120.00 L520.00,120.00 L520.00,140.00 L500.00,140.00 L500.00,120.00 Z" fill="#111111"/>
  <path d="M520.00,120.00 L540.00,120.00 L540.00,140.00 L520.00,140.00 L520.00,120.00 Z" fill="#111111"/>
  <path d="M568.00,120.00 L580.00,120.00 L580.00,140.00 L560.00,140.00 L560.00,128.00 Q560.00,120.00 568.00,120.00 Z" fill="#111111"/>
  <path d="M580.00,120.00 L592.00,120.00 Q600.00,120.00 600.00,128.00 L600.00,140.00 L580.00,140.00 L580.00,120.00 Z" fill="#111111"/>
  <path d="M628.00,120.00 L640.00,120.00 L640.00,140.00 L620.00,140.00 L620.00,128.00 Q620.00,120.00 628.00,120.00 Z" fill="#111111"/>
  <path d="M640.00,120.00 L652.00,120.00 Q660.00,120.00 660.00,128.00 L660.00,132.00 Q660.00,140.00 652.00,140.00 L640.00,140.00 L640.00,120.00 Z" fill="#111111"/>
  <path d="M688.00,120.00 L692.00,120.00 Q700.00,120.00 700.00,128.00 L700.00,132.00 Q700.00,140.00 692.00,140.00 L688.00,140.00 Q680.00,140.00 680.00,132.00 L680.00,128.00 Q680.00,120.00 688.00,120.00 Z" fill="#111111"/>
  <path d="M208.00,140.00 L220.00,140.00 L220.00,160.00 L200.00,160.00 L200.00,148.00 Q200.00,140.00 208.00,140.00 Z" fill="#111111"/>
  <path d="M220.00,140.00 L240.00,140.00 L240.00,160.00 L220.00,160.00 L220.00,140.00 Z" fill="#111111"/>
  <path d="M240.00,140.00 L260.00,140.00 L260.00,160.00 L240.00,160.00 L240.00,140.00 Z" fill="#111111"/>
  <path d="M280.00,140.00 L300.00,140.00 L300.00,160.00 L280.00,160.00 L280.00,140.00 Z" fill="#111111"/>
  <path d="M368.00,140.00 L380.00,140.00 L380.00,160.00 L360.00,160.00 L360.00,148.00 Q360.00,140.00 368.00,140.00 Z" fill="#111111"/>
  <path d="M380.00,140.00 L400.00,140.00 L400.00,160.00 L380.00,160.00 L380.00,140.00 Z" fill="#111111"/>
  <path d="M400.00,140.00 L420.00,140.00 L420.00,160.00 L400.00,160.00 L400.00,140.00 Z" fill="#111111"/>
  <path d="M420.00,140.00 L432.00,140.00 Q440.00,140.00 440.00,148.00 L440.00,152.00 Q440.00,160.00 432.00,160.00 L420.00,160.00 L420.00,140.00 Z" fill="#111111"/>
  <path d="M468.00,140.00 L472.00,140.00 Q480.00,140.00 480.00,148.00 L480.00,152.00 Q480.00,160.00 472.00,160.00 L468.00,160.00 Q460.00,160.00 460.00,152.00 L460.00,148.00 Q460.00,140.00 468.00,140.00 Z" fill="#111111"/>
  <path d="M500.00,140.00 L520.00,140.00 L520.00,160.00 L508.00,160.00 Q500.00,160.00 500.00,152.00 L500.00,140.00 Z" fill="#111111"/>
  <path d="M520.00,140.00 L540.00,140.00 L540.00,160.00 L520.00,160.00 L520.00,140.00 Z" fill="#111111"/>
  <path d="M560.00,140.00 L580.00,140.00 L580.00,160.00 L560.00,160.00 L560.00,140.00 Z" fill="#111111"/>
  <path d="M580.00,140.00 L600.00,140.00 L600.00,160.00 L580.00,160.00 L580.00,140.00 Z" fill="#111111"/>
  <path d="M600.00,140.00 L620.00,140.00 L620.00,160.00 L600.00,160.00 L600.00,140.00 Z" fill="#111111"/>
  <path d="M620.00,140.00 L640.00,140.00 L640.00,152.00 Q640.00,160.00 632.00,160.00 L620.00,160.00 L620.00,140.00 Z" fill="#111111"/>
  <path d="M668.00,140.00 L672.00,140.00 Q680.00,140.00 680.00,148.00 L680.00,152.00 Q680.00,160.00 672.00,160.00 L668.00,160.00 Q660.00,160.00 660.00,152.00 L660.00,148.00 Q660.00,140.00 668.00,140.00 Z" fill="#111111"/>
  <path d="M200.00,160.00 L220.00,160.00 L220.00,180.00 L200.00,180.00 L200.00,160.00 Z" fill="#111111"/>
  <path d="M240.00,160.00 L260.00,160.00 L260.00,180.00 L240.00,180.00 L240.00,160.00 Z" fill="#111111"/>
  <path d="M280.00,160.00 L300.00,160.00 L300.00,180.00 L280.00,180.00 L280.00,160.00 Z" fill="#111111"/>
  <path d="M328.00,160.00 L332.00,160.00 Q340.00,160.00 340.00,168.00 L340.00,172.00 Q340.00,180.00 332.00,180.00 L328.00,180.00 Q320.00,180.00 320.00,172.00 L320.00,168.00 Q320.00,160.00 328.00,160.00 Z" fill="#111111"/>
  <path d="M360.00,160.00 L380.00,160.00 L380.00,172.00 Q380.00,180.00 372.00,180.00 L368.00,180.00 Q360.00,180.00 360.00,172.00 L360.00,160.00 Z" fill="#111111"/>
  <path d="M400.00,160.00 L420.00,160.00 L420.00,180.00 L400.00,180.00 L400.00,160.00 Z" fill="#111111"/>
  <path d="M448.00,160.00 L452.00,160.00 Q460.00,160.00 460.00,168.00 L460.00,180.00 L440.00,180.00 L440.00,168.00 Q440.00,160.00 448.00,160.00 Z" fill="#111111"/>
  <path d="M488.00,160.00 L492.00,160.00 Q500.00,160.00 500.00,168.00 L500.00,172.00 Q500.00,180.00 492.00,180.00 L488.00,180.00 Q480.00,180.00 480.00,172.00 L480.00,168.00 Q480.00,160.00 488.00,160.00 Z" fill="#111111"/>
  <path d="M520.00,160.00 L540.00,160.00 L540.00,172.00 Q540.00,180.00 532.00,180.00 L528.00,180.00 Q520.00,180.00 520.00,172.00 L520.00,160.00 Z" fill="#111111"/>
  <path d="M560.00,160.00 L580.00,160.00 L580.00,180.00 L560.00,180.00 L560.00,160.00 Z" fill="#111111"/>
  <path d="M600.00,160.00 L620.00,160.00 L620.00,172.00 Q620.00,180.00 612.00,180.00 L608.00,180.00 Q600.00,180.00 600.00,172.00 L600.00,160.00 Z" fill="#111111"/>
  <path d="M648.00,160.00 L652.00,160.00 Q660.00,160.00 660.00,168.00 L660.00,180.00 L640.00,180.00 L640.00,168.00 Q640.00,160.00 648.00,160.00 Z" fill="#111111"/>
  <path d="M688.00,160.00 L692.00,160.00 Q700.00,160.00 700.00,168.00 L700.00,180.00 L680.00,180.00 L680.00,168.00 Q680.00,160.00 688.00,160.00 Z" fill="#111111"/>
  <path d="M200.00,180.00 L220.00,180.00 L220.00,200.00 L200.00,200.00 L200.00,180.00 Z" fill="#111111"/>
  <path d="M220.00,180.00 L240.00,180.00 L240.00,200.00 L220.00,200.00 L220.00,180.00 Z" fill="#111111"/>
  <path d="M240.00,180.00 L260.00,180.00 L260.00,200.00 L240.00,200.00 L240.00,180.00 Z" fill="#111111"/>
  <path d="M260.00,180.00 L280.00,180.00 L280.00,200.00 L260.00,200.00 L260.00,180.00 Z" fill="#111111"/>
  <path d="M280.00,180.00 L300.00,180.00 L300.00,192.00 Q300.00,200.00 292.00,200.00 L280.00,200.00 L280.00,180.00 Z" fill="#111111"/>
  <path d="M348.00,180.00 L352.00,180.00 Q360.00,180.00 360.00,188.00 L360.00,192.00 Q360.00,200.00 352.00,200.00 L348.00,200.00 Q340.00,200.00 340.00,192.00 L340.00,188.00 Q340.00,180.00 348.00,180.00 Z" fill="#111111"/>
  <path d="M400.00,180.00 L420.00,180.00 L420.00,200.00 L400.00,200.00 L400.00,180.00 Z" fill="#111111"/>
  <path d="M420.00,180.00 L440.00,180.00 L440.00,200.00 L420.00,200.00 L420.00,180.00 Z" fill="#111111"/>
  <path d="M440.00,180.00 L460.00,180.00 L460.00,200.00 L440.00,200.00 L440.00,180.00 Z" fill="#111111"/>
  <path d="M460.00,180.00 L472.00,180.00 Q480.00,180.00 480.00,188.00 L480.00,200.00 L460.00,200.00 L460.00,180.00 Z" fill="#111111"/>
  <path d="M508.00,180.00 L512.00,180.00 Q520.00,180.00 520.00,188.00 L520.00,192.00 Q520.00,200.00 512.00,200.00 L508.00,200.00 Q500.00,200.00 500.00,192.00 L500.00,188.00 Q500.00,180.00 508.00,180.00 Z" fill="#111111"/>
  <path d="M548.00,180.00 L560.00,180.00 L560.00,200.00 L548.00,200.00 Q540.00,200.00 540.00,192.00 L540.00,188.00 Q540.00,180.00 548.00,180.00 Z" fill="#111111"/>
  <path d="M560.00,180.00 L580.00,180.00 L580.00,200.00 L560.00,200.00 L560.00,180.00 Z" fill="#111111"/>
  <path d="M580.00,180.00 L592.00,180.00 Q600.00,180.00 600.00,188.00 L600.00,200.00 L580.00,200.00 L580.00,180.00 Z" fill="#111111"/>
  <path d="M628.00,180.00 L640.00,180.00 L640.00,200.00 L628.00,200.00 Q620.00,200.00 620.00,192.00 L620.00,188.00 Q620.00,180.00 628.00,180.00 Z" fill="#111111"/>
  <path d="M640.00,180.00 L660.00,180.00 L660.00,200.00 L640.00,200.00 L640.00,180.00 Z" fill="#111111"/>
  <path d="M660.00,180.00 L680.00,180.00 L680.00,200.00 L660.00,200.00 L660.00,180.00 Z" fill="#111111"/>
  <path d="M680.00,180.00 L700.00,180.00 L700.00,200.00 L680.00,200.00 L680.00,180.00 Z" fill="#111111"/>
  <path d="M88.00,200.00 L100.00,200.00 L100.00,220.00 L88.00,220.00 Q80.00,220.00 80.00,212.00 L80.00,208.00 Q80.00,200.00 88.00,200.00 Z" fill="#111111"/>
  <path d="M100.00,200.00 L120.00,200.00 L120.00,220.00 L100.00,220.00 L100.00,200.00 Z" fill="#111111"/>
  <path d="M120.00,200.00 L132.00,200.00 Q140.00,200.00 140.00,208.00 L140.00,212.00 Q140.00,220.00 132.00,220.00 L120.00,220.00 L120.00,200.00 Z" fill="#111111"/>
  <path d="M168.00,200.00 L172.00,200.00 Q180.00,200.00 180.00,208.00 L180.00,212.00 Q180.00,220.00 172.00,220.00 L168.00,220.00 Q160.00,220.00 160.00,212.00 L160.00,208.00 Q160.00,200.00 168.00,200.00 Z" fill="#111111"/>
  <path d="M200.00,200.00 L220.00,200.00 L220.00,220.00 L208.00,220.00 Q200.00,220.00 200.00,212.00 L200.00,200.00 Z" fill="#111111"/>
  <path d="M220.00,200.00 L240.00,200.00 L240.00,220.00 L220.00,220.00 L220.00,200.00 Z" fill="#111111"/>
  <path d="M308.00,200.00 L320.00,200.00 L320.00,220.00 L300.00,220.00 L300.00,208.00 Q300.00,200.00 308.00,200.00 Z" fill="#111111"/>
  <path d="M320.00,200.00 L332.00,200.00 Q340.00,200.00 340.00,208.00 L340.00,220.00 L320.00,220.00 L320.00,200.00 Z" fill="#111111"/>
  <path d="M368.00,200.00 L372.00,200.00 Q380.00,200.00 380.00,208.00 L380.00,212.00 Q380.00,220.00 372.00,220.00 L368.00,220.00 Q360.00,220.00 360.00,212.00 L360.00,208.00 Q360.00,200.00 368.00,200.00 Z" fill="#111111"/>
  <path d="M400.00,200.00 L420.00,200.00 L420.00,220.00 L408.00,220.00 Q400.00,220.00 400.00,212.00 L400.00,200.00 Z" fill="#111111"/>
  <path d="M420.00,200.00 L440.00,200.00 L440.00,220.00 L420.00,220.00 L420.00,200.00 Z" fill="#111111"/>
  <path d="M440.00,200.00 L460.00,200.00 L460.00,220.00 L440.00,220.00 L440.00,200.00 Z" fill="#111111"/>
  <path d="M460.00,200.00 L480.00,200.00 L480.00,220.00 L460.00,220.00 L460.00,200.00 Z" fill="#111111"/>
  <path d="M480.00,200.00 L492.00,200.00 Q500.00,200.00 500.00,208.00 L500.00,212.00 Q500.00,220.00 492.00,220.00 L480.00,220.00 L480.00,200.00 Z" fill="#111111"/>
  <path d="M528.00,200.00 L532.00,200.00 Q540.00,200.00 540.00,208.00 L540.00,220.00 L520.00,220.00 L520.00,208.00 Q520.00,200.00 528.00,200.00 Z" fill="#111111"/>
  <path d="M560.00,200.00 L580.00,200.00 L580.00,220.00 L568.00,220.00 Q560.00,220.00 560.00,212.00 L560.00,200.00 Z" fill="#111111"/>
  <path d="M580.00,200.00 L600.00,200.00 L600.00,220.00 L580.00,220.00 L580.00,200.00 Z" fill="#111111"/>
  <path d="M660.00,200.00 L680.00,200.00 L680.00,220.00 L668.00,220.00 Q660.00,220.00 660.00,212.00 L660.00,200.00 Z" fill="#111111"/>
  <path d="M680.00,200.00 L700.00,200.00 L700.00,220.00 L680.00,220.00 L680.00,200.00 Z" fill="#111111"/>
  <path d="M700.00,200.00 L720.00,200.00 L720.00,220.00 L700.00,220.00 L700.00,200.00 Z" fill="#111111"/>
  <path d="M720.00,200.00 L740.00,200.00 L740.00,220.00 L720.00,220.00 L720.00,200.00 Z" fill="#111111"/>
  <path d="M740.00,200.00 L752.00,200.00 Q760.00,200.00 760.00,208.00 L760.00,212.00 Q760.00,220.00 752.00,220.00 L740.00,220.00 L740.00,200.00 Z" fill="#111111"/>
  <path d="M808.00,200.00 L820.00,200.00 L820.00,220.00 L808.00,220.00 Q800.00,220.00 800.00,212.00 L800.00,208.00 Q800.00,200.00 808.00,200.00 Z" fill="#111111"/>
  <path d="M820.00,200.00 L840.00,200.00 L840.00,220.00 L820.00,220.00 L820.00,200.00 Z" fill="#111111"/>
  <path d="M840.00,200.00 L852.00,200.00 Q860.00,200.00 860.00,208.00 L860.00,212.00 Q860.00,220.00 852.00,220.00 L840.00,220.00 L840.00,200.00 Z" fill="#111111"/>
  <path d="M68.00,220.00 L72.00,220.00 Q80.00,220.00 80.00,228.00 L80.00,240.00 L60.00,240.00 L60.00,228.00 Q60.00,220.00 68.00,220.00 Z" fill="#111111"/>
  <path d="M100.00,220.00 L120.00,220.00 L120.00,232.00 Q120.00,240.00 112.00,240.00 L108.00,240.00 Q100.00,240.00 100.00,232.00 L100.00,220.00 Z" fill="#111111"/>
  <path d="M188.00,220.00 L192.00,220.00 Q200.00,220.00 200.00,228.00 L200.00,240.00 L180.00,240.00 L180.00,228.00 Q180.00,220.00 188.00,220.00 Z" fill="#111111"/>
  <path d="M220.00,220.00 L240.00,220.00 L240.00,240.00 L220.00,240.00 L220.00,220.00 Z" fill="#111111"/>
  <path d="M240.00,220.00 L260.00,220.00 L260.00,240.00 L240.00,240.00 L240.00,220.00 Z" fill="#111111"/>
  <path d="M260.00,220.00 L280.00,220.00 L280.00,240.00 L260.00,240.00 L260.00,220.00 Z" fill="#111111"/>
  <path d="M280.00,220.00 L300.00,220.00 L300.00,240.00 L280.00,240.00 L280.00,220.00 Z" fill="#111111"/>
  <path d="M300.00,220.00 L320.00,220.00 L320.00,240.00 L300.00,240.00 L300.00,220.00 Z" fill="#111111"/>
  <path d="M320.00,220.00 L340.00,220.00 L340.00,240.00 L320.00,240.00 L320.00,220.00 Z" fill="#111111"/>
  <path d="M340.00,220.00 L352.00,220.00 Q360.00,220.00 360.00,228.00 L360.00,232.00 Q360.00,240.00 352.00,240.00 L340.00,240.00 L340.00,220.00 Z" fill="#111111"/>
  <path d="M388.00,220.00 L392.00,220.00 Q400.00,220.00 400.00,228.00 L400.00,232.00 Q400.00,240.00 392.00,240.00 L388.00,240.00 Q380.00,240.00 380.00,232.00 L380.00,228.00 Q380.00,220.00 388.00,220.00 Z" fill="#111111"/>
  <path d="M420.00,220.00 L440.00,220.00 L440.00,232.00 Q440.00,240.00 432.00,240.00 L428.00,240.00 Q420.00,240.00 420.00,232.00 L420.00,220.00 Z" fill="#111111"/>
  <path d="M508.00,220.00 L520.00,220.00 L520.00,240.00 L508.00,240.00 Q500.00,240.00 500.00,232.00 L500.00,228.00 Q500.00,220.00 508.00,220.00 Z" fill="#111111"/>
  <path d="M520.00,220.00 L540.00,220.00 L540.00,240.00 L520.00,240.00 L520.00,220.00 Z" fill="#111111"/>
  <path d="M540.00,220.00 L552.00,220.00 Q560.00,220.00 560.00,228.00 L560.00,232.00 Q560.00,240.00 552.00,240.00 L540.00,240.00 L540.00,220.00 Z" fill="#111111"/>
  <path d="M580.00,220.00 L600.00,220.00 L600.00,240.00 L588.00,240.00 Q580.00,240.00 580.00,232.00 L580.00,220.00 Z" fill="#111111"/>
  <path d="M600.00,220.00 L612.00,220.00 Q620.00,220.00 620.00,228.00 L620.00,232.00 Q620.00,240.00 612.00,240.00 L600.00,240.00 L600.00,220.00 Z" fill="#111111"/>
  <path d="M648.00,220.00 L652.00,220.00 Q660.00,220.00 660.00,228.00 L660.00,240.00 L640.00,240.00 L640.00,228.00 Q640.00,220.00 648.00,220.00 Z" fill="#111111"/>
  <path d="M768.00,220.00 L772.00,220.00 Q780.00,220.00 780.00,228.00 L780.00,240.00 L760.00,240.00 L760.00,228.00 Q760.00,220.00 768.00,220.00 Z" fill="#111111"/>
  <path d="M820.00,220.00 L840.00,220.00 L840.00,232.00 Q840.00,240.00 832.00,240.00 L828.00,240.00 Q820.00,240.00 820.00,232.00 L820.00,220.00 Z" fill="#111111"/>
  <path d="M60.00,240.00 L80.00,240.00 L80.00,260.00 L60.00,260.00 L60.00,240.00 Z" fill="#111111"/>
  <path d="M80.00,240.00 L92.00,240.00 Q100.00,240.00 100.00,248.00 L100.00,260.00 L80.00,260.00 L80.00,240.00 Z" fill="#111111"/>
  <path d="M168.00,240.00 L180.00,240.00 L180.00,260.00 L168.00,260.00 Q160.00,260.00 160.00,252.00 L160.00,248.00 Q160.00,240.00 168.00,240.00 Z" fill="#111111"/>
  <path d="M180.00,240.00 L200.00,240.00 L200.00,260.00 L180.00,260.00 L180.00,240.00 Z" fill="#111111"/>
  <path d="M200.00,240.00 L220.00,240.00 L220.00,260.00 L200.00,260.00 L200.00,240.00 Z" fill="#111111"/>
  <path d="M220.00,240.00 L240.00,240.00 L240.00,260.00 L220.00,260.00 L220.00,240.00 Z" fill="#111111"/>
  <path d="M240.00,240.00 L260.00,240.00 L260.00,252.00 Q260.00,260.00 252.00,260.00 L240.00,260.00 L240.00,240.00 Z" fill="#111111"/>
  <path d="M300.00,240.00 L320.00,240.00 L320.00,260.00 L300.00,260.00 L300.00,240.00 Z" fill="#111111"/>
  <path d="M320.00,240.00 L340.00,240.00 L340.00,252.00 Q340.00,260.00 332.00,260.00 L320.00,260.00 L320.00,240.00 Z" fill="#111111"/>
  <path d="M368.00,240.00 L372.00,240.00 Q380.00,240.00 380.00,248.00 L380.00,252.00 Q380.00,260.00 372.00,260.00 L368.00,260.00 Q360.00,260.00 360.00,252.00 L360.00,248.00 Q360.00,240.00 368.00,240.00 Z" fill="#111111"/>
  <path d="M408.00,240.00 L412.00,240.00 Q420.00,240.00 420.00,248.00 L420.00,260.00 L400.00,260.00 L400.00,248.00 Q400.00,240.00 408.00,240.00 Z" fill="#111111"/>
  <path d="M468.00,240.00 L472.00,240.00 Q480.00,240.00 480.00,248.00 L480.00,252.00 Q480.00,260.00 472.00,260.00 L468.00,260.00 Q460.00,260.00 460.00,252.00 L460.00,248.00 Q460.00,240.00 468.00,240.00 Z" fill="#111111"/>
  <path d="M640.00,240.00 L660.00,240.00 L660.00,252.00 Q660.00,260.00 652.00,260.00 L648.00,260.00 Q640.00,260.00 640.00,252.00 L640.00,240.00 Z" fill="#111111"/>
  <path d="M688.00,240.00 L692.00,240.00 Q700.00,240.00 700.00,248.00 L700.00,252.00 Q700.00,260.00 692.00,260.00 L688.00,260.00 Q680.00,260.00 680.00,252.00 L680.00,248.00 Q680.00,240.00 688.00,240.00 Z" fill="#111111"/>
  <path d="M728.00,240.00 L740.00,240.00 L740.00,260.00 L720.00,260.00 L720.00,248.00 Q720.00,240.00 728.00,240.00 Z" fill="#111111"/>
  <path d="M740.00,240.00 L760.00,240.00 L760.00,260.00 L740.00,260.00 L740.00,240.00 Z" fill="#111111"/>
  <path d="M760.00,240.00 L780.00,240.00 L780.00,260.00 L760.00,260.00 L760.00,240.00 Z" fill="#111111"/>
  <path d="M780.00,240.00 L792.00,240.00 Q800.00,240.00 800.00,248.00 L800.00,260.00 L780.00,260.00 L780.00,240.00 Z" fill="#111111"/>
  <path d="M848.00,240.00 L852.00,240.00 Q860.00,240.00 860.00,248.00 L860.00,260.00 L840.00,260.00 L840.00,248.00 Q840.00,240.00 848.00,240.00 Z" fill="#111111"/>
  <path d="M48.00,260.00 L60.00,260.00 L60.00,280.00 L48.00,280.00 Q40.00,280.00 40.00,272.00 L40.00,268.00 Q40.00,260.00 48.00,260.00 Z" fill="#111111"/>
  <path d="M60.00,260.00 L80.00,260.00 L80.00,280.00 L60.00,280.00 L60.00,260.00 Z" fill="#111111"/>
  <path d="M80.00,260.00 L100.00,260.00 L100.00,280.00 L80.00,280.00 L80.00,260.00 Z" fill="#111111"/>
  <path d="M100.00,260.00 L120.00,260.00 L120.00,280.00 L100.00,280.00 L100.00,260.00 Z" fill="#111111"/>
  <path d="M120.00,260.00 L132.00,260.00 Q140.00,260.00 140.00,268.00 L140.00,272.00 Q140.00,280.00 132.00,280.00 L120.00,280.00 L120.00,260.00 Z" fill="#111111"/>
  <path d="M300.00,260.00 L320.00,260.00 L320.00,280.00 L300.00,280.00 L300.00,260.00 Z" fill="#111111"/>
  <path d="M348.00,260.00 L352.00,260.00 Q360.00,260.00 360.00,268.00 L360.00,272.00 Q360.00,280.00 352.00,280.00 L348.00,280.00 Q340.00,280.00 340.00,272.00 L340.00,268.00 Q340.00,260.00 348.00,260.00 Z" fill="#111111"/>
  <path d="M388.00,260.00 L400.00,260.00 L400.00,280.00 L388.00,280.00 Q380.00,280.00 380.00,272.00 L380.00,268.00 Q380.00,260.00 388.00,260.00 Z" fill="#111111"/>
  <path d="M400.00,260.00 L420.00,260.00 L420.00,272.00 Q420.00,280.00 412.00,280.00 L400.00,280.00 L400.00,260.00 Z" fill="#111111"/>
  <path d="M488.00,260.00 L492.00,260.00 Q500.00,260.00 500.00,268.00 L500.00,280.00 L480.00,280.00 L480.00,268.00 Q480.00,260.00 488.00,260.00 Z" fill="#111111"/>
  <path d="M608.00,260.00 L612.00,260.00 Q620.00,260.00 620.00,268.00 L620.00,272.00 Q620.00,280.00 612.00,280.00 L608.00,280.00 Q600.00,280.00 600.00,272.00 L600.00,268.00 Q600.00,260.00 608.00,260.00 Z" fill="#111111"/>
  <path d="M708.00,260.00 L720.00,260.00 L720.00,280.00 L708.00,280.00 Q700.00,280.00 700.00,272.00 L700.00,268.00 Q700.00,260.00 708.00,260.00 Z" fill="#111111"/>
  <path d="M720.00,260.00 L740.00,260.00 L740.00,280.00 L720.00,280.00 L720.00,260.00 Z" fill="#111111"/>
  <path d="M760.00,260.00 L780.00,260.00 L780.00,280.00 L760.00,280.00 L760.00,260.00 Z" fill="#111111"/>
  <path d="M780.00,260.00 L800.00,260.00 L800.00,280.00 L780.00,280.00 L780.00,260.00 Z" fill="#111111"/>
  <path d="M828.00,260.00 L840.00,260.00 L840.00,280.00 L828.00,280.00 Q820.00,280.00 820.00,272.00 L820.00,268.00 Q820.00,260.00 828.00,260.00 Z" fill="#111111"/>
  <path d="M840.00,260.00 L860.00,260.00 L860.00,280.00 L840.00,280.00 L840.00,260.00 Z" fill="#111111"/>
  <path d="M80.00,280.00 L100.00,280.00 L100.00,300.00 L80.00,300.00 L80.00,280.00 Z" fill="#111111"/>
  <path d="M100.00,280.00 L120.00,280.00 L120.00,300.00 L100.00,300.00 L100.00,280.00 Z" fill="#111111"/>
  <path d="M148.00,280.00 L160.00,280.00 L160.00,300.00 L140.00,300.00 L140.00,288.00 Q140.00,280.00 148.00,280.00 Z" fill="#111111"/>
  <path d="M160.00,280.00 L172.00,280.00 Q180.00,280.00 180.00,288.00 L180.00,292.00 Q180.00,300.00 172.00,300.00 L160.00,300.00 L160.00,280.00 Z" fill="#111111"/>
  <path d="M208.00,280.00 L212.00,280.00 Q220.00,280.00 220.00,288.00 L220.00,300.00 L200.00,300.00 L200.00,288.00 Q200.00,280.00 208.00,280.00 Z" fill="#111111"/>
  <path d="M248.00,280.00 L252.00,280.00 Q260.00,280.00 260.00,288.00 L260.00,300.00 L240.00,300.00 L240.00,288.00 Q240.00,280.00 248.00,280.00 Z" fill="#111111"/>
  <path d="M300.00,280.00 L320.00,280.00 L320.00,292.00 Q320.00,300.00 312.00,300.00 L308.00,300.00 Q300.00,300.00 300.00,292.00 L300.00,280.00 Z" fill="#111111"/>
  <path d="M428.00,280.00 L432.00,280.00 Q440.00,280.00 440.00,288.00 L440.00,292.00 Q440.00,300.00 432.00,300.00 L428.00,300.00 Q420.00,300.00 420.00,292.00 L420.00,288.00 Q420.00,280.00 428.00,280.00 Z" fill="#111111"/>
  <path d="M468.00,280.00 L480.00,280.00 L480.00,300.00 L460.00,300.00 L460.00,288.00 Q460.00,280.00 468.00,280.00 Z" fill="#111111"/>
  <path d="M480.00,280.00 L500.00,280.00 L500.00,300.00 L480.00,300.00 L480.00,280.00 Z" fill="#111111"/>
  <path d="M500.00,280.00 L520.00,280.00 L520.00,300.00 L500.00,300.00 L500.00,280.00 Z" fill="#111111"/>
  <path d="M520.00,280.00 L540.00,280.00 L540.00,300.00 L520.00,300.00 L520.00,280.00 Z" fill="#111111"/>
  <path d="M540.00,280.00 L552.00,280.00 Q560.00,280.00 560.00,288.00 L560.00,292.00 Q560.00,300.00 552.00,300.00 L540.00,300.00 L540.00,280.00 Z" fill="#111111"/>
  <path d="M648.00,280.00 L652.00,280.00 Q660.00,280.00 660.00,288.00 L660.00,292.00 Q660.00,300.00 652.00,300.00 L648.00,300.00 Q640.00,300.00 640.00,292.00 L640.00,288.00 Q640.00,280.00 648.00,280.00 Z" fill="#111111"/>
  <path d="M688.00,280.00 L692.00,280.00 Q700.00,280.00 700.00,288.00 L700.00,292.00 Q700.00,300.00 692.00,300.00 L688.00,300.00 Q680.00,300.00 680.00,292.00 L680.00,288.00 Q680.00,280.00 688.00,280.00 Z" fill="#111111"/>
  <path d="M720.00,280.00 L740.00,280.00 L740.00,292.00 Q740.00,300.00 732.00,300.00 L728.00,300.00 Q720.00,300.00 720.00,292.00 L720.00,280.00 Z" fill="#111111"/>
  <path d="M760.00,280.00 L780.00,280.00 L780.00,300.00 L768.00,300.00 Q760.00,300.00 760.00,292.00 L760.00,280.00 Z" fill="#111111"/>
  <path d="M780.00,280.00 L800.00,280.00 L800.00,300.00 L780.00,300.00 L780.00,280.00 Z" fill="#111111"/>
  <path d="M800.00,280.00 L812.00,280.00 Q820.00,280.00 820.00,288.00 L820.00,292.00 Q820.00,300.00 812.00,300.00 L800.00,300.00 L800.00,280.00 Z" fill="#111111"/>
  <path d="M840.00,280.00 L860.00,280.00 L860.00,292.00 Q860.00,300.00 852.00,300.00 L848.00,300.00 Q840.00,300.00 840.00,292.00 L840.00,280.00 Z" fill="#111111"/>
  <path d="M48.00,300.00 L52.00,300.00 Q60.00,300.00 60.00,308.00 L60.00,320.00 L40.00,320.00 L40.00,308.00 Q40.00,300.00 48.00,300.00 Z" fill="#111111"/>
  <path d="M80.00,300.00 L100.00,300.00 L100.00,320.00 L88.00,320.00 Q80.00,320.00 80.00,312.00 L80.00,300.00 Z" fill="#111111"/>
  <path d="M100.00,300.00 L120.00,300.00 L120.00,312.00 Q120.00,320.00 112.00,320.00 L100.00,320.00 L100.00,300.00 Z" fill="#111111"/>
  <path d="M140.00,300.00 L160.00,300.00 L160.00,320.00 L140.00,320.00 L140.00,300.00 Z" fill="#111111"/>
  <path d="M200.00,300.00 L220.00,300.00 L220.00,312.00 Q220.00,320.00 212.00,320.00 L208.00,320.00 Q200.00,320.00 200.00,312.00 L200.00,300.00 Z" fill="#111111"/>
  <path d="M240.00,300.00 L260.00,300.00 L260.00,320.00 L248.00,320.00 Q240.00,320.00 240.00,312.00 L240.00,300.00 Z" fill="#111111"/>
  <path d="M260.00,300.00 L272.00,300.00 Q280.00,300.00 280.00,308.00 L280.00,312.00 Q280.00,320.00 272.00,320.00 L260.00,320.00 L260.00,300.00 Z" fill="#111111"/>
  <path d="M328.00,300.00 L332.00,300.00 Q340.00,300.00 340.00,308.00 L340.00,312.00 Q340.00,320.00 332.00,320.00 L328.00,320.00 Q320.00,320.00 320.00,312.00 L320.00,308.00 Q320.00,300.00 328.00,300.00 Z" fill="#111111"/>
  <path d="M368.00,300.00 L372.00,300.00 Q380.00,300.00 380.00,308.00 L380.00,312.00 Q380.00,320.00 372.00,320.00 L368.00,320.00 Q360.00,320.00 360.00,312.00 L360.00,308.00 Q360.00,300.00 368.00,300.00 Z" fill="#111111"/>
  <path d="M408.00,300.00 L412.00,300.00 Q420.00,300.00 420.00,308.00 L420.00,312.00 Q420.00,320.00 412.00,320.00 L408.00,320.00 Q400.00,320.00 400.00,312.00 L400.00,308.00 Q400.00,300.00 408.00,300.00 Z" fill="#111111"/>
  <path d="M448.00,300.00 L460.00,300.00 L460.00,320.00 L448.00,320.00 Q440.00,320.00 440.00,312.00 L440.00,308.00 Q440.00,300.00 448.00,300.00 Z" fill="#111111"/>
  <path d="M460.00,300.00 L480.00,300.00 L480.00,312.00 Q480.00,320.00 472.00,320.00 L460.00,320.00 L460.00,300.00 Z" fill="#111111"/>
  <path d="M500.00,300.00 L520.00,300.00 L520.00,320.00 L508.00,320.00 Q500.00,320.00 500.00,312.00 L500.00,300.00 Z" fill="#111111"/>
  <path d="M520.00,300.00 L540.00,300.00 L540.00,312.00 Q540.00,320.00 532.00,320.00 L520.00,320.00 L520.00,300.00 Z" fill="#111111"/>
  <path d="M568.00,300.00 L580.00,300.00 L580.00,320.00 L568.00,320.00 Q560.00,320.00 560.00,312.00 L560.00,308.00 Q560.00,300.00 568.00,300.00 Z" fill="#111111"/>
  <path d="M580.00,300.00 L600.00,300.00 L600.00,320.00 L580.00,320.00 L580.00,300.00 Z" fill="#111111"/>
  <path d="M600.00,300.00 L620.00,300.00 L620.00,320.00 L600.00,320.00 L600.00,300.00 Z" fill="#111111"/>
  <path d="M620.00,300.00 L632.00,300.00 Q640.00,300.00 640.00,308.00 L640.00,320.00 L620.00,320.00 L620.00,300.00 Z" fill="#111111"/>
  <path d="M708.00,300.00 L712.00,300.00 Q720.00,300.00 720.00,308.00 L720.00,320.00 L700.00,320.00 L700.00,308.00 Q700.00,300.00 708.00,300.00 Z" fill="#111111"/>
  <path d="M748.00,300.00 L752.00,300.00 Q760.00,300.00 760.00,308.00 L760.00,312.00 Q760.00,320.00 752.00,320.00 L748.00,320.00 Q740.00,320.00 740.00,312.00 L740.00,308.00 Q740.00,300.00 748.00,300.00 Z" fill="#111111"/>
  <path d="M40.00,320.00 L60.00,320.00 L60.00,340.00 L40.00,340.00 L40.00,320.00 Z" fill="#111111"/>
  <path d="M60.00,320.00 L72.00,320.00 Q80.00,320.00 80.00,328.00 L80.00,332.00 Q80.00,340.00 72.00,340.00 L60.00,340.00 L60.00,320.00 Z" fill="#111111"/>
  <path d="M128.00,320.00 L140.00,320.00 L140.00,340.00 L120.00,340.00 L120.00,328.00 Q120.00,320.00 128.00,320.00 Z" fill="#111111"/>
  <path d="M140.00,320.00 L160.00,320.00 L160.00,340.00 L140.00,340.00 L140.00,320.00 Z" fill="#111111"/>
  <path d="M160.00,320.00 L180.00,320.00 L180.00,340.00 L160.00,340.00 L160.00,320.00 Z" fill="#111111"/>
  <path d="M180.00,320.00 L192.00,320.00 Q200.00,320.00 200.00,328.00 L200.00,332.00 Q200.00,340.00 192.00,340.00 L180.00,340.00 L180.00,320.00 Z" fill="#111111"/>
  <path d="M228.00,320.00 L232.00,320.00 Q240.00,320.00 240.00,328.00 L240.00,332.00 Q240.00,340.00 232.00,340.00 L228.00,340.00 Q220.00,340.00 220.00,332.00 L220.00,328.00 Q220.00,320.00 228.00,320.00 Z" fill="#111111"/>
  <path d="M288.00,320.00 L292.00,320.00 Q300.00,320.00 300.00,328.00 L300.00,340.00 L280.00,340.00 L280.00,328.00 Q280.00,320.00 288.00,320.00 Z" fill="#111111"/>
  <path d="M620.00,320.00 L640.00,320.00 L640.00,340.00 L620.00,340.00 L620.00,320.00 Z" fill="#111111"/>
  <path d="M688.00,320.00 L700.00,320.00 L700.00,340.00 L688.00,340.00 Q680.00,340.00 680.00,332.00 L680.00,328.00 Q680.00,320.00 688.00,320.00 Z" fill="#111111"/>
  <path d="M700.00,320.00 L720.00,320.00 L720.00,332.00 Q720.00,340.00 712.00,340.00 L700.00,340.00 L700.00,320.00 Z" fill="#111111"/>
  <path d="M788.00,320.00 L792.00,320.00 Q800.00,320.00 800.00,328.00 L800.00,332.00 Q800.00,340.00 792.00,340.00 L788.00,340.00 Q780.00,340.00 780.00,332.00 L780.00,328.00 Q780.00,320.00 788.00,320.00 Z" fill="#111111"/>
  <path d="M828.00,320.00 L832.00,320.00 Q840.00,320.00 840.00,328.00 L840.00,332.00 Q840.00,340.00 832.00,340.00 L828.00,340.00 Q820.00,340.00 820.00,332.00 L820.00,328.00 Q820.00,320.00 828.00,320.00 Z" fill="#111111"/>
  <path d="M40.00,340.00 L60.00,340.00 L60.00,360.00 L40.00,360.00 L40.00,340.00 Z" fill="#111111"/>
  <path d="M88.00,340.00 L92.00,340.00 Q100.00,340.00 100.00,348.00 L100.00,360.00 L80.00,360.00 L80.00,348.00 Q80.00,340.00 88.00,340.00 Z" fill="#111111"/>
  <path d="M120.00,340.00 L140.00,340.00 L140.00,360.00 L120.00,360.00 L120.00,340.00 Z" fill="#111111"/>
  <path d="M268.00,340.00 L280.00,340.00 L280.00,360.00 L268.00,360.00 Q260.00,360.00 260.00,352.00 L260.00,348.00 Q260.00,340.00 268.00,340.00 Z" fill="#111111"/>
  <path d="M280.00,340.00 L300.00,340.00 L300.00,360.00 L280.00,360.00 L280.00,340.00 Z" fill="#111111"/>
  <path d="M300.00,340.00 L312.00,340.00 Q320.00,340.00 320.00,348.00 L320.00,360.00 L300.00,360.00 L300.00,340.00 Z" fill="#111111"/>
  <path d="M608.00,340.00 L620.00,340.00 L620.00,360.00 L600.00,360.00 L600.00,348.00 Q600.00,340.00 608.00,340.00 Z" fill="#111111"/>
  <path d="M620.00,340.00 L640.00,340.00 L640.00,360.00 L620.00,360.00 L620.00,340.00 Z" fill="#111111"/>
  <path d="M640.00,340.00 L652.00,340.00 Q660.00,340.00 660.00,348.00 L660.00,352.00 Q660.00,360.00 652.00,360.00 L640.00,360.00 L640.00,340.00 Z" fill="#111111"/>
  <path d="M728.00,340.00 L740.00,340.00 L740.00,360.00 L728.00,360.00 Q720.00,360.00 720.00,352.00 L720.00,348.00 Q720.00,340.00 728.00,340.00 Z" fill="#111111"/>
  <path d="M740.00,340.00 L752.00,340.00 Q760.00,340.00 760.00,348.00 L760.00,360.00 L740.00,360.00 L740.00,340.00 Z" fill="#111111"/>
  <path d="M40.00,360.00 L60.00,360.00 L60.00,372.00 Q60.00,380.00 52.00,380.00 L48.00,380.00 Q40.00,380.00 40.00,372.00 L40.00,360.00 Z" fill="#111111"/>
  <path d="M80.00,360.00 L100.00,360.00 L100.00,380.00 L88.00,380.00 Q80.00,380.00 80.00,372.00 L80.00,360.00 Z" fill="#111111"/>
  <path d="M100.00,360.00 L120.00,360.00 L120.00,380.00 L100.00,380.00 L100.00,360.00 Z" fill="#111111"/>
  <path d="M120.00,360.00 L140.00,360.00 L140.00,380.00 L120.00,380.00 L120.00,360.00 Z" fill="#111111"/>
  <path d="M140.00,360.00 L160.00,360.00 L160.00,380.00 L140.00,380.00 L140.00,360.00 Z" fill="#111111"/>
  <path d="M160.00,360.00 L172.00,360.00 Q180.00,360.00 180.00,368.00 L180.00,372.00 Q180.00,380.00 172.00,380.00 L160.00,380.00 L160.00,360.00 Z" fill="#111111"/>
  <path d="M228.00,360.00 L240.00,360.00 L240.00,380.00 L220.00,380.00 L220.00,368.00 Q220.00,360.00 228.00,360.00 Z" fill="#111111"/>
  <path d="M240.00,360.00 L252.00,360.00 Q260.00,360.00 260.00,368.00 L260.00,380.00 L240.00,380.00 L240.00,360.00 Z" fill="#111111"/>
  <path d="M280.00,360.00 L300.00,360.00 L300.00,380.00 L280.00,380.00 L280.00,360.00 Z" fill="#111111"/>
  <path d="M300.00,360.00 L320.00,360.00 L320.00,380.00 L300.00,380.00 L300.00,360.00 Z" fill="#111111"/>
  <path d="M600.00,360.00 L620.00,360.00 L620.00,372.00 Q620.00,380.00 612.00,380.00 L608.00,380.00 Q600.00,380.00 600.00,372.00 L600.00,360.00 Z" fill="#111111"/>
  <path d="M708.00,360.00 L712.00,360.00 Q720.00,360.00 720.00,368.00 L720.00,380.00 L700.00,380.00 L700.00,368.00 Q700.00,360.00 708.00,360.00 Z" fill="#111111"/>
  <path d="M740.00,360.00 L760.00,360.00 L760.00,380.00 L740.00,380.00 L740.00,360.00 Z" fill="#111111"/>
  <path d="M788.00,360.00 L792.00,360.00 Q800.00,360.00 800.00,368.00 L800.00,380.00 L780.00,380.00 L780.00,368.00 Q780.00,360.00 788.00,360.00 Z" fill="#111111"/>
  <path d="M828.00,360.00 L832.00,360.00 Q840.00,360.00 840.00,368.00 L840.00,380.00 L820.00,380.00 L820.00,368.00 Q820.00,360.00 828.00,360.00 Z" fill="#111111"/>
  <path d="M68.00,380.00 L72.00,380.00 Q80.00,380.00 80.00,388.00 L80.00,392.00 Q80.00,400.00 72.00,400.00 L68.00,400.00 Q60.00,400.00 60.00,392.00 L60.00,388.00 Q60.00,380.00 68.00,380.00 Z" fill="#111111"/>
  <path d="M100.00,380.00 L120.00,380.00 L120.00,400.00 L100.00,400.00 L100.00,380.00 Z" fill="#111111"/>
  <path d="M188.00,380.00 L192.00,380.00 Q200.00,380.00 200.00,388.00 L200.00,392.00 Q200.00,400.00 192.00,400.00 L188.00,400.00 Q180.00,400.00 180.00,392.00 L180.00,388.00 Q180.00,380.00 188.00,380.00 Z" fill="#111111"/>
  <path d="M220.00,380.00 L240.00,380.00 L240.00,400.00 L220.00,400.00 L220.00,380.00 Z" fill="#111111"/>
  <path d="M240.00,380.00 L260.00,380.00 L260.00,400.00 L240.00,400.00 L240.00,380.00 Z" fill="#111111"/>
  <path d="M260.00,380.00 L280.00,380.00 L280.00,400.00 L260.00,400.00 L260.00,380.00 Z" fill="#111111"/>
  <path d="M280.00,380.00 L300.00,380.00 L300.00,400.00 L280.00,400.00 L280.00,380.00 Z" fill="#111111"/>
  <path d="M300.00,380.00 L320.00,380.00 L320.00,400.00 L300.00,400.00 L300.00,380.00 Z" fill="#111111"/>
  <path d="M588.00,380.00 L592.00,380.00 Q600.00,380.00 600.00,388.00 L600.00,400.00 L580.00,400.00 L580.00,388.00 Q580.00,380.00 588.00,380.00 Z" fill="#111111"/>
  <path d="M648.00,380.00 L652.00,380.00 Q660.00,380.00 660.00,388.00 L660.00,400.00 L640.00,400.00 L640.00,388.00 Q640.00,380.00 648.00,380.00 Z" fill="#111111"/>
  <path d="M688.00,380.00 L700.00,380.00 L700.00,400.00 L688.00,400.00 Q680.00,400.00 680.00,392.00 L680.00,388.00 Q680.00,380.00 688.00,380.00 Z" fill="#111111"/>
  <path d="M700.00,380.00 L720.00,380.00 L720.00,400.00 L700.00,400.00 L700.00,380.00 Z" fill="#111111"/>
  <path d="M740.00,380.00 L760.00,380.00 L760.00,400.00 L740.00,400.00 L740.00,380.00 Z" fill="#111111"/>
  <path d="M760.00,380.00 L780.00,380.00 L780.00,400.00 L760.00,400.00 L760.00,380.00 Z" fill="#111111"/>
  <path d="M780.00,380.00 L800.00,380.00 L800.00,400.00 L780.00,400.00 L780.00,380.00 Z" fill="#111111"/>
  <path d="M800.00,380.00 L820.00,380.00 L820.00,400.00 L800.00,400.00 L800.00,380.00 Z" fill="#111111"/>
  <path d="M820.00,380.00 L840.00,380.00 L840.00,392.00 Q840.00,400.00 832.00,400.00 L820.00,400.00 L820.00,380.00 Z" fill="#111111"/>
  <path d="M48.00,400.00 L52.00,400.00 Q60.00,400.00 60.00,408.00 L60.00,420.00 L40.00,420.00 L40.00,408.00 Q40.00,400.00 48.00,400.00 Z" fill="#111111"/>
  <path d="M100.00,400.00 L120.00,400.00 L120.00,412.00 Q120.00,420.00 112.00,420.00 L108.00,420.00 Q100.00,420.00 100.00,412.00 L100.00,400.00 Z" fill="#111111"/>
  <path d="M148.00,400.00 L160.00,400.00 L160.00,420.00 L148.00,420.00 Q140.00,420.00 140.00,412.00 L140.00,408.00 Q140.00,400.00 148.00,400.00 Z" fill="#111111"/>
  <path d="M160.00,400.00 L172.00,400.00 Q180.00,400.00 180.00,408.00 L180.00,412.00 Q180.00,420.00 172.00,420.00 L160.00,420.00 L160.00,400.00 Z" fill="#111111"/>
  <path d="M208.00,400.00 L220.00,400.00 L220.00,420.00 L208.00,420.00 Q200.00,420.00 200.00,412.00 L200.00,408.00 Q200.00,400.00 208.00,400.00 Z" fill="#111111"/>
  <path d="M220.00,400.00 L240.00,400.00 L240.00,420.00 L220.00,420.00 L220.00,400.00 Z" fill="#111111"/>
  <path d="M240.00,400.00 L260.00,400.00 L260.00,412.00 Q260.00,420.00 252.00,420.00 L240.00,420.00 L240.00,400.00 Z" fill="#111111"/>
  <path d="M300.00,400.00 L320.00,400.00 L320.00,420.00 L300.00,420.00 L300.00,400.00 Z" fill="#111111"/>
  <path d="M580.00,400.00 L600.00,400.00 L600.00,420.00 L580.00,420.00 L580.00,400.00 Z" fill="#111111"/>
  <path d="M600.00,400.00 L612.00,400.00 Q620.00,400.00 620.00,408.00 L620.00,412.00 Q620.00,420.00 612.00,420.00 L600.00,420.00 L600.00,400.00 Z" fill="#111111"/>
  <path d="M640.00,400.00 L660.00,400.00 L660.00,420.00 L648.00,420.00 Q640.00,420.00 640.00,412.00 L640.00,400.00 Z" fill="#111111"/>
  <path d="M660.00,400.00 L672.00,400.00 Q680.00,400.00 680.00,408.00 L680.00,420.00 L660.00,420.00 L660.00,400.00 Z" fill="#111111"/>
  <path d="M700.00,400.00 L720.00,400.00 L720.00,412.00 Q720.00,420.00 712.00,420.00 L708.00,420.00 Q700.00,420.00 700.00,412.00 L700.00,400.00 Z" fill="#111111"/>
  <path d="M740.00,400.00 L760.00,400.00 L760.00,420.00 L748.00,420.00 Q740.00,420.00 740.00,412.00 L740.00,400.00 Z" fill="#111111"/>
  <path d="M760.00,400.00 L780.00,400.00 L780.00,420.00 L760.00,420.00 L760.00,400.00 Z" fill="#111111"/>
  <path d="M800.00,400.00 L820.00,400.00 L820.00,420.00 L800.00,420.00 L800.00,400.00 Z" fill="#111111"/>
  <path d="M848.00,400.00 L852.00,400.00 Q860.00,400.00 860.00,408.00 L860.00,420.00 L840.00,420.00 L840.00,408.00 Q840.00,400.00 848.00,400.00 Z" fill="#111111"/>
  <path d="M40.00,420.00 L60.00,420.00 L60.00,440.00 L40.00,440.00 L40.00,420.00 Z" fill="#111111"/>
  <path d="M88.00,420.00 L92.00,420.00 Q100.00,420.00 100.00,428.00 L100.00,440.00 L80.00,440.00 L80.00,428.00 Q80.00,420.00 88.00,420.00 Z" fill="#111111"/>
  <path d="M128.00,420.00 L132.00,420.00 Q140.00,420.00 140.00,428.00 L140.00,432.00 Q140.00,440.00 132.00,440.00 L128.00,440.00 Q120.00,440.00 120.00,432.00 L120.00,428.00 Q120.00,420.00 128.00,420.00 Z" fill="#111111"/>
  <path d="M300.00,420.00 L320.00,420.00 L320.00,440.00 L300.00,440.00 L300.00,420.00 Z" fill="#111111"/>
  <path d="M580.00,420.00 L600.00,420.00 L600.00,440.00 L580.00,440.00 L580.00,420.00 Z" fill="#111111"/>
  <path d="M660.00,420.00 L680.00,420.00 L680.00,440.00 L660.00,440.00 L660.00,420.00 Z" fill="#111111"/>
  <path d="M680.00,420.00 L692.00,420.00 Q700.00,420.00 700.00,428.00 L700.00,440.00 L680.00,440.00 L680.00,420.00 Z" fill="#111111"/>
  <path d="M760.00,420.00 L780.00,420.00 L780.00,440.00 L760.00,440.00 L760.00,420.00 Z" fill="#111111"/>
  <path d="M780.00,420.00 L800.00,420.00 L800.00,440.00 L780.00,440.00 L780.00,420.00 Z" fill="#111111"/>
  <path d="M800.00,420.00 L820.00,420.00 L820.00,440.00 L800.00,440.00 L800.00,420.00 Z" fill="#111111"/>
  <path d="M820.00,420.00 L840.00,420.00 L840.00,440.00 L820.00,440.00 L820.00,420.00 Z" fill="#111111"/>
  <path d="M840.00,420.00 L860.00,420.00 L860.00,440.00 L840.00,440.00 L840.00,420.00 Z" fill="#111111"/>
  <path d="M40.00,440.00 L60.00,440.00 L60.00,452.00 Q60.00,460.00 52.00,460.00 L48.00,460.00 Q40.00,460.00 40.00,452.00 L40.00,440.00 Z" fill="#111111"/>
  <path d="M80.00,440.00 L100.00,440.00 L100.00,460.00 L88.00,460.00 Q80.00,460.00 80.00,452.00 L80.00,440.00 Z" fill="#111111"/>
  <path d="M100.00,440.00 L112.00,440.00 Q120.00,440.00 120.00,448.00 L120.00,452.00 Q120.00,460.00 112.00,460.00 L100.00,460.00 L100.00,440.00 Z" fill="#111111"/>
  <path d="M148.00,440.00 L160.00,440.00 L160.00,460.00 L140.00,460.00 L140.00,448.00 Q140.00,440.00 148.00,440.00 Z" fill="#111111"/>
  <path d="M160.00,440.00 L172.00,440.00 Q180.00,440.00 180.00,448.00 L180.00,452.00 Q180.00,460.00 172.00,460.00 L160.00,460.00 L160.00,440.00 Z" fill="#111111"/>
  <path d="M248.00,440.00 L260.00,440.00 L260.00,460.00 L240.00,460.00 L240.00,448.00 Q240.00,440.00 248.00,440.00 Z" fill="#111111"/>
  <path d="M260.00,440.00 L272.00,440.00 Q280.00,440.00 280.00,448.00 L280.00,460.00 L260.00,460.00 L260.00,440.00 Z" fill="#111111"/>
  <path d="M300.00,440.00 L320.00,440.00 L320.00,460.00 L300.00,460.00 L300.00,440.00 Z" fill="#111111"/>
  <path d="M580.00,440.00 L600.00,440.00 L600.00,460.00 L580.00,460.00 L580.00,440.00 Z" fill="#111111"/>
  <path d="M648.00,440.00 L660.00,440.00 L660.00,460.00 L648.00,460.00 Q640.00,460.00 640.00,452.00 L640.00,448.00 Q640.00,440.00 648.00,440.00 Z" fill="#111111"/>
  <path d="M660.00,440.00 L680.00,440.00 L680.00,460.00 L660.00,460.00 L660.00,440.00 Z" fill="#111111"/>
  <path d="M680.00,440.00 L700.00,440.00 L700.00,460.00 L680.00,460.00 L680.00,440.00 Z" fill="#111111"/>
  <path d="M700.00,440.00 L712.00,440.00 Q720.00,440.00 720.00,448.00 L720.00,452.00 Q720.00,460.00 712.00,460.00 L700.00,460.00 L700.00,440.00 Z" fill="#111111"/>
  <path d="M748.00,440.00 L760.00,440.00 L760.00,460.00 L748.00,460.00 Q740.00,460.00 740.00,452.00 L740.00,448.00 Q740.00,440.00 748.00,440.00 Z" fill="#111111"/>
  <path d="M760.00,440.00 L780.00,440.00 L780.00,460.00 L760.00,460.00 L760.00,440.00 Z" fill="#111111"/>
  <path d="M840.00,440.00 L860.00,440.00 L860.00,460.00 L840.00,460.00 L840.00,440.00 Z" fill="#111111"/>
  <path d="M68.00,460.00 L72.00,460.00 Q80.00,460.00 80.00,468.00 L80.00,472.00 Q80.00,480.00 72.00,480.00 L68.00,480.00 Q60.00,480.00 60.00,472.00 L60.00,468.00 Q60.00,460.00 68.00,460.00 Z" fill="#111111"/>
  <path d="M128.00,460.00 L140.00,460.00 L140.00,480.00 L128.00,480.00 Q120.00,480.00 120.00,472.00 L120.00,468.00 Q120.00,460.00 128.00,460.00 Z" fill="#111111"/>
  <path d="M140.00,460.00 L160.00,460.00 L160.00,480.00 L140.00,480.00 L140.00,460.00 Z" fill="#111111"/>
  <path d="M188.00,460.00 L200.00,460.00 L200.00,480.00 L188.00,480.00 Q180.00,480.00 180.00,472.00 L180.00,468.00 Q180.00,460.00 188.00,460.00 Z" fill="#111111"/>
  <path d="M200.00,460.00 L220.00,460.00 L220.00,480.00 L200.00,480.00 L200.00,460.00 Z" fill="#111111"/>
  <path d="M220.00,460.00 L240.00,460.00 L240.00,480.00 L220.00,480.00 L220.00,460.00 Z" fill="#111111"/>
  <path d="M240.00,460.00 L260.00,460.00 L260.00,480.00 L240.00,480.00 L240.00,460.00 Z" fill="#111111"/>
  <path d="M260.00,460.00 L280.00,460.00 L280.00,472.00 Q280.00,480.00 272.00,480.00 L260.00,480.00 L260.00,460.00 Z" fill="#111111"/>
  <path d="M300.00,460.00 L320.00,460.00 L320.00,472.00 Q320.00,480.00 312.00,480.00 L308.00,480.00 Q300.00,480.00 300.00,472.00 L300.00,460.00 Z" fill="#111111"/>
  <path d="M580.00,460.00 L600.00,460.00 L600.00,480.00 L588.00,480.00 Q580.00,480.00 580.00,472.00 L580.00,460.00 Z" fill="#111111"/>
  <path d="M600.00,460.00 L612.00,460.00 Q620.00,460.00 620.00,468.00 L620.00,472.00 Q620.00,480.00 612.00,480.00 L600.00,480.00 L600.00,460.00 Z" fill="#111111"/>
  <path d="M760.00,460.00 L780.00,460.00 L780.00,480.00 L760.00,480.00 L760.00,460.00 Z" fill="#111111"/>
  <path d="M828.00,460.00 L840.00,460.00 L840.00,480.00 L828.00,480.00 Q820.00,480.00 820.00,472.00 L820.00,468.00 Q820.00,460.00 828.00,460.00 Z" fill="#111111"/>
  <path d="M840.00,460.00 L860.00,460.00 L860.00,472.00 Q860.00,480.00 852.00,480.00 L840.00,480.00 L840.00,460.00 Z" fill="#111111"/>
  <path d="M140.00,480.00 L160.00,480.00 L160.00,500.00 L140.00,500.00 L140.00,480.00 Z" fill="#111111"/>
  <path d="M160.00,480.00 L172.00,480.00 Q180.00,480.00 180.00,488.00 L180.00,492.00 Q180.00,500.00 172.00,500.00 L160.00,500.00 L160.00,480.00 Z" fill="#111111"/>
  <path d="M240.00,480.00 L260.00,480.00 L260.00,500.00 L240.00,500.00 L240.00,480.00 Z" fill="#111111"/>
  <path d="M288.00,480.00 L292.00,480.00 Q300.00,480.00 300.00,488.00 L300.00,500.00 L280.00,500.00 L280.00,488.00 Q280.00,480.00 288.00,480.00 Z" fill="#111111"/>
  <path d="M648.00,480.00 L652.00,480.00 Q660.00,480.00 660.00,488.00 L660.00,492.00 Q660.00,500.00 652.00,500.00 L648.00,500.00 Q640.00,500.00 640.00,492.00 L640.00,488.00 Q640.00,480.00 648.00,480.00 Z" fill="#111111"/>
  <path d="M688.00,480.00 L692.00,480.00 Q700.00,480.00 700.00,488.00 L700.00,492.00 Q700.00,500.00 692.00,500.00 L688.00,500.00 Q680.00,500.00 680.00,492.00 L680.00,488.00 Q680.00,480.00 688.00,480.00 Z" fill="#111111"/>
  <path d="M728.00,480.00 L740.00,480.00 L740.00,500.00 L720.00,500.00 L720.00,488.00 Q720.00,480.00 728.00,480.00 Z" fill="#111111"/>
  <path d="M740.00,480.00 L760.00,480.00 L760.00,500.00 L740.00,500.00 L740.00,480.00 Z" fill="#111111"/>
  <path d="M760.00,480.00 L780.00,480.00 L780.00,500.00 L760.00,500.00 L760.00,480.00 Z" fill="#111111"/>
  <path d="M780.00,480.00 L792.00,480.00 Q800.00,480.00 800.00,488.00 L800.00,492.00 Q800.00,500.00 792.00,500.00 L780.00,500.00 L780.00,480.00 Z" fill="#111111"/>
  <path d="M108.00,500.00 L112.00,500.00 Q120.00,500.00 120.00,508.00 L120.00,512.00 Q120.00,520.00 112.00,520.00 L108.00,520.00 Q100.00,520.00 100.00,512.00 L100.00,508.00 Q100.00,500.00 108.00,500.00 Z" fill="#111111"/>
  <path d="M140.00,500.00 L160.00,500.00 L160.00,512.00 Q160.00,520.00 152.00,520.00 L148.00,520.00 Q140.00,520.00 140.00,512.00 L140.00,500.00 Z" fill="#111111"/>
  <path d="M208.00,500.00 L212.00,500.00 Q220.00,500.00 220.00,508.00 L220.00,512.00 Q220.00,520.00 212.00,520.00 L208.00,520.00 Q200.00,520.00 200.00,512.00 L200.00,508.00 Q200.00,500.00 208.00,500.00 Z" fill="#111111"/>
  <path d="M240.00,500.00 L260.00,500.00 L260.00,520.00 L240.00,520.00 L240.00,500.00 Z" fill="#111111"/>
  <path d="M260.00,500.00 L280.00,500.00 L280.00,520.00 L260.00,520.00 L260.00,500.00 Z" fill="#111111"/>
  <path d="M280.00,500.00 L300.00,500.00 L300.00,520.00 L280.00,520.00 L280.00,500.00 Z" fill="#111111"/>
  <path d="M300.00,500.00 L312.00,500.00 Q320.00,500.00 320.00,508.00 L320.00,520.00 L300.00,520.00 L300.00,500.00 Z" fill="#111111"/>
  <path d="M608.00,500.00 L612.00,500.00 Q620.00,500.00 620.00,508.00 L620.00,520.00 L600.00,520.00 L600.00,508.00 Q600.00,500.00 608.00,500.00 Z" fill="#111111"/>
  <path d="M708.00,500.00 L720.00,500.00 L720.00,520.00 L708.00,520.00 Q700.00,520.00 700.00,512.00 L700.00,508.00 Q700.00,500.00 708.00,500.00 Z" fill="#111111"/>
  <path d="M720.00,500.00 L740.00,500.00 L740.00,520.00 L720.00,520.00 L720.00,500.00 Z" fill="#111111"/>
  <path d="M760.00,500.00 L780.00,500.00 L780.00,520.00 L760.00,520.00 L760.00,500.00 Z" fill="#111111"/>
  <path d="M48.00,520.00 L52.00,520.00 Q60.00,520.00 60.00,528.00 L60.00,532.00 Q60.00,540.00 52.00,540.00 L48.00,540.00 Q40.00,540.00 40.00,532.00 L40.00,528.00 Q40.00,520.00 48.00,520.00 Z" fill="#111111"/>
  <path d="M168.00,520.00 L180.00,520.00 L180.00,540.00 L168.00,540.00 Q160.00,540.00 160.00,532.00 L160.00,528.00 Q160.00,520.00 168.00,520.00 Z" fill="#111111"/>
  <path d="M180.00,520.00 L192.00,520.00 Q200.00,520.00 200.00,528.00 L200.00,532.00 Q200.00,540.00 192.00,540.00 L180.00,540.00 L180.00,520.00 Z" fill="#111111"/>
  <path d="M228.00,520.00 L240.00,520.00 L240.00,540.00 L220.00,540.00 L220.00,528.00 Q220.00,520.00 228.00,520.00 Z" fill="#111111"/>
  <path d="M240.00,520.00 L260.00,520.00 L260.00,532.00 Q260.00,540.00 252.00,540.00 L240.00,540.00 L240.00,520.00 Z" fill="#111111"/>
  <path d="M300.00,520.00 L320.00,520.00 L320.00,532.00 Q320.00,540.00 312.00,540.00 L308.00,540.00 Q300.00,540.00 300.00,532.00 L300.00,520.00 Z" fill="#111111"/>
  <path d="M600.00,520.00 L620.00,520.00 L620.00,532.00 Q620.00,540.00 612.00,540.00 L608.00,540.00 Q600.00,540.00 600.00,532.00 L600.00,520.00 Z" fill="#111111"/>
  <path d="M648.00,520.00 L652.00,520.00 Q660.00,520.00 660.00,528.00 L660.00,532.00 Q660.00,540.00 652.00,540.00 L648.00,540.00 Q640.00,540.00 640.00,532.00 L640.00,528.00 Q640.00,520.00 648.00,520.00 Z" fill="#111111"/>
  <path d="M720.00,520.00 L740.00,520.00 L740.00,532.00 Q740.00,540.00 732.00,540.00 L728.00,540.00 Q720.00,540.00 720.00,532.00 L720.00,520.00 Z" fill="#111111"/>
  <path d="M760.00,520.00 L780.00,520.00 L780.00,540.00 L768.00,540.00 Q760.00,540.00 760.00,532.00 L760.00,520.00 Z" fill="#111111"/>
  <path d="M780.00,520.00 L792.00,520.00 Q800.00,520.00 800.00,528.00 L800.00,532.00 Q800.00,540.00 792.00,540.00 L780.00,540.00 L780.00,520.00 Z" fill="#111111"/>
  <path d="M88.00,540.00 L92.00,540.00 Q100.00,540.00 100.00,548.00 L100.00,560.00 L80.00,560.00 L80.00,548.00 Q80.00,540.00 88.00,540.00 Z" fill="#111111"/>
  <path d="M208.00,540.00 L220.00,540.00 L220.00,560.00 L208.00,560.00 Q200.00,560.00 200.00,552.00 L200.00,548.00 Q200.00,540.00 208.00,540.00 Z" fill="#111111"/>
  <path d="M220.00,540.00 L240.00,540.00 L240.00,552.00 Q240.00,560.00 232.00,560.00 L220.00,560.00 L220.00,540.00 Z" fill="#111111"/>
  <path d="M268.00,540.00 L280.00,540.00 L280.00,560.00 L260.00,560.00 L260.00,548.00 Q260.00,540.00 268.00,540.00 Z" fill="#111111"/>
  <path d="M280.00,540.00 L292.00,540.00 Q300.00,540.00 300.00,548.00 L300.00,552.00 Q300.00,560.00 292.00,560.00 L280.00,560.00 L280.00,540.00 Z" fill="#111111"/>
  <path d="M588.00,540.00 L592.00,540.00 Q600.00,540.00 600.00,548.00 L600.00,560.00 L580.00,560.00 L580.00,548.00 Q580.00,540.00 588.00,540.00 Z" fill="#111111"/>
  <path d="M628.00,540.00 L632.00,540.00 Q640.00,540.00 640.00,548.00 L640.00,560.00 L620.00,560.00 L620.00,548.00 Q620.00,540.00 628.00,540.00 Z" fill="#111111"/>
  <path d="M688.00,540.00 L700.00,540.00 L700.00,560.00 L688.00,560.00 Q680.00,560.00 680.00,552.00 L680.00,548.00 Q680.00,540.00 688.00,540.00 Z" fill="#111111"/>
  <path d="M700.00,540.00 L712.00,540.00 Q720.00,540.00 720.00,548.00 L720.00,560.00 L700.00,560.00 L700.00,540.00 Z" fill="#111111"/>
  <path d="M748.00,540.00 L752.00,540.00 Q760.00,540.00 760.00,548.00 L760.00,552.00 Q760.00,560.00 752.00,560.00 L748.00,560.00 Q740.00,560.00 740.00,552.00 L740.00,548.00 Q740.00,540.00 748.00,540.00 Z" fill="#111111"/>
  <path d="M48.00,560.00 L52.00,560.00 Q60.00,560.00 60.00,568.00 L60.00,580.00 L40.00,580.00 L40.00,568.00 Q40.00,560.00 48.00,560.00 Z" fill="#111111"/>
  <path d="M80.00,560.00 L100.00,560.00 L100.00,580.00 L80.00,580.00 L80.00,560.00 Z" fill="#111111"/>
  <path d="M148.00,560.00 L160.00,560.00 L160.00,580.00 L148.00,580.00 Q140.00,580.00 140.00,572.00 L140.00,568.00 Q140.00,560.00 148.00,560.00 Z" fill="#111111"/>
  <path d="M160.00,560.00 L172.00,560.00 Q180.00,560.00 180.00,568.00 L180.00,572.00 Q180.00,580.00 172.00,580.00 L160.00,580.00 L160.00,560.00 Z" fill="#111111"/>
  <path d="M248.00,560.00 L260.00,560.00 L260.00,580.00 L240.00,580.00 L240.00,568.00 Q240.00,560.00 248.00,560.00 Z" fill="#111111"/>
  <path d="M260.00,560.00 L280.00,560.00 L280.00,580.00 L260.00,580.00 L260.00,560.00 Z" fill="#111111"/>
  <path d="M308.00,560.00 L312.00,560.00 Q320.00,560.00 320.00,568.00 L320.00,580.00 L300.00,580.00 L300.00,568.00 Q300.00,560.00 308.00,560.00 Z" fill="#111111"/>
  <path d="M580.00,560.00 L600.00,560.00 L600.00,580.00 L580.00,580.00 L580.00,560.00 Z" fill="#111111"/>
  <path d="M600.00,560.00 L620.00,560.00 L620.00,580.00 L600.00,580.00 L600.00,560.00 Z" fill="#111111"/>
  <path d="M620.00,560.00 L640.00,560.00 L640.00,580.00 L620.00,580.00 L620.00,560.00 Z" fill="#111111"/>
  <path d="M668.00,560.00 L672.00,560.00 Q680.00,560.00 680.00,568.00 L680.00,580.00 L660.00,580.00 L660.00,568.00 Q660.00,560.00 668.00,560.00 Z" fill="#111111"/>
  <path d="M700.00,560.00 L720.00,560.00 L720.00,572.00 Q720.00,580.00 712.00,580.00 L708.00,580.00 Q700.00,580.00 700.00,572.00 L700.00,560.00 Z" fill="#111111"/>
  <path d="M788.00,560.00 L800.00,560.00 L800.00,580.00 L780.00,580.00 L780.00,568.00 Q780.00,560.00 788.00,560.00 Z" fill="#111111"/>
  <path d="M800.00,560.00 L820.00,560.00 L820.00,580.00 L800.00,580.00 L800.00,560.00 Z" fill="#111111"/>
  <path d="M820.00,560.00 L832.00,560.00 Q840.00,560.00 840.00,568.00 L840.00,572.00 Q840.00,580.00 832.00,580.00 L820.00,580.00 L820.00,560.00 Z" fill="#111111"/>
  <path d="M40.00,580.00 L60.00,580.00 L60.00,600.00 L40.00,600.00 L40.00,580.00 Z" fill="#111111"/>
  <path d="M80.00,580.00 L100.00,580.00 L100.00,592.00 Q100.00,600.00 92.00,600.00 L88.00,600.00 Q80.00,600.00 80.00,592.00 L80.00,580.00 Z" fill="#111111"/>
  <path d="M128.00,580.00 L132.00,580.00 Q140.00,580.00 140.00,588.00 L140.00,592.00 Q140.00,600.00 132.00,600.00 L128.00,600.00 Q120.00,600.00 120.00,592.00 L120.00,588.00 Q120.00,580.00 128.00,580.00 Z" fill="#111111"/>
  <path d="M188.00,580.00 L192.00,580.00 Q200.00,580.00 200.00,588.00 L200.00,592.00 Q200.00,600.00 192.00,600.00 L188.00,600.00 Q180.00,600.00 180.00,592.00 L180.00,588.00 Q180.00,580.00 188.00,580.00 Z" fill="#111111"/>
  <path d="M240.00,580.00 L260.00,580.00 L260.00,600.00 L248.00,600.00 Q240.00,600.00 240.00,592.00 L240.00,580.00 Z" fill="#111111"/>
  <path d="M260.00,580.00 L280.00,580.00 L280.00,600.00 L260.00,600.00 L260.00,580.00 Z" fill="#111111"/>
  <path d="M300.00,580.00 L320.00,580.00 L320.00,600.00 L300.00,600.00 L300.00,580.00 Z" fill="#111111"/>
  <path d="M388.00,580.00 L392.00,580.00 Q400.00,580.00 400.00,588.00 L400.00,600.00 L380.00,600.00 L380.00,588.00 Q380.00,580.00 388.00,580.00 Z" fill="#111111"/>
  <path d="M448.00,580.00 L452.00,580.00 Q460.00,580.00 460.00,588.00 L460.00,592.00 Q460.00,600.00 452.00,600.00 L448.00,600.00 Q440.00,600.00 440.00,592.00 L440.00,588.00 Q440.00,580.00 448.00,580.00 Z" fill="#111111"/>
  <path d="M508.00,580.00 L520.00,580.00 L520.00,600.00 L508.00,600.00 Q500.00,600.00 500.00,592.00 L500.00,588.00 Q500.00,580.00 508.00,580.00 Z" fill="#111111"/>
  <path d="M520.00,580.00 L540.00,580.00 L540.00,600.00 L520.00,600.00 L520.00,580.00 Z" fill="#111111"/>
  <path d="M540.00,580.00 L560.00,580.00 L560.00,600.00 L540.00,600.00 L540.00,580.00 Z" fill="#111111"/>
  <path d="M560.00,580.00 L580.00,580.00 L580.00,600.00 L560.00,600.00 L560.00,580.00 Z" fill="#111111"/>
  <path d="M580.00,580.00 L600.00,580.00 L600.00,600.00 L580.00,600.00 L580.00,580.00 Z" fill="#111111"/>
  <path d="M620.00,580.00 L640.00,580.00 L640.00,600.00 L628.00,600.00 Q620.00,600.00 620.00,592.00 L620.00,580.00 Z" fill="#111111"/>
  <path d="M640.00,580.00 L660.00,580.00 L660.00,600.00 L640.00,600.00 L640.00,580.00 Z" fill="#111111"/>
  <path d="M660.00,580.00 L680.00,580.00 L680.00,600.00 L660.00,600.00 L660.00,580.00 Z" fill="#111111"/>
  <path d="M680.00,580.00 L692.00,580.00 Q700.00,580.00 700.00,588.00 L700.00,592.00 Q700.00,600.00 692.00,600.00 L680.00,600.00 L680.00,580.00 Z" fill="#111111"/>
  <path d="M748.00,580.00 L752.00,580.00 Q760.00,580.00 760.00,588.00 L760.00,600.00 L740.00,600.00 L740.00,588.00 Q740.00,580.00 748.00,580.00 Z" fill="#111111"/>
  <path d="M780.00,580.00 L800.00,580.00 L800.00,592.00 Q800.00,600.00 792.00,600.00 L788.00,600.00 Q780.00,600.00 780.00,592.00 L780.00,580.00 Z" fill="#111111"/>
  <path d="M40.00,600.00 L60.00,600.00 L60.00,620.00 L40.00,620.00 L40.00,600.00 Z" fill="#111111"/>
  <path d="M108.00,600.00 L112.00,600.00 Q120.00,600.00 120.00,608.00 L120.00,612.00 Q120.00,620.00 112.00,620.00 L108.00,620.00 Q100.00,620.00 100.00,612.00 L100.00,608.00 Q100.00,600.00 108.00,600.00 Z" fill="#111111"/>
  <path d="M148.00,600.00 L160.00,600.00 L160.00,620.00 L140.00,620.00 L140.00,608.00 Q140.00,600.00 148.00,600.00 Z" fill="#111111"/>
  <path d="M160.00,600.00 L172.00,600.00 Q180.00,600.00 180.00,608.00 L180.00,612.00 Q180.00,620.00 172.00,620.00 L160.00,620.00 L160.00,600.00 Z" fill="#111111"/>
  <path d="M228.00,600.00 L232.00,600.00 Q240.00,600.00 240.00,608.00 L240.00,612.00 Q240.00,620.00 232.00,620.00 L228.00,620.00 Q220.00,620.00 220.00,612.00 L220.00,608.00 Q220.00,600.00 228.00,600.00 Z" fill="#111111"/>
  <path d="M260.00,600.00 L280.00,600.00 L280.00,612.00 Q280.00,620.00 272.00,620.00 L268.00,620.00 Q260.00,620.00 260.00,612.00 L260.00,600.00 Z" fill="#111111"/>
  <path d="M300.00,600.00 L320.00,600.00 L320.00,620.00 L300.00,620.00 L300.00,600.00 Z" fill="#111111"/>
  <path d="M320.00,600.00 L340.00,600.00 L340.00,620.00 L320.00,620.00 L320.00,600.00 Z" fill="#111111"/>
  <path d="M340.00,600.00 L360.00,600.00 L360.00,620.00 L340.00,620.00 L340.00,600.00 Z" fill="#111111"/>
  <path d="M360.00,600.00 L380.00,600.00 L380.00,620.00 L360.00,620.00 L360.00,600.00 Z" fill="#111111"/>
  <path d="M380.00,600.00 L400.00,600.00 L400.00,612.00 Q400.00,620.00 392.00,620.00 L380.00,620.00 L380.00,600.00 Z" fill="#111111"/>
  <path d="M468.00,600.00 L472.00,600.00 Q480.00,600.00 480.00,608.00 L480.00,620.00 L460.00,620.00 L460.00,608.00 Q460.00,600.00 468.00,600.00 Z" fill="#111111"/>
  <path d="M540.00,600.00 L560.00,600.00 L560.00,620.00 L540.00,620.00 L540.00,600.00 Z" fill="#111111"/>
  <path d="M580.00,600.00 L600.00,600.00 L600.00,620.00 L580.00,620.00 L580.00,600.00 Z" fill="#111111"/>
  <path d="M600.00,600.00 L612.00,600.00 Q620.00,600.00 620.00,608.00 L620.00,612.00 Q620.00,620.00 612.00,620.00 L600.00,620.00 L600.00,600.00 Z" fill="#111111"/>
  <path d="M660.00,600.00 L680.00,600.00 L680.00,612.00 Q680.00,620.00 672.00,620.00 L668.00,620.00 Q660.00,620.00 660.00,612.00 L660.00,600.00 Z" fill="#111111"/>
  <path d="M708.00,600.00 L712.00,600.00 Q720.00,600.00 720.00,608.00 L720.00,612.00 Q720.00,620.00 712.00,620.00 L708.00,620.00 Q700.00,620.00 700.00,612.00 L700.00,608.00 Q700.00,600.00 708.00,600.00 Z" fill="#111111"/>
  <path d="M740.00,600.00 L760.00,600.00 L760.00,620.00 L748.00,620.00 Q740.00,620.00 740.00,612.00 L740.00,600.00 Z" fill="#111111"/>
  <path d="M760.00,600.00 L772.00,600.00 Q780.00,600.00 780.00,608.00 L780.00,620.00 L760.00,620.00 L760.00,600.00 Z" fill="#111111"/>
  <path d="M808.00,600.00 L820.00,600.00 L820.00,620.00 L800.00,620.00 L800.00,608.00 Q800.00,600.00 808.00,600.00 Z" fill="#111111"/>
  <path d="M820.00,600.00 L832.00,600.00 Q840.00,600.00 840.00,608.00 L840.00,620.00 L820.00,620.00 L820.00,600.00 Z" fill="#111111"/>
  <path d="M40.00,620.00 L60.00,620.00 L60.00,640.00 L40.00,640.00 L40.00,620.00 Z" fill="#111111"/>
  <path d="M60.00,620.00 L72.00,620.00 Q80.00,620.00 80.00,628.00 L80.00,632.00 Q80.00,640.00 72.00,640.00 L60.00,640.00 L60.00,620.00 Z" fill="#111111"/>
  <path d="M140.00,620.00 L160.00,620.00 L160.00,640.00 L140.00,640.00 L140.00,620.00 Z" fill="#111111"/>
  <path d="M188.00,620.00 L200.00,620.00 L200.00,640.00 L188.00,640.00 Q180.00,640.00 180.00,632.00 L180.00,628.00 Q180.00,620.00 188.00,620.00 Z" fill="#111111"/>
  <path d="M200.00,620.00 L212.00,620.00 Q220.00,620.00 220.00,628.00 L220.00,632.00 Q220.00,640.00 212.00,640.00 L200.00,640.00 L200.00,620.00 Z" fill="#111111"/>
  <path d="M248.00,620.00 L252.00,620.00 Q260.00,620.00 260.00,628.00 L260.00,640.00 L240.00,640.00 L240.00,628.00 Q240.00,620.00 248.00,620.00 Z" fill="#111111"/>
  <path d="M288.00,620.00 L300.00,620.00 L300.00,640.00 L280.00,640.00 L280.00,628.00 Q280.00,620.00 288.00,620.00 Z" fill="#111111"/>
  <path d="M300.00,620.00 L320.00,620.00 L320.00,640.00 L300.00,640.00 L300.00,620.00 Z" fill="#111111"/>
  <path d="M360.00,620.00 L380.00,620.00 L380.00,640.00 L360.00,640.00 L360.00,620.00 Z" fill="#111111"/>
  <path d="M428.00,620.00 L440.00,620.00 L440.00,640.00 L428.00,640.00 Q420.00,640.00 420.00,632.00 L420.00,628.00 Q420.00,620.00 428.00,620.00 Z" fill="#111111"/>
  <path d="M440.00,620.00 L460.00,620.00 L460.00,640.00 L440.00,640.00 L440.00,620.00 Z" fill="#111111"/>
  <path d="M460.00,620.00 L480.00,620.00 L480.00,640.00 L460.00,640.00 L460.00,620.00 Z" fill="#111111"/>
  <path d="M480.00,620.00 L500.00,620.00 L500.00,640.00 L480.00,640.00 L480.00,620.00 Z" fill="#111111"/>
  <path d="M500.00,620.00 L512.00,620.00 Q520.00,620.00 520.00,628.00 L520.00,640.00 L500.00,640.00 L500.00,620.00 Z" fill="#111111"/>
  <path d="M540.00,620.00 L560.00,620.00 L560.00,640.00 L540.00,640.00 L540.00,620.00 Z" fill="#111111"/>
  <path d="M580.00,620.00 L600.00,620.00 L600.00,640.00 L580.00,640.00 L580.00,620.00 Z" fill="#111111"/>
  <path d="M648.00,620.00 L652.00,620.00 Q660.00,620.00 660.00,628.00 L660.00,640.00 L640.00,640.00 L640.00,628.00 Q640.00,620.00 648.00,620.00 Z" fill="#111111"/>
  <path d="M688.00,620.00 L692.00,620.00 Q700.00,620.00 700.00,628.00 L700.00,632.00 Q700.00,640.00 692.00,640.00 L688.00,640.00 Q680.00,640.00 680.00,632.00 L680.00,628.00 Q680.00,620.00 688.00,620.00 Z" fill="#111111"/>
  <path d="M760.00,620.00 L780.00,620.00 L780.00,640.00 L760.00,640.00 L760.00,620.00 Z" fill="#111111"/>
  <path d="M780.00,620.00 L800.00,620.00 L800.00,640.00 L780.00,640.00 L780.00,620.00 Z" fill="#111111"/>
  <path d="M800.00,620.00 L820.00,620.00 L820.00,640.00 L800.00,640.00 L800.00,620.00 Z" fill="#111111"/>
  <path d="M820.00,620.00 L840.00,620.00 L840.00,632.00 Q840.00,640.00 832.00,640.00 L820.00,640.00 L820.00,620.00 Z" fill="#111111"/>
  <path d="M40.00,640.00 L60.00,640.00 L60.00,660.00 L40.00,660.00 L40.00,640.00 Z" fill="#111111"/>
  <path d="M140.00,640.00 L160.00,640.00 L160.00,660.00 L148.00,660.00 Q140.00,660.00 140.00,652.00 L140.00,640.00 Z" fill="#111111"/>
  <path d="M160.00,640.00 L172.00,640.00 Q180.00,640.00 180.00,648.00 L180.00,652.00 Q180.00,660.00 172.00,660.00 L160.00,660.00 L160.00,640.00 Z" fill="#111111"/>
  <path d="M240.00,640.00 L260.00,640.00 L260.00,660.00 L240.00,660.00 L240.00,640.00 Z" fill="#111111"/>
  <path d="M280.00,640.00 L300.00,640.00 L300.00,660.00 L280.00,660.00 L280.00,640.00 Z" fill="#111111"/>
  <path d="M300.00,640.00 L320.00,640.00 L320.00,660.00 L300.00,660.00 L300.00,640.00 Z" fill="#111111"/>
  <path d="M360.00,640.00 L380.00,640.00 L380.00,660.00 L360.00,660.00 L360.00,640.00 Z" fill="#111111"/>
  <path d="M380.00,640.00 L392.00,640.00 Q400.00,640.00 400.00,648.00 L400.00,660.00 L380.00,660.00 L380.00,640.00 Z" fill="#111111"/>
  <path d="M460.00,640.00 L480.00,640.00 L480.00,660.00 L468.00,660.00 Q460.00,660.00 460.00,652.00 L460.00,640.00 Z" fill="#111111"/>
  <path d="M480.00,640.00 L500.00,640.00 L500.00,660.00 L480.00,660.00 L480.00,640.00 Z" fill="#111111"/>
  <path d="M500.00,640.00 L520.00,640.00 L520.00,660.00 L500.00,660.00 L500.00,640.00 Z" fill="#111111"/>
  <path d="M520.00,640.00 L540.00,640.00 L540.00,660.00 L520.00,660.00 L520.00,640.00 Z" fill="#111111"/>
  <path d="M540.00,640.00 L560.00,640.00 L560.00,652.00 Q560.00,660.00 552.00,660.00 L540.00,660.00 L540.00,640.00 Z" fill="#111111"/>
  <path d="M580.00,640.00 L600.00,640.00 L600.00,660.00 L580.00,660.00 L580.00,640.00 Z" fill="#111111"/>
  <path d="M600.00,640.00 L612.00,640.00 Q620.00,640.00 620.00,648.00 L620.00,652.00 Q620.00,660.00 612.00,660.00 L600.00,660.00 L600.00,640.00 Z" fill="#111111"/>
  <path d="M640.00,640.00 L660.00,640.00 L660.00,660.00 L648.00,660.00 Q640.00,660.00 640.00,652.00 L640.00,640.00 Z" fill="#111111"/>
  <path d="M660.00,640.00 L672.00,640.00 Q680.00,640.00 680.00,648.00 L680.00,660.00 L660.00,660.00 L660.00,640.00 Z" fill="#111111"/>
  <path d="M708.00,640.00 L712.00,640.00 Q720.00,640.00 720.00,648.00 L720.00,660.00 L700.00,660.00 L700.00,648.00 Q700.00,640.00 708.00,640.00 Z" fill="#111111"/>
  <path d="M748.00,640.00 L760.00,640.00 L760.00,660.00 L748.00,660.00 Q740.00,660.00 740.00,652.00 L740.00,648.00 Q740.00,640.00 748.00,640.00 Z" fill="#111111"/>
  <path d="M760.00,640.00 L780.00,640.00 L780.00,660.00 L760.00,660.00 L760.00,640.00 Z" fill="#111111"/>
  <path d="M800.00,640.00 L820.00,640.00 L820.00,660.00 L800.00,660.00 L800.00,640.00 Z" fill="#111111"/>
  <path d="M848.00,640.00 L852.00,640.00 Q860.00,640.00 860.00,648.00 L860.00,660.00 L840.00,660.00 L840.00,648.00 Q840.00,640.00 848.00,640.00 Z" fill="#111111"/>
  <path d="M40.00,660.00 L60.00,660.00 L60.00,680.00 L40.00,680.00 L40.00,660.00 Z" fill="#111111"/>
  <path d="M108.00,660.00 L120.00,660.00 L120.00,680.00 L108.00,680.00 Q100.00,680.00 100.00,672.00 L100.00,668.00 Q100.00,660.00 108.00,660.00 Z" fill="#111111"/>
  <path d="M120.00,660.00 L132.00,660.00 Q140.00,660.00 140.00,668.00 L140.00,672.00 Q140.00,680.00 132.00,680.00 L120.00,680.00 L120.00,660.00 Z" fill="#111111"/>
  <path d="M208.00,660.00 L220.00,660.00 L220.00,680.00 L208.00,680.00 Q200.00,680.00 200.00,672.00 L200.00,668.00 Q200.00,660.00 208.00,660.00 Z" fill="#111111"/>
  <path d="M220.00,660.00 L240.00,660.00 L240.00,680.00 L220.00,680.00 L220.00,660.00 Z" fill="#111111"/>
  <path d="M240.00,660.00 L260.00,660.00 L260.00,680.00 L240.00,680.00 L240.00,660.00 Z" fill="#111111"/>
  <path d="M280.00,660.00 L300.00,660.00 L300.00,680.00 L288.00,680.00 Q280.00,680.00 280.00,672.00 L280.00,660.00 Z" fill="#111111"/>
  <path d="M300.00,660.00 L320.00,660.00 L320.00,672.00 Q320.00,680.00 312.00,680.00 L300.00,680.00 L300.00,660.00 Z" fill="#111111"/>
  <path d="M348.00,660.00 L360.00,660.00 L360.00,680.00 L348.00,680.00 Q340.00,680.00 340.00,672.00 L340.00,668.00 Q340.00,660.00 348.00,660.00 Z" fill="#111111"/>
  <path d="M360.00,660.00 L380.00,660.00 L380.00,680.00 L360.00,680.00 L360.00,660.00 Z" fill="#111111"/>
  <path d="M380.00,660.00 L400.00,660.00 L400.00,680.00 L380.00,680.00 L380.00,660.00 Z" fill="#111111"/>
  <path d="M400.00,660.00 L412.00,660.00 Q420.00,660.00 420.00,668.00 L420.00,672.00 Q420.00,680.00 412.00,680.00 L400.00,680.00 L400.00,660.00 Z" fill="#111111"/>
  <path d="M520.00,660.00 L540.00,660.00 L540.00,672.00 Q540.00,680.00 532.00,680.00 L528.00,680.00 Q520.00,680.00 520.00,672.00 L520.00,660.00 Z" fill="#111111"/>
  <path d="M568.00,660.00 L580.00,660.00 L580.00,680.00 L560.00,680.00 L560.00,668.00 Q560.00,660.00 568.00,660.00 Z" fill="#111111"/>
  <path d="M580.00,660.00 L600.00,660.00 L600.00,680.00 L580.00,680.00 L580.00,660.00 Z" fill="#111111"/>
  <path d="M660.00,660.00 L680.00,660.00 L680.00,680.00 L660.00,680.00 L660.00,660.00 Z" fill="#111111"/>
  <path d="M680.00,660.00 L700.00,660.00 L700.00,680.00 L680.00,680.00 L680.00,660.00 Z" fill="#111111"/>
  <path d="M700.00,660.00 L720.00,660.00 L720.00,680.00 L700.00,680.00 L700.00,660.00 Z" fill="#111111"/>
  <path d="M760.00,660.00 L780.00,660.00 L780.00,680.00 L760.00,680.00 L760.00,660.00 Z" fill="#111111"/>
  <path d="M780.00,660.00 L800.00,660.00 L800.00,680.00 L780.00,680.00 L780.00,660.00 Z" fill="#111111"/>
  <path d="M800.00,660.00 L820.00,660.00 L820.00,680.00 L800.00,680.00 L800.00,660.00 Z" fill="#111111"/>
  <path d="M820.00,660.00 L840.00,660.00 L840.00,680.00 L820.00,680.00 L820.00,660.00 Z" fill="#111111"/>
  <path d="M840.00,660.00 L860.00,660.00 L860.00,680.00 L840.00,680.00 L840.00,660.00 Z" fill="#111111"/>
  <path d="M40.00,680.00 L60.00,680.00 L60.00,692.00 Q60.00,700.00 52.00,700.00 L48.00,700.00 Q40.00,700.00 40.00,692.00 L40.00,680.00 Z" fill="#111111"/>
  <path d="M148.00,680.00 L160.00,680.00 L160.00,700.00 L148.00,700.00 Q140.00,700.00 140.00,692.00 L140.00,688.00 Q140.00,680.00 148.00,680.00 Z" fill="#111111"/>
  <path d="M160.00,680.00 L180.00,680.00 L180.00,700.00 L160.00,700.00 L160.00,680.00 Z" fill="#111111"/>
  <path d="M180.00,680.00 L192.00,680.00 Q200.00,680.00 200.00,688.00 L200.00,692.00 Q200.00,700.00 192.00,700.00 L180.00,700.00 L180.00,680.00 Z" fill="#111111"/>
  <path d="M220.00,680.00 L240.00,680.00 L240.00,700.00 L220.00,700.00 L220.00,680.00 Z" fill="#111111"/>
  <path d="M240.00,680.00 L260.00,680.00 L260.00,692.00 Q260.00,700.00 252.00,700.00 L240.00,700.00 L240.00,680.00 Z" fill="#111111"/>
  <path d="M328.00,680.00 L332.00,680.00 Q340.00,680.00 340.00,688.00 L340.00,700.00 L320.00,700.00 L320.00,688.00 Q320.00,680.00 328.00,680.00 Z" fill="#111111"/>
  <path d="M380.00,680.00 L400.00,680.00 L400.00,700.00 L380.00,700.00 L380.00,680.00 Z" fill="#111111"/>
  <path d="M428.00,680.00 L440.00,680.00 L440.00,700.00 L420.00,700.00 L420.00,688.00 Q420.00,680.00 428.00,680.00 Z" fill="#111111"/>
  <path d="M440.00,680.00 L452.00,680.00 Q460.00,680.00 460.00,688.00 L460.00,700.00 L440.00,700.00 L440.00,680.00 Z" fill="#111111"/>
  <path d="M488.00,680.00 L500.00,680.00 L500.00,700.00 L488.00,700.00 Q480.00,700.00 480.00,692.00 L480.00,688.00 Q480.00,680.00 488.00,680.00 Z" fill="#111111"/>
  <path d="M500.00,680.00 L512.00,680.00 Q520.00,680.00 520.00,688.00 L520.00,692.00 Q520.00,700.00 512.00,700.00 L500.00,700.00 L500.00,680.00 Z" fill="#111111"/>
  <path d="M560.00,680.00 L580.00,680.00 L580.00,700.00 L568.00,700.00 Q560.00,700.00 560.00,692.00 L560.00,680.00 Z" fill="#111111"/>
  <path d="M580.00,680.00 L600.00,680.00 L600.00,700.00 L580.00,700.00 L580.00,680.00 Z" fill="#111111"/>
  <path d="M648.00,680.00 L660.00,680.00 L660.00,700.00 L648.00,700.00 Q640.00,700.00 640.00,692.00 L640.00,688.00 Q640.00,680.00 648.00,680.00 Z" fill="#111111"/>
  <path d="M660.00,680.00 L680.00,680.00 L680.00,700.00 L660.00,700.00 L660.00,680.00 Z" fill="#111111"/>
  <path d="M680.00,680.00 L700.00,680.00 L700.00,700.00 L680.00,700.00 L680.00,680.00 Z" fill="#111111"/>
  <path d="M700.00,680.00 L720.00,680.00 L720.00,700.00 L700.00,700.00 L700.00,680.00 Z" fill="#111111"/>
  <path d="M720.00,680.00 L740.00,680.00 L740.00,700.00 L720.00,700.00 L720.00,680.00 Z" fill="#111111"/>
  <path d="M740.00,680.00 L760.00,680.00 L760.00,700.00 L740.00,700.00 L740.00,680.00 Z" fill="#111111"/>
  <path d="M760.00,680.00 L780.00,680.00 L780.00,700.00 L760.00,700.00 L760.00,680.00 Z" fill="#111111"/>
  <path d="M840.00,680.00 L860.00,680.00 L860.00,692.00 Q860.00,700.00 852.00,700.00 L848.00,700.00 Q840.00,700.00 840.00,692.00 L840.00,680.00 Z" fill="#111111"/>
  <path d="M208.00,700.00 L220.00,700.00 L220.00,720.00 L208.00,720.00 Q200.00,720.00 200.00,712.00 L200.00,708.00 Q200.00,700.00 208.00,700.00 Z" fill="#111111"/>
  <path d="M220.00,700.00 L240.00,700.00 L240.00,712.00 Q240.00,720.00 232.00,720.00 L220.00,720.00 L220.00,700.00 Z" fill="#111111"/>
  <path d="M320.00,700.00 L340.00,700.00 L340.00,712.00 Q340.00,720.00 332.00,720.00 L328.00,720.00 Q320.00,720.00 320.00,712.00 L320.00,700.00 Z" fill="#111111"/>
  <path d="M368.00,700.00 L380.00,700.00 L380.00,720.00 L368.00,720.00 Q360.00,720.00 360.00,712.00 L360.00,708.00 Q360.00,700.00 368.00,700.00 Z" fill="#111111"/>
  <path d="M380.00,700.00 L400.00,700.00 L400.00,720.00 L380.00,720.00 L380.00,700.00 Z" fill="#111111"/>
  <path d="M400.00,700.00 L420.00,700.00 L420.00,720.00 L400.00,720.00 L400.00,700.00 Z" fill="#111111"/>
  <path d="M420.00,700.00 L440.00,700.00 L440.00,720.00 L420.00,720.00 L420.00,700.00 Z" fill="#111111"/>
  <path d="M440.00,700.00 L460.00,700.00 L460.00,720.00 L440.00,720.00 L440.00,700.00 Z" fill="#111111"/>
  <path d="M460.00,700.00 L472.00,700.00 Q480.00,700.00 480.00,708.00 L480.00,720.00 L460.00,720.00 L460.00,700.00 Z" fill="#111111"/>
  <path d="M528.00,700.00 L540.00,700.00 L540.00,720.00 L520.00,720.00 L520.00,708.00 Q520.00,700.00 528.00,700.00 Z" fill="#111111"/>
  <path d="M540.00,700.00 L552.00,700.00 Q560.00,700.00 560.00,708.00 L560.00,720.00 L540.00,720.00 L540.00,700.00 Z" fill="#111111"/>
  <path d="M580.00,700.00 L600.00,700.00 L600.00,720.00 L588.00,720.00 Q580.00,720.00 580.00,712.00 L580.00,700.00 Z" fill="#111111"/>
  <path d="M600.00,700.00 L620.00,700.00 L620.00,720.00 L600.00,720.00 L600.00,700.00 Z" fill="#111111"/>
  <path d="M620.00,700.00 L632.00,700.00 Q640.00,700.00 640.00,708.00 L640.00,720.00 L620.00,720.00 L620.00,700.00 Z" fill="#111111"/>
  <path d="M660.00,700.00 L680.00,700.00 L680.00,720.00 L668.00,720.00 Q660.00,720.00 660.00,712.00 L660.00,700.00 Z" fill="#111111"/>
  <path d="M680.00,700.00 L700.00,700.00 L700.00,720.00 L680.00,720.00 L680.00,700.00 Z" fill="#111111"/>
  <path d="M760.00,700.00 L780.00,700.00 L780.00,720.00 L760.00,720.00 L760.00,700.00 Z" fill="#111111"/>
  <path d="M248.00,720.00 L252.00,720.00 Q260.00,720.00 260.00,728.00 L260.00,740.00 L240.00,740.00 L240.00,728.00 Q240.00,720.00 248.00,720.00 Z" fill="#111111"/>
  <path d="M308.00,720.00 L312.00,720.00 Q320.00,720.00 320.00,728.00 L320.00,740.00 L300.00,740.00 L300.00,728.00 Q300.00,720.00 308.00,720.00 Z" fill="#111111"/>
  <path d="M380.00,720.00 L400.00,720.00 L400.00,740.00 L380.00,740.00 L380.00,720.00 Z" fill="#111111"/>
  <path d="M400.00,720.00 L420.00,720.00 L420.00,732.00 Q420.00,740.00 412.00,740.00 L400.00,740.00 L400.00,720.00 Z" fill="#111111"/>
  <path d="M460.00,720.00 L480.00,720.00 L480.00,732.00 Q480.00,740.00 472.00,740.00 L468.00,740.00 Q460.00,740.00 460.00,732.00 L460.00,720.00 Z" fill="#111111"/>
  <path d="M520.00,720.00 L540.00,720.00 L540.00,740.00 L520.00,740.00 L520.00,720.00 Z" fill="#111111"/>
  <path d="M540.00,720.00 L560.00,720.00 L560.00,740.00 L540.00,740.00 L540.00,720.00 Z" fill="#111111"/>
  <path d="M620.00,720.00 L640.00,720.00 L640.00,740.00 L620.00,740.00 L620.00,720.00 Z" fill="#111111"/>
  <path d="M680.00,720.00 L700.00,720.00 L700.00,740.00 L680.00,740.00 L680.00,720.00 Z" fill="#111111"/>
  <path d="M728.00,720.00 L732.00,720.00 Q740.00,720.00 740.00,728.00 L740.00,732.00 Q740.00,740.00 732.00,740.00 L728.00,740.00 Q720.00,740.00 720.00,732.00 L720.00,728.00 Q720.00,720.00 728.00,720.00 Z" fill="#111111"/>
  <path d="M760.00,720.00 L780.00,720.00 L780.00,740.00 L760.00,740.00 L760.00,720.00 Z" fill="#111111"/>
  <path d="M780.00,720.00 L792.00,720.00 Q800.00,720.00 800.00,728.00 L800.00,732.00 Q800.00,740.00 792.00,740.00 L780.00,740.00 L780.00,720.00 Z" fill="#111111"/>
  <path d="M828.00,720.00 L832.00,720.00 Q840.00,720.00 840.00,728.00 L840.00,732.00 Q840.00,740.00 832.00,740.00 L828.00,740.00 Q820.00,740.00 820.00,732.00 L820.00,728.00 Q820.00,720.00 828.00,720.00 Z" fill="#111111"/>
  <path d="M240.00,740.00 L260.00,740.00 L260.00,760.00 L248.00,760.00 Q240.00,760.00 240.00,752.00 L240.00,740.00 Z" fill="#111111"/>
  <path d="M260.00,740.00 L280.00,740.00 L280.00,760.00 L260.00,760.00 L260.00,740.00 Z" fill="#111111"/>
  <path d="M280.00,740.00 L300.00,740.00 L300.00,760.00 L280.00,760.00 L280.00,740.00 Z" fill="#111111"/>
  <path d="M300.00,740.00 L320.00,740.00 L320.00,760.00 L300.00,760.00 L300.00,740.00 Z" fill="#111111"/>
  <path d="M348.00,740.00 L352.00,740.00 Q360.00,740.00 360.00,748.00 L360.00,752.00 Q360.00,760.00 352.00,760.00 L348.00,760.00 Q340.00,760.00 340.00,752.00 L340.00,748.00 Q340.00,740.00 348.00,740.00 Z" fill="#111111"/>
  <path d="M380.00,740.00 L400.00,740.00 L400.00,760.00 L380.00,760.00 L380.00,740.00 Z" fill="#111111"/>
  <path d="M428.00,740.00 L432.00,740.00 Q440.00,740.00 440.00,748.00 L440.00,752.00 Q440.00,760.00 432.00,760.00 L428.00,760.00 Q420.00,760.00 420.00,752.00 L420.00,748.00 Q420.00,740.00 428.00,740.00 Z" fill="#111111"/>
  <path d="M520.00,740.00 L540.00,740.00 L540.00,760.00 L528.00,760.00 Q520.00,760.00 520.00,752.00 L520.00,740.00 Z" fill="#111111"/>
  <path d="M540.00,740.00 L560.00,740.00 L560.00,760.00 L540.00,760.00 L540.00,740.00 Z" fill="#111111"/>
  <path d="M560.00,740.00 L572.00,740.00 Q580.00,740.00 580.00,748.00 L580.00,752.00 Q580.00,760.00 572.00,760.00 L560.00,760.00 L560.00,740.00 Z" fill="#111111"/>
  <path d="M608.00,740.00 L620.00,740.00 L620.00,760.00 L600.00,760.00 L600.00,748.00 Q600.00,740.00 608.00,740.00 Z" fill="#111111"/>
  <path d="M620.00,740.00 L640.00,740.00 L640.00,760.00 L620.00,760.00 L620.00,740.00 Z" fill="#111111"/>
  <path d="M640.00,740.00 L652.00,740.00 Q660.00,740.00 660.00,748.00 L660.00,752.00 Q660.00,760.00 652.00,760.00 L640.00,760.00 L640.00,740.00 Z" fill="#111111"/>
  <path d="M680.00,740.00 L700.00,740.00 L700.00,760.00 L680.00,760.00 L680.00,740.00 Z" fill="#111111"/>
  <path d="M760.00,740.00 L780.00,740.00 L780.00,760.00 L760.00,760.00 L760.00,740.00 Z" fill="#111111"/>
  <path d="M208.00,760.00 L220.00,760.00 L220.00,780.00 L200.00,780.00 L200.00,768.00 Q200.00,760.00 208.00,760.00 Z" fill="#111111"/>
  <path d="M220.00,760.00 L232.00,760.00 Q240.00,760.00 240.00,768.00 L240.00,780.00 L220.00,780.00 L220.00,760.00 Z" fill="#111111"/>
  <path d="M260.00,760.00 L280.00,760.00 L280.00,772.00 Q280.00,780.00 272.00,780.00 L268.00,780.00 Q260.00,780.00 260.00,772.00 L260.00,760.00 Z" fill="#111111"/>
  <path d="M300.00,760.00 L320.00,760.00 L320.00,780.00 L308.00,780.00 Q300.00,780.00 300.00,772.00 L300.00,760.00 Z" fill="#111111"/>
  <path d="M320.00,760.00 L332.00,760.00 Q340.00,760.00 340.00,768.00 L340.00,772.00 Q340.00,780.00 332.00,780.00 L320.00,780.00 L320.00,760.00 Z" fill="#111111"/>
  <path d="M368.00,760.00 L380.00,760.00 L380.00,780.00 L360.00,780.00 L360.00,768.00 Q360.00,760.00 368.00,760.00 Z" fill="#111111"/>
  <path d="M380.00,760.00 L400.00,760.00 L400.00,780.00 L380.00,780.00 L380.00,760.00 Z" fill="#111111"/>
  <path d="M468.00,760.00 L472.00,760.00 Q480.00,760.00 480.00,768.00 L480.00,772.00 Q480.00,780.00 472.00,780.00 L468.00,780.00 Q460.00,780.00 460.00,772.00 L460.00,768.00 Q460.00,760.00 468.00,760.00 Z" fill="#111111"/>
  <path d="M540.00,760.00 L560.00,760.00 L560.00,780.00 L540.00,780.00 L540.00,760.00 Z" fill="#111111"/>
  <path d="M600.00,760.00 L620.00,760.00 L620.00,772.00 Q620.00,780.00 612.00,780.00 L608.00,780.00 Q600.00,780.00 600.00,772.00 L600.00,760.00 Z" fill="#111111"/>
  <path d="M680.00,760.00 L700.00,760.00 L700.00,780.00 L688.00,780.00 Q680.00,780.00 680.00,772.00 L680.00,760.00 Z" fill="#111111"/>
  <path d="M700.00,760.00 L720.00,760.00 L720.00,780.00 L700.00,780.00 L700.00,760.00 Z" fill="#111111"/>
  <path d="M720.00,760.00 L740.00,760.00 L740.00,780.00 L720.00,780.00 L720.00,760.00 Z" fill="#111111"/>
  <path d="M740.00,760.00 L760.00,760.00 L760.00,780.00 L740.00,780.00 L740.00,760.00 Z" fill="#111111"/>
  <path d="M760.00,760.00 L780.00,760.00 L780.00,780.00 L760.00,780.00 L760.00,760.00 Z" fill="#111111"/>
  <path d="M780.00,760.00 L792.00,760.00 Q800.00,760.00 800.00,768.00 L800.00,780.00 L780.00,780.00 L780.00,760.00 Z" fill="#111111"/>
  <path d="M828.00,760.00 L832.00,760.00 Q840.00,760.00 840.00,768.00 L840.00,780.00 L820.00,780.00 L820.00,768.00 Q820.00,760.00 828.00,760.00 Z" fill="#111111"/>
  <path d="M200.00,780.00 L220.00,780.00 L220.00,800.00 L200.00,800.00 L200.00,780.00 Z" fill="#111111"/>
  <path d="M220.00,780.00 L240.00,780.00 L240.00,800.00 L220.00,800.00 L220.00,780.00 Z" fill="#111111"/>
  <path d="M240.00,780.00 L252.00,780.00 Q260.00,780.00 260.00,788.00 L260.00,800.00 L240.00,800.00 L240.00,780.00 Z" fill="#111111"/>
  <path d="M288.00,780.00 L292.00,780.00 Q300.00,780.00 300.00,788.00 L300.00,800.00 L280.00,800.00 L280.00,788.00 Q280.00,780.00 288.00,780.00 Z" fill="#111111"/>
  <path d="M360.00,780.00 L380.00,780.00 L380.00,800.00 L360.00,800.00 L360.00,780.00 Z" fill="#111111"/>
  <path d="M380.00,780.00 L400.00,780.00 L400.00,792.00 Q400.00,800.00 392.00,800.00 L380.00,800.00 L380.00,780.00 Z" fill="#111111"/>
  <path d="M428.00,780.00 L440.00,780.00 L440.00,800.00 L428.00,800.00 Q420.00,800.00 420.00,792.00 L420.00,788.00 Q420.00,780.00 428.00,780.00 Z" fill="#111111"/>
  <path d="M440.00,780.00 L452.00,780.00 Q460.00,780.00 460.00,788.00 L460.00,792.00 Q460.00,800.00 452.00,800.00 L440.00,800.00 L440.00,780.00 Z" fill="#111111"/>
  <path d="M488.00,780.00 L500.00,780.00 L500.00,800.00 L480.00,800.00 L480.00,788.00 Q480.00,780.00 488.00,780.00 Z" fill="#111111"/>
  <path d="M500.00,780.00 L512.00,780.00 Q520.00,780.00 520.00,788.00 L520.00,800.00 L500.00,800.00 L500.00,780.00 Z" fill="#111111"/>
  <path d="M540.00,780.00 L560.00,780.00 L560.00,800.00 L540.00,800.00 L540.00,780.00 Z" fill="#111111"/>
  <path d="M588.00,780.00 L592.00,780.00 Q600.00,780.00 600.00,788.00 L600.00,800.00 L580.00,800.00 L580.00,788.00 Q580.00,780.00 588.00,780.00 Z" fill="#111111"/>
  <path d="M628.00,780.00 L640.00,780.00 L640.00,800.00 L620.00,800.00 L620.00,788.00 Q620.00,780.00 628.00,780.00 Z" fill="#111111"/>
  <path d="M640.00,780.00 L660.00,780.00 L660.00,800.00 L640.00,800.00 L640.00,780.00 Z" fill="#111111"/>
  <path d="M660.00,780.00 L672.00,780.00 Q680.00,780.00 680.00,788.00 L680.00,792.00 Q680.00,800.00 672.00,800.00 L660.00,800.00 L660.00,780.00 Z" fill="#111111"/>
  <path d="M700.00,780.00 L720.00,780.00 L720.00,800.00 L700.00,800.00 L700.00,780.00 Z" fill="#111111"/>
  <path d="M780.00,780.00 L800.00,780.00 L800.00,800.00 L788.00,800.00 Q780.00,800.00 780.00,792.00 L780.00,780.00 Z" fill="#111111"/>
  <path d="M800.00,780.00 L820.00,780.00 L820.00,800.00 L800.00,800.00 L800.00,780.00 Z" fill="#111111"/>
  <path d="M820.00,780.00 L840.00,780.00 L840.00,800.00 L820.00,800.00 L820.00,780.00 Z" fill="#111111"/>
  <path d="M200.00,800.00 L220.00,800.00 L220.00,812.00 Q220.00,820.00 212.00,820.00 L208.00,820.00 Q200.00,820.00 200.00,812.00 L200.00,800.00 Z" fill="#111111"/>
  <path d="M240.00,800.00 L260.00,800.00 L260.00,812.00 Q260.00,820.00 252.00,820.00 L248.00,820.00 Q240.00,820.00 240.00,812.00 L240.00,800.00 Z" fill="#111111"/>
  <path d="M280.00,800.00 L300.00,800.00 L300.00,820.00 L280.00,820.00 L280.00,800.00 Z" fill="#111111"/>
  <path d="M300.00,800.00 L312.00,800.00 Q320.00,800.00 320.00,808.00 L320.00,820.00 L300.00,820.00 L300.00,800.00 Z" fill="#111111"/>
  <path d="M360.00,800.00 L380.00,800.00 L380.00,820.00 L360.00,820.00 L360.00,800.00 Z" fill="#111111"/>
  <path d="M408.00,800.00 L412.00,800.00 Q420.00,800.00 420.00,808.00 L420.00,812.00 Q420.00,820.00 412.00,820.00 L408.00,820.00 Q400.00,820.00 400.00,812.00 L400.00,808.00 Q400.00,800.00 408.00,800.00 Z" fill="#111111"/>
  <path d="M480.00,800.00 L500.00,800.00 L500.00,820.00 L488.00,820.00 Q480.00,820.00 480.00,812.00 L480.00,800.00 Z" fill="#111111"/>
  <path d="M500.00,800.00 L520.00,800.00 L520.00,820.00 L500.00,820.00 L500.00,800.00 Z" fill="#111111"/>
  <path d="M520.00,800.00 L540.00,800.00 L540.00,820.00 L520.00,820.00 L520.00,800.00 Z" fill="#111111"/>
  <path d="M540.00,800.00 L560.00,800.00 L560.00,820.00 L540.00,820.00 L540.00,800.00 Z" fill="#111111"/>
  <path d="M580.00,800.00 L600.00,800.00 L600.00,820.00 L580.00,820.00 L580.00,800.00 Z" fill="#111111"/>
  <path d="M600.00,800.00 L620.00,800.00 L620.00,820.00 L600.00,820.00 L600.00,800.00 Z" fill="#111111"/>
  <path d="M620.00,800.00 L640.00,800.00 L640.00,820.00 L620.00,820.00 L620.00,800.00 Z" fill="#111111"/>
  <path d="M700.00,800.00 L720.00,800.00 L720.00,812.00 Q720.00,820.00 712.00,820.00 L708.00,820.00 Q700.00,820.00 700.00,812.00 L700.00,800.00 Z" fill="#111111"/>
  <path d="M748.00,800.00 L760.00,800.00 L760.00,820.00 L748.00,820.00 Q740.00,820.00 740.00,812.00 L740.00,808.00 Q740.00,800.00 748.00,800.00 Z" fill="#111111"/>
  <path d="M760.00,800.00 L772.00,800.00 Q780.00,800.00 780.00,808.00 L780.00,820.00 L760.00,820.00 L760.00,800.00 Z" fill="#111111"/>
  <path d="M800.00,800.00 L820.00,800.00 L820.00,820.00 L800.00,820.00 L800.00,800.00 Z" fill="#111111"/>
  <path d="M820.00,800.00 L840.00,800.00 L840.00,820.00 L820.00,820.00 L820.00,800.00 Z" fill="#111111"/>
  <path d="M228.00,820.00 L232.00,820.00 Q240.00,820.00 240.00,828.00 L240.00,832.00 Q240.00,840.00 232.00,840.00 L228.00,840.00 Q220.00,840.00 220.00,832.00 L220.00,828.00 Q220.00,820.00 228.00,820.00 Z" fill="#111111"/>
  <path d="M280.00,820.00 L300.00,820.00 L300.00,840.00 L280.00,840.00 L280.00,820.00 Z" fill="#111111"/>
  <path d="M300.00,820.00 L320.00,820.00 L320.00,840.00 L300.00,840.00 L300.00,820.00 Z" fill="#111111"/>
  <path d="M320.00,820.00 L340.00,820.00 L340.00,840.00 L320.00,840.00 L320.00,820.00 Z" fill="#111111"/>
  <path d="M340.00,820.00 L360.00,820.00 L360.00,840.00 L340.00,840.00 L340.00,820.00 Z" fill="#111111"/>
  <path d="M360.00,820.00 L380.00,820.00 L380.00,840.00 L360.00,840.00 L360.00,820.00 Z" fill="#111111"/>
  <path d="M520.00,820.00 L540.00,820.00 L540.00,840.00 L520.00,840.00 L520.00,820.00 Z" fill="#111111"/>
  <path d="M540.00,820.00 L560.00,820.00 L560.00,840.00 L540.00,840.00 L540.00,820.00 Z" fill="#111111"/>
  <path d="M560.00,820.00 L580.00,820.00 L580.00,840.00 L560.00,840.00 L560.00,820.00 Z" fill="#111111"/>
  <path d="M580.00,820.00 L600.00,820.00 L600.00,840.00 L580.00,840.00 L580.00,820.00 Z" fill="#111111"/>
  <path d="M620.00,820.00 L640.00,820.00 L640.00,840.00 L628.00,840.00 Q620.00,840.00 620.00,832.00 L620.00,820.00 Z" fill="#111111"/>
  <path d="M640.00,820.00 L652.00,820.00 Q660.00,820.00 660.00,828.00 L660.00,832.00 Q660.00,840.00 652.00,840.00 L640.00,840.00 L640.00,820.00 Z" fill="#111111"/>
  <path d="M728.00,820.00 L732.00,820.00 Q740.00,820.00 740.00,828.00 L740.00,840.00 L720.00,840.00 L720.00,828.00 Q720.00,820.00 728.00,820.00 Z" fill="#111111"/>
  <path d="M760.00,820.00 L780.00,820.00 L780.00,840.00 L760.00,840.00 L760.00,820.00 Z" fill="#111111"/>
  <path d="M780.00,820.00 L800.00,820.00 L800.00,840.00 L780.00,840.00 L780.00,820.00 Z" fill="#111111"/>
  <path d="M800.00,820.00 L820.00,820.00 L820.00,840.00 L800.00,840.00 L800.00,820.00 Z" fill="#111111"/>
  <path d="M820.00,820.00 L840.00,820.00 L840.00,832.00 Q840.00,840.00 832.00,840.00 L820.00,840.00 L820.00,820.00 Z" fill="#111111"/>
  <path d="M280.00,840.00 L300.00,840.00 L300.00,852.00 Q300.00,860.00 292.00,860.00 L288.00,860.00 Q280.00,860.00 280.00,852.00 L280.00,840.00 Z" fill="#111111"/>
  <path d="M360.00,840.00 L380.00,840.00 L380.00,852.00 Q380.00,860.00 372.00,860.00 L368.00,860.00 Q360.00,860.00 360.00,852.00 L360.00,840.00 Z" fill="#111111"/>
  <path d="M428.00,840.00 L432.00,840.00 Q440.00,840.00 440.00,848.00 L440.00,852.00 Q440.00,860.00 432.00,860.00 L428.00,860.00 Q420.00,860.00 420.00,852.00 L420.00,848.00 Q420.00,840.00 428.00,840.00 Z" fill="#111111"/>
  <path d="M468.00,840.00 L480.00,840.00 L480.00,860.00 L468.00,860.00 Q460.00,860.00 460.00,852.00 L460.00,848.00 Q460.00,840.00 468.00,840.00 Z" fill="#111111"/>
  <path d="M480.00,840.00 L500.00,840.00 L500.00,860.00 L480.00,860.00 L480.00,840.00 Z" fill="#111111"/>
  <path d="M500.00,840.00 L520.00,840.00 L520.00,860.00 L500.00,860.00 L500.00,840.00 Z" fill="#111111"/>
  <path d="M520.00,840.00 L540.00,840.00 L540.00,852.00 Q540.00,860.00 532.00,860.00 L520.00,860.00 L520.00,840.00 Z" fill="#111111"/>
  <path d="M580.00,840.00 L600.00,840.00 L600.00,852.00 Q600.00,860.00 592.00,860.00 L588.00,860.00 Q580.00,860.00 580.00,852.00 L580.00,840.00 Z" fill="#111111"/>
  <path d="M668.00,840.00 L680.00,840.00 L680.00,860.00 L668.00,860.00 Q660.00,860.00 660.00,852.00 L660.00,848.00 Q660.00,840.00 668.00,840.00 Z" fill="#111111"/>
  <path d="M680.00,840.00 L700.00,840.00 L700.00,860.00 L680.00,860.00 L680.00,840.00 Z" fill="#111111"/>
  <path d="M700.00,840.00 L720.00,840.00 L720.00,860.00 L700.00,860.00 L700.00,840.00 Z" fill="#111111"/>
  <path d="M720.00,840.00 L740.00,840.00 L740.00,860.00 L720.00,860.00 L720.00,840.00 Z" fill="#111111"/>
  <path d="M740.00,840.00 L760.00,840.00 L760.00,860.00 L740.00,860.00 L740.00,840.00 Z" fill="#111111"/>
  <path d="M760.00,840.00 L780.00,840.00 L780.00,852.00 Q780.00,860.00 772.00,860.00 L760.00,860.00 L760.00,840.00 Z" fill="#111111"/>
  <path d="M100.00,40.00 L180.00,40.00 L180.00,180.00 L40.00,180.00 L40.00,100.00 Q40.00,40.00 100.00,40.00 Z" fill="#111111"/>
  <path d="M100.00,60.00 L160.00,60.00 L160.00,160.00 L60.00,160.00 L60.00,100.00 Q60.00,60.00 100.00,60.00 Z" fill="white"/>
  <path d="M100.00,80.00 L140.00,80.00 L140.00,140.00 L80.00,140.00 L80.00,100.00 Q80.00,80.00 100.00,80.00 Z" fill="#111111"/>
  <path d="M720.00,40.00 L800.00,40.00 Q860.00,40.00 860.00,100.00 L860.00,180.00 L720.00,180.00 L720.00,40.00 Z" fill="#111111"/>
  <path d="M740.00,60.00 L800.00,60.00 Q840.00,60.00 840.00,100.00 L840.00,160.00 L740.00,160.00 L740.00,60.00 Z" fill="white"/>
  <path d="M760.00,80.00 L800.00,80.00 Q820.00,80.00 820.00,100.00 L820.00,140.00 L760.00,140.00 L760.00,80.00 Z" fill="#111111"/>
  <path d="M40.00,720.00 L180.00,720.00 L180.00,860.00 L100.00,860.00 Q40.00,860.00 40.00,800.00 L40.00,720.00 Z" fill="#111111"/>
  <path d="M60.00,740.00 L160.00,740.00 L160.00,840.00 L100.00,840.00 Q60.00,840.00 60.00,800.00 L60.00,740.00 Z" fill="white"/>
  <path d="M80.00,760.00 L140.00,760.00 L140.00,820.00 L100.00,820.00 Q80.00,820.00 80.00,800.00 L80.00,760.00 Z" fill="#111111"/>
  <g transform="translate(320.00,320.00) scale(0.260000,0.260000)">
<defs>
    <style>
      .cls-1 {
        fill: #1971f2;
      }

      .cls-2 {
        fill: #fff;
      }
    </style>
  </defs>
  <rect class="cls-2" width="1000" height="1000"/>
  <g id="Layer_1" data-name="Layer 1">
    <g id="Layer_3" data-name="Layer 3">
      <rect class="cls-1" x="85.9" y="85.19" width="828.8" height="828.8" rx="115" ry="115"/>
      <g>
        <circle class="cls-2" cx="315.49" cy="326.3" r="111.57"/>
        <path class="cls-2" d="M778.68,264.39v526.03h-168.44v-146.03c-6.45,6.01-13.06,11.86-19.87,17.56-50.59,42.38-109.77,75.05-175.92,97.13-62.26,20.79-127.98,31.33-195.3,31.33v-168.44c188.62,0,378.93-110.57,378.93-357.59h180.59Z"/>
      </g>
    </g>
  </g>
  </g>
</svg>